<?xml version="1.0" encoding="utf-8"?>
<!-- Generator: Adobe Illustrator 26.4.1, SVG Export Plug-In . SVG Version: 6.00 Build 0)  -->
<svg version="1.1" id="Layer_1" xmlns="http://www.w3.org/2000/svg" xmlns:xlink="http://www.w3.org/1999/xlink" x="0px" y="0px"
	 viewBox="0 0 378.6 102.3" style="enable-background:new 0 0 378.6 102.3;" xml:space="preserve">
<style type="text/css">
	.st0{fill:#007284;}
	.st1{fill:#045768;}
	.st2{fill:#FFFFFF;}
	.st3{fill:none;}
</style>
<g>
	<path class="st0" d="M-0.2,0h378.6v102.3H-0.2V0z"/>
	<path class="st1" d="M0.3-0.1h378.3v27.7H0.3V-0.1z"/>
	<path class="st2" d="M5.4,38.6h1v7.6h-1V38.6z"/>
	<path class="st2" d="M12.4,42.8c0-1.2-0.7-1.8-1.7-1.8S9,41.6,9,42.9v3.3H8v-6h1v0.8c0.4-0.6,1.2-1,1.9-1c1.3-0.1,2.4,0.9,2.4,2.2
		c0,0.1,0,0.3,0,0.4v3.5h-1V42.8z"/>
	<path class="st2" d="M14.8,41.8h4.3v0.8h-4.3V41.8z"/>
	<path class="st2" d="M21,38.2h1v2.9c0.4-0.6,1.2-1,2-1c1.3-0.1,2.3,0.9,2.4,2.2c0,0.1,0,0.2,0,0.4v3.5h-1v-3.4
		c0-1.2-0.7-1.8-1.7-1.8S22,41.6,22,42.9v3.3h-1L21,38.2z"/>
	<path class="st2" d="M30.5,46.3c-1.6,0-2.9-1.2-3-2.8c0-0.1,0-0.2,0-0.3c0-1.7,1.3-3,3-3c1.7,0,3,1.3,3,3c0.1,1.6-1.2,3-2.8,3.1
		C30.7,46.3,30.6,46.3,30.5,46.3 M30.5,45.4c1.1,0,2-0.9,2.1-2c0-0.1,0-0.2,0-0.2c0.1-1.1-0.7-2.1-1.8-2.2c-0.1,0-0.1,0-0.2,0
		c-1.1,0-2,0.9-2,1.9c0,0.1,0,0.2,0,0.3c-0.1,1.1,0.6,2.1,1.7,2.2C30.3,45.4,30.4,45.4,30.5,45.4"/>
	<path class="st2" d="M40.2,46.2h-1v-0.9c-0.4,0.6-1.1,1-1.9,1c-1.3,0.1-2.4-0.9-2.5-2.2c0-0.1,0-0.2,0-0.4v-3.5h1v3.4
		c-0.1,0.9,0.5,1.7,1.3,1.8c0.1,0,0.2,0,0.3,0c1,0,1.7-0.6,1.7-1.9v-3.3h1V46.2z"/>
	<path class="st2" d="M43.9,46.3c-1.4,0-2.4-0.8-2.4-1.8h1c0.1,0.6,0.6,1,1.4,1c0.8,0,1.2-0.4,1.2-0.9c0-1.3-3.5-0.6-3.5-2.8
		c0-0.9,0.9-1.7,2.2-1.7c1.1-0.1,2.1,0.6,2.2,1.7c0,0,0,0.1,0,0.1h-1c-0.1-0.6-0.6-1.1-1.2-1c0,0,0,0,0,0c-0.7,0-1.2,0.3-1.2,0.8
		c0,1.4,3.5,0.6,3.5,2.8C46.1,45.6,45.3,46.3,43.9,46.3"/>
	<path class="st2" d="M50.1,46.3c-1.6,0-2.9-1.2-3-2.8c0-0.1,0-0.2,0-0.3c-0.1-1.6,1-2.9,2.6-3.1c0.1,0,0.2,0,0.4,0
		c1.5-0.1,2.8,1.1,2.9,2.6c0,0.1,0,0.2,0,0.3c0,0.2,0,0.4,0,0.6h-4.8c0,1,0.8,1.9,1.9,1.9c0,0,0,0,0.1,0c0.7,0.1,1.4-0.4,1.7-1.1
		h1.1C52.5,45.6,51.3,46.4,50.1,46.3 M48.2,42.8h3.8c0-1-0.7-1.8-1.7-1.8c-0.1,0-0.1,0-0.2,0C49,41,48.2,41.8,48.2,42.8"/>
	<path class="st2" d="M59.6,40.1c0.9,0,1.8,0.4,2.2,1.2v-1.1h1v6.1c0.1,1.5-1,2.7-2.5,2.8c-0.1,0-0.2,0-0.3,0
		c-1.3,0.2-2.6-0.7-2.9-2.1h1c0.3,0.8,1.1,1.3,1.9,1.2c1,0,1.8-0.7,1.8-1.7c0-0.1,0-0.2,0-0.3v-1.2c-0.5,0.8-1.3,1.2-2.2,1.2
		c-1.6,0-2.9-1.3-2.8-2.9c0-0.1,0-0.1,0-0.2c-0.1-1.6,1-2.9,2.6-3C59.4,40.2,59.5,40.1,59.6,40.1 M59.8,41c-1.1,0-2,0.9-2,2
		c0,0.1,0,0.1,0,0.2c0.1,1.1,1.1,1.9,2.2,1.8c1.1-0.1,1.9-1.1,1.8-2.2C61.7,41.8,60.8,41,59.8,41"/>
	<path class="st2" d="M65.5,46.2h-1v-6h1v1c0.4-0.7,1.1-1.1,1.9-1.1v1h-0.3c-0.9,0-1.7,0.4-1.7,1.8V46.2z"/>
	<path class="st2" d="M71,40.1c0.9,0,1.8,0.4,2.2,1.2v-1.1h1v6h-1v-1.1c-0.5,0.8-1.3,1.2-2.2,1.2c-1.6,0-2.8-1.3-2.8-2.9
		c0-0.1,0-0.1,0-0.2c-0.1-1.6,1-2.9,2.6-3C70.8,40.2,70.9,40.1,71,40.1 M71.2,41c-1.1,0-2,0.9-2,2c0,0.1,0,0.1,0,0.2
		c0.1,1.1,1.1,1.9,2.2,1.8c1.1-0.1,1.9-1.1,1.8-2.2C73.1,41.8,72.2,41,71.2,41"/>
	<path class="st2" d="M80.2,42.8c0-1.2-0.7-1.8-1.7-1.8c-1,0-1.7,0.6-1.7,1.9v3.3h-1v-6h1v0.8c0.4-0.6,1.2-1,1.9-1
		c1.3-0.1,2.4,0.9,2.4,2.2c0,0.1,0,0.3,0,0.4v3.5h-1V42.8z"/>
	<path class="st2" d="M85.4,46.3c-1.6,0-2.9-1.2-3-2.8c0-0.1,0-0.2,0-0.3c0-1.7,1.3-3,2.9-3.1s3,1.3,3.1,2.9c0,0.1,0,0.1,0,0.2
		c0.1,1.6-1.2,3-2.8,3.1C85.6,46.3,85.5,46.3,85.4,46.3 M85.4,45.4c1.1,0,2-0.9,2.1-2c0-0.1,0-0.2,0-0.2c0.1-1.1-0.7-2.1-1.8-2.2
		c-0.1,0-0.2,0-0.2,0c-1.1,0-2,0.9-2,1.9c0,0.1,0,0.2,0,0.3c-0.1,1.1,0.6,2.1,1.7,2.2C85.2,45.4,85.3,45.4,85.4,45.4"/>
	<path class="st2" d="M89.8,38.2h1v8h-1V38.2z"/>
	<path class="st2" d="M94.9,40.1c0.9,0,1.8,0.4,2.2,1.2v-1.1h1v6h-1v-1.1c-0.5,0.8-1.3,1.2-2.2,1.2c-1.6,0-2.8-1.3-2.8-2.9
		c0-0.1,0-0.1,0-0.2c-0.1-1.6,1-2.9,2.6-3C94.7,40.2,94.8,40.1,94.9,40.1 M95.1,41c-1.1,0-2,0.9-2,2c0,0.1,0,0.1,0,0.2
		c0.1,1.1,1.1,1.9,2.2,1.8c1.1-0.1,1.9-1.1,1.8-2.2C97,41.8,96.1,41,95.1,41"/>
	<path class="st2" d="M7.8,63.4c-1.5,0-2.6-0.8-2.6-2.1h1.1c0.1,0.8,0.8,1.3,1.5,1.3c0,0,0,0,0,0c1,0,1.5-0.5,1.5-1.3
		c0-2-4.1-0.7-4.1-3.6c0-1.3,1-2.1,2.5-2.1c1.2-0.1,2.3,0.7,2.5,1.9H9.1c-0.1-0.7-0.8-1.2-1.5-1.1c-0.8,0-1.5,0.4-1.5,1.2
		c0,2,4.1,0.7,4.1,3.5c-0.1,1.3-1.1,2.2-2.4,2.2C7.9,63.4,7.8,63.4,7.8,63.4"/>
	<path class="st2" d="M12,58.2h-0.8v-0.8H12v-1.5h1v1.5h1.5v0.8H13v3.5c0,0.6,0.2,0.8,0.8,0.8h0.7v0.8h-0.9c-1.1,0-1.7-0.4-1.7-1.6
		L12,58.2z"/>
	<path class="st2" d="M18.3,63.4c-1.6,0-2.9-1.2-3-2.8c0-0.1,0-0.2,0-0.3c-0.1-1.6,1-2.9,2.6-3.1c0.1,0,0.2,0,0.4,0
		c1.5-0.1,2.8,1.1,2.9,2.6c0,0.1,0,0.2,0,0.3c0,0.2,0,0.4,0,0.6h-4.8c0,1,0.8,1.9,1.9,1.9c0,0,0,0,0.1,0c0.7,0.1,1.4-0.4,1.7-1.1H21
		C20.7,62.7,19.5,63.5,18.3,63.4 M16.4,59.9h3.8c0-1-0.7-1.8-1.7-1.8c-0.1,0-0.1,0-0.2,0C17.2,58.1,16.4,58.9,16.4,59.9"/>
	<path class="st2" d="M25,63.4c-1.6,0-2.9-1.2-3-2.8c0-0.1,0-0.2,0-0.3c-0.1-1.6,1-2.9,2.6-3.1c0.1,0,0.2,0,0.4,0
		c1.5-0.1,2.8,1.1,2.9,2.6c0,0.1,0,0.2,0,0.3c0,0.2,0,0.4,0,0.6h-4.8c0,1,0.8,1.9,1.9,1.9c0,0,0,0,0.1,0c0.7,0.1,1.4-0.4,1.7-1.1
		h1.1C27.4,62.7,26.3,63.5,25,63.4 M23.1,59.9h3.8c0-1-0.7-1.8-1.7-1.8c-0.1,0-0.1,0-0.2,0C23.9,58.1,23.1,58.9,23.1,59.9"/>
	<path class="st2" d="M29.2,55.3h1v8h-1V55.3z"/>
	<path class="st2" d="M37.3,57.3c1.3-0.1,2.5,0.7,2.7,2H39c-0.2-0.7-0.9-1.2-1.7-1.2c-1.1,0-1.9,0.8-1.9,2.2c0,1.5,0.8,2.2,1.9,2.2
		c0.8,0.1,1.5-0.4,1.7-1.2H40c-0.3,1.2-1.5,2.1-2.7,2c-1.6,0-2.9-1.2-2.9-2.8c0-0.1,0-0.2,0-0.3c-0.1-1.6,1-2.9,2.6-3.1
		C37.1,57.3,37.2,57.3,37.3,57.3"/>
	<path class="st2" d="M46.6,63.3h-1v-0.9c-0.4,0.6-1.1,1-1.9,1c-1.3,0.1-2.4-0.9-2.5-2.2c0-0.1,0-0.2,0-0.4v-3.5h1v3.4
		c-0.1,0.9,0.5,1.7,1.3,1.8c0.1,0,0.2,0,0.3,0c1,0,1.7-0.6,1.7-1.9v-3.3h1L46.6,63.3z"/>
	<path class="st2" d="M48.5,58.2h-0.8v-0.8h0.8v-1.5h1v1.5H51v0.8h-1.6v3.5c0,0.6,0.2,0.8,0.8,0.8H51v0.8h-0.9
		c-1.1,0-1.7-0.4-1.7-1.6V58.2z"/>
	<path class="st2" d="M57.7,63.4c-1.7,0-3.1-1.4-3.1-3.1c0-1.7,1.4-3.1,3.1-3.1c1.7,0,3.1,1.4,3.1,3.1c0,0,0,0,0,0
		c0.1,1.6-1.2,3-2.8,3.1C57.9,63.4,57.8,63.4,57.7,63.4 M57.7,62.5c1.1,0,2-0.9,2.1-2c0-0.1,0-0.2,0-0.2c0.1-1.1-0.7-2.1-1.8-2.2
		c-0.1,0-0.2,0-0.2,0c-1.1,0-2,0.9-2,1.9c0,0.1,0,0.2,0,0.3c-0.1,1.1,0.6,2.1,1.7,2.2C57.6,62.5,57.6,62.5,57.7,62.5"/>
	<path class="st2" d="M64.5,57.3c0.9,0,1.8,0.4,2.2,1.2v-1.1h1v6h-1v-1.1c-0.5,0.8-1.3,1.2-2.2,1.2c-1.6,0-2.8-1.3-2.8-2.9
		c0-0.1,0-0.1,0-0.2c-0.1-1.6,1-2.9,2.6-3C64.4,57.3,64.5,57.3,64.5,57.3 M64.7,58.1c-1.1,0-2,0.9-2,2c0,0.1,0,0.1,0,0.2
		c0.1,1.1,1.1,1.9,2.2,1.8s1.9-1.1,1.8-2.2C66.7,58.9,65.8,58.1,64.7,58.1"/>
	<path class="st2" d="M69.7,58.2h-0.8v-0.8h0.8v-1.5h1v1.5h1.6v0.8h-1.6v3.5c0,0.6,0.2,0.8,0.8,0.8h0.7v0.8h-0.9
		c-1.1,0-1.7-0.4-1.7-1.6V58.2z"/>
	<path class="st2" d="M75.5,63.4c-1.4,0-2.4-0.8-2.4-1.8h1c0.1,0.6,0.6,1,1.4,1c0.8,0,1.2-0.4,1.2-0.9c0-1.3-3.5-0.6-3.5-2.8
		c0-0.9,0.9-1.7,2.2-1.7c1.1-0.1,2.1,0.6,2.2,1.7c0,0,0,0.1,0,0.1h-1c-0.1-0.6-0.6-1.1-1.2-1c0,0,0,0,0,0c-0.7,0-1.2,0.3-1.2,0.8
		c0,1.4,3.5,0.6,3.5,2.8C77.7,62.7,76.8,63.4,75.5,63.4"/>
	<path class="st2" d="M11.7,76.7c0,2.3-1.5,3.8-4,3.8H5.4v-7.6h2.4C10.2,72.9,11.7,74.3,11.7,76.7 M7.7,79.6c1.5,0.2,2.8-0.9,3-2.4
		c0-0.2,0-0.4,0-0.6c0.2-1.5-0.9-2.8-2.4-3c-0.2,0-0.4,0-0.6,0H6.4v6L7.7,79.6z"/>
	<path class="st2" d="M15.6,80.5c-1.6,0-2.9-1.2-3-2.8c0-0.1,0-0.2,0-0.3c-0.1-1.6,1-2.9,2.6-3.1c0.1,0,0.2,0,0.4,0
		c1.5-0.1,2.8,1.1,2.9,2.6c0,0.1,0,0.2,0,0.3c0,0.2,0,0.4,0,0.6h-4.8c0,1,0.8,1.9,1.9,1.9c0,0,0,0,0.1,0c0.7,0.1,1.4-0.4,1.7-1.1
		h1.1C18,79.8,16.9,80.6,15.6,80.5 M13.7,77h3.8c0-1-0.7-1.8-1.7-1.8c-0.1,0-0.1,0-0.2,0C14.6,75.2,13.7,76,13.7,77"/>
	<path class="st2" d="M21.9,80.5c-1.4,0-2.4-0.8-2.4-1.8h1c0.1,0.6,0.6,1,1.4,1c0.8,0,1.2-0.4,1.2-0.9c0-1.3-3.5-0.6-3.5-2.8
		c0-0.9,0.9-1.7,2.2-1.7c1.1-0.1,2.1,0.6,2.2,1.7c0,0,0,0.1,0,0.1h-1c-0.1-0.6-0.6-1.1-1.2-1c0,0,0,0,0,0c-0.7,0-1.2,0.3-1.2,0.8
		c0,1.4,3.5,0.6,3.5,2.8C24.1,79.8,23.2,80.5,21.9,80.5"/>
	<path class="st2" d="M25.3,72.8c0-0.4,0.3-0.7,0.7-0.6c0.4,0,0.7,0.3,0.6,0.7c0,0.4-0.3,0.6-0.7,0.6C25.6,73.5,25.3,73.2,25.3,72.8
		C25.3,72.9,25.3,72.9,25.3,72.8 M25.5,74.5h1v6h-1V74.5z"/>
	<path class="st2" d="M30.7,74.4c1.3-0.1,2.5,0.7,2.7,2h-1.1c-0.2-0.7-0.9-1.2-1.7-1.2c-1.1,0-1.9,0.8-1.9,2.2
		c0,1.5,0.8,2.2,1.9,2.2c0.8,0.1,1.5-0.4,1.7-1.2h1.1c-0.3,1.2-1.5,2.1-2.7,2c-1.7-0.1-3-1.6-2.9-3.3C27.9,75.7,29.1,74.5,30.7,74.4
		"/>
	<path class="st2" d="M37.2,74.4c1.3-0.1,2.5,0.7,2.7,2h-1.1c-0.2-0.7-0.9-1.2-1.7-1.2c-1.1,0-1.9,0.8-1.9,2.2
		c0,1.5,0.8,2.2,1.9,2.2c0.8,0.1,1.5-0.4,1.7-1.2H40c-0.3,1.2-1.5,2.1-2.7,2c-1.7-0.1-3-1.6-2.9-3.3C34.5,75.7,35.7,74.5,37.2,74.4"
		/>
	<path class="st2" d="M43.8,74.4c0.9,0,1.8,0.4,2.2,1.2v-1.1h1v6h-1v-1.1c-0.5,0.8-1.3,1.2-2.2,1.2c-1.6,0-2.8-1.3-2.8-2.9
		c0-0.1,0-0.1,0-0.2c-0.1-1.6,1-2.9,2.6-3C43.6,74.4,43.7,74.4,43.8,74.4 M44,75.3c-1.1,0-2,0.9-2,2c0,0.1,0,0.1,0,0.2
		c0.1,1.1,1.1,1.9,2.2,1.8s1.9-1.1,1.8-2.2C45.9,76.1,45,75.3,44,75.3"/>
	<path class="st2" d="M48.9,75.3h-0.8v-0.8h0.8V73h1v1.5h1.6v0.8h-1.6v3.5c0,0.6,0.2,0.8,0.8,0.8h0.7v0.8h-0.9
		c-1.1,0-1.7-0.4-1.7-1.6V75.3z"/>
	<path class="st2" d="M55.2,80.5c-1.6,0-2.9-1.2-3-2.8c0-0.1,0-0.2,0-0.3c-0.1-1.6,1-2.9,2.6-3.1c0.1,0,0.2,0,0.4,0
		c1.5-0.1,2.8,1.1,2.9,2.6c0,0.1,0,0.2,0,0.3c0,0.2,0,0.4,0,0.6h-4.8c0,1,0.8,1.9,1.9,1.9c0,0,0,0,0.1,0c0.7,0.1,1.4-0.4,1.7-1.1
		h1.1C57.6,79.8,56.4,80.6,55.2,80.5 M53.3,77H57c0-1-0.7-1.8-1.7-1.8c-0.1,0-0.1,0-0.2,0C54.1,75.2,53.3,76,53.3,77"/>
	<path class="st2" d="M61.8,74.4c0.9,0,1.7,0.4,2.2,1.2v-3.2h1v8h-1v-1.1c-0.5,0.8-1.3,1.3-2.2,1.2c-1.6,0-2.9-1.3-2.8-2.9
		c0-0.1,0-0.1,0-0.2c-0.1-1.6,1-2.9,2.6-3C61.6,74.4,61.7,74.4,61.8,74.4 M62,75.2c-1.1,0-2,0.9-2,2c0,0.1,0,0.1,0,0.2
		c0.1,1.1,1.1,1.9,2.2,1.8c1.1-0.1,1.9-1.1,1.8-2.2C63.9,76,63,75.2,62,75.2"/>
	<path class="st2" d="M72.1,74.4c1.3-0.1,2.5,0.7,2.7,2h-1.1c-0.2-0.7-0.9-1.2-1.7-1.2c-1.1,0-1.9,0.8-1.9,2.2
		c0,1.5,0.8,2.2,1.9,2.2c0.8,0.1,1.5-0.4,1.7-1.2h1.1c-0.3,1.2-1.5,2.1-2.7,2c-1.7-0.1-3-1.6-2.9-3.3C69.3,75.7,70.6,74.5,72.1,74.4
		"/>
	<path class="st2" d="M78.8,80.5c-1.7,0-3.1-1.4-3.1-3.1c0-1.7,1.4-3.1,3.1-3.1c1.7,0,3.1,1.4,3.1,3.1c0,0,0,0,0,0
		c0.1,1.6-1.2,3-2.8,3.1C78.9,80.5,78.9,80.5,78.8,80.5 M78.8,79.7c1.1,0,2-0.9,2.1-2c0-0.1,0-0.2,0-0.2c0.1-1.1-0.7-2.1-1.8-2.2
		c-0.1,0-0.1,0-0.2,0c-1.2,0.1-2.1,1.2-2,2.4C76.9,78.7,77.7,79.5,78.8,79.7"/>
	<path class="st2" d="M85.7,74.4c1.3-0.1,2.5,0.7,2.7,2h-1.1c-0.2-0.7-0.9-1.2-1.7-1.2c-1.1,0-1.9,0.8-1.9,2.2
		c0,1.5,0.8,2.2,1.9,2.2c0.8,0.1,1.5-0.4,1.7-1.2h1.1c-0.3,1.2-1.5,2.1-2.7,2c-1.7-0.1-3-1.6-2.9-3.3C82.9,75.7,84.1,74.5,85.7,74.4
		"/>
	<path class="st2" d="M92.3,80.5c-1.7,0-3.1-1.4-3.1-3.1c0-1.7,1.4-3.1,3.1-3.1c1.7,0,3.1,1.4,3.1,3.1c0,0,0,0,0,0
		c0.1,1.6-1.2,3-2.8,3.1C92.5,80.5,92.4,80.5,92.3,80.5 M92.3,79.7c1.1,0,2-0.9,2.1-2c0-0.1,0-0.2,0-0.2c0.1-1.1-0.7-2.1-1.8-2.2
		c-0.1,0-0.2,0-0.2,0c-1.2,0.1-2.1,1.2-2,2.4C90.5,78.7,91.3,79.5,92.3,79.7"/>
	<path class="st2" d="M101,77.1c0-1.2-0.7-1.8-1.7-1.8s-1.7,0.6-1.7,1.9v3.3h-1v-6h1v0.8c0.4-0.6,1.2-1,1.9-1
		c1.3-0.1,2.4,0.9,2.4,2.2c0,0.1,0,0.3,0,0.4v3.5h-1V77.1z"/>
	<path class="st2" d="M108.9,80.4h-1v-0.9c-0.4,0.6-1.1,1-1.9,1c-1.3,0.1-2.4-0.9-2.5-2.2c0-0.1,0-0.2,0-0.4v-3.5h1v3.4
		c-0.1,0.9,0.5,1.7,1.3,1.8c0.1,0,0.2,0,0.3,0c1,0,1.7-0.6,1.7-1.9v-3.3h1L108.9,80.4z"/>
	<path class="st2" d="M110.8,75.3H110v-0.8h0.8V73h1v1.5h1.6v0.8h-1.6v3.5c0,0.6,0.2,0.8,0.8,0.8h0.7v0.8h-0.9
		c-1.1,0-1.7-0.4-1.7-1.6V75.3z"/>
	<path class="st2" d="M117.6,75.3h-0.8v-0.8h0.8v-0.4c0-1.3,0.7-1.9,2.2-1.9V73c-0.9,0-1.2,0.3-1.2,1.1v0.4h1.2v0.8h-1.2v5.1h-1
		V75.3z"/>
	<path class="st2" d="M121,72.4h1v8h-1V72.4z"/>
	<path class="st2" d="M126.1,74.4c0.9,0,1.8,0.4,2.2,1.2v-1.1h1v6h-1v-1.1c-0.5,0.8-1.3,1.2-2.2,1.2c-1.6,0-2.8-1.3-2.8-2.9
		c0-0.1,0-0.1,0-0.2c-0.1-1.6,1-2.9,2.6-3C126,74.4,126.1,74.4,126.1,74.4 M126.3,75.3c-1.1,0-2,0.9-2,2c0,0.1,0,0.1,0,0.2
		c0.1,1.1,1.1,1.9,2.2,1.8c1.1-0.1,1.9-1.1,1.8-2.2C128.3,76.1,127.4,75.3,126.3,75.3"/>
	<path class="st2" d="M131,72.4h1v4.7l2.3-2.6h1.4l-2.8,3l2.8,3h-1.3l-2.3-2.6v2.6h-1L131,72.4z"/>
	<path class="st2" d="M139.2,80.5c-1.6,0-2.9-1.2-3-2.8c0-0.1,0-0.2,0-0.3c-0.1-1.6,1-2.9,2.6-3.1c0.1,0,0.2,0,0.4,0
		c1.5-0.1,2.8,1.1,2.9,2.6c0,0.1,0,0.2,0,0.3c0,0.2,0,0.4,0,0.6h-4.8c0,1,0.8,1.9,1.9,1.9c0,0,0,0,0.1,0c0.7,0.1,1.4-0.4,1.7-1.1
		h1.1C141.6,79.8,140.4,80.6,139.2,80.5 M137.3,77h3.8c0-1-0.7-1.8-1.7-1.8c-0.1,0-0.1,0-0.2,0C138.1,75.2,137.3,76,137.3,77"/>
	<path class="st2" d="M145.5,80.5c-1.2,0.2-2.3-0.7-2.4-1.8h1c0.1,0.6,0.6,1,1.4,1c0.8,0,1.2-0.4,1.2-0.9c0-1.3-3.5-0.6-3.5-2.8
		c0-0.9,0.9-1.7,2.2-1.7c1.1-0.1,2.1,0.6,2.2,1.7c0,0,0,0.1,0,0.1h-1c-0.1-0.6-0.6-1.1-1.2-1c0,0,0,0,0,0c-0.7,0-1.2,0.3-1.2,0.8
		c0,1.4,3.5,0.6,3.5,2.8C147.6,79.8,146.8,80.5,145.5,80.5"/>
	<path class="st2" d="M7.8,97.6c-1.5,0-2.6-0.8-2.6-2.1h1.1c0.1,0.8,0.8,1.3,1.5,1.3c0,0,0,0,0,0c1,0,1.5-0.5,1.5-1.3
		c0-2-4.1-0.7-4.1-3.6c0-1.3,1-2.1,2.5-2.1c1.2-0.1,2.3,0.7,2.5,1.9H9.1c-0.1-0.7-0.8-1.2-1.5-1.1c-0.8,0-1.5,0.4-1.5,1.2
		c0,2,4.1,0.7,4.1,3.5c-0.1,1.3-1.1,2.2-2.4,2.2C7.9,97.7,7.8,97.6,7.8,97.6"/>
	<path class="st2" d="M17,97.6h-1v-0.9c-0.4,0.6-1.1,1-1.9,1c-1.3,0.1-2.4-0.9-2.5-2.2c0-0.1,0-0.2,0-0.4v-3.5h1V95
		c-0.1,0.9,0.5,1.7,1.3,1.8c0.1,0,0.2,0,0.3,0c1,0,1.7-0.6,1.7-1.9v-3.3h1L17,97.6z"/>
	<path class="st2" d="M23.1,94.2c0-1.2-0.7-1.8-1.7-1.8c-1,0-1.7,0.6-1.7,1.9v3.3h-1v-6h1v0.8c0.4-0.6,1.2-1,1.9-1
		c1.3-0.1,2.4,0.9,2.4,2.2c0,0.1,0,0.3,0,0.4v3.5h-1V94.2z"/>
	<path class="st2" d="M25.8,92.4h-0.8v-0.8h0.8v-0.4c0-1.3,0.7-1.9,2.2-1.9v0.8c-0.9,0-1.2,0.3-1.2,1.1v0.4h1.2v0.8h-1.2v5.1h-1
		L25.8,92.4z"/>
	<path class="st2" d="M29.2,89.5h1v8h-1V89.5z"/>
	<path class="st2" d="M34.5,97.7c-1.7,0-3.1-1.4-3.1-3.1c0-1.7,1.4-3.1,3.1-3.1s3.1,1.4,3.1,3.1c0,0,0,0,0,0c0.1,1.6-1.2,3-2.8,3.1
		C34.6,97.7,34.6,97.7,34.5,97.7 M34.5,96.8c1.1,0,2-0.9,2.1-2c0-0.1,0-0.2,0-0.2c0.1-1.1-0.7-2.1-1.8-2.2c-0.1,0-0.2,0-0.2,0
		c-1.2,0.1-2.1,1.2-2,2.4C32.7,95.9,33.5,96.7,34.5,96.8"/>
	<path class="st2" d="M38.1,91.6h1l1.4,5l1.5-5h1l1.4,5l1.3-5h1l-1.9,6h-1l-1.4-4.7L41,97.6h-1L38.1,91.6z"/>
	<path class="st2" d="M50.3,97.7c-1.6,0-2.9-1.2-3-2.8c0-0.1,0-0.2,0-0.3c-0.1-1.6,1-2.9,2.6-3.1c0.1,0,0.2,0,0.4,0
		c1.5-0.1,2.8,1.1,2.9,2.6c0,0.1,0,0.2,0,0.3c0,0.2,0,0.4,0,0.6h-4.8c0,1,0.8,1.9,1.9,1.9c0,0,0,0,0.1,0c0.7,0.1,1.4-0.4,1.7-1.1
		h1.1C52.7,96.9,51.6,97.7,50.3,97.7 M48.4,94.1h3.8c0-1-0.7-1.8-1.7-1.8c-0.1,0-0.1,0-0.2,0C49.3,92.3,48.4,93.1,48.4,94.1"/>
	<path class="st2" d="M55.5,97.6h-1v-6h1v1c0.4-0.7,1.1-1.1,1.9-1.1v1h-0.3c-0.9,0-1.7,0.4-1.7,1.8V97.6z"/>
	<path class="st2" d="M63.5,97.7c-1.4,0-2.4-0.8-2.4-1.8h1c0.1,0.6,0.6,1,1.4,1c0.8,0,1.2-0.4,1.2-0.9c0-1.3-3.5-0.6-3.5-2.8
		c0-0.9,0.9-1.7,2.2-1.7c1.1-0.1,2.1,0.6,2.2,1.7c0,0,0,0.1,0,0.1h-1c-0.1-0.6-0.6-1.1-1.2-1c0,0,0,0,0,0c-0.7,0-1.2,0.3-1.2,0.8
		c0,1.4,3.5,0.6,3.5,2.8C65.7,96.9,64.9,97.7,63.5,97.7"/>
	<path class="st2" d="M69.7,97.7c-1.6,0-2.9-1.2-3-2.8c0-0.1,0-0.2,0-0.3c-0.1-1.6,1-2.9,2.6-3.1c0.1,0,0.2,0,0.4,0
		c1.5-0.1,2.8,1.1,2.9,2.6c0,0.1,0,0.2,0,0.3c0,0.2,0,0.4,0,0.6h-4.8c0,1,0.8,1.9,1.9,1.9c0,0,0,0,0.1,0c0.7,0.1,1.4-0.4,1.7-1.1
		h1.1C72.1,96.9,70.9,97.7,69.7,97.7 M67.8,94.1h3.8c0-1-0.7-1.8-1.7-1.8c-0.1,0-0.1,0-0.2,0C68.6,92.3,67.8,93.1,67.8,94.1"/>
	<path class="st2" d="M76.4,97.7c-1.6,0-2.9-1.2-3-2.8c0-0.1,0-0.2,0-0.3c-0.1-1.6,1-2.9,2.6-3.1c0.1,0,0.2,0,0.4,0
		c1.5-0.1,2.8,1.1,2.9,2.6c0,0.1,0,0.2,0,0.3c0,0.2,0,0.4,0,0.6h-4.8c0,1,0.8,1.9,1.9,1.9c0,0,0,0,0.1,0c0.7,0.1,1.4-0.4,1.7-1.1
		h1.1C78.8,96.9,77.7,97.7,76.4,97.7 M74.5,94.2h3.8c0-1-0.7-1.8-1.7-1.8c-0.1,0-0.1,0-0.2,0C75.4,92.3,74.5,93.1,74.5,94.2"/>
	<path class="st2" d="M83,91.5c0.9,0,1.7,0.4,2.2,1.2v-3.2h1v8h-1v-1.1c-0.5,0.8-1.3,1.3-2.2,1.2c-1.6,0-2.8-1.3-2.8-2.9
		c0-0.1,0-0.1,0-0.2c-0.1-1.6,1-2.9,2.6-3C82.9,91.5,83,91.5,83,91.5 M83.2,92.4c-1.1,0-2,0.9-2,2c0,0.1,0,0.1,0,0.2
		c0.1,1.1,1.1,1.9,2.2,1.8s1.9-1.1,1.8-2.2C85.2,93.2,84.3,92.4,83.2,92.4"/>
	<path class="st2" d="M90,97.7c-1.4,0-2.4-0.8-2.4-1.8h1c0.1,0.6,0.6,1,1.4,1c0.8,0,1.2-0.4,1.2-0.9c0-1.3-3.5-0.6-3.5-2.8
		c0-0.9,0.9-1.7,2.2-1.7c1.1-0.1,2.1,0.6,2.2,1.7c0,0,0,0.1,0,0.1h-1c-0.1-0.6-0.6-1.1-1.2-1c0,0,0,0,0,0c-0.7,0-1.2,0.3-1.2,0.8
		c0,1.4,3.5,0.6,3.5,2.8C92.2,96.9,91.3,97.7,90,97.7"/>
	<path class="st2" d="M214.3,43h-1.5v3.2h-1v-7.6h2.4c1.8,0,2.6,1,2.6,2.2C216.9,42,216.2,43,214.3,43 M214.3,42.2
		c1.1,0,1.6-0.5,1.6-1.4c0-0.9-0.5-1.4-1.6-1.4h-1.5v2.8L214.3,42.2z"/>
	<path class="st2" d="M218,38.6c0-0.4,0.3-0.7,0.7-0.7c0.4,0,0.7,0.3,0.7,0.7c0,0.4-0.3,0.6-0.7,0.7C218.3,39.3,218,39,218,38.6
		C218,38.6,218,38.6,218,38.6 M218.1,40.2h1v6h-1V40.2z"/>
	<path class="st2" d="M222.9,46.3c-1.4,0-2.4-0.8-2.4-1.8h1c0.1,0.6,0.6,1,1.4,1c0.8,0,1.2-0.4,1.2-0.9c0-1.3-3.5-0.6-3.5-2.8
		c0-0.9,0.9-1.7,2.2-1.7c1.1-0.1,2.1,0.6,2.2,1.7c0,0,0,0.1,0,0.1h-1c-0.1-0.6-0.6-1.1-1.2-1c0,0,0,0,0,0c-0.7,0-1.2,0.3-1.2,0.8
		c0,1.4,3.5,0.6,3.5,2.8C225.1,45.6,224.2,46.3,222.9,46.3"/>
	<path class="st2" d="M226.7,41.1h-0.8v-0.8h0.8v-1.5h1v1.5h1.6v0.8h-1.6v3.5c0,0.6,0.2,0.8,0.8,0.8h0.7v0.8h-0.9
		c-1.1,0-1.7-0.4-1.7-1.6L226.7,41.1z"/>
	<path class="st2" d="M232.9,40.1c0.9,0,1.8,0.4,2.2,1.2v-1.1h1v6h-1v-1.1c-0.5,0.8-1.3,1.2-2.2,1.2c-1.6,0-2.8-1.3-2.8-2.9
		c0-0.1,0-0.1,0-0.2c-0.1-1.6,1-2.9,2.6-3C232.7,40.2,232.8,40.2,232.9,40.1 M233.1,41c-1.1,0-2,0.9-2,2c0,0.1,0,0.1,0,0.2
		c0.1,1.1,1.1,1.9,2.2,1.8c1.1-0.1,1.9-1.1,1.8-2.2C235,41.8,234.2,41,233.1,41"/>
	<path class="st2" d="M240.3,40.1c1.3-0.1,2.5,0.7,2.7,2H242c-0.2-0.7-0.9-1.2-1.7-1.2c-1.1,0-1.9,0.8-1.9,2.2
		c0,1.5,0.8,2.2,1.9,2.2c0.8,0.1,1.5-0.4,1.7-1.2h1.1c-0.3,1.2-1.5,2.1-2.7,2c-1.6,0-2.9-1.2-2.9-2.8c0-0.1,0-0.2,0-0.3
		c-0.1-1.6,1-2.9,2.6-3.1C240.1,40.1,240.2,40.1,240.3,40.1"/>
	<path class="st2" d="M244.4,38.2h1v2.9c0.4-0.6,1.2-1,2-1c1.3-0.1,2.3,0.9,2.4,2.2c0,0.1,0,0.2,0,0.4v3.5h-1v-3.4
		c0-1.2-0.7-1.8-1.7-1.8c-1,0-1.7,0.6-1.7,1.9v3.3h-1L244.4,38.2z"/>
	<path class="st2" d="M251.2,38.6c0-0.4,0.3-0.7,0.7-0.7c0.4,0,0.7,0.3,0.7,0.7c0,0.4-0.3,0.6-0.7,0.7
		C251.5,39.3,251.2,39,251.2,38.6C251.2,38.6,251.2,38.6,251.2,38.6 M251.3,40.2h1v6h-1L251.3,40.2z"/>
	<path class="st2" d="M256.6,46.3c-1.6,0-2.9-1.2-3-2.8c0-0.1,0-0.2,0-0.3c0-1.7,1.3-3,2.9-3.1c1.7,0,3,1.3,3.1,2.9
		c0,0.1,0,0.1,0,0.2c0.1,1.6-1.2,3-2.8,3.1C256.8,46.3,256.7,46.3,256.6,46.3 M256.6,45.4c1.1,0,2-0.9,2.1-2c0-0.1,0-0.2,0-0.2
		c0.1-1.1-0.7-2.1-1.8-2.2c-0.1,0-0.2,0-0.2,0c-1.1,0-2,0.9-2,1.9c0,0.1,0,0.2,0,0.3c-0.1,1.1,0.6,2.1,1.7,2.2
		C256.4,45.4,256.5,45.4,256.6,45.4"/>
	<path class="st2" d="M266.4,40.1c1.3-0.1,2.5,0.7,2.7,2h-1.1c-0.2-0.7-0.9-1.2-1.7-1.2c-1.1,0-1.9,0.8-1.9,2.2
		c0,1.5,0.8,2.2,1.9,2.2c0.8,0.1,1.5-0.4,1.7-1.2h1.1c-0.3,1.2-1.5,2.1-2.7,2c-1.6,0-2.9-1.2-2.9-2.8c0-0.1,0-0.2,0-0.3
		c-0.1-1.6,1-2.9,2.6-3.1C266.2,40.1,266.3,40.1,266.4,40.1"/>
	<path class="st2" d="M271.4,46.2h-1v-6h1v1c0.4-0.7,1.1-1.1,1.9-1.1v1h-0.3c-0.9,0-1.7,0.4-1.7,1.8V46.2z"/>
	<path class="st2" d="M277.1,46.3c-1.6,0-2.9-1.2-3-2.8c0-0.1,0-0.2,0-0.3c-0.1-1.6,1-2.9,2.6-3.1c0.1,0,0.2,0,0.4,0
		c1.5-0.1,2.8,1.1,2.9,2.6c0,0.1,0,0.2,0,0.3c0,0.2,0,0.4,0,0.6h-4.8c0,1,0.8,1.9,1.9,1.9c0,0,0,0,0.1,0c0.7,0.1,1.4-0.4,1.7-1.1
		h1.1C279.5,45.6,278.3,46.4,277.1,46.3 M275.1,42.8h3.8c0-1-0.7-1.8-1.7-1.8c-0.1,0-0.1,0-0.2,0C276,41,275.2,41.8,275.1,42.8
		 M275.8,37.7l2.3,1.4v0.7l-2.3-1.2L275.8,37.7z"/>
	<path class="st2" d="M289.8,42.8c0-1.2-0.7-1.8-1.6-1.8c-1,0-1.7,0.6-1.7,1.9v3.3h-1v-3.4c0-1.2-0.7-1.8-1.6-1.8
		c-1,0-1.7,0.6-1.7,1.9v3.3h-1v-6h1v0.9c0.4-0.6,1.1-1,1.9-1c0.9-0.1,1.8,0.5,2.2,1.3c0.4-0.8,1.2-1.4,2.1-1.3
		c1.3-0.1,2.4,0.9,2.4,2.2c0,0.1,0,0.3,0,0.4v3.5h-1L289.8,42.8z"/>
	<path class="st2" d="M295,46.3c-1.6,0-2.9-1.2-3-2.8c0-0.1,0-0.2,0-0.3c-0.1-1.6,1-2.9,2.6-3.1c0.1,0,0.2,0,0.4,0
		c1.5-0.1,2.8,1.1,2.9,2.6c0,0.1,0,0.2,0,0.3c0,0.2,0,0.4,0,0.6h-4.8c0,1,0.8,1.9,1.9,1.9c0,0,0,0,0.1,0c0.7,0.1,1.4-0.4,1.7-1.1
		h1.1C297.4,45.6,296.2,46.4,295,46.3 M293.1,42.8h3.8c0-1-0.7-1.8-1.7-1.8c-0.1,0-0.1,0-0.2,0C293.9,41,293.1,41.8,293.1,42.8"/>
	<path class="st2" d="M211.9,55.8h1.1l2.8,6.2l2.8-6.2h1.1v7.5h-1v-5.6l-2.5,5.6h-0.7l-2.5-5.6v5.6h-1L211.9,55.8z"/>
	<path class="st2" d="M223.7,57.3c0.9,0,1.8,0.4,2.2,1.2v-1.1h1v6h-1v-1.1c-0.5,0.8-1.3,1.2-2.2,1.2c-1.6,0-2.8-1.3-2.8-2.9
		c0-0.1,0-0.1,0-0.2c-0.1-1.6,1-2.9,2.6-3C223.5,57.3,223.6,57.3,223.7,57.3 M223.9,58.1c-1.1,0-2,0.9-2,2c0,0.1,0,0.1,0,0.2
		c0.1,1.1,1.1,1.9,2.2,1.8c1.1-0.1,1.9-1.1,1.8-2.2C225.8,58.9,224.9,58.1,223.9,58.1"/>
	<path class="st2" d="M231.8,57.3c1.6,0,2.8,1.2,2.8,2.8c0,0.1,0,0.2,0,0.2c0.1,1.6-1,3-2.6,3.1c-0.1,0-0.1,0-0.2,0
		c-0.9,0-1.7-0.4-2.2-1.2v3.9h-1v-8.8h1v1.1C230,57.7,230.9,57.2,231.8,57.3 M231.6,58.1c-1.2-0.1-2.3,0.8-2.4,2
		c-0.1,1.2,0.8,2.3,2,2.4c1.2,0.1,2.3-0.8,2.4-2c0-0.1,0-0.1,0-0.2c0.1-1.1-0.7-2.1-1.8-2.2C231.7,58.1,231.6,58.1,231.6,58.1"/>
	<path class="st2" d="M235.9,55.3h1v8h-1V55.3z"/>
	<path class="st2" d="M241.1,63.4c-1.6,0-2.9-1.2-3-2.8c0-0.1,0-0.2,0-0.3c-0.1-1.6,1-2.9,2.6-3.1c0.1,0,0.2,0,0.4,0
		c1.5-0.1,2.8,1.1,2.9,2.6c0,0.1,0,0.2,0,0.3c0,0.2,0,0.4,0,0.6h-4.8c0,1,0.8,1.9,1.9,1.9c0,0,0,0,0.1,0c0.7,0.1,1.4-0.4,1.7-1.1
		h1.1C243.5,62.7,242.4,63.5,241.1,63.4 M239.2,59.9h3.8c0-1-0.7-1.8-1.7-1.8c-0.1,0-0.1,0-0.2,0C240.1,58.1,239.2,58.9,239.2,59.9"
		/>
	<path class="st2" d="M250.3,63.4c-1.2,0.2-2.3-0.7-2.4-1.8h1c0.1,0.6,0.6,1,1.4,1c0.8,0,1.2-0.4,1.2-0.9c0-1.3-3.5-0.6-3.5-2.8
		c0-0.9,0.9-1.7,2.2-1.7c1.1-0.1,2.1,0.6,2.2,1.7c0,0,0,0.1,0,0.1h-1c-0.1-0.6-0.6-1.1-1.2-1c0,0,0,0,0,0c-0.7,0-1.2,0.3-1.2,0.8
		c0,1.4,3.5,0.6,3.5,2.8C252.5,62.7,251.6,63.4,250.3,63.4"/>
	<path class="st2" d="M258,57.4h1l-3.6,8.8h-1l1.2-2.9l-2.4-5.9h1.1l1.9,4.8L258,57.4z"/>
	<path class="st2" d="M261,63.3h-1v-6h1v1c0.4-0.7,1.1-1.1,1.9-1.1v1h-0.3c-0.9,0-1.7,0.4-1.7,1.8V63.3z"/>
	<path class="st2" d="M269.3,63.3h-1v-0.9c-0.4,0.6-1.1,1-1.9,1c-1.3,0.1-2.4-0.9-2.5-2.2c0-0.1,0-0.2,0-0.4v-3.5h1v3.4
		c-0.1,0.9,0.5,1.7,1.3,1.8c0.1,0,0.2,0,0.3,0c1,0,1.7-0.6,1.7-1.9v-3.3h1L269.3,63.3z"/>
	<path class="st2" d="M274.2,57.3c1.6,0,2.8,1.3,2.8,2.8c0,0.1,0,0.2,0,0.2c0.1,1.6-1,3-2.6,3.1c-0.1,0-0.1,0-0.2,0
		c-0.9,0-1.7-0.4-2.2-1.2v3.9h-1v-8.8h1v1.1C272.5,57.7,273.3,57.2,274.2,57.3 M274,58.1c-1.2-0.1-2.3,0.8-2.4,2s0.8,2.3,2,2.4
		c1.2,0.1,2.3-0.8,2.4-2c0-0.1,0-0.1,0-0.2c0.1-1.1-0.7-2.1-1.8-2.2C274.1,58.1,274.1,58.1,274,58.1"/>
	<path class="st2" d="M215.3,72.8c1.5-0.1,3,0.8,3.5,2.3h-1.2c-0.4-0.9-1.3-1.5-2.3-1.4c-1.7,0.1-2.9,1.6-2.8,3.2
		c0.1,1.5,1.3,2.6,2.8,2.8c1,0.1,1.9-0.5,2.3-1.4h1.2c-0.6,1.4-2,2.4-3.5,2.3c-2.1,0-3.8-1.8-3.8-4
		C211.5,74.5,213.2,72.8,215.3,72.8"/>
	<path class="st2" d="M222.8,80.5c-1.7,0-3.1-1.4-3.1-3.1c0-1.7,1.4-3.1,3.1-3.1c1.7,0,3.1,1.4,3.1,3.1c0,0,0,0,0,0
		c0.1,1.6-1.2,3-2.8,3.1C223,80.5,222.9,80.5,222.8,80.5 M222.8,79.7c1.1,0,2-0.9,2.1-2c0-0.1,0-0.2,0-0.2c0.1-1.1-0.7-2.1-1.8-2.2
		c-0.1,0-0.1,0-0.2,0c-1.2,0.1-2.1,1.2-2,2.4C221,78.7,221.8,79.5,222.8,79.7"/>
	<path class="st2" d="M229.7,74.4c1.3-0.1,2.5,0.7,2.7,2h-1.1c-0.2-0.7-0.9-1.2-1.7-1.2c-1.1,0-1.9,0.8-1.9,2.2
		c0,1.5,0.8,2.2,1.9,2.2c0.8,0.1,1.5-0.4,1.7-1.2h1.1c-0.3,1.2-1.5,2.1-2.7,2c-1.7-0.1-3-1.6-2.9-3.3
		C226.9,75.7,228.2,74.5,229.7,74.4"/>
	<path class="st2" d="M236.4,80.5c-1.7,0-3.1-1.4-3.1-3.1c0-1.7,1.4-3.1,3.1-3.1c1.7,0,3.1,1.4,3.1,3.1c0,0,0,0,0,0
		c0.1,1.6-1.2,3-2.8,3.1C236.5,80.5,236.5,80.5,236.4,80.5 M236.4,79.7c1.1,0,2-0.9,2.1-2c0-0.1,0-0.2,0-0.2
		c0.1-1.1-0.7-2.1-1.8-2.2c-0.1,0-0.2,0-0.2,0c-1.2,0.1-2.1,1.2-2,2.4C234.5,78.7,235.4,79.5,236.4,79.7"/>
	<path class="st2" d="M245.1,77.1c0-1.2-0.7-1.8-1.7-1.8s-1.7,0.6-1.7,1.9v3.3h-1v-6h1v0.8c0.4-0.6,1.2-1,1.9-1
		c1.3-0.1,2.4,0.9,2.4,2.2c0,0.1,0,0.3,0,0.4v3.5h-1L245.1,77.1z"/>
	<path class="st2" d="M253,80.4h-1v-0.9c-0.4,0.6-1.1,1-1.9,1c-1.3,0.1-2.4-0.9-2.4-2.2c0-0.1,0-0.2,0-0.4v-3.5h1v3.4
		c-0.1,0.9,0.5,1.7,1.3,1.8c0.1,0,0.2,0,0.3,0c1,0,1.7-0.6,1.7-1.9v-3.3h1L253,80.4z"/>
	<path class="st2" d="M254.9,75.3h-0.8v-0.8h0.8V73h1v1.5h1.6v0.8h-1.6v3.5c0,0.6,0.2,0.8,0.8,0.8h0.7v0.8h-0.9
		c-1.1,0-1.7-0.4-1.7-1.6L254.9,75.3z"/>
	<path class="st2" d="M264,74.4c0.9,0,1.7,0.4,2.2,1.2v-1.1h1v6h-1v-1.1c-0.5,0.8-1.3,1.2-2.2,1.2c-1.6,0-2.8-1.3-2.8-2.9
		c0-0.1,0-0.1,0-0.2c-0.1-1.6,1-2.9,2.6-3C263.8,74.4,263.9,74.4,264,74.4 M264.2,75.3c-1.1,0-2,0.9-2,2c0,0.1,0,0.1,0,0.2
		c0.1,1.1,1.1,1.9,2.2,1.8c1.1-0.1,1.9-1.1,1.8-2.2C266.1,76.1,265.2,75.3,264.2,75.3"/>
	<path class="st2" d="M271.3,74.4c0.9,0,1.8,0.4,2.2,1.2v-1.1h1v6.1c0.1,1.5-1,2.7-2.5,2.8c-0.1,0-0.2,0-0.3,0
		c-1.3,0.2-2.6-0.7-2.9-2.1h1c0.3,0.8,1.1,1.3,1.9,1.2c1,0,1.8-0.7,1.9-1.7c0-0.1,0-0.2,0-0.3v-1.2c-0.5,0.8-1.3,1.2-2.2,1.2
		c-1.6,0-2.9-1.3-2.8-2.9c0-0.1,0-0.1,0-0.2c-0.1-1.6,1-2.9,2.6-3C271.1,74.4,271.2,74.4,271.3,74.4 M271.5,75.3c-1.1,0-2,0.9-2,2
		c0,0.1,0,0.1,0,0.2c0.1,1.1,1.1,1.9,2.2,1.8c1.1-0.1,1.9-1.1,1.8-2.2C273.4,76.1,272.5,75.2,271.5,75.3"/>
	<path class="st2" d="M278.6,74.4c0.9,0,1.8,0.4,2.2,1.2v-1.1h1v6h-1v-1.1c-0.5,0.8-1.3,1.2-2.2,1.2c-1.6,0-2.8-1.3-2.8-2.9
		c0-0.1,0-0.1,0-0.2c-0.1-1.6,1-2.9,2.6-3C278.5,74.4,278.6,74.4,278.6,74.4 M278.8,75.3c-1.1,0-2,0.9-2,2c0,0.1,0,0.1,0,0.2
		c0.1,1.1,1.1,1.9,2.2,1.8s1.9-1.1,1.8-2.2C280.8,76.1,279.9,75.3,278.8,75.3"/>
	<path class="st2" d="M283.9,74.5l1.9,5l1.8-5h1.1l-2.3,6h-1.2l-2.3-6H283.9z"/>
	<path class="st2" d="M292.2,80.5c-1.6,0-2.9-1.2-3-2.8c0-0.1,0-0.2,0-0.3c-0.1-1.6,1-2.9,2.6-3.1c0.1,0,0.2,0,0.4,0
		c1.5-0.1,2.8,1.1,2.9,2.6c0,0.1,0,0.2,0,0.3c0,0.2,0,0.4,0,0.6h-4.8c0,1,0.8,1.9,1.9,1.9c0,0,0,0,0.1,0c0.7,0.1,1.4-0.4,1.7-1.1
		h1.1C294.6,79.8,293.4,80.6,292.2,80.5 M290.3,77h3.8c0-1-0.7-1.8-1.7-1.8c-0.1,0-0.1,0-0.2,0C291.1,75.2,290.3,76,290.3,77"/>
	<path class="st2" d="M301.4,80.5c-1.4,0-2.4-0.8-2.4-1.8h1c0.1,0.6,0.6,1,1.4,1c0.8,0,1.2-0.4,1.2-0.9c0-1.3-3.5-0.6-3.5-2.8
		c0-0.9,0.9-1.7,2.2-1.7c1.1-0.1,2.1,0.6,2.2,1.7c0,0,0,0.1,0,0.1h-1c-0.1-0.6-0.6-1.1-1.2-1c0,0,0,0,0,0c-0.7,0-1.2,0.3-1.2,0.8
		c0,1.4,3.5,0.6,3.5,2.8C303.5,79.8,302.7,80.5,301.4,80.5"/>
	<path class="st2" d="M309,74.5h1l-3.6,8.8h-1l1.2-2.9l-2.4-5.9h1.1l1.9,4.8L309,74.5z"/>
	<path class="st2" d="M312,80.4h-1v-6h1v1c0.4-0.7,1.1-1.1,1.9-1.1v1h-0.3c-0.9,0-1.7,0.4-1.7,1.8V80.4z"/>
	<path class="st2" d="M320.4,80.4h-1v-0.9c-0.4,0.6-1.1,1-1.9,1c-1.3,0.1-2.4-0.9-2.5-2.2c0-0.1,0-0.2,0-0.4v-3.5h1v3.4
		c-0.1,0.9,0.5,1.7,1.3,1.8c0.1,0,0.2,0,0.3,0c1,0,1.7-0.6,1.7-1.9v-3.3h1L320.4,80.4z"/>
	<path class="st2" d="M325.3,74.4c1.6,0,2.8,1.3,2.8,2.8c0,0.1,0,0.2,0,0.2c0.1,1.6-1,3-2.6,3.1c-0.1,0-0.1,0-0.2,0
		c-0.9,0-1.7-0.4-2.2-1.2v3.9h-1v-8.8h1v1.1C323.5,74.8,324.4,74.4,325.3,74.4 M325,75.2c-1.2-0.1-2.3,0.8-2.4,2
		c-0.1,1.2,0.8,2.3,2,2.4c1.2,0.1,2.3-0.8,2.4-2c0-0.1,0-0.1,0-0.2c0.1-1.1-0.7-2.1-1.8-2.2C325.2,75.3,325.1,75.2,325,75.2"/>
	<path class="st2" d="M172.4,45.1h-1.7l-0.3,0.8h-0.5l1.4-3.8h0.6l1.4,3.8h-0.5L172.4,45.1z M171.5,42.8l-0.7,1.9h1.4L171.5,42.8z"
		/>
	<path class="st2" d="M175.8,42.6h-1.5v1.3h1.4v0.4h-1.4v1.3h1.5V46h-2v-3.8h2V42.6z"/>
	<path class="st2" d="M179.8,44.1c0.1,1-0.7,1.8-1.7,1.9c-0.1,0-0.2,0-0.3,0h-1.2v-3.8h1.2c1-0.1,1.9,0.6,2,1.6
		C179.8,43.9,179.8,44,179.8,44.1 M177.8,45.6c0.7,0.1,1.4-0.4,1.5-1.2c0-0.1,0-0.2,0-0.3c0.1-0.7-0.5-1.4-1.2-1.5
		c-0.1,0-0.2,0-0.3,0h-0.7v3L177.8,45.6z"/>
	<path class="st2" d="M187.3,38v1.3h-3.5v1.9c0.4-0.4,1-0.7,1.6-0.6c1.3-0.1,2.4,1,2.5,2.3c0,0.1,0,0.2,0,0.3c0,1.5-1.3,2.8-2.8,2.8
		c-1.3,0-2.5-0.9-2.7-2.2h1.5c0.1,0.6,0.7,1,1.3,1c0.9,0,1.3-0.6,1.3-1.5c0.1-0.7-0.3-1.3-1-1.4c-0.1,0-0.2,0-0.3,0
		c-0.5,0-1,0.3-1.2,0.8h-1.5V38L187.3,38z"/>
	<path class="st2" d="M172.4,62.3h-1.7l-0.3,0.8h-0.5l1.4-3.8h0.6l1.4,3.8h-0.5L172.4,62.3z M171.5,59.9l-0.7,1.9h1.4L171.5,59.9z"
		/>
	<path class="st2" d="M175.8,59.7h-1.5V61h1.4v0.4h-1.4v1.3h1.5v0.4h-2v-3.8h2V59.7z"/>
	<path class="st2" d="M179.8,61.2c0.1,1-0.7,1.8-1.7,1.9c-0.1,0-0.2,0-0.3,0h-1.2v-3.8h1.2c1-0.1,1.9,0.6,2,1.6
		C179.8,61,179.8,61.1,179.8,61.2 M177.8,62.7c0.7,0.1,1.4-0.4,1.5-1.2c0-0.1,0-0.2,0-0.3c0.1-0.7-0.5-1.4-1.2-1.5
		c-0.1,0-0.2,0-0.3,0h-0.7v3L177.8,62.7z"/>
	<path class="st2" d="M187.3,55.2v1.3h-3.5v1.9c0.4-0.4,1-0.7,1.6-0.6c1.3-0.1,2.4,1,2.5,2.3c0,0.1,0,0.2,0,0.3
		c0,1.5-1.3,2.8-2.8,2.8c-1.3,0-2.5-0.9-2.7-2.2h1.5c0.1,0.6,0.7,1,1.3,1c0.9,0,1.3-0.6,1.3-1.5c0.1-0.7-0.4-1.3-1-1.4
		c-0.1,0-0.2,0-0.3,0c-0.5,0-1,0.3-1.2,0.8h-1.5v-4.7L187.3,55.2z"/>
	<path class="st2" d="M172.4,79.4h-1.7l-0.3,0.8h-0.5l1.4-3.8h0.6l1.4,3.8h-0.5L172.4,79.4z M171.5,77.1l-0.7,1.9h1.4L171.5,77.1z"
		/>
	<path class="st2" d="M175.8,76.8h-1.5v1.3h1.4v0.4h-1.4v1.3h1.5v0.4h-2v-3.8h2V76.8z"/>
	<path class="st2" d="M179.8,78.3c0.1,1-0.7,1.8-1.7,1.9c-0.1,0-0.2,0-0.3,0h-1.2v-3.8h1.2c1-0.1,1.9,0.6,2,1.6
		C179.8,78.1,179.8,78.2,179.8,78.3 M177.8,79.8c0.7,0.1,1.4-0.4,1.5-1.2c0-0.1,0-0.2,0-0.3c0.1-0.7-0.5-1.4-1.2-1.5
		c-0.1,0-0.2,0-0.3,0h-0.7v3L177.8,79.8z"/>
	<path class="st2" d="M187.3,72.3v1.3h-3.5v1.9c0.4-0.4,1-0.7,1.6-0.6c1.3-0.1,2.4,1,2.5,2.3c0,0.1,0,0.2,0,0.3
		c0,1.5-1.3,2.8-2.8,2.8c-1.3,0-2.5-0.9-2.7-2.2h1.5c0.1,0.6,0.7,1,1.3,1c0.9,0,1.3-0.6,1.3-1.5c0.1-0.7-0.3-1.3-1-1.4
		c-0.1,0-0.2,0-0.3,0c-0.5,0-1,0.3-1.2,0.8h-1.5v-4.7L187.3,72.3z"/>
	<path class="st2" d="M172.4,96.5h-1.7l-0.3,0.8h-0.5l1.4-3.8h0.6l1.4,3.8h-0.5L172.4,96.5z M171.5,94.2l-0.7,1.9h1.4L171.5,94.2z"
		/>
	<path class="st2" d="M175.8,94h-1.5v1.3h1.4v0.4h-1.4v1.3h1.5v0.4h-2v-3.8h2V94z"/>
	<path class="st2" d="M179.8,95.5c0.1,1-0.7,1.8-1.7,1.9c-0.1,0-0.2,0-0.3,0h-1.2v-3.8h1.2c1-0.1,1.9,0.6,2,1.6
		C179.8,95.3,179.8,95.4,179.8,95.5 M177.8,96.9c0.7,0.1,1.4-0.4,1.5-1.2c0-0.1,0-0.2,0-0.3c0.1-0.7-0.5-1.4-1.2-1.5
		c-0.1,0-0.2,0-0.3,0h-0.7v3L177.8,96.9z"/>
	<path class="st2" d="M187.3,89.4v1.3h-3.5v1.9c0.4-0.4,1-0.7,1.6-0.6c1.3-0.1,2.4,1,2.5,2.3c0,0.1,0,0.2,0,0.3
		c0,1.5-1.3,2.8-2.8,2.8c-1.3,0-2.5-0.9-2.7-2.2h1.5c0.1,0.6,0.7,1,1.3,1c0.9,0,1.3-0.6,1.3-1.5c0.1-0.7-0.3-1.3-1-1.4
		c-0.1,0-0.2,0-0.3,0c-0.5,0-1,0.3-1.2,0.8h-1.5v-4.7L187.3,89.4z"/>
	<path class="st2" d="M326.6,20.8c-1.5-1.6-2.3-3.8-2.2-6c-0.1-2.3,0.8-4.5,2.4-6.2h1v0.1c-1.6,1.6-2.5,3.8-2.4,6.1
		c0,2.2,0.8,4.3,2.3,5.9v0.1H326.6z"/>
	<path class="st2" d="M331.4,18.9c-1.5,0-2.6-0.8-2.6-2.1h1.1c0.1,0.8,0.8,1.3,1.5,1.3c0,0,0,0,0,0c1,0,1.5-0.5,1.5-1.3
		c0-2-4.1-0.7-4.1-3.6c0-1.3,1-2.1,2.5-2.1c1.2-0.1,2.3,0.7,2.5,1.9h-1.1c-0.1-0.7-0.8-1.2-1.5-1.1c-0.8,0-1.5,0.4-1.5,1.2
		c0,2,4.1,0.7,4.1,3.5c-0.1,1.3-1.1,2.2-2.4,2.2C331.4,18.9,331.4,18.9,331.4,18.9"/>
	<path class="st2" d="M337.9,18.9c-1.6,0-2.9-1.2-3-2.8c0-0.1,0-0.2,0-0.3c-0.1-1.6,1-2.9,2.6-3.1c0.1,0,0.2,0,0.4,0
		c1.5-0.1,2.8,1.1,2.9,2.6c0,0.1,0,0.2,0,0.3c0,0.2,0,0.4,0,0.6H336c0,1,0.8,1.9,1.9,1.9c0,0,0,0,0.1,0c0.7,0.1,1.4-0.4,1.7-1.1h1.1
		C340.3,18.2,339.2,19,337.9,18.9 M336,15.4h3.8c0-1-0.7-1.8-1.7-1.8c-0.1,0-0.1,0-0.2,0C336.8,13.6,336,14.4,336,15.4"/>
	<path class="st2" d="M343.1,18.8h-1v-6h1v1c0.4-0.7,1.1-1.1,1.9-1.1v1h-0.3c-0.9,0-1.7,0.4-1.7,1.8L343.1,18.8z"/>
	<path class="st2" d="M346.5,12.9l1.9,5l1.8-5h1.1l-2.3,6h-1.2l-2.3-6H346.5z"/>
	<path class="st2" d="M354.8,18.9c-1.6,0-2.9-1.2-2.9-2.8c0-0.1,0-0.2,0-0.3c-0.1-1.6,1-2.9,2.6-3.1c0.1,0,0.2,0,0.4,0
		c1.5-0.1,2.8,1.1,2.9,2.6c0,0.1,0,0.2,0,0.3c0,0.2,0,0.4,0,0.6h-4.8c0,1,0.8,1.9,1.9,1.9c0,0,0,0,0.1,0c0.7,0.1,1.4-0.4,1.7-1.1
		h1.1C357.2,18.2,356,19,354.8,18.9 M352.9,15.4h3.8c0-1-0.7-1.8-1.7-1.8c-0.1,0-0.1,0-0.2,0C353.7,13.6,352.9,14.4,352.9,15.4"/>
	<path class="st2" d="M361,18.9c-1.2,0.2-2.3-0.7-2.4-1.8h1c0.1,0.6,0.6,1,1.4,1c0.8,0,1.2-0.4,1.2-0.9c0-1.3-3.5-0.6-3.5-2.8
		c0-0.9,0.9-1.7,2.2-1.7c1.1-0.1,2.1,0.6,2.2,1.7c0,0,0,0.1,0,0.1h-1c-0.1-0.6-0.6-1.1-1.2-1c0,0,0,0,0,0c-0.7,0-1.2,0.3-1.2,0.8
		c0,1.4,3.5,0.6,3.5,2.8C363.2,18.2,362.4,18.9,361,18.9"/>
	<path class="st2" d="M368.1,11.9h-1V11h2v7.9h-1L368.1,11.9z"/>
	<path class="st2" d="M370.7,20.8L370.7,20.8c1.5-1.7,2.3-3.8,2.3-6c0.1-2.3-0.8-4.5-2.4-6.1V8.7h1c1.6,1.6,2.5,3.9,2.4,6.2
		c0.1,2.2-0.7,4.4-2.2,6H370.7z"/>
	<path class="st2" d="M355.9,45.1h-1.7L354,46h-0.5l1.4-3.8h0.6l1.4,3.8h-0.5L355.9,45.1z M355.1,42.8l-0.7,1.9h1.4L355.1,42.8z"/>
	<path class="st2" d="M359.4,42.6h-1.5v1.3h1.4v0.4h-1.4v1.3h1.5V46h-2v-3.8h2V42.6z"/>
	<path class="st2" d="M363.3,44.1c0.1,1-0.7,1.8-1.7,1.9c-0.1,0-0.2,0-0.3,0h-1.2v-3.8h1.2c1-0.1,1.9,0.6,2,1.6
		C363.3,43.9,363.3,44,363.3,44.1 M361.3,45.6c0.7,0.1,1.4-0.4,1.5-1.2c0-0.1,0-0.2,0-0.3c0.1-0.7-0.5-1.4-1.2-1.5
		c-0.1,0-0.2,0-0.3,0h-0.7v3L361.3,45.6z"/>
	<path class="st2" d="M370.9,38v1.3h-3.5v1.9c0.4-0.4,1-0.7,1.6-0.6c1.3-0.1,2.4,1,2.5,2.3c0,0.1,0,0.2,0,0.3c0,1.5-1.3,2.8-2.8,2.8
		c-1.3,0-2.5-0.9-2.7-2.2h1.5c0.1,0.6,0.7,1,1.3,1c0.9,0,1.3-0.6,1.3-1.5c0.1-0.7-0.3-1.3-1-1.4c-0.1,0-0.2,0-0.3,0
		c-0.5,0-1,0.3-1.2,0.8H366V38L370.9,38z"/>
	<path class="st2" d="M355.9,62.3h-1.7l-0.3,0.8h-0.5l1.4-3.8h0.6l1.4,3.8h-0.5L355.9,62.3z M355.1,59.9l-0.7,1.9h1.4L355.1,59.9z"
		/>
	<path class="st2" d="M359.4,59.7h-1.5V61h1.4v0.4h-1.4v1.3h1.5v0.4h-2v-3.8h2V59.7z"/>
	<path class="st2" d="M363.3,61.2c0.1,1-0.7,1.8-1.7,1.9c-0.1,0-0.2,0-0.3,0h-1.2v-3.8h1.2c1-0.1,1.9,0.6,2,1.6
		C363.3,61,363.3,61.1,363.3,61.2 M361.3,62.7c0.7,0.1,1.4-0.4,1.5-1.2c0-0.1,0-0.2,0-0.3c0.1-0.7-0.5-1.4-1.2-1.5
		c-0.1,0-0.2,0-0.3,0h-0.7v3L361.3,62.7z"/>
	<path class="st2" d="M366.5,56.6h-1.1v-1.4h2.6v7.9h-1.6L366.5,56.6z"/>
	<path class="st2" d="M372.5,55c2.2,0,2.9,1.7,2.9,4c0,2.3-0.7,4-2.9,4s-2.9-1.7-2.9-4C369.5,56.7,370.2,55,372.5,55 M372.5,56.4
		c-1.3,0-1.4,1.2-1.4,2.6c0,1.4,0.2,2.6,1.4,2.6s1.4-1.2,1.4-2.6C373.9,57.7,373.7,56.4,372.5,56.4"/>
	<path class="st2" d="M355.9,79.4h-1.7l-0.3,0.8h-0.5l1.4-3.8h0.6l1.4,3.8h-0.5L355.9,79.4z M355.1,77.1l-0.7,1.9h1.4L355.1,77.1z"
		/>
	<path class="st2" d="M359.4,76.8h-1.5v1.3h1.4v0.4h-1.4v1.3h1.5v0.4h-2v-3.8h2V76.8z"/>
	<path class="st2" d="M363.3,78.3c0.1,1-0.7,1.8-1.7,1.9c-0.1,0-0.2,0-0.3,0h-1.2v-3.8h1.2c1-0.1,1.9,0.6,2,1.6
		C363.3,78.1,363.3,78.2,363.3,78.3 M361.3,79.8c0.7,0.1,1.4-0.4,1.5-1.2c0-0.1,0-0.2,0-0.3c0.1-0.7-0.5-1.4-1.2-1.5
		c-0.1,0-0.2,0-0.3,0h-0.7v3L361.3,79.8z"/>
	<path class="st2" d="M366.5,73.7h-1.1v-1.4h2.6v7.9h-1.6L366.5,73.7z"/>
	<path class="st2" d="M372.5,72.1c2.2,0,2.9,1.7,2.9,4c0,2.3-0.7,4-2.9,4s-2.9-1.7-2.9-4C369.5,73.9,370.2,72.1,372.5,72.1
		 M372.5,73.6c-1.3,0-1.4,1.2-1.4,2.6c0,1.4,0.2,2.6,1.4,2.6s1.4-1.2,1.4-2.6C373.9,74.8,373.7,73.6,372.5,73.6"/>
	<path class="st2" d="M12,17.5H8.6l-0.5,1.6H5.3l3.5-9.6h3.1l3.5,9.6h-2.8L12,17.5z M10.3,12.4l-1,3.1h2.1L10.3,12.4z"/>
	<path class="st2" d="M24.9,14.3c0.1,2.6-1.9,4.7-4.5,4.8c-0.2,0-0.3,0-0.5,0h-3.8V9.5H20c2.5-0.2,4.8,1.7,5,4.2
		C24.9,13.9,25,14.1,24.9,14.3 M19.7,16.7c1.2,0.1,2.4-0.8,2.5-2c0-0.1,0-0.3,0-0.4c0.1-1.3-0.8-2.4-2.1-2.5c-0.1,0-0.3,0-0.4,0
		h-0.9v4.9H19.7z"/>
	<path class="st2" d="M34.9,14.3c0.1,2.6-1.9,4.7-4.5,4.8c-0.2,0-0.3,0-0.5,0h-3.8V9.5h3.8c2.5-0.2,4.8,1.7,5,4.2
		C34.9,13.9,34.9,14.1,34.9,14.3 M29.7,16.7c1.2,0.1,2.4-0.8,2.5-2c0-0.1,0-0.3,0-0.4c0.1-1.3-0.8-2.4-2.1-2.5c-0.1,0-0.3,0-0.4,0
		h-0.9v4.9H29.7z"/>
	<path class="st2" d="M43.3,19.2c-2.7,0.1-4.9-2.1-4.9-4.7c0-0.1,0-0.1,0-0.2c0-2.7,2.2-4.9,4.9-4.9c2.7,0,4.9,2.2,4.9,4.9
		c0.1,2.7-2,4.9-4.7,4.9C43.4,19.2,43.4,19.2,43.3,19.2 M43.3,16.7c1.2,0,2.2-0.9,2.2-2.1c0-0.1,0-0.2,0-0.3
		c0.1-1.2-0.7-2.3-1.9-2.4s-2.3,0.7-2.4,1.9c0,0.2,0,0.3,0,0.5c-0.2,1.2,0.7,2.3,1.9,2.4C43.1,16.7,43.2,16.7,43.3,16.7"/>
	<path class="st2" d="M58.3,9.5v9.6h-2.7l-3.5-5.4v5.4h-2.7V9.5h2.7l3.5,5.4V9.5H58.3z"/>
	<path class="st2" d="M78.7,22.7c-5.2,0-9.5-4.2-9.5-9.4c0-5.2,4.2-9.5,9.4-9.5c5.2,0,9.5,4.2,9.5,9.4c0,0,0,0,0,0.1
		C88.1,18.4,83.9,22.6,78.7,22.7 M78.7,4.1c-5,0-9.1,4-9.1,9s4,9.1,9,9.1c5,0,9.1-4,9.1-9c0,0,0,0,0-0.1C87.7,8.2,83.6,4.2,78.7,4.1
		"/>
	<path class="st2" d="M76.6,12.9c-0.1,0-0.1,0-0.2-0.1c-0.5-0.3-0.8-0.9-0.8-1.5V9.8c0-0.2,0.1-0.3,0.3-0.3c0,0,0.1,0,0.1,0l2.1,1.2
		c0.5,0.3,0.8,0.9,0.8,1.5c0,0.2-0.1,0.3-0.3,0.3s-0.3-0.1-0.3-0.3c0-0.4-0.2-0.8-0.5-1l-1.6-0.9v1c0,0.4,0.2,0.8,0.5,1
		c0.1,0.1,0.2,0.3,0.1,0.4C76.8,12.8,76.7,12.9,76.6,12.9"/>
	<path class="st2" d="M76.1,14.6c-0.1,0-0.2-0.1-0.3-0.2c-0.1-0.2-0.2-0.5-0.2-0.8v-1.5c0-0.1,0.1-0.2,0.1-0.2
		c0.1-0.1,0.2-0.1,0.3,0l2,1.1c0.1,0.1,0.2,0.3,0.1,0.4c-0.1,0.1-0.2,0.2-0.4,0.1l-1.5-0.9v1c0,0.2,0,0.4,0.1,0.5
		c0.1,0.1,0,0.3-0.1,0.4C76.2,14.6,76.1,14.6,76.1,14.6"/>
	<path class="st2" d="M78.7,16.4c0,0-0.1,0-0.1,0l-1.3-0.7c-0.1-0.1-0.2-0.3-0.1-0.4c0.1-0.1,0.3-0.2,0.4-0.1c0,0,0,0,0,0l0.9,0.5
		v-1c0-0.2,0.1-0.3,0.3-0.3c0.2,0,0.3,0.1,0.3,0.3c0,0,0,0,0,0v1.5C79,16.3,78.8,16.4,78.7,16.4L78.7,16.4"/>
	<path class="st2" d="M78.7,18.8c0,0-0.1,0-0.1,0l-2.1-1.2c-0.5-0.3-0.8-0.8-0.8-1.4c0-0.2,0.1-0.3,0.3-0.3c0.2,0,0.3,0.1,0.3,0.3
		c0,0.4,0.2,0.7,0.5,0.9l1.6,0.9v-1c0-0.4-0.2-0.8-0.5-1c-0.1-0.1-0.1-0.3,0-0.4c0.1-0.1,0.2-0.1,0.4-0.1c0.5,0.3,0.8,0.9,0.8,1.5
		v1.5C78.9,18.7,78.8,18.8,78.7,18.8L78.7,18.8"/>
	<path class="st2" d="M75.9,10.6c-0.2,0-0.3-0.1-0.3-0.3c0,0,0,0,0,0V8.6c0-0.2,0.1-0.3,0.3-0.3c0.2,0,0.3,0.1,0.3,0.3c0,0,0,0,0,0
		v1.7C76.2,10.4,76.1,10.6,75.9,10.6L75.9,10.6"/>
	<path class="st2" d="M78.7,13.1c-0.2,0-0.3-0.1-0.3-0.3c0,0,0,0,0,0v-0.6c0-0.6,0.3-1.2,0.8-1.5l2.1-1.2c0.1-0.1,0.3,0,0.4,0.1
		c0,0,0,0.1,0,0.1v1.5c0,0.2-0.1,0.3-0.3,0.3c-0.2,0-0.3-0.1-0.3-0.3v-1l-1.6,0.9c-0.3,0.2-0.5,0.6-0.5,1v0.6
		C79,13,78.8,13.1,78.7,13.1L78.7,13.1"/>
	<path class="st2" d="M78.7,16.4c-0.2,0-0.3-0.1-0.3-0.3c0,0,0,0,0,0v-1.5c0-0.2,0.1-0.3,0.3-0.3c0.2,0,0.3,0.1,0.3,0.3c0,0,0,0,0,0
		v1l1.6-0.9c0.3-0.2,0.5-0.6,0.5-1V13c0-0.2,0.1-0.3,0.3-0.3c0.2,0,0.3,0.1,0.3,0.3v0.7c0,0.6-0.3,1.2-0.8,1.5l-2.1,1.2
		C78.8,16.4,78.7,16.4,78.7,16.4"/>
	<path class="st2" d="M78.7,18.8c-0.2,0-0.3-0.1-0.3-0.3c0,0,0,0,0,0V17c0-0.6,0.3-1.2,0.8-1.5l2.1-1.2c0.1-0.1,0.3,0,0.4,0.1
		c0,0,0,0.1,0,0.1v1.5c0,0.6-0.3,1.2-0.8,1.5l-2.1,1.2C78.8,18.8,78.7,18.8,78.7,18.8 M81.1,15.1L79.5,16c-0.3,0.2-0.5,0.6-0.5,1v1
		l1.6-0.9c0.3-0.2,0.5-0.6,0.5-1V15.1z"/>
	<path class="st2" d="M81.4,10.6c-0.2,0-0.3-0.1-0.3-0.3c0,0,0,0,0,0V8.6c0-0.2,0.1-0.3,0.3-0.3c0.2,0,0.3,0.1,0.3,0.3c0,0,0,0,0,0
		v1.7C81.7,10.4,81.5,10.6,81.4,10.6L81.4,10.6"/>
	<path class="st2" d="M78.7,11.9c-0.2,0-0.3-0.1-0.3-0.3c0,0,0,0,0,0V7.8c0-0.2,0.1-0.3,0.3-0.3c0.2,0,0.3,0.1,0.3,0.3c0,0,0,0,0,0
		v3.8C79,11.8,78.8,11.9,78.7,11.9L78.7,11.9"/>
	<path class="st2" d="M72.7,17.5c-0.2,0-0.3-0.1-0.3-0.3c0-0.1,0.1-0.2,0.1-0.2L84.5,10c0.1-0.1,0.3,0,0.4,0.1c0,0,0,0,0,0
		c0.1,0.1,0,0.3-0.1,0.4l-11.9,6.9C72.8,17.5,72.7,17.5,72.7,17.5"/>
	<path class="st2" d="M93.9,11.1v0.6c0,0.1,0,0.1,0,0.2c0,0.1,0,0.1-0.1,0.1c0,0-0.1,0.1-0.2,0.1c-0.2,0.1-0.4,0.2-0.5,0.2
		c-0.2,0-0.4,0.1-0.6,0.1c-0.2,0-0.4,0-0.7-0.1c-0.2-0.1-0.4-0.2-0.5-0.3c-0.1-0.1-0.3-0.3-0.3-0.5c-0.1-0.2-0.1-0.4-0.1-0.7
		c0-0.2,0-0.5,0.1-0.7c0.1-0.2,0.2-0.4,0.3-0.5c0.1-0.1,0.3-0.3,0.5-0.3c0.2-0.1,0.5-0.1,0.7-0.1c0.2,0,0.4,0,0.6,0.1
		c0.1,0,0.3,0.1,0.4,0.2c0.1,0.1,0.2,0.2,0.2,0.3c0,0.1,0.1,0.2,0.1,0.3c0,0.1,0,0.2-0.1,0.2c-0.1,0.1-0.1,0.1-0.2,0.1
		c-0.1,0-0.2,0-0.2-0.1c-0.1-0.1-0.1-0.2-0.2-0.3C93,9.9,93,9.8,92.9,9.8c-0.1,0-0.2-0.1-0.4-0.1c-0.1,0-0.3,0-0.4,0.1
		C92,9.8,91.9,9.9,91.8,10c-0.1,0.1-0.2,0.2-0.2,0.4c0,0.2-0.1,0.3-0.1,0.5c0,0.3,0.1,0.6,0.3,0.8c0.2,0.2,0.4,0.3,0.7,0.3
		c0.1,0,0.3,0,0.4-0.1c0.1,0,0.3-0.1,0.4-0.2v-0.5h-0.5c-0.1,0-0.2,0-0.3-0.1c-0.1,0-0.1-0.1-0.1-0.2c0-0.1,0-0.1,0.1-0.2
		c0.1,0,0.1-0.1,0.2-0.1h0.7c0.1,0,0.2,0,0.2,0c0.1,0,0.1,0.1,0.1,0.1C93.9,11,93.9,11.1,93.9,11.1"/>
	<path class="st2" d="M95.2,9.6v2.3h1.3c0.1,0,0.2,0,0.2,0.1c0.1,0,0.1,0.1,0.1,0.2c0,0.1,0,0.1-0.1,0.2c-0.1,0.1-0.2,0.1-0.2,0.1
		h-1.5c-0.1,0-0.2,0-0.3-0.1c-0.1-0.1-0.1-0.2-0.1-0.3V9.6c0-0.1,0-0.2,0.1-0.3c0.1-0.1,0.1-0.1,0.2-0.1c0.1,0,0.2,0,0.2,0.1
		C95.1,9.4,95.2,9.5,95.2,9.6"/>
	<path class="st2" d="M97.2,11.1V9.6c0-0.1,0-0.2,0.1-0.3c0.1-0.1,0.1-0.1,0.2-0.1c0.1,0,0.2,0,0.2,0.1c0.1,0.1,0.1,0.2,0.1,0.3v1.5
		c0,0.1,0,0.3,0.1,0.4c0,0.1,0.1,0.2,0.2,0.3c0.1,0.1,0.3,0.1,0.4,0.1c0.2,0,0.4-0.1,0.5-0.2c0.1-0.2,0.2-0.4,0.2-0.6V9.6
		c0-0.1,0-0.2,0.1-0.3c0.1-0.1,0.1-0.1,0.2-0.1c0.1,0,0.2,0,0.2,0.1c0.1,0.1,0.1,0.2,0.1,0.3v1.5c0,0.2,0,0.4-0.1,0.6
		c0,0.2-0.1,0.3-0.3,0.4c-0.1,0.1-0.2,0.2-0.4,0.2c-0.2,0.1-0.3,0.1-0.5,0.1c-0.2,0-0.4,0-0.6-0.1c-0.2,0-0.3-0.1-0.4-0.2
		c-0.1-0.1-0.2-0.3-0.2-0.4C97.2,11.5,97.2,11.3,97.2,11.1"/>
	<path class="st2" d="M102.5,9.8h-0.7v2.3c0,0.1,0,0.2-0.1,0.3c-0.1,0.1-0.1,0.1-0.2,0.1c-0.1,0-0.2,0-0.2-0.1
		c-0.1-0.1-0.1-0.2-0.1-0.3V9.8h-0.7c-0.1,0-0.2,0-0.2-0.1c-0.1,0-0.1-0.1-0.1-0.2c0-0.1,0-0.1,0.1-0.2c0.1-0.1,0.2-0.1,0.2-0.1h2
		c0.1,0,0.2,0,0.2,0.1c0.1,0,0.1,0.1,0.1,0.2c0,0.1,0,0.1-0.1,0.2C102.7,9.8,102.6,9.8,102.5,9.8"/>
	<path class="st2" d="M105.3,9.8h-1.4v0.8h1.3c0.1,0,0.2,0,0.2,0.1c0,0,0.1,0.1,0.1,0.2c0,0.1,0,0.1-0.1,0.2c-0.1,0-0.1,0.1-0.2,0.1
		h-1.3v0.9h1.5c0.1,0,0.2,0,0.2,0.1c0.1,0,0.1,0.1,0.1,0.2c0,0.1,0,0.1-0.1,0.2c-0.1,0.1-0.1,0.1-0.2,0.1h-1.7
		c-0.2,0-0.4-0.1-0.4-0.3c0,0,0-0.1,0-0.1V9.7c0-0.1,0-0.2,0-0.2c0-0.1,0.1-0.1,0.1-0.1c0.1,0,0.1,0,0.2,0h1.7c0.1,0,0.2,0,0.2,0.1
		c0.1,0.1,0.1,0.3,0,0.4C105.5,9.8,105.4,9.8,105.3,9.8"/>
	<path class="st2" d="M107,9.6l1.2,1.8V9.6c0-0.1,0-0.2,0.1-0.3c0.1-0.1,0.1-0.1,0.2-0.1c0.1,0,0.2,0,0.2,0.1
		c0.1,0.1,0.1,0.2,0.1,0.3v2.5c0,0.3-0.1,0.4-0.3,0.4c-0.1,0-0.1,0-0.2,0c0,0-0.1,0-0.1-0.1c0,0-0.1-0.1-0.1-0.1l-0.1-0.1l-1.2-1.8
		v1.8c0,0.1,0,0.2-0.1,0.3c-0.1,0.1-0.1,0.1-0.2,0.1c-0.1,0-0.2,0-0.2-0.1c-0.1-0.1-0.1-0.2-0.1-0.3V9.7c0-0.1,0-0.2,0-0.2
		c0-0.1,0.1-0.1,0.1-0.2c0.1-0.1,0.2-0.1,0.3,0c0,0,0.1,0,0.1,0.1c0,0,0.1,0.1,0.1,0.1L107,9.6"/>
	<path class="st2" d="M96.3,14.2h-1.3V15h1c0.1,0,0.2,0,0.2,0.1c0.1,0.1,0.1,0.2,0,0.3c0,0,0,0,0,0c-0.1,0-0.1,0.1-0.2,0.1h-1v1
		c0,0.1,0,0.2-0.1,0.3c-0.1,0.1-0.3,0.1-0.4,0c0,0,0,0,0,0c-0.1-0.1-0.1-0.2-0.1-0.3v-2.4c0-0.1,0-0.2,0-0.2c0-0.1,0.1-0.1,0.1-0.1
		c0.1,0,0.1,0,0.2,0h1.5c0.1,0,0.2,0,0.2,0.1c0.1,0.1,0.1,0.3,0,0.4c0,0,0,0,0,0C96.5,14.1,96.4,14.2,96.3,14.2"/>
	<path class="st2" d="M98,15.5h-0.2v1c0,0.1,0,0.2-0.1,0.3c-0.1,0.1-0.1,0.1-0.2,0.1c-0.1,0-0.2,0-0.2-0.1c-0.1-0.1-0.1-0.2-0.1-0.3
		v-2.4c0-0.2,0.1-0.4,0.3-0.4c0,0,0.1,0,0.1,0h1c0.1,0,0.2,0,0.4,0c0.1,0,0.2,0,0.3,0.1c0.1,0,0.2,0.1,0.3,0.2
		c0.1,0.1,0.1,0.2,0.2,0.3c0,0.1,0.1,0.2,0.1,0.3c0,0.2-0.1,0.4-0.2,0.6c-0.2,0.2-0.4,0.3-0.6,0.3c0.1,0.1,0.2,0.2,0.3,0.3
		c0.1,0.1,0.2,0.2,0.3,0.4c0.1,0.1,0.1,0.2,0.2,0.4c0,0.1,0.1,0.1,0.1,0.2c0,0,0,0.1,0,0.1c0,0-0.1,0.1-0.1,0.1c0,0-0.1,0-0.2,0
		c-0.1,0-0.1,0-0.2-0.1c0,0-0.1-0.1-0.1-0.1c0-0.1-0.1-0.2-0.1-0.2L98.7,16c-0.1-0.1-0.2-0.2-0.2-0.4c-0.1-0.1-0.1-0.1-0.2-0.2
		C98.2,15.5,98.1,15.5,98,15.5 M98.3,14.1h-0.6V15h0.6c0.1,0,0.3,0,0.4,0c0.1,0,0.2-0.1,0.2-0.1c0.1-0.1,0.1-0.2,0.1-0.3
		c0-0.1,0-0.2-0.1-0.2c0-0.1-0.1-0.1-0.2-0.1C98.6,14.2,98.5,14.1,98.3,14.1"/>
	<path class="st2" d="M102.3,14.2h-1.4v0.8h1.3c0.1,0,0.2,0,0.2,0.1c0,0,0.1,0.1,0.1,0.2c0,0.1,0,0.1-0.1,0.2
		c-0.1,0-0.1,0.1-0.2,0.1h-1.3v0.9h1.5c0.1,0,0.2,0,0.2,0.1c0.1,0,0.1,0.1,0.1,0.2c0,0.1,0,0.1-0.1,0.2c-0.1,0.1-0.1,0.1-0.2,0.1
		h-1.7c-0.2,0-0.4-0.1-0.4-0.3c0,0,0-0.1,0-0.1v-2.4c0-0.1,0-0.2,0-0.2c0-0.1,0.1-0.1,0.1-0.1c0.1,0,0.1,0,0.2,0h1.7
		c0.1,0,0.2,0,0.2,0.1c0.1,0.1,0.1,0.3,0,0.4C102.5,14.1,102.4,14.2,102.3,14.2"/>
	<path class="st2" d="M105.2,14.2h-1.4v0.8h1.3c0.1,0,0.2,0,0.2,0.1c0,0,0.1,0.1,0.1,0.2c0,0.1,0,0.1-0.1,0.2
		c-0.1,0-0.1,0.1-0.2,0.1h-1.3v0.9h1.5c0.1,0,0.2,0,0.2,0.1c0.1,0,0.1,0.1,0.1,0.2c0,0.1,0,0.1-0.1,0.2c-0.1,0.1-0.1,0.1-0.2,0.1
		h-1.7c-0.2,0-0.4-0.1-0.4-0.3c0,0,0-0.1,0-0.1v-2.4c0-0.1,0-0.2,0-0.2c0-0.1,0.1-0.1,0.1-0.1c0.1,0,0.1,0,0.2,0h1.7
		c0.1,0,0.2,0,0.2,0.1c0.1,0.1,0.1,0.3,0,0.4C105.4,14.1,105.3,14.2,105.2,14.2"/>
	<path class="st2" d="M137.6,11.8l0.7,2.1l0.7-2.1c0-0.1,0.1-0.2,0.1-0.2c0,0,0.1-0.1,0.1-0.1c0.1,0,0.1-0.1,0.2-0.1
		c0.1,0,0.1,0,0.2,0c0,0,0.1,0.1,0.1,0.1c0,0,0,0.1,0,0.1c0,0,0,0.1,0,0.1c0,0,0,0.1,0,0.1l0,0.1l-0.8,2.1c0,0.1-0.1,0.2-0.1,0.2
		c0,0.1-0.1,0.1-0.1,0.2c0,0.1-0.1,0.1-0.1,0.1c-0.1,0-0.1,0.1-0.2,0.1c-0.1,0-0.1,0-0.2-0.1c-0.1,0-0.1-0.1-0.1-0.1
		c0-0.1-0.1-0.1-0.1-0.2c0-0.1-0.1-0.1-0.1-0.2l-0.7-2c0,0,0-0.1,0-0.1c0,0,0-0.1,0-0.1c0,0,0-0.1,0-0.1c0-0.1,0-0.1,0.1-0.2
		c0.1-0.1,0.1-0.1,0.2-0.1c0.1,0,0.2,0,0.2,0.1C137.5,11.6,137.5,11.7,137.6,11.8"/>
	<path class="st2" d="M142.2,12h-1.4v0.8h1.3c0.1,0,0.2,0,0.2,0.1c0,0,0.1,0.1,0.1,0.2c0,0.1,0,0.1-0.1,0.2c-0.1,0-0.1,0.1-0.2,0.1
		h-1.3v0.9h1.5c0.1,0,0.2,0,0.2,0.1c0.1,0,0.1,0.1,0.1,0.2c0,0.1,0,0.1-0.1,0.2c-0.1,0.1-0.1,0.1-0.2,0.1h-1.7
		c-0.2,0-0.4-0.1-0.4-0.3c0,0,0-0.1,0-0.1v-2.4c0-0.1,0-0.2,0-0.2c0-0.1,0.1-0.1,0.1-0.1c0.1,0,0.1,0,0.2,0h1.7c0.1,0,0.2,0,0.2,0.1
		c0.1,0.1,0.1,0.3,0,0.4C142.4,11.9,142.3,12,142.2,12"/>
	<path class="st2" d="M145.9,13.3v0.6c0,0.1,0,0.1,0,0.2c0,0.1,0,0.1-0.1,0.1c0,0-0.1,0.1-0.2,0.1c-0.2,0.1-0.4,0.2-0.5,0.2
		c-0.2,0-0.4,0.1-0.6,0.1c-0.2,0-0.4,0-0.7-0.1c-0.2-0.1-0.4-0.2-0.5-0.3c-0.1-0.1-0.3-0.3-0.3-0.5c-0.1-0.2-0.1-0.4-0.1-0.7
		c0-0.2,0-0.5,0.1-0.7c0.1-0.2,0.2-0.4,0.3-0.5c0.1-0.1,0.3-0.3,0.5-0.3c0.2-0.1,0.5-0.1,0.7-0.1c0.2,0,0.4,0,0.6,0.1
		c0.1,0,0.3,0.1,0.4,0.2c0.1,0.1,0.2,0.2,0.2,0.3c0,0.1,0.1,0.2,0.1,0.3c0,0.1,0,0.2-0.1,0.2c-0.1,0.1-0.1,0.1-0.2,0.1
		c-0.1,0-0.2,0-0.2-0.1c-0.1-0.1-0.1-0.2-0.2-0.3c-0.1-0.1-0.1-0.1-0.2-0.2c-0.1,0-0.2-0.1-0.4-0.1c-0.1,0-0.3,0-0.4,0.1
		c-0.1,0.1-0.2,0.1-0.3,0.2c-0.1,0.1-0.2,0.2-0.2,0.4c0,0.2-0.1,0.3-0.1,0.5c0,0.3,0.1,0.6,0.3,0.8c0.2,0.2,0.4,0.3,0.7,0.3
		c0.1,0,0.3,0,0.4-0.1c0.1,0,0.3-0.1,0.4-0.2v-0.5h-0.5c-0.1,0-0.2,0-0.3-0.1c-0.1,0-0.1-0.1-0.1-0.2c0-0.1,0-0.1,0.1-0.2
		c0.1,0,0.1-0.1,0.2-0.1h0.7c0.1,0,0.2,0,0.2,0c0.1,0,0.1,0.1,0.1,0.1C145.9,13.2,145.9,13.2,145.9,13.3"/>
	<path class="st2" d="M148.5,14.3l-0.1-0.4h-1.3l-0.1,0.4c0,0.1-0.1,0.2-0.2,0.3c0,0.1-0.1,0.1-0.2,0.1c-0.1,0-0.2,0-0.2-0.1
		c-0.1-0.1-0.1-0.1-0.1-0.2c0,0,0-0.1,0-0.1c0,0,0-0.1,0.1-0.2l0.8-2l0.1-0.2c0-0.1,0.1-0.1,0.1-0.2c0-0.1,0.1-0.1,0.1-0.1
		c0.1,0,0.1-0.1,0.2-0.1c0.1,0,0.2,0,0.2,0.1c0.1,0,0.1,0.1,0.1,0.1c0,0.1,0.1,0.1,0.1,0.2c0,0.1,0.1,0.1,0.1,0.2l0.8,2
		c0.1,0.1,0.1,0.2,0.1,0.3c0,0.1,0,0.1-0.1,0.2c-0.1,0.1-0.1,0.1-0.2,0.1c0,0-0.1,0-0.1,0c0,0-0.1,0-0.1-0.1c0,0-0.1-0.1-0.1-0.1
		C148.6,14.4,148.5,14.3,148.5,14.3 M147.3,13.4h0.9l-0.5-1.3L147.3,13.4z"/>
	<path class="st2" d="M150.5,11.8l1.2,1.8v-1.9c0-0.1,0-0.2,0.1-0.3c0.1-0.1,0.1-0.1,0.2-0.1c0.1,0,0.2,0,0.2,0.1
		c0.1,0.1,0.1,0.2,0.1,0.3v2.5c0,0.3-0.1,0.4-0.3,0.4c-0.1,0-0.1,0-0.2,0c0,0-0.1,0-0.1-0.1c0,0-0.1-0.1-0.1-0.1l-0.1-0.1l-1.2-1.8
		v1.8c0,0.1,0,0.2-0.1,0.3c-0.1,0.1-0.1,0.1-0.2,0.1c-0.1,0-0.2,0-0.2-0.1c-0.1-0.1-0.1-0.2-0.1-0.3v-2.4c0-0.1,0-0.2,0-0.2
		c0-0.1,0.1-0.1,0.1-0.2c0.1-0.1,0.2-0.1,0.3,0c0,0,0.1,0,0.1,0.1c0,0,0.1,0.1,0.1,0.1L150.5,11.8"/>
	<path class="st2" d="M125.1,22.7c-5.2,0-9.5-4.2-9.5-9.4c0-5.2,4.2-9.5,9.4-9.5c5.2,0,9.5,4.2,9.5,9.4c0,0,0,0,0,0.1
		C134.5,18.4,130.3,22.6,125.1,22.7 M125.1,4.1c-5,0-9.1,4-9.1,9c0,5,4,9.1,9,9.1c5,0,9.1-4,9.1-9c0,0,0,0,0-0.1
		C134.1,8.2,130.1,4.2,125.1,4.1"/>
	<path class="st2" d="M124.8,19.6c-0.1,0-0.2-0.1-0.2-0.2l-3-12.2c0-0.1,0-0.2,0.2-0.3c0.1,0,0.2,0,0.3,0.2l3,12.2
		C125,19.4,125,19.5,124.8,19.6C124.8,19.6,124.8,19.6,124.8,19.6"/>
	<path class="st2" d="M124.4,18.2L124.4,18.2c-2-0.4-3.7-1.8-4.3-3.8c-1.3-3.7,1.3-7.4,1.4-7.5c0.1-0.1,0.2-0.1,0.3,0c0,0,0,0,0,0
		c0.1,0.1,0.1,0.2,0,0.3c0,0-2.6,3.6-1.3,7.1c0.6,1.8,2,3.1,3.9,3.5c0.1,0,0.2,0.1,0.2,0.2C124.6,18.1,124.5,18.2,124.4,18.2"/>
	<path class="st2" d="M124.4,18.2c-0.1,0-0.1,0-0.2-0.1c-0.1-0.1,0-0.2,0.1-0.3c1.5-1.2,2.1-3.1,1.8-4.9c-0.5-3.7-4.4-5.6-4.5-5.6
		c-0.1-0.1-0.2-0.2-0.1-0.3c0.1-0.1,0.2-0.2,0.3-0.1c0.2,0.1,4.2,2.1,4.7,6c0.4,2-0.4,4-2,5.3C124.5,18.1,124.5,18.2,124.4,18.2"/>
	<path class="st2" d="M123.8,15.8c0,0-0.1,0-0.1,0c-0.1-0.1-0.1-0.2-0.1-0.3l2.2-3.8c0.1-0.1,0.2-0.2,0.3-0.1
		c0.1,0.1,0.2,0.2,0.1,0.3c0,0,0,0,0,0l-2.2,3.8C124,15.7,123.9,15.8,123.8,15.8"/>
	<path class="st2" d="M123,12.5c0,0-0.1,0-0.1,0c-0.1-0.1-0.1-0.2-0.1-0.3l1.7-2.8c0.1-0.1,0.2-0.1,0.3-0.1c0,0,0,0,0,0
		c0.1,0.1,0.1,0.2,0.1,0.3l-1.7,2.8C123.2,12.4,123.1,12.5,123,12.5"/>
	<path class="st2" d="M123.8,15.8c0,0-0.1,0-0.1,0l-3.7-2.2c-0.1-0.1-0.1-0.2-0.1-0.3c0.1-0.1,0.2-0.1,0.3-0.1c0,0,0,0,0,0l3.7,2.2
		c0.1,0.1,0.1,0.2,0.1,0.3C124,15.7,123.9,15.8,123.8,15.8"/>
	<path class="st2" d="M123,12.5c0,0-0.1,0-0.1,0l-2.8-1.7c-0.1-0.1-0.1-0.2-0.1-0.3c0.1-0.1,0.2-0.1,0.3-0.1l2.8,1.7
		c0.1,0.1,0.1,0.2,0.1,0.3C123.2,12.4,123.1,12.5,123,12.5"/>
	<path class="st2" d="M126.4,14.3c0,0-0.1,0-0.1,0c-0.1-0.1-0.1-0.2-0.1-0.3l3.1-5.9c0.1-0.1,0.2-0.1,0.3-0.1c0,0,0,0,0,0
		c0.1,0.1,0.1,0.2,0.1,0.3l-3.1,5.9C126.6,14.3,126.5,14.3,126.4,14.3"/>
	<path class="st2" d="M125.5,10.5c-0.1,0-0.1,0-0.2-0.1c-0.1-0.1-0.1-0.2,0-0.3c0,0,0,0,0,0c1.2-1.1,2.7-1.8,4.2-2.2
		c0.1,0,0.2,0,0.3,0.2c0,0,0,0,0,0c0,0.1-0.1,0.2-0.2,0.3c-1.5,0.4-2.9,1.1-4,2.1C125.6,10.5,125.5,10.5,125.5,10.5"/>
	<path class="st2" d="M124.8,18.2c-0.1,0-0.2,0-0.4,0c-0.1,0-0.2-0.1-0.2-0.2c0-0.1,0.1-0.2,0.2-0.2c1.8,0.1,3.6-0.8,4.5-2.4
		c2-3,0.4-7,0.4-7.1c0-0.1,0-0.2,0.1-0.3c0.1,0,0.2,0,0.3,0.1c0,0,0,0,0,0c0.1,0.2,1.7,4.3-0.5,7.5
		C128.4,17.2,126.6,18.1,124.8,18.2"/>
	<path class="st2" d="M125.9,16c0,0-0.1-0.1-0.1-0.1c0-0.1,0-0.2,0.2-0.3l3.4-1c0.1,0,0.2,0,0.3,0.2c0,0,0,0,0,0
		c0,0.1,0,0.2-0.2,0.3l-3.4,1C126.1,16,126,16,125.9,16"/>
	<path class="st2" d="M126.9,13.2c0,0-0.1-0.1-0.1-0.1c0-0.1,0-0.2,0.2-0.3l3-0.8c0.1,0,0.2,0.1,0.3,0.2c0,0.1,0,0.2-0.1,0.2l-3,0.8
		C127.1,13.2,127,13.2,126.9,13.2"/>
	<path class="st3" d="M-12.8-0.9h400.2v108.1H-12.8V-0.9z"/>
</g>
</svg>
