<svg xmlns="http://www.w3.org/2000/svg" width="378.521" height="55.807" viewBox="0 0 378.521 55.807">
    <g data-name="Group 261">
        <path data-name="Rectangle 187" style="fill:#045768" d="M0 0h378.521v30.939H0z"/>
        <path data-name="Rectangle 188" transform="translate(0 30.939)" style="fill:#007284" d="M0 0h378.521v24.867H0z"/>
        <path data-name="Path 3352" d="M17.9 30.206h-1.25a2.547 2.547 0 0 0-2.428-1.466 2.9 2.9 0 0 0-2.947 3.141 2.9 2.9 0 0 0 2.947 3.129 2.693 2.693 0 0 0 2.807-2.592h-3.187v-.848h4.3v.8a3.873 3.873 0 0 1-3.919 3.575 4.075 4.075 0 0 1 0-8.149 3.779 3.779 0 0 1 3.677 2.41" transform="translate(4.425 12.05)" style="fill:#fff"/>
        <path data-name="Path 3353" d="M17.748 35.37H16.7v-6.281h1.045v1.021a2.113 2.113 0 0 1 2.027-1.135v1.078H19.5c-1 0-1.753.447-1.753 1.9z" transform="translate(7.24 12.559)" style="fill:#fff"/>
        <path data-name="Path 3354" d="M19.568 28.062a.7.7 0 1 1 .711.711.7.7 0 0 1-.711-.711m.172 1.73h1.044v6.281H19.74z" transform="translate(8.481 11.856)" style="fill:#fff"/>
        <path data-name="Rectangle 189" transform="translate(31.043 39.447)" style="fill:#fff" d="M0 0h1.044v8.482H0z"/>
        <path data-name="Rectangle 190" transform="translate(33.862 39.447)" style="fill:#fff" d="M0 0h1.044v8.482H0z"/>
        <path data-name="Path 3355" d="M28.426 35.469a3.026 3.026 0 0 1-3.106-3.255 2.988 2.988 0 0 1 3.106-3.231 2.878 2.878 0 0 1 3.015 3 5.347 5.347 0 0 1-.036.631h-5.02a1.976 1.976 0 0 0 2.041 1.971 1.726 1.726 0 0 0 1.765-1.158h1.124a2.824 2.824 0 0 1-2.888 2.041m-2.03-3.7h3.968a1.844 1.844 0 0 0-1.984-1.9 1.946 1.946 0 0 0-1.984 1.9" transform="translate(10.975 12.563)" style="fill:#fff"/>
        <path data-name="Path 3356" d="M33.271 29.617a2.736 2.736 0 0 1 2.329 1.227v-3.326h1.055V36H35.6v-1.18a2.58 2.58 0 0 1-2.341 1.28 3.024 3.024 0 0 1-2.98-3.268 2.978 2.978 0 0 1 2.992-3.22m.195.9a2.121 2.121 0 0 0-2.12 2.315 2.136 2.136 0 1 0 4.252.011 2.152 2.152 0 0 0-2.132-2.326" transform="translate(13.124 11.928)" style="fill:#fff"/>
        <path data-name="Path 3357" d="M40.883 28.983a2.727 2.727 0 0 1 2.9 2.12h-1.124a1.711 1.711 0 0 0-1.776-1.238c-1.147 0-2 .814-2 2.349 0 1.56.849 2.372 2 2.372a1.684 1.684 0 0 0 1.776-1.237h1.122a2.791 2.791 0 0 1-2.9 2.12 2.991 2.991 0 0 1-3.06-3.255 2.984 2.984 0 0 1 3.06-3.231" transform="translate(16.394 12.563)" style="fill:#fff"/>
        <path data-name="Path 3358" d="M42.951 27.519h1.042v3.106a2.364 2.364 0 0 1 2.074-1.025 2.424 2.424 0 0 1 2.512 2.7V36h-1.034v-3.553c0-1.283-.7-1.937-1.753-1.937s-1.8.665-1.8 2.017V36h-1.041z" transform="translate(18.616 11.928)" style="fill:#fff"/>
        <path data-name="Path 3359" d="M47.951 28.062a.7.7 0 1 1 .711.711.7.7 0 0 1-.711-.711m.172 1.73h1.045v6.281h-1.045z" transform="translate(20.784 11.856)" style="fill:#fff"/>
        <path data-name="Path 3360" d="M52.827 28.983a2.727 2.727 0 0 1 2.9 2.12H54.6a1.711 1.711 0 0 0-1.776-1.238c-1.147 0-2 .814-2 2.349 0 1.56.849 2.372 2 2.372a1.684 1.684 0 0 0 1.776-1.237h1.122a2.791 2.791 0 0 1-2.9 2.12 2.991 2.991 0 0 1-3.06-3.255 2.984 2.984 0 0 1 3.06-3.231" transform="translate(21.571 12.563)" style="fill:#fff"/>
        <path data-name="Path 3361" d="M54.895 27.519h1.045v4.987l2.417-2.787h1.456l-2.959 3.129L59.823 36H58.4l-2.46-2.773V36h-1.045z" transform="translate(23.793 11.928)" style="fill:#fff"/>
        <path data-name="Path 3362" d="M61.85 35.469a3.027 3.027 0 0 1-3.108-3.255 2.989 2.989 0 0 1 3.108-3.231 2.878 2.878 0 0 1 3.013 3 5.672 5.672 0 0 1-.034.631h-5.02a1.976 1.976 0 0 0 2.041 1.971 1.725 1.725 0 0 0 1.763-1.158h1.124a2.822 2.822 0 0 1-2.887 2.041m-2.03-3.7h3.966a1.844 1.844 0 0 0-1.984-1.9 1.946 1.946 0 0 0-1.982 1.9" transform="translate(25.461 12.563)" style="fill:#fff"/>
        <path data-name="Path 3363" d="M68.571 31.817c0-1.284-.7-1.938-1.755-1.938s-1.8.665-1.8 2.018v3.473h-1.041v-6.281h1.042v.894a2.323 2.323 0 0 1 2.018-1.009 2.437 2.437 0 0 1 2.565 2.693v3.7h-1.029z" transform="translate(27.729 12.559)" style="fill:#fff"/>
        <path data-name="Path 3364" d="M289.368 33.579h-1.742l-.321.889h-.55L288.2 30.5h.6l1.438 3.972h-.55zm-.87-2.441-.722 2.017h1.443z" transform="translate(62.338 13.219)" style="fill:#fff"/>
        <path data-name="Path 3365" d="M291.776 30.907h-1.627v1.336h1.456v.429h-1.456v1.376h1.627v.43h-2.149v-4h2.149z" transform="translate(63.583 13.21)" style="fill:#fff"/>
        <path data-name="Path 3366" d="M295.043 32.487a1.9 1.9 0 0 1-2.12 1.988h-1.244V30.48h1.244a1.914 1.914 0 0 1 2.12 2.007m-2.12 1.558a1.423 1.423 0 0 0 1.587-1.558 1.44 1.44 0 0 0-1.587-1.583h-.723v3.141z" transform="translate(64.472 13.212)" style="fill:#fff"/>
        <path data-name="Path 3367" d="M295.629 34.543c1.891-1.6 3.875-3.083 3.875-4.619 0-.745-.333-1.25-1.124-1.25-.767 0-1.191.55-1.2 1.433h-1.56a2.627 2.627 0 0 1 2.787-2.8 2.412 2.412 0 0 1 2.7 2.521c0 1.937-1.866 3.45-3.2 4.573h3.38v1.33h-5.662z" transform="translate(66.18 11.838)" style="fill:#fff"/>
        <path data-name="Path 3368" d="M303.378 27.326c2.359 0 3.093 1.812 3.093 4.23 0 2.441-.734 4.263-3.093 4.263s-3.095-1.822-3.095-4.263c0-2.418.734-4.23 3.095-4.23m0 1.491c-1.353 0-1.514 1.307-1.514 2.739 0 1.491.161 2.774 1.514 2.774s1.512-1.283 1.512-2.774c0-1.432-.161-2.739-1.512-2.739" transform="translate(68.202 11.845)" style="fill:#fff"/>
        <path data-name="Path 3369" d="M267.445 18.546a8.892 8.892 0 0 1-2.326-6.327 8.822 8.822 0 0 1 2.5-6.509h1.089v.1a8.762 8.762 0 0 0-2.58 6.406 8.884 8.884 0 0 0 2.408 6.224v.1z" transform="translate(52.96 2.476)" style="fill:#fff"/>
        <path data-name="Path 3370" d="M271.107 15.7c-1.605 0-2.739-.893-2.764-2.212h1.114a1.478 1.478 0 0 0 1.65 1.33c1.008 0 1.6-.575 1.6-1.33 0-2.154-4.322-.78-4.322-3.747 0-1.319 1.068-2.212 2.648-2.212a2.39 2.39 0 0 1 2.649 2.05h-1.147a1.445 1.445 0 0 0-1.547-1.157c-.86-.023-1.535.424-1.535 1.283 0 2.064 4.307.78 4.307 3.737a2.392 2.392 0 0 1-2.658 2.258" transform="translate(54.358 3.266)" style="fill:#fff"/>
        <path data-name="Path 3371" d="M276.033 15.211a3.026 3.026 0 0 1-3.106-3.255 2.988 2.988 0 0 1 3.106-3.231 2.878 2.878 0 0 1 3.014 3 5.68 5.68 0 0 1-.034.631h-5.02a1.975 1.975 0 0 0 2.04 1.971 1.727 1.727 0 0 0 1.767-1.157h1.124a2.824 2.824 0 0 1-2.888 2.041M274 11.509h3.966a1.844 1.844 0 0 0-1.984-1.9 1.946 1.946 0 0 0-1.982 1.9" transform="translate(56.345 3.782)" style="fill:#fff"/>
        <path data-name="Path 3372" d="M279.2 15.112h-1.044V8.831h1.044v1.02a2.118 2.118 0 0 1 2.028-1.135v1.078h-.275c-1 0-1.753.447-1.753 1.9z" transform="translate(58.612 3.779)" style="fill:#fff"/>
        <path data-name="Path 3373" d="m281.747 8.8 1.96 5.318 1.949-5.318h1.111l-2.467 6.277h-1.214L280.624 8.8z" transform="translate(59.681 3.813)" style="fill:#fff"/>
        <path data-name="Path 3374" d="M288.466 15.211a3.026 3.026 0 0 1-3.106-3.255 2.988 2.988 0 0 1 3.106-3.231 2.879 2.879 0 0 1 3.014 3 5.35 5.35 0 0 1-.036.631h-5.02a1.976 1.976 0 0 0 2.041 1.971 1.723 1.723 0 0 0 1.763-1.158h1.125a2.825 2.825 0 0 1-2.888 2.041m-2.03-3.7h3.965a1.844 1.844 0 0 0-1.982-1.9 1.946 1.946 0 0 0-1.984 1.9" transform="translate(61.734 3.782)" style="fill:#fff"/>
        <path data-name="Path 3375" d="M292.919 15.211c-1.466 0-2.5-.8-2.567-1.948h1.077c.057.606.6 1.065 1.478 1.065.826 0 1.284-.411 1.284-.929 0-1.4-3.713-.583-3.713-2.923 0-.962.9-1.752 2.3-1.752a2.107 2.107 0 0 1 2.374 1.971h-1.042a1.207 1.207 0 0 0-1.363-1.089c-.768 0-1.227.367-1.227.87 0 1.491 3.644.677 3.691 2.923 0 1.032-.906 1.812-2.292 1.812" transform="translate(63.897 3.782)" style="fill:#fff"/>
        <path data-name="Path 3376" d="M297.691 8.348h-1.1V7.4h2.156v8.287h-1.055z" transform="translate(66.602 3.207)" style="fill:#fff"/>
        <path data-name="Path 3377" d="M299.283 18.546v-.1a8.891 8.891 0 0 0 2.408-6.224 8.768 8.768 0 0 0-2.58-6.406v-.1h1.089a8.828 8.828 0 0 1 2.5 6.509 8.9 8.9 0 0 1-2.326 6.327z" transform="translate(67.694 2.476)" style="fill:#fff"/>
        <path data-name="Path 3378" d="M17.557 16.542h-3.581l-.545 1.648H10.48l3.682-10.1H17.4l3.667 10.1H18.1zm-1.79-5.416-1.074 3.267h2.163z" transform="translate(4.542 3.507)" style="fill:#fff"/>
        <path data-name="Path 3379" d="M27.78 13.132a4.911 4.911 0 0 1-5.274 5.057h-4V8.091h4c3.224 0 5.274 2.077 5.274 5.041m-5.487 2.579a2.389 2.389 0 0 0 2.636-2.579 2.4 2.4 0 0 0-2.636-2.606h-.975v5.185z" transform="translate(8.023 3.508)" style="fill:#fff"/>
        <path data-name="Path 3380" d="M35.129 13.132a4.91 4.91 0 0 1-5.272 5.057h-4V8.091h4c3.222 0 5.272 2.077 5.272 5.041m-5.487 2.579a2.389 2.389 0 0 0 2.636-2.579 2.4 2.4 0 0 0-2.636-2.606h-.975v5.185z" transform="translate(11.208 3.508)" style="fill:#fff"/>
        <path data-name="Path 3381" d="M40.066 18.338a5.079 5.079 0 0 1-5.186-5.186 5.178 5.178 0 0 1 10.357 0 5.067 5.067 0 0 1-5.17 5.186m0-2.607a2.288 2.288 0 0 0 2.321-2.579 2.286 2.286 0 0 0-2.321-2.593c-1.462 0-2.321 1-2.321 2.593a2.28 2.28 0 0 0 2.321 2.579" transform="translate(15.118 3.459)" style="fill:#fff"/>
        <path data-name="Path 3382" d="M52.345 8.09v10.1h-2.809L45.8 12.545v5.645h-2.81V8.09h2.81l3.738 5.715V8.09z" transform="translate(18.633 3.507)" style="fill:#fff"/>
        <path data-name="Path 3383" d="M67.547 23.806a9.993 9.993 0 1 1 9.942-9.994 9.979 9.979 0 0 1-9.942 9.994m0-19.525a9.532 9.532 0 1 0 9.484 9.531 9.518 9.518 0 0 0-9.484-9.531" transform="translate(24.968 1.656)" style="fill:#fff"/>
        <path data-name="Path 3384" d="M63.332 11.622a.3.3 0 0 1-.172-.054 1.929 1.929 0 0 1-.833-1.578v-1.6a.3.3 0 0 1 .452-.264l2.167 1.238a1.936 1.936 0 0 1 .856 1.593.3.3 0 1 1-.6 0 1.322 1.322 0 0 0-.573-1.079l-1.699-.963v1.074a1.322 1.322 0 0 0 .573 1.079.3.3 0 0 1-.172.553" transform="translate(27.015 3.508)" style="fill:#fff"/>
        <path data-name="Path 3385" d="M62.79 12.745a.3.3 0 0 1-.272-.171 1.913 1.913 0 0 1-.191-.826v-1.6a.3.3 0 0 1 .151-.262.3.3 0 0 1 .3 0l2.064 1.18a.3.3 0 0 1-.3.528l-1.614-.922v1.074a1.305 1.305 0 0 0 .13.56.3.3 0 0 1-.139.406.31.31 0 0 1-.132.03" transform="translate(27.015 4.27)" style="fill:#fff"/>
        <path data-name="Path 3386" d="M65.051 13.843a.291.291 0 0 1-.149-.04l-1.385-.79a.3.3 0 0 1-.117-.413.3.3 0 0 1 .411-.115l.933.533v-1.073a.3.3 0 1 1 .6 0v1.594a.3.3 0 0 1-.3.3" transform="translate(27.464 5.046)" style="fill:#fff"/>
        <path data-name="Path 3387" d="M65.5 16a.291.291 0 0 1-.149-.04l-2.167-1.237a1.965 1.965 0 0 1-.851-1.459.3.3 0 1 1 .6-.044 1.343 1.343 0 0 0 .571.991l1.693.966v-1.07a1.323 1.323 0 0 0-.573-1.081.3.3 0 0 1 .344-.5 1.933 1.933 0 0 1 .834 1.58V15.7a.3.3 0 0 1-.3.3" transform="translate(27.016 5.407)" style="fill:#fff"/>
        <path data-name="Path 3388" d="M62.629 9.58a.3.3 0 0 1-.3-.3V7.526a.3.3 0 1 1 .6 0v1.75a.3.3 0 0 1-.3.3" transform="translate(27.015 3.131)" style="fill:#fff"/>
        <path data-name="Path 3389" d="M64.632 11.931a.3.3 0 0 1-.3-.3v-.667a1.933 1.933 0 0 1 .833-1.578l2.19-1.253a.3.3 0 0 1 .452.264v1.565a.3.3 0 1 1-.6 0V8.915l-1.716.98a1.313 1.313 0 0 0-.55 1.065v.667a.3.3 0 0 1-.3.3" transform="translate(27.883 3.508)" style="fill:#fff"/>
        <path data-name="Path 3390" d="M64.632 14.346a.3.3 0 0 1-.3-.3v-1.597a.3.3 0 1 1 .6 0v1.072l1.716-.98a1.315 1.315 0 0 0 .55-1.065v-.692a.3.3 0 1 1 .6 0v.692a1.932 1.932 0 0 1-.833 1.58l-2.19 1.251a.291.291 0 0 1-.149.04" transform="translate(27.883 4.543)" style="fill:#fff"/>
        <path data-name="Path 3391" d="M64.632 16.378a.3.3 0 0 1-.3-.3v-1.6a1.929 1.929 0 0 1 .833-1.578l2.19-1.253a.3.3 0 0 1 .45.264v1.6a1.929 1.929 0 0 1-.833 1.578l-2.19 1.253a.3.3 0 0 1-.149.039m2.567-3.947-1.716.98a1.311 1.311 0 0 0-.55 1.065v1.074l1.716-.98a1.315 1.315 0 0 0 .55-1.065z" transform="translate(27.884 5.033)" style="fill:#fff"/>
        <path data-name="Path 3392" d="M66.634 9.58a.3.3 0 0 1-.3-.3V7.526a.3.3 0 1 1 .6 0v1.75a.3.3 0 0 1-.3.3" transform="translate(28.751 3.131)" style="fill:#fff"/>
        <path data-name="Path 3393" d="M64.632 11.271a.3.3 0 0 1-.3-.3V6.949a.3.3 0 0 1 .6 0v4.018a.3.3 0 0 1-.3.3" transform="translate(27.883 2.882)" style="fill:#fff"/>
        <path data-name="Path 3394" d="M60.235 16.364a.3.3 0 0 1-.262-.152.305.305 0 0 1 .11-.414l12.606-7.315a.3.3 0 0 1 .413.11.305.305 0 0 1-.11.416l-12.606 7.315a.3.3 0 0 1-.151.04" transform="translate(25.977 3.66)" style="fill:#fff"/>
        <path data-name="Path 3395" d="M76.739 9.9v.635a.638.638 0 0 1-.026.2.319.319 0 0 1-.092.138.774.774 0 0 1-.169.118 2.7 2.7 0 0 1-.579.237 2.315 2.315 0 0 1-.6.076 1.968 1.968 0 0 1-.7-.119 1.476 1.476 0 0 1-.536-.34 1.555 1.555 0 0 1-.34-.543 2.209 2.209 0 0 1 0-1.418 1.461 1.461 0 0 1 .338-.545A1.514 1.514 0 0 1 74.576 8a2.1 2.1 0 0 1 .728-.118 1.83 1.83 0 0 1 .592.089 1.319 1.319 0 0 1 .417.225.987.987 0 0 1 .242.287.579.579 0 0 1 .082.268.293.293 0 0 1-.095.216.318.318 0 0 1-.224.089.3.3 0 0 1-.14-.034.336.336 0 0 1-.113-.095 2.518 2.518 0 0 0-.208-.294.665.665 0 0 0-.231-.166.884.884 0 0 0-.373-.067 1.027 1.027 0 0 0-.414.079.859.859 0 0 0-.314.234 1.06 1.06 0 0 0-.2.374 1.685 1.685 0 0 0-.069.489 1.349 1.349 0 0 0 .268.9.929.929 0 0 0 .747.314 1.483 1.483 0 0 0 .436-.062 2.084 2.084 0 0 0 .416-.173v-.538H75.6a.574.574 0 0 1-.284-.056.206.206 0 0 1-.1-.192.235.235 0 0 1 .08-.183.314.314 0 0 1 .218-.072h.76a.954.954 0 0 1 .239.024.274.274 0 0 1 .156.11.463.463 0 0 1 .06.258" transform="translate(31.891 3.417)" style="fill:#fff"/>
        <path data-name="Path 3396" d="M76.89 8.289V10.7h1.359a.354.354 0 0 1 .249.079.256.256 0 0 1 .087.2.25.25 0 0 1-.086.2.369.369 0 0 1-.251.075h-1.62a.431.431 0 0 1-.314-.1.44.44 0 0 1-.1-.314V8.289a.439.439 0 0 1 .092-.305.31.31 0 0 1 .241-.1.321.321 0 0 1 .245.1.428.428 0 0 1 .093.305" transform="translate(33.036 3.417)" style="fill:#fff"/>
        <path data-name="Path 3397" d="M78.18 9.882V8.289a.449.449 0 0 1 .09-.305.312.312 0 0 1 .241-.1.319.319 0 0 1 .248.1.449.449 0 0 1 .092.305v1.628a1.443 1.443 0 0 0 .063.464.529.529 0 0 0 .219.288.807.807 0 0 0 .443.1.662.662 0 0 0 .555-.208 1.024 1.024 0 0 0 .163-.634V8.289a.442.442 0 0 1 .09-.305.308.308 0 0 1 .241-.1.319.319 0 0 1 .245.1.428.428 0 0 1 .093.305v1.593a2.367 2.367 0 0 1-.075.648 1 1 0 0 1-.287.456 1.084 1.084 0 0 1-.42.244 1.816 1.816 0 0 1-.559.077 2.319 2.319 0 0 1-.657-.082 1.042 1.042 0 0 1-.45-.257 1.027 1.027 0 0 1-.255-.441 2.249 2.249 0 0 1-.082-.645" transform="translate(33.886 3.417)" style="fill:#fff"/>
        <path data-name="Path 3398" d="M82.875 8.474h-.731v2.406a.436.436 0 0 1-.093.308.31.31 0 0 1-.239.1.315.315 0 0 1-.242-.1.437.437 0 0 1-.095-.307V8.474h-.731a.374.374 0 0 1-.255-.076.279.279 0 0 1 0-.4.379.379 0 0 1 .252-.075h2.132a.381.381 0 0 1 .262.077.265.265 0 0 1 .085.2.251.251 0 0 1-.086.2.382.382 0 0 1-.258.076" transform="translate(34.85 3.434)" style="fill:#fff"/>
        <path data-name="Path 3399" d="M84.827 8.438h-1.511v.813h1.39a.332.332 0 0 1 .229.069.235.235 0 0 1 .076.182.246.246 0 0 1-.075.183.325.325 0 0 1-.231.072h-1.39v.943h1.562a.343.343 0 0 1 .238.073.254.254 0 0 1 .08.195.247.247 0 0 1-.08.191.336.336 0 0 1-.238.075h-1.821a.352.352 0 0 1-.411-.411V8.332a.558.558 0 0 1 .043-.237.266.266 0 0 1 .135-.133.573.573 0 0 1 .234-.042h1.77a.352.352 0 0 1 .238.07.263.263 0 0 1 0 .376.345.345 0 0 1-.238.072" transform="translate(35.821 3.434)" style="fill:#fff"/>
        <path data-name="Path 3400" d="m85.67 8.283 1.289 1.951V8.266a.427.427 0 0 1 .083-.288.274.274 0 0 1 .222-.1.284.284 0 0 1 .228.1.435.435 0 0 1 .083.288v2.6c0 .291-.12.436-.361.436a.5.5 0 0 1-.163-.026.43.43 0 0 1-.135-.082.705.705 0 0 1-.118-.133c-.034-.05-.072-.1-.109-.153l-1.257-1.927v1.939a.418.418 0 0 1-.089.288.293.293 0 0 1-.226.1.29.29 0 0 1-.226-.1.423.423 0 0 1-.086-.287V8.368a.724.724 0 0 1 .036-.257.353.353 0 0 1 .143-.165.381.381 0 0 1 .214-.065.388.388 0 0 1 .155.029.373.373 0 0 1 .113.079.967.967 0 0 1 .1.129c.032.053.067.108.1.165" transform="translate(36.757 3.417)" style="fill:#fff"/>
        <path data-name="Path 3401" d="M78.156 11.665h-1.321v.847h1.105a.325.325 0 0 1 .229.069.258.258 0 0 1 0 .367.341.341 0 0 1-.228.067h-1.106v1.091a.436.436 0 0 1-.093.308.339.339 0 0 1-.483 0 .437.437 0 0 1-.095-.307v-2.548a.558.558 0 0 1 .043-.237.274.274 0 0 1 .133-.133.583.583 0 0 1 .234-.042h1.583a.352.352 0 0 1 .238.07.263.263 0 0 1 0 .376.345.345 0 0 1-.238.072" transform="translate(33.012 4.833)" style="fill:#fff"/>
        <path data-name="Path 3402" d="M79.024 13.043h-.235v1.064a.444.444 0 0 1-.092.31.318.318 0 0 1-.242.1.306.306 0 0 1-.248-.1.457.457 0 0 1-.087-.3v-2.558a.35.35 0 0 1 .41-.411h1.091a3.284 3.284 0 0 1 .386.019.975.975 0 0 1 .29.077.884.884 0 0 1 .277.188.841.841 0 0 1 .181.284.943.943 0 0 1 .062.343.823.823 0 0 1-.208.591 1.207 1.207 0 0 1-.634.315 1.207 1.207 0 0 1 .341.28 3.11 3.11 0 0 1 .489.771.732.732 0 0 1 .07.232.229.229 0 0 1-.042.129.288.288 0 0 1-.113.1.37.37 0 0 1-.168.037.328.328 0 0 1-.189-.053.542.542 0 0 1-.133-.135 7.3 7.3 0 0 1-.149-.239l-.269-.447a2.5 2.5 0 0 0-.258-.376.644.644 0 0 0-.232-.175.763.763 0 0 0-.3-.047m.384-1.392h-.619v.91h.6a1.719 1.719 0 0 0 .407-.042.481.481 0 0 0 .251-.142.407.407 0 0 0 .087-.278.425.425 0 0 0-.07-.242.411.411 0 0 0-.194-.156 1.4 1.4 0 0 0-.463-.05" transform="translate(33.86 4.833)" style="fill:#fff"/>
        <path data-name="Path 3403" d="M82.625 11.665h-1.511v.813H82.5a.332.332 0 0 1 .229.069.235.235 0 0 1 .076.182.246.246 0 0 1-.075.183.325.325 0 0 1-.231.072h-1.39v.942h1.562a.343.343 0 0 1 .238.073.254.254 0 0 1 .08.195.247.247 0 0 1-.08.191.336.336 0 0 1-.238.075h-1.817a.352.352 0 0 1-.411-.411v-2.49a.558.558 0 0 1 .043-.237.266.266 0 0 1 .135-.133.573.573 0 0 1 .234-.042h1.77a.352.352 0 0 1 .238.07.263.263 0 0 1 0 .376.345.345 0 0 1-.238.072" transform="translate(34.867 4.833)" style="fill:#fff"/>
        <path data-name="Path 3404" d="M84.777 11.665h-1.511v.813h1.39a.332.332 0 0 1 .229.069.235.235 0 0 1 .076.182.246.246 0 0 1-.075.183.325.325 0 0 1-.231.072h-1.39v.942h1.562a.343.343 0 0 1 .238.073.254.254 0 0 1 .08.195.247.247 0 0 1-.08.191.336.336 0 0 1-.238.075h-1.821a.352.352 0 0 1-.411-.411v-2.49a.558.558 0 0 1 .043-.237.266.266 0 0 1 .135-.133.573.573 0 0 1 .234-.042h1.77a.352.352 0 0 1 .238.07.263.263 0 0 1 0 .376.345.345 0 0 1-.238.072" transform="translate(35.8 4.833)" style="fill:#fff"/>
    </g>
</svg>
