<?xml version="1.0" encoding="utf-8"?>
<!-- Generator: Adobe Illustrator 26.4.1, SVG Export Plug-In . SVG Version: 6.00 Build 0)  -->
<svg version="1.1" id="Layer_1" xmlns="http://www.w3.org/2000/svg" xmlns:xlink="http://www.w3.org/1999/xlink" x="0px" y="0px"
	 viewBox="0 0 378.6 85.2" style="enable-background:new 0 0 378.6 85.2;" xml:space="preserve">
<style type="text/css">
	.st0{fill:#045768;}
	.st1{fill:#007284;}
	.st2{fill:#FFFFFF;}
	.st3{fill:none;}
</style>
<g>
	<g>
		<path class="st0" d="M0,0h378.6v27.9H0V0z"/>
		<path class="st1" d="M0,27.9h378.6v57.3H0V27.9z"/>
		<path class="st2" d="M6.1,36c1.5-0.1,2.9,0.8,3.5,2.3H8.5c-0.4-0.9-1.3-1.5-2.3-1.4c-1.5,0-2.7,1.2-2.8,2.7c0,0.1,0,0.2,0,0.3
			c-0.1,1.5,1,2.8,2.5,3c0.1,0,0.2,0,0.3,0c1,0.1,1.9-0.5,2.3-1.4h1.2c-0.6,1.4-2,2.3-3.5,2.3c-2.1,0-3.8-1.8-3.8-3.9
			C2.4,37.7,4.1,36.1,6.1,36"/>
		<path class="st2" d="M11.1,35.7h1v2.9c0.4-0.6,1.2-1,2-1c1.3-0.1,2.3,0.9,2.4,2.2c0,0.1,0,0.2,0,0.4v3.5h-1v-3.3
			c0-1.2-0.7-1.8-1.7-1.8s-1.7,0.6-1.7,1.9v3.3h-1L11.1,35.7z"/>
		<path class="st2" d="M20.4,37.6c0.9,0,1.7,0.4,2.2,1.2v-1.1h1v5.9h-1v-1.1c-0.5,0.8-1.3,1.2-2.2,1.2c-1.6,0-2.8-1.3-2.8-2.9
			c0-0.1,0-0.1,0-0.2c-0.1-1.5,1-2.9,2.6-3C20.3,37.6,20.4,37.6,20.4,37.6 M20.6,38.5c-1.1,0-2,0.9-2,2c0,0.1,0,0.1,0,0.2
			c-0.1,1.1,0.7,2.1,1.8,2.2c1.1,0.1,2.1-0.7,2.2-1.8c0-0.1,0-0.3,0-0.4c0.1-1.1-0.7-2.1-1.9-2.2C20.7,38.5,20.7,38.5,20.6,38.5"/>
		<path class="st2" d="M26.3,43.7h-1v-5.9h1v1c0.4-0.7,1.1-1.1,1.9-1.1v1h-0.3c-0.9,0-1.7,0.4-1.7,1.8V43.7z"/>
		<path class="st2" d="M31.8,37.6c0.9,0,1.7,0.4,2.2,1.2v-1.1h1v6c0.1,1.5-1,2.7-2.5,2.8c-0.1,0-0.2,0-0.3,0
			c-1.3,0.2-2.6-0.7-2.9-2.1h1c0.3,0.8,1.1,1.3,1.9,1.2c1,0,1.8-0.7,1.8-1.7c0-0.1,0-0.2,0-0.3v-1.2c-0.5,0.8-1.3,1.2-2.2,1.2
			c-1.6,0-2.8-1.3-2.8-2.9c0-0.1,0-0.1,0-0.2c-0.1-1.5,1-2.9,2.6-3C31.6,37.6,31.7,37.6,31.8,37.6 M32,38.5c-1.1,0-2,0.9-2,2
			c0,0.1,0,0.1,0,0.2c-0.1,1.1,0.7,2.1,1.8,2.2c1.1,0.1,2.1-0.7,2.2-1.8c0-0.1,0-0.3,0-0.4c0.1-1.1-0.7-2.1-1.9-2.2
			C32.1,38.5,32,38.5,32,38.5"/>
		<path class="st2" d="M37.6,43.7h-1v-5.9h1v1c0.4-0.7,1.1-1.1,1.9-1.1v1h-0.3c-0.9,0-1.7,0.4-1.7,1.8L37.6,43.7z"/>
		<path class="st2" d="M40.5,36.1c0-0.4,0.3-0.7,0.7-0.6c0.4,0,0.7,0.3,0.6,0.7c0,0.4-0.3,0.6-0.6,0.6
			C40.8,36.8,40.5,36.5,40.5,36.1C40.5,36.1,40.5,36.1,40.5,36.1 M40.7,37.7h1v5.9h-1V37.7z"/>
		<path class="st2" d="M43.3,35.7h1v8h-1V35.7z"/>
		<path class="st2" d="M46,35.7h1v8h-1V35.7z"/>
		<path class="st2" d="M51.2,43.7c-1.6,0-2.9-1.2-2.9-2.8c0-0.1,0-0.2,0-0.3c-0.1-1.5,1-2.9,2.6-3c0.1,0,0.2,0,0.4,0
			c1.5-0.1,2.8,1.1,2.8,2.6c0,0.1,0,0.2,0,0.2c0,0.2,0,0.4,0,0.6h-4.7c0,1,0.8,1.9,1.9,1.9c0,0,0,0,0.1,0c0.7,0.1,1.4-0.4,1.7-1.1
			h1.1C53.6,43,52.5,43.8,51.2,43.7 M49.3,40.3H53c0-1-0.7-1.8-1.7-1.8c-0.1,0-0.1,0-0.2,0C50.2,38.5,49.3,39.3,49.3,40.3"/>
		<path class="st2" d="M57.8,37.6c0.9,0,1.7,0.4,2.2,1.2v-3.1h1v8h-1v-1.1c-0.5,0.8-1.3,1.2-2.2,1.2c-1.6,0-2.8-1.3-2.8-2.9
			c0-0.1,0-0.1,0-0.2c-0.1-1.5,1-2.9,2.6-3C57.6,37.6,57.7,37.6,57.8,37.6 M58,38.5c-1.1,0-2,0.9-2,2c0,0.1,0,0.1,0,0.2
			c0.1,1.1,1.1,1.9,2.2,1.8c1.1-0.1,1.9-1.1,1.8-2.2C59.9,39.3,59,38.5,58,38.5"/>
		<path class="st2" d="M65.8,38.5H65v-0.8h0.8v-1.5h1v1.5h1.5v0.8h-1.5V42c0,0.6,0.2,0.8,0.8,0.8h0.7v0.8h-0.9c-1,0-1.6-0.4-1.6-1.6
			L65.8,38.5z"/>
		<path class="st2" d="M72,43.7c-1.6,0-2.9-1.2-2.9-2.8c0-0.1,0-0.2,0-0.3c-0.1-1.6,1-2.9,2.6-3c0.1,0,0.2,0,0.3,0
			c1.5-0.1,2.8,1.1,2.8,2.6c0,0.1,0,0.2,0,0.2c0,0.2,0,0.4,0,0.6h-4.7c0,1,0.8,1.9,1.9,1.9c0,0,0,0,0.1,0c0.7,0.1,1.4-0.4,1.7-1.1
			h1.1C74.4,43,73.3,43.8,72,43.7 M70.1,40.3h3.7c0-1-0.7-1.8-1.7-1.8c-0.1,0-0.1,0-0.2,0C71,38.5,70.1,39.3,70.1,40.3"/>
		<path class="st2" d="M84.7,40.3c0-1.2-0.6-1.8-1.6-1.8c-1,0-1.7,0.6-1.7,1.9v3.3h-1v-3.3c0-1.2-0.6-1.8-1.6-1.8
			c-1,0-1.7,0.6-1.7,1.9v3.3h-1v-5.9h1v0.9c0.4-0.6,1.1-1,1.9-1c0.9-0.1,1.8,0.5,2.2,1.3c0.4-0.8,1.2-1.4,2.1-1.3
			c1.3-0.1,2.3,0.9,2.4,2.2c0,0.1,0,0.3,0,0.4v3.5h-1L84.7,40.3z"/>
		<path class="st2" d="M90.5,37.6c1.5,0,2.8,1.2,2.8,2.8c0,0.1,0,0.2,0,0.2c0.1,1.6-1,2.9-2.6,3.1c-0.1,0-0.1,0-0.2,0
			c-0.9,0-1.7-0.4-2.2-1.2v3.9h-1v-8.7h1v1.1C88.8,38.1,89.6,37.6,90.5,37.6 M90.3,38.5c-1.2-0.1-2.3,0.8-2.4,2
			c-0.1,1.2,0.8,2.3,2,2.4c1.2,0.1,2.3-0.8,2.4-2c0-0.1,0-0.1,0-0.2c0.1-1.1-0.7-2.1-1.8-2.2C90.4,38.5,90.4,38.5,90.3,38.5"/>
		<path class="st2" d="M97.2,43.7c-1.6,0-2.9-1.2-2.9-2.8c0-0.1,0-0.2,0-0.3c-0.1-1.6,1-2.9,2.6-3c0.1,0,0.2,0,0.3,0
			c1.5-0.1,2.8,1.1,2.8,2.6c0,0.1,0,0.2,0,0.2c0,0.2,0,0.4,0,0.6h-4.7c0,1,0.8,1.9,1.9,1.9c0,0,0,0,0.1,0c0.7,0.1,1.4-0.4,1.7-1.1
			h1.1C99.6,43,98.4,43.8,97.2,43.7 M95.3,40.3H99c0-1-0.7-1.8-1.7-1.8c-0.1,0-0.1,0-0.2,0C96.1,38.5,95.3,39.3,95.3,40.3"/>
		<path class="st2" d="M101.3,35.7h1v2.9c0.4-0.6,1.2-1,2-1c1.3-0.1,2.3,0.9,2.4,2.2c0,0.1,0,0.2,0,0.4v3.5h-1v-3.3
			c0-1.2-0.7-1.8-1.7-1.8c-1,0-1.7,0.6-1.7,1.9v3.3h-1L101.3,35.7z"/>
		<path class="st2" d="M6.1,53c1.5-0.1,2.9,0.8,3.5,2.3H8.5c-0.4-0.9-1.3-1.5-2.3-1.4c-1.5,0-2.7,1.2-2.8,2.7c0,0.1,0,0.2,0,0.3
			c-0.1,1.5,1,2.8,2.5,3c0.1,0,0.2,0,0.3,0c1,0.1,1.9-0.5,2.3-1.4h1.2c-0.6,1.4-2,2.3-3.5,2.3c-2.1,0-3.8-1.8-3.8-3.9
			C2.4,54.7,4.1,53.1,6.1,53"/>
		<path class="st2" d="M11.1,52.7h1v2.9c0.4-0.6,1.2-1,2-1c1.3-0.1,2.3,0.9,2.4,2.2c0,0.1,0,0.2,0,0.4v3.5h-1v-3.3
			c0-1.2-0.7-1.8-1.7-1.8s-1.7,0.6-1.7,1.9v3.3h-1L11.1,52.7z"/>
		<path class="st2" d="M20.4,54.6c0.9,0,1.7,0.4,2.2,1.2v-1.1h1v5.9h-1v-1.1c-0.5,0.8-1.3,1.2-2.2,1.2c-1.6,0-2.8-1.3-2.8-2.9
			c0-0.1,0-0.1,0-0.2c-0.1-1.5,1-2.9,2.6-3C20.3,54.7,20.4,54.6,20.4,54.6 M20.6,55.5c-1.1,0-2,0.9-2,2c0,0.1,0,0.1,0,0.2
			c0.1,1.1,1.1,1.9,2.2,1.8c1.1-0.1,1.9-1.1,1.8-2.2C22.6,56.3,21.7,55.5,20.6,55.5"/>
		<path class="st2" d="M26.3,60.7h-1v-5.9h1v1c0.4-0.7,1.1-1.1,1.9-1.1v1h-0.3c-0.9,0-1.7,0.4-1.7,1.8V60.7z"/>
		<path class="st2" d="M31.8,54.6c0.9,0,1.7,0.4,2.2,1.2v-1.1h1v6c0.1,1.5-1,2.7-2.5,2.8c-0.1,0-0.2,0-0.3,0
			c-1.3,0.2-2.6-0.7-2.9-2.1h1c0.3,0.8,1.1,1.3,1.9,1.2c1,0,1.8-0.7,1.8-1.7c0-0.1,0-0.2,0-0.3v-1.2c-0.5,0.8-1.3,1.2-2.2,1.2
			c-1.6,0-2.8-1.3-2.8-2.9c0-0.1,0-0.1,0-0.2c-0.1-1.5,1-2.9,2.6-3C31.6,54.7,31.7,54.6,31.8,54.6 M32,55.5c-1.1,0-2,0.9-2,2
			c0,0.1,0,0.1,0,0.2c0.1,1.1,1.1,1.9,2.2,1.8c1.1-0.1,1.9-1.1,1.8-2.2C33.9,56.3,33,55.5,32,55.5"/>
		<path class="st2" d="M37.6,60.7h-1v-5.9h1v1c0.4-0.7,1.1-1.1,1.9-1.1v1h-0.3c-0.9,0-1.7,0.4-1.7,1.8L37.6,60.7z"/>
		<path class="st2" d="M40.5,53.1c0-0.4,0.3-0.7,0.7-0.6s0.7,0.3,0.6,0.7c0,0.4-0.3,0.6-0.6,0.6C40.8,53.8,40.5,53.5,40.5,53.1
			C40.5,53.1,40.5,53.1,40.5,53.1 M40.7,54.7h1v5.9h-1V54.7z"/>
		<path class="st2" d="M43.3,52.7h1v8h-1V52.7z"/>
		<path class="st2" d="M46,52.7h1v8h-1V52.7z"/>
		<path class="st2" d="M51.2,60.8c-1.6,0-2.9-1.2-2.9-2.8c0-0.1,0-0.2,0-0.3c-0.1-1.5,1-2.9,2.6-3c0.1,0,0.2,0,0.4,0
			c1.5-0.1,2.8,1.1,2.8,2.6c0,0.1,0,0.2,0,0.2c0,0.2,0,0.4,0,0.6h-4.7c0,1,0.8,1.9,1.9,1.9c0,0,0,0,0.1,0c0.7,0.1,1.4-0.4,1.7-1.1
			h1.1C53.6,60,52.5,60.8,51.2,60.8 M49.3,57.3H53c0-1-0.7-1.8-1.7-1.8c-0.1,0-0.1,0-0.2,0C50.2,55.5,49.3,56.3,49.3,57.3"/>
		<path class="st2" d="M57.8,54.6c0.9,0,1.7,0.4,2.2,1.2v-3.1h1v8h-1v-1.1c-0.5,0.8-1.3,1.2-2.2,1.2c-1.6,0-2.8-1.3-2.8-2.9
			c0-0.1,0-0.1,0-0.2c-0.1-1.5,1-2.9,2.6-3C57.6,54.6,57.7,54.6,57.8,54.6 M58,55.5c-1.1,0-2,0.9-2,2c0,0.1,0,0.1,0,0.2
			c0.1,1.1,1.1,1.9,2.2,1.8c1.1-0.1,1.9-1.1,1.8-2.2C59.9,56.3,59,55.5,58,55.5"/>
		<path class="st2" d="M65.9,54.7l1.8,5l1.8-5h1l-2.3,5.9h-1.1l-2.3-5.9L65.9,54.7z"/>
		<path class="st2" d="M74.2,60.8c-1.6,0-2.9-1.2-2.9-2.8c0-0.1,0-0.2,0-0.3c-0.1-1.6,1-2.9,2.6-3c0.1,0,0.2,0,0.3,0
			c1.5-0.1,2.8,1.1,2.8,2.6c0,0.1,0,0.2,0,0.2c0,0.2,0,0.4,0,0.6h-4.7c0,1,0.8,1.9,1.9,1.9c0,0,0,0,0.1,0c0.7,0.1,1.4-0.4,1.7-1.1
			h1.1C76.5,60,75.4,60.8,74.2,60.8 M72.3,57.3H76c0-1-0.7-1.8-1.7-1.8c-0.1,0-0.1,0-0.2,0C73.1,55.5,72.3,56.3,72.3,57.3"/>
		<path class="st2" d="M80.7,54.6c0.9,0,1.7,0.4,2.2,1.2v-1.1h1v6c0.1,1.5-1,2.7-2.5,2.8c-0.1,0-0.2,0-0.3,0
			c-1.3,0.2-2.6-0.7-2.9-2.1h1c0.3,0.8,1.1,1.3,1.9,1.2c1,0,1.8-0.7,1.8-1.7c0-0.1,0-0.2,0-0.3v-1.2c-0.5,0.8-1.3,1.2-2.2,1.2
			c-1.6,0-2.8-1.3-2.8-2.9c0-0.1,0-0.1,0-0.2c-0.1-1.5,1-2.9,2.6-3C80.6,54.7,80.7,54.6,80.7,54.6 M80.9,55.5c-1.1,0-2,0.9-2,2
			c0,0.1,0,0.1,0,0.2c0.1,1.1,1.1,1.9,2.2,1.8s1.9-1.1,1.8-2.2C82.9,56.3,82,55.5,80.9,55.5"/>
		<path class="st2" d="M88.1,54.6c0.9,0,1.7,0.4,2.2,1.2v-1.1h1v6c0.1,1.5-1,2.7-2.5,2.8c-0.1,0-0.2,0-0.3,0
			c-1.3,0.2-2.6-0.7-2.9-2.1h1c0.3,0.8,1.1,1.3,1.9,1.2c1,0,1.8-0.7,1.8-1.7c0-0.1,0-0.2,0-0.3v-1.2c-0.5,0.8-1.3,1.2-2.2,1.2
			c-1.6,0-2.8-1.3-2.8-2.9c0-0.1,0-0.1,0-0.2c-0.1-1.5,1-2.9,2.6-3C87.9,54.7,88,54.6,88.1,54.6 M88.2,55.5c-1.1,0-2,0.9-2,2
			c0,0.1,0,0.1,0,0.2c0.1,1.1,1.1,1.9,2.2,1.8c1.1-0.1,1.9-1.1,1.8-2.2C90.2,56.3,89.3,55.5,88.2,55.5"/>
		<path class="st2" d="M92.8,53.1c0-0.4,0.3-0.7,0.7-0.6c0.4,0,0.7,0.3,0.6,0.7c0,0.4-0.3,0.6-0.6,0.6
			C93.1,53.8,92.8,53.5,92.8,53.1C92.8,53.1,92.8,53.1,92.8,53.1 M92.9,54.7h1v5.9h-1V54.7z"/>
		<path class="st2" d="M98.1,60.8c-1.6,0-2.9-1.2-2.9-2.8c0-0.1,0-0.2,0-0.3c-0.1-1.6,1-2.9,2.6-3c0.1,0,0.2,0,0.3,0
			c1.5-0.1,2.8,1.1,2.8,2.6c0,0.1,0,0.2,0,0.2c0,0.2,0,0.4,0,0.6h-4.7c0,1,0.8,1.9,1.9,1.9c0,0,0,0,0.1,0c0.7,0.1,1.4-0.4,1.7-1.1
			h1.1C100.5,60,99.4,60.8,98.1,60.8 M96.2,57.3h3.7c0-1-0.7-1.8-1.7-1.8c-0.1,0-0.1,0-0.2,0C97.1,55.5,96.2,56.3,96.2,57.3"/>
		<path class="st2" d="M104.4,60.8c-1.4,0-2.4-0.8-2.4-1.8h1c0.1,0.6,0.6,1,1.4,1c0.8,0,1.2-0.4,1.2-0.9c0-1.3-3.5-0.5-3.5-2.8
			c0-0.9,0.9-1.6,2.2-1.6c1.1-0.1,2.1,0.6,2.2,1.7c0,0,0,0.1,0,0.1h-1c-0.1-0.6-0.6-1.1-1.2-1c0,0,0,0-0.1,0c-0.7,0-1.2,0.3-1.2,0.8
			c0,1.4,3.4,0.6,3.5,2.8C106.5,60,105.7,60.8,104.4,60.8"/>
		<path class="st2" d="M9.6,72.3H8.5c-0.4-0.9-1.3-1.4-2.3-1.4c-1.6,0.1-2.9,1.5-2.8,3.1c0.1,1.5,1.3,2.7,2.8,2.8
			c1.4,0.1,2.6-1,2.6-2.4c0,0,0,0,0,0h-3v-0.8h4.1v0.8c-0.1,1.9-1.8,3.4-3.7,3.4c-2.1,0-3.8-1.7-3.8-3.8c0-2.1,1.7-3.8,3.8-3.8
			C7.7,70,9.1,70.9,9.6,72.3"/>
		<path class="st2" d="M12.1,77.7h-1v-5.9h1v1c0.4-0.7,1.1-1.1,1.9-1.1v1h-0.3c-0.9,0-1.7,0.4-1.7,1.8L12.1,77.7z"/>
		<path class="st2" d="M15,70.1c0-0.4,0.3-0.7,0.7-0.6c0.4,0,0.7,0.3,0.6,0.7c0,0.4-0.3,0.6-0.6,0.6C15.3,70.8,15,70.5,15,70.1
			C15,70.1,15,70.1,15,70.1 M15.2,71.8h1v5.9h-1V71.8z"/>
		<path class="st2" d="M17.8,69.7h1v8h-1V69.7z"/>
		<path class="st2" d="M20.5,69.7h1v8h-1V69.7z"/>
		<path class="st2" d="M25.7,77.8c-1.6,0-2.9-1.2-2.9-2.8c0-0.1,0-0.2,0-0.3c-0.1-1.6,1-2.9,2.6-3c0.1,0,0.2,0,0.3,0
			c1.5-0.1,2.8,1.1,2.8,2.6c0,0.1,0,0.2,0,0.2c0,0.2,0,0.4,0,0.6h-4.7c0,1,0.8,1.9,1.9,1.9c0,0,0,0,0.1,0c0.7,0.1,1.4-0.4,1.7-1.1
			h1.1C28.1,77,27,77.8,25.7,77.8 M23.8,74.3h3.7c0-1-0.7-1.8-1.7-1.8c-0.1,0-0.1,0-0.2,0C24.7,72.5,23.8,73.3,23.8,74.3"/>
		<path class="st2" d="M32.3,71.7c0.9,0,1.7,0.4,2.2,1.2v-3.1h1v8h-1v-1.1c-0.5,0.8-1.3,1.2-2.2,1.2c-1.6,0-2.8-1.3-2.8-2.9
			c0-0.1,0-0.1,0-0.2c-0.1-1.5,1-2.9,2.6-3C32.2,71.7,32.2,71.7,32.3,71.7 M32.5,72.5c-1.1,0-2,0.9-2,2c0,0.1,0,0.1,0,0.2
			c0.1,1.1,1.1,1.9,2.2,1.8c1.1-0.1,1.9-1.1,1.8-2.2C34.4,73.3,33.5,72.5,32.5,72.5"/>
		<path class="st2" d="M42.6,71.7c1.3-0.1,2.5,0.7,2.7,2h-1.1c-0.2-0.7-0.9-1.2-1.7-1.2c-1.1,0-1.9,0.8-1.9,2.2
			c0,1.5,0.8,2.2,1.9,2.2c0.8,0.1,1.5-0.4,1.7-1.2h1.1c-0.3,1.2-1.5,2.1-2.7,2c-1.7-0.1-3-1.5-2.9-3.2C39.8,73,41,71.7,42.6,71.7"/>
		<path class="st2" d="M46.6,69.7h1v2.9c0.4-0.6,1.2-1,2-1c1.3-0.1,2.3,0.9,2.4,2.2c0,0.1,0,0.2,0,0.4v3.5h-1v-3.3
			c0-1.2-0.7-1.8-1.7-1.8s-1.7,0.6-1.7,1.9v3.3h-1L46.6,69.7z"/>
		<path class="st2" d="M53.4,70.1c0-0.4,0.3-0.7,0.7-0.6c0.4,0,0.7,0.3,0.6,0.7c0,0.4-0.3,0.6-0.6,0.6
			C53.7,70.8,53.4,70.5,53.4,70.1C53.4,70.1,53.4,70.1,53.4,70.1 M53.5,71.8h1v5.9h-1V71.8z"/>
		<path class="st2" d="M58.7,71.7c1.3-0.1,2.5,0.7,2.7,2h-1.1c-0.2-0.7-0.9-1.2-1.7-1.2c-1.1,0-1.9,0.8-1.9,2.2
			c0,1.5,0.8,2.2,1.9,2.2c0.8,0.1,1.5-0.4,1.7-1.2h1.1c-0.3,1.2-1.5,2.1-2.7,2c-1.7-0.1-3-1.5-2.9-3.2C55.9,73,57.2,71.7,58.7,71.7"
			/>
		<path class="st2" d="M62.7,69.7h1v4.7l2.3-2.6h1.4l-2.8,2.9l2.8,3h-1.3l-2.3-2.6v2.6h-1V69.7z"/>
		<path class="st2" d="M70.9,77.8c-1.6,0-2.9-1.2-2.9-2.8c0-0.1,0-0.2,0-0.3c-0.1-1.6,1-2.9,2.6-3c0.1,0,0.2,0,0.3,0
			c1.5-0.1,2.8,1.1,2.8,2.6c0,0.1,0,0.2,0,0.2c0,0.2,0,0.4,0,0.6h-4.7c0,1,0.8,1.9,1.9,1.9c0,0,0,0,0.1,0c0.7,0.1,1.4-0.4,1.7-1.1
			h1.1C73.2,77,72.1,77.8,70.9,77.8 M69,74.3h3.7c0-1-0.7-1.8-1.7-1.8c-0.1,0-0.1,0-0.2,0C69.8,72.5,69,73.3,69,74.3"/>
		<path class="st2" d="M79.3,74.3c0-1.2-0.7-1.8-1.7-1.8c-1,0-1.7,0.6-1.7,1.9v3.3h-1v-5.9h1v0.8c0.4-0.6,1.1-1,1.9-1
			c1.3-0.1,2.4,0.9,2.4,2.2c0,0.1,0,0.3,0,0.4v3.5h-1V74.3z"/>
		<path class="st2" d="M353.8,42.6h-1.6l-0.3,0.8h-0.5l1.4-3.7h0.6l1.4,3.7h-0.5L353.8,42.6z M353,40.3l-0.7,1.9h1.4L353,40.3z"/>
		<path class="st2" d="M357.2,40.1h-1.5v1.3h1.4v0.4h-1.4V43h1.5v0.4h-2v-3.8h2L357.2,40.1z"/>
		<path class="st2" d="M361.2,41.6c0.1,1-0.7,1.8-1.7,1.9c-0.1,0-0.2,0-0.3,0H358v-3.8h1.2c1-0.1,1.9,0.6,2,1.6
			C361.2,41.4,361.2,41.5,361.2,41.6 M359.2,43c0.7,0.1,1.4-0.4,1.5-1.2c0-0.1,0-0.2,0-0.3c0.1-0.7-0.5-1.4-1.2-1.5
			c-0.1,0-0.2,0-0.3,0h-0.7v3H359.2z"/>
		<path class="st2" d="M364.3,36.9h-1v-1.4h2.6v7.9h-1.6L364.3,36.9z"/>
		<path class="st2" d="M372.6,35.5v1.3h-3.5v1.8c0.4-0.4,1-0.7,1.5-0.6c1.3-0.1,2.4,1,2.5,2.3c0,0.1,0,0.2,0,0.3
			c0,1.5-1.3,2.8-2.8,2.8c-1.3,0-2.4-0.9-2.7-2.2h1.5c0.1,0.6,0.7,1,1.3,0.9c0.9,0,1.3-0.6,1.3-1.5c0.1-0.7-0.3-1.3-1-1.4
			c-0.1,0-0.2,0-0.3,0c-0.5,0-1,0.3-1.2,0.8h-1.4v-4.6L372.6,35.5z"/>
		<path class="st2" d="M353.8,59.6h-1.6l-0.3,0.8h-0.5l1.4-3.7h0.6l1.4,3.7h-0.5L353.8,59.6z M353,57.3l-0.7,1.9h1.4L353,57.3z"/>
		<path class="st2" d="M357.2,57.1h-1.5v1.3h1.4v0.4h-1.4V60h1.5v0.4h-2v-3.8h2L357.2,57.1z"/>
		<path class="st2" d="M361.2,58.6c0.1,1-0.7,1.8-1.7,1.9c-0.1,0-0.2,0-0.3,0H358v-3.8h1.2c1-0.1,1.9,0.6,2,1.6
			C361.2,58.4,361.2,58.5,361.2,58.6 M359.2,60c0.7,0.1,1.4-0.4,1.5-1.2c0-0.1,0-0.2,0-0.3c0.1-0.7-0.5-1.4-1.2-1.5
			c-0.1,0-0.2,0-0.3,0h-0.7v3H359.2z"/>
		<path class="st2" d="M364.3,54h-1v-1.4h2.6v7.9h-1.6L364.3,54z"/>
		<path class="st2" d="M372.6,52.5v1.3h-3.5v1.8c0.4-0.4,1-0.7,1.5-0.6c1.3-0.1,2.4,1,2.5,2.3c0,0.1,0,0.2,0,0.3
			c0,1.5-1.3,2.8-2.8,2.8c-1.3,0-2.4-0.9-2.7-2.2h1.5c0.1,0.6,0.7,1,1.3,0.9c0.9,0,1.3-0.6,1.3-1.5c0.1-0.7-0.3-1.3-1-1.4
			c-0.1,0-0.2,0-0.3,0c-0.5,0-1,0.3-1.2,0.8h-1.4v-4.6L372.6,52.5z"/>
		<path class="st2" d="M353.8,76.6h-1.6l-0.3,0.8h-0.5l1.4-3.7h0.6l1.4,3.7h-0.5L353.8,76.6z M353,74.3l-0.7,1.9h1.4L353,74.3z"/>
		<path class="st2" d="M357.2,74.1h-1.5v1.3h1.4v0.4h-1.4V77h1.5v0.4h-2v-3.8h2L357.2,74.1z"/>
		<path class="st2" d="M361.2,75.6c0.1,1-0.7,1.8-1.7,1.9c-0.1,0-0.2,0-0.3,0H358v-3.8h1.2c1-0.1,1.9,0.6,2,1.6
			C361.2,75.4,361.2,75.5,361.2,75.6 M359.2,77c0.7,0.1,1.4-0.4,1.5-1.2c0-0.1,0-0.2,0-0.3c0.1-0.7-0.5-1.4-1.2-1.5
			c-0.1,0-0.2,0-0.3,0h-0.7v3H359.2z"/>
		<path class="st2" d="M363.3,76.2c1.8-1.5,3.7-2.9,3.7-4.3c0-0.7-0.3-1.2-1.1-1.2c-0.7,0-1.1,0.5-1.1,1.3h-1.5
			c-0.1-1.4,0.9-2.5,2.3-2.6c0.1,0,0.2,0,0.3,0c1.2-0.2,2.4,0.7,2.5,2c0,0.1,0,0.3,0,0.4c0,1.8-1.8,3.2-3,4.3h3.2v1.3h-5.3
			L363.3,76.2z"/>
		<path class="st2" d="M372.5,69.4c2.2,0,2.9,1.7,2.9,4c0,2.3-0.7,4-2.9,4s-2.9-1.7-2.9-4C369.6,71.1,370.3,69.4,372.5,69.4
			 M372.5,70.8c-1.3,0-1.4,1.2-1.4,2.6c0,1.4,0.2,2.6,1.4,2.6s1.4-1.2,1.4-2.6C374,72.1,373.8,70.8,372.5,70.8"/>
		<path class="st2" d="M328.8,17.9c-1.5-1.6-2.3-3.8-2.2-6c-0.1-2.3,0.8-4.5,2.4-6.1h1v0.1c-1.6,1.6-2.5,3.8-2.4,6
			c0,2.2,0.8,4.3,2.3,5.9v0.1L328.8,17.9z"/>
		<path class="st2" d="M333.5,16c-1.5,0-2.6-0.8-2.6-2.1h1c0.1,0.8,0.7,1.3,1.5,1.3c0,0,0,0,0,0c0.9,0,1.5-0.5,1.5-1.3
			c0-2-4.1-0.7-4.1-3.5c0-1.2,1-2.1,2.5-2.1c1.2-0.1,2.3,0.7,2.5,1.9h-1.1c-0.1-0.7-0.8-1.2-1.5-1.1c-0.8,0-1.4,0.4-1.4,1.2
			c0,1.9,4.1,0.7,4.1,3.5c-0.1,1.2-1.1,2.2-2.4,2.1C333.6,16,333.6,16,333.5,16"/>
		<path class="st2" d="M340.1,16c-1.6,0-2.9-1.2-2.9-2.8c0-0.1,0-0.2,0-0.3c-0.1-1.6,1-2.9,2.6-3c0.1,0,0.2,0,0.3,0
			c1.5-0.1,2.8,1.1,2.8,2.6c0,0.1,0,0.2,0,0.2c0,0.2,0,0.4,0,0.6h-4.7c0,1,0.8,1.9,1.9,1.9c0,0,0,0,0.1,0c0.7,0.1,1.4-0.4,1.7-1.1
			h1.1C342.4,15.3,341.3,16.1,340.1,16 M338.1,12.5h3.7c0-1-0.7-1.8-1.7-1.8c-0.1,0-0.1,0-0.2,0C339,10.7,338.2,11.5,338.1,12.5"/>
		<path class="st2" d="M345.2,15.9h-1V10h1v1c0.4-0.7,1.1-1.1,1.9-1.1v1h-0.3c-0.9,0-1.7,0.4-1.7,1.8V15.9z"/>
		<path class="st2" d="M348.6,10l1.8,5l1.8-5h1l-2.3,5.9h-1.1l-2.3-5.9H348.6z"/>
		<path class="st2" d="M356.9,16c-1.6,0-2.9-1.2-2.9-2.8c0-0.1,0-0.2,0-0.3c-0.1-1.6,1-2.9,2.6-3c0.1,0,0.2,0,0.3,0
			c1.5-0.1,2.8,1.1,2.8,2.6c0,0.1,0,0.2,0,0.2c0,0.2,0,0.4,0,0.6h-4.7c0,1,0.8,1.9,1.9,1.9c0,0,0,0,0.1,0c0.7,0.1,1.4-0.4,1.7-1.1
			h1.1C359.2,15.3,358.1,16.1,356.9,16 M354.9,12.5h3.7c0-1-0.7-1.8-1.7-1.8c-0.1,0-0.1,0-0.2,0C355.8,10.7,355,11.5,354.9,12.5"/>
		<path class="st2" d="M363.1,16c-1.4,0-2.4-0.8-2.4-1.8h1c0.1,0.6,0.6,1,1.4,1c0.8,0,1.2-0.4,1.2-0.9c0-1.3-3.5-0.5-3.5-2.8
			c0-0.9,0.9-1.6,2.2-1.6c1.1-0.1,2.1,0.6,2.2,1.7c0,0,0,0.1,0,0.1h-1c-0.1-0.6-0.6-1.1-1.2-1c0,0,0,0-0.1,0c-0.7,0-1.2,0.3-1.2,0.8
			c0,1.4,3.4,0.6,3.5,2.8C365.2,15.3,364.4,16,363.1,16"/>
		<path class="st2" d="M370.1,9h-1V8.1h2v7.8h-1V9z"/>
		<path class="st2" d="M372.7,17.9L372.7,17.9c1.5-1.7,2.3-3.8,2.3-6c0.1-2.3-0.8-4.4-2.4-6V5.8h1c1.6,1.6,2.4,3.8,2.4,6.1
			c0.1,2.2-0.7,4.3-2.2,6L372.7,17.9z"/>
		<path class="st2" d="M9.4,17H6l-0.5,1.6H2.7L6.2,9h3.1l3.5,9.5H9.9L9.4,17z M7.7,11.9l-1,3.1h2L7.7,11.9z"/>
		<path class="st2" d="M22.3,13.8c0.1,2.6-1.9,4.7-4.5,4.8c-0.2,0-0.3,0-0.5,0h-3.8V9h3.8c2.5-0.2,4.7,1.7,5,4.2
			C22.3,13.4,22.3,13.6,22.3,13.8 M17.2,16.2c1.2,0.1,2.3-0.8,2.5-2c0-0.1,0-0.3,0-0.4c0.1-1.2-0.8-2.3-2.1-2.5c-0.1,0-0.3,0-0.4,0
			h-0.9v4.9H17.2z"/>
		<path class="st2" d="M32.3,13.8c0.1,2.6-1.9,4.7-4.5,4.8c-0.2,0-0.3,0-0.5,0h-3.8V9h3.8c2.5-0.2,4.7,1.7,5,4.2
			C32.3,13.4,32.3,13.6,32.3,13.8 M27.1,16.2c1.2,0.1,2.3-0.8,2.5-2c0-0.1,0-0.3,0-0.4c0.1-1.2-0.8-2.3-2.1-2.5c-0.1,0-0.3,0-0.4,0
			h-0.9v4.9H27.1z"/>
		<path class="st2" d="M40.6,18.6c-2.6,0.1-4.8-2-4.9-4.7c0-0.1,0-0.1,0-0.2c0-2.7,2.2-4.9,4.9-4.9s4.9,2.2,4.9,4.9
			c0.1,2.6-2,4.8-4.7,4.9C40.7,18.6,40.7,18.6,40.6,18.6 M40.6,16.2c1.2,0,2.2-0.9,2.2-2.1c0-0.1,0-0.2,0-0.3
			c0.1-1.2-0.7-2.3-1.9-2.4c-1.2-0.1-2.3,0.7-2.4,1.9c0,0.2,0,0.3,0,0.5c-0.2,1.2,0.7,2.3,1.8,2.4C40.4,16.2,40.5,16.2,40.6,16.2"/>
		<path class="st2" d="M55.5,9v9.5h-2.6l-3.5-5.3v5.3h-2.6V9h2.6l3.5,5.4V9H55.5z"/>
		<path class="st2" d="M75.8,22.1c-5.2,0-9.4-4.2-9.5-9.4c0-5.2,4.2-9.4,9.4-9.5c5.2,0,9.4,4.2,9.5,9.4c0,0,0,0,0,0
			C85.2,17.9,81,22.1,75.8,22.1 M75.8,3.7c-5,0-9,4-9,8.9c0,5,4,9,8.9,9c5,0,9-4,9-8.9c0,0,0,0,0,0C84.7,7.7,80.7,3.7,75.8,3.7"/>
		<path class="st2" d="M73.7,12.4c-0.1,0-0.1,0-0.2-0.1c-0.5-0.3-0.8-0.9-0.8-1.5V9.3c0-0.2,0.1-0.3,0.3-0.3c0,0,0.1,0,0.1,0l2,1.2
			c0.5,0.3,0.8,0.9,0.8,1.5c0,0.2-0.1,0.3-0.3,0.3s-0.3-0.1-0.3-0.3l0,0c0-0.4-0.2-0.8-0.5-1l-1.6-0.9v1c0,0.4,0.2,0.8,0.5,1
			c0.1,0.1,0.2,0.3,0.1,0.4C73.9,12.3,73.8,12.4,73.7,12.4"/>
		<path class="st2" d="M73.2,14.1c-0.1,0-0.2-0.1-0.3-0.2c-0.1-0.2-0.2-0.5-0.2-0.8v-1.5c0-0.2,0.1-0.3,0.3-0.3c0,0,0.1,0,0.1,0
			l1.9,1.1c0.1,0.1,0.2,0.3,0.1,0.4c-0.1,0.1-0.3,0.2-0.4,0.1l-1.5-0.9v1c0,0.2,0,0.4,0.1,0.5c0.1,0.1,0,0.3-0.1,0.4
			C73.3,14.1,73.3,14.1,73.2,14.1"/>
		<path class="st2" d="M75.8,15.9c0,0-0.1,0-0.1,0l-1.3-0.7c-0.1-0.1-0.2-0.3-0.1-0.4c0.1-0.1,0.3-0.2,0.4-0.1c0,0,0,0,0,0l0.9,0.5
			v-1c0-0.2,0.1-0.3,0.3-0.3c0.2,0,0.3,0.1,0.3,0.3c0,0,0,0,0,0v1.5C76.1,15.8,75.9,15.9,75.8,15.9"/>
		<path class="st2" d="M75.8,18.3c0,0-0.1,0-0.1,0l-2-1.2c-0.5-0.3-0.8-0.8-0.8-1.4c0-0.2,0.1-0.3,0.3-0.3s0.3,0.1,0.3,0.3
			c0,0.4,0.2,0.7,0.5,0.9l1.6,0.9v-1c0-0.4-0.2-0.8-0.5-1c-0.1-0.1-0.2-0.3-0.1-0.4s0.3-0.2,0.4-0.1c0.5,0.3,0.8,0.9,0.8,1.5V18
			C76.1,18.1,75.9,18.3,75.8,18.3"/>
		<path class="st2" d="M73.1,10.1c-0.2,0-0.3-0.1-0.3-0.3V8.1c0-0.2,0.1-0.3,0.3-0.3c0.2,0,0.3,0.1,0.3,0.3l0,0v1.6
			C73.4,9.9,73.2,10.1,73.1,10.1"/>
		<path class="st2" d="M75.8,12.6c-0.2,0-0.3-0.1-0.3-0.3v-0.6c0-0.6,0.3-1.1,0.8-1.5l2.1-1.2c0.1-0.1,0.3,0,0.4,0.1
			c0,0,0,0.1,0,0.1v1.5c0,0.2-0.1,0.3-0.3,0.3s-0.3-0.1-0.3-0.3v-1l-1.6,0.9c-0.3,0.2-0.5,0.6-0.5,1v0.6
			C76.1,12.5,75.9,12.6,75.8,12.6"/>
		<path class="st2" d="M75.8,15.9c-0.2,0-0.3-0.1-0.3-0.3v-1.5c0-0.2,0.1-0.3,0.3-0.3c0.2,0,0.3,0.1,0.3,0.3c0,0,0,0,0,0v1l1.6-0.9
			c0.3-0.2,0.5-0.6,0.5-1v-0.7c0-0.2,0.1-0.3,0.3-0.3s0.3,0.1,0.3,0.3l0,0v0.7c0,0.6-0.3,1.1-0.8,1.5l-2.1,1.2
			C75.9,15.9,75.8,15.9,75.8,15.9"/>
		<path class="st2" d="M75.8,18.3c-0.2,0-0.3-0.1-0.3-0.3c0,0,0,0,0,0v-1.5c0-0.6,0.3-1.1,0.8-1.5l2.1-1.2c0.1-0.1,0.3,0,0.4,0.1
			c0,0,0,0.1,0,0.1v1.5c0,0.6-0.3,1.1-0.8,1.5l-2.1,1.2C75.9,18.3,75.8,18.3,75.8,18.3 M78.2,14.6l-1.6,0.9c-0.3,0.2-0.5,0.6-0.5,1
			v1l1.6-0.9c0.3-0.2,0.5-0.6,0.5-1V14.6z"/>
		<path class="st2" d="M78.5,10.1c-0.2,0-0.3-0.1-0.3-0.3V8.1c0-0.2,0.1-0.3,0.3-0.3c0.2,0,0.3,0.1,0.3,0.3c0,0,0,0,0,0v1.6
			C78.8,9.9,78.6,10.1,78.5,10.1"/>
		<path class="st2" d="M75.8,11.4c-0.2,0-0.3-0.1-0.3-0.3V7.4c0-0.2,0.1-0.3,0.3-0.3c0.2,0,0.3,0.1,0.3,0.3v3.8
			C76.1,11.3,75.9,11.4,75.8,11.4"/>
		<path class="st2" d="M69.8,17c-0.2,0-0.3-0.1-0.3-0.3c0-0.1,0.1-0.2,0.1-0.2l11.9-6.9c0.1-0.1,0.3,0,0.4,0.1c0,0,0,0,0,0
			C82,9.8,82,10,81.9,10L70,16.9C69.9,17,69.9,17,69.8,17"/>
		<path class="st2" d="M91,10.6v0.6c0,0.1,0,0.1,0,0.2c0,0.1,0,0.1-0.1,0.1c0,0-0.1,0.1-0.2,0.1c-0.2,0.1-0.4,0.2-0.5,0.2
			c-0.2,0-0.4,0.1-0.6,0.1c-0.2,0-0.4,0-0.7-0.1c-0.2-0.1-0.4-0.2-0.5-0.3c-0.1-0.1-0.3-0.3-0.3-0.5c-0.1-0.4-0.1-0.9,0-1.3
			c0.1-0.2,0.2-0.4,0.3-0.5c0.1-0.1,0.3-0.3,0.5-0.3c0.2-0.1,0.5-0.1,0.7-0.1c0.2,0,0.4,0,0.6,0.1c0.1,0,0.3,0.1,0.4,0.2
			c0.1,0.1,0.2,0.2,0.2,0.3c0,0.1,0.1,0.2,0.1,0.3c0,0.1,0,0.2-0.1,0.2c-0.1,0.1-0.1,0.1-0.2,0.1c0,0-0.1,0-0.1,0
			c0,0-0.1-0.1-0.1-0.1c-0.1-0.1-0.1-0.2-0.2-0.3c-0.1-0.1-0.1-0.1-0.2-0.2c-0.1,0-0.2-0.1-0.4-0.1c-0.1,0-0.3,0-0.4,0.1
			c-0.1,0-0.2,0.1-0.3,0.2c-0.1,0.1-0.1,0.2-0.2,0.4c0,0.1-0.1,0.3-0.1,0.5c0,0.3,0.1,0.6,0.3,0.8c0.2,0.2,0.4,0.3,0.7,0.3
			c0.1,0,0.3,0,0.4-0.1c0.1,0,0.3-0.1,0.4-0.2v-0.5h-0.5c-0.1,0-0.2,0-0.3-0.1c-0.1,0-0.1-0.1-0.1-0.2c0-0.1,0-0.1,0.1-0.2
			c0.1,0,0.1-0.1,0.2-0.1h0.7c0.1,0,0.2,0,0.2,0c0.1,0,0.1,0.1,0.1,0.1C91,10.5,91,10.6,91,10.6"/>
		<path class="st2" d="M92.2,9.1v2.3h1.3c0.1,0,0.2,0,0.2,0.1c0.1,0,0.1,0.1,0.1,0.2c0,0.1,0,0.1-0.1,0.2c-0.1,0.1-0.2,0.1-0.2,0.1
			h-1.5c-0.1,0-0.2,0-0.3-0.1c-0.1-0.1-0.1-0.2-0.1-0.3V9.1c0-0.1,0-0.2,0.1-0.3c0.1-0.1,0.1-0.1,0.2-0.1c0.1,0,0.2,0,0.2,0.1
			C92.2,8.9,92.2,9,92.2,9.1"/>
		<path class="st2" d="M94.2,10.6V9.1c0-0.1,0-0.2,0.1-0.3c0.1-0.1,0.1-0.1,0.2-0.1c0.1,0,0.2,0,0.2,0.1c0.1,0.1,0.1,0.2,0.1,0.3
			v1.5c0,0.1,0,0.3,0.1,0.4c0,0.1,0.1,0.2,0.2,0.3c0.1,0.1,0.3,0.1,0.4,0.1c0.2,0,0.4-0.1,0.5-0.2c0.1-0.2,0.2-0.4,0.2-0.6V9.1
			c0-0.1,0-0.2,0.1-0.3c0.1-0.1,0.1-0.1,0.2-0.1c0.1,0,0.2,0,0.2,0.1c0.1,0.1,0.1,0.2,0.1,0.3v1.5c0,0.2,0,0.4-0.1,0.6
			c0,0.2-0.1,0.3-0.3,0.4c-0.1,0.1-0.2,0.2-0.4,0.2C95.9,12,95.7,12,95.6,12c-0.2,0-0.4,0-0.6-0.1c-0.2,0-0.3-0.1-0.4-0.2
			c-0.1-0.1-0.2-0.3-0.2-0.4C94.2,11,94.2,10.8,94.2,10.6"/>
		<path class="st2" d="M99.5,9.3h-0.7v2.3c0,0.1,0,0.2-0.1,0.3c-0.1,0.1-0.1,0.1-0.2,0.1c-0.1,0-0.2,0-0.2-0.1
			c-0.1-0.1-0.1-0.2-0.1-0.3V9.3h-0.7c-0.1,0-0.2,0-0.2-0.1c-0.1-0.1-0.1-0.3,0-0.4c0,0,0,0,0,0c0.1-0.1,0.2-0.1,0.2-0.1h2
			c0.1,0,0.2,0,0.2,0.1c0.1,0,0.1,0.1,0.1,0.2c0,0.1,0,0.1-0.1,0.2C99.7,9.3,99.6,9.3,99.5,9.3"/>
		<path class="st2" d="M102.3,9.3h-1.4v0.8h1.3c0.1,0,0.2,0,0.2,0.1c0,0,0.1,0.1,0.1,0.2c0,0.1,0,0.1-0.1,0.2
			c-0.1,0-0.1,0.1-0.2,0.1h-1.3v0.9h1.5c0.1,0,0.2,0,0.2,0.1c0.1,0,0.1,0.1,0.1,0.2c0,0.1,0,0.1-0.1,0.2c-0.1,0.1-0.1,0.1-0.2,0.1
			h-1.7c-0.2,0-0.4-0.1-0.4-0.3c0,0,0-0.1,0-0.1V9.2c0-0.1,0-0.2,0-0.2c0-0.1,0.1-0.1,0.1-0.1c0.1,0,0.1,0,0.2,0h1.7
			c0.1,0,0.2,0,0.2,0.1c0.1,0.1,0.1,0.3,0,0.4c0,0,0,0,0,0C102.5,9.3,102.4,9.3,102.3,9.3"/>
		<path class="st2" d="M104,9.1l1.2,1.8V9.1c0-0.1,0-0.2,0.1-0.3c0.1-0.1,0.1-0.1,0.2-0.1c0.1,0,0.2,0,0.2,0.1
			c0.1,0.1,0.1,0.2,0.1,0.3v2.5c0,0.3-0.1,0.4-0.3,0.4c-0.1,0-0.1,0-0.2,0c0,0-0.1,0-0.1-0.1c0,0-0.1-0.1-0.1-0.1
			c0,0-0.1-0.1-0.1-0.1l-1.2-1.8v1.8c0,0.1,0,0.2-0.1,0.3c-0.1,0.1-0.1,0.1-0.2,0.1c-0.1,0-0.2,0-0.2-0.1c-0.1-0.1-0.1-0.2-0.1-0.3
			V9.2c0-0.1,0-0.2,0-0.2c0-0.1,0.1-0.1,0.1-0.2c0.1,0,0.1-0.1,0.2-0.1c0.1,0,0.1,0,0.1,0c0,0,0.1,0,0.1,0.1c0,0,0.1,0.1,0.1,0.1
			C103.9,9,103.9,9.1,104,9.1"/>
		<path class="st2" d="M93.4,13.6h-1.2v0.8h1c0.1,0,0.2,0,0.2,0.1c0.1,0.1,0.1,0.2,0,0.3c0,0,0,0,0,0c-0.1,0-0.1,0.1-0.2,0.1h-1v1
			c0,0.1,0,0.2-0.1,0.3c-0.1,0.1-0.3,0.1-0.5,0c0,0,0,0,0,0c-0.1-0.1-0.1-0.2-0.1-0.3v-2.4c0-0.1,0-0.2,0-0.2c0-0.1,0.1-0.1,0.1-0.1
			c0.1,0,0.1,0,0.2,0h1.5c0.1,0,0.2,0,0.2,0.1c0.1,0.1,0.1,0.3,0,0.4c0,0,0,0,0,0C93.5,13.6,93.4,13.6,93.4,13.6"/>
		<path class="st2" d="M95,14.9h-0.2v1c0,0.1,0,0.2-0.1,0.3c-0.1,0.1-0.1,0.1-0.2,0.1c-0.1,0-0.2,0-0.2-0.1
			c-0.1-0.1-0.1-0.2-0.1-0.3v-2.4c0-0.2,0.1-0.4,0.3-0.4c0,0,0.1,0,0.1,0h1c0.1,0,0.2,0,0.4,0c0.1,0,0.2,0,0.3,0.1
			c0.1,0,0.2,0.1,0.3,0.2c0.1,0.1,0.1,0.2,0.2,0.3c0,0.1,0.1,0.2,0.1,0.3c0,0.2-0.1,0.4-0.2,0.6c-0.2,0.2-0.4,0.3-0.6,0.3
			c0.1,0.1,0.2,0.2,0.3,0.3c0.2,0.2,0.3,0.5,0.5,0.7c0,0.1,0.1,0.1,0.1,0.2c0,0,0,0.1,0,0.1c0,0-0.1,0.1-0.1,0.1c0,0-0.1,0-0.2,0
			c-0.1,0-0.1,0-0.2-0.1c0,0-0.1-0.1-0.1-0.1c0-0.1-0.1-0.1-0.1-0.2l-0.3-0.4c-0.1-0.1-0.2-0.2-0.2-0.4c-0.1-0.1-0.1-0.1-0.2-0.2
			C95.2,15,95.1,14.9,95,14.9 M95.3,13.6h-0.6v0.9h0.6c0.1,0,0.3,0,0.4,0c0.1,0,0.2-0.1,0.2-0.1c0.1-0.1,0.1-0.2,0.1-0.3
			c0-0.1,0-0.2-0.1-0.2c0-0.1-0.1-0.1-0.2-0.1C95.6,13.6,95.5,13.6,95.3,13.6"/>
		<path class="st2" d="M99.3,13.6h-1.4v0.8h1.3c0.1,0,0.2,0,0.2,0.1c0,0,0.1,0.1,0.1,0.2c0,0.1,0,0.1-0.1,0.2
			c-0.1,0-0.1,0.1-0.2,0.1h-1.3v0.9h1.5c0.1,0,0.2,0,0.2,0.1c0.1,0,0.1,0.1,0.1,0.2c0,0.1,0,0.1-0.1,0.2c-0.1,0.1-0.1,0.1-0.2,0.1
			h-1.7c-0.2,0-0.4-0.1-0.4-0.3c0,0,0-0.1,0-0.1v-2.3c0-0.1,0-0.2,0-0.2c0-0.1,0.1-0.1,0.1-0.1c0.1,0,0.1,0,0.2,0h1.7
			c0.1,0,0.2,0,0.2,0.1c0.1,0.1,0.1,0.3,0,0.4c0,0,0,0,0,0C99.5,13.6,99.4,13.7,99.3,13.6"/>
		<path class="st2" d="M102.2,13.6h-1.4v0.8h1.3c0.1,0,0.2,0,0.2,0.1c0,0,0.1,0.1,0.1,0.2c0,0.1,0,0.1-0.1,0.2
			c-0.1,0-0.1,0.1-0.2,0.1h-1.3v0.9h1.5c0.1,0,0.2,0,0.2,0.1c0.1,0,0.1,0.1,0.1,0.2c0,0.1,0,0.1-0.1,0.2c-0.1,0.1-0.1,0.1-0.2,0.1
			h-1.7c-0.2,0-0.4-0.1-0.4-0.3c0,0,0-0.1,0-0.1v-2.3c0-0.1,0-0.2,0-0.2c0-0.1,0.1-0.1,0.1-0.1c0.1,0,0.1,0,0.2,0h1.7
			c0.1,0,0.2,0,0.2,0.1c0.1,0.1,0.1,0.3,0,0.4c0,0,0,0,0,0C102.4,13.6,102.3,13.7,102.2,13.6"/>
		<path class="st3" d="M-11.4-1.9H384v89H-11.4V-1.9z"/>
	</g>
</g>
</svg>
