<?xml version="1.0" encoding="utf-8"?>
<!-- Generator: Adobe Illustrator 26.4.1, SVG Export Plug-In . SVG Version: 6.00 Build 0)  -->
<svg version="1.1" id="Layer_1" xmlns="http://www.w3.org/2000/svg" xmlns:xlink="http://www.w3.org/1999/xlink" x="0px" y="0px"
	 viewBox="0 0 378.6 104.6" style="enable-background:new 0 0 378.6 104.6;" xml:space="preserve">
<style type="text/css">
	.st0{fill:#007284;}
	.st1{fill:#045768;}
	.st2{fill:#FFFFFF;}
	.st3{fill:none;}
</style>
<g>
	<g>
		<path class="st0" d="M0,0h378.6v104.6H0V0z"/>
		<path class="st1" d="M0.3,0.2h378.3v27.7H0.3V0.2z"/>
		<path class="st2" d="M6.2,37.7h5.1v0.8H9.3v6.8h-1v-6.8H6.2L6.2,37.7z"/>
		<path class="st2" d="M13.5,45.3h-1v-6h1v1c0.4-0.7,1.1-1.1,1.9-1.1v1h-0.3c-0.9,0-1.7,0.4-1.7,1.8L13.5,45.3z"/>
		<path class="st2" d="M21.9,45.3h-1v-0.9c-0.4,0.6-1.1,1-1.9,1c-1.3,0.1-2.4-0.9-2.4-2.2c0-0.1,0-0.2,0-0.4v-3.5h1v3.4
			c-0.1,0.9,0.5,1.7,1.3,1.8c0.1,0,0.2,0,0.3,0c1,0,1.7-0.6,1.7-1.9v-3.3h1L21.9,45.3z"/>
		<path class="st2" d="M23.7,40.1h-0.8v-0.8h0.8v-0.4c0-1.3,0.7-1.9,2.2-1.9v0.8c-0.9,0-1.2,0.3-1.2,1.1v0.4h1.2v0.8h-1.2v5.2h-1
			L23.7,40.1z"/>
		<path class="st2" d="M27.3,40.1h-0.8v-0.8h0.8v-0.4c0-1.3,0.7-1.9,2.2-1.9v0.8c-0.9,0-1.2,0.3-1.2,1.1v0.4h1.2v0.8h-1.2v5.2h-1
			V40.1z"/>
		<path class="st2" d="M30.7,37.2h1v8.1h-1V37.2z"/>
		<path class="st2" d="M35.9,45.4c-1.6,0-2.9-1.2-2.9-2.8c0-0.1,0-0.2,0-0.3c-0.1-1.6,1-3,2.6-3.1c0.1,0,0.2,0,0.4,0
			c1.5-0.1,2.8,1.1,2.8,2.6c0,0.1,0,0.2,0,0.3c0,0.2,0,0.4,0,0.6H34c0,1,0.8,1.9,1.9,1.9c0,0,0,0,0.1,0c0.7,0.1,1.4-0.4,1.7-1.1h1.1
			C38.3,44.7,37.1,45.5,35.9,45.4 M34,41.9h3.7c0-1-0.7-1.8-1.7-1.8c-0.1,0-0.1,0-0.2,0C34.8,40.1,34,40.9,34,41.9"/>
		<path class="st2" d="M45.4,39.2c0.9,0,1.7,0.4,2.2,1.2v-1.1h1v6h-1v-1.1c-0.5,0.8-1.3,1.3-2.2,1.2c-1.6,0-2.8-1.3-2.8-2.9
			c0-0.1,0-0.1,0-0.2c-0.1-1.6,1-3,2.6-3.1C45.2,39.2,45.3,39.2,45.4,39.2 M45.6,40.1c-1.1,0-2,0.9-2,2c0,0.1,0,0.1,0,0.2
			c0.1,1.1,1.1,2,2.2,1.9c1.1-0.1,1.9-1.1,1.8-2.2C47.5,40.9,46.6,40.1,45.6,40.1"/>
		<path class="st2" d="M50.3,37.2h1v8.1h-1V37.2z"/>
		<path class="st2" d="M61.5,41.9c0-1.2-0.7-1.9-1.6-1.9c-1,0-1.7,0.6-1.7,1.9v3.3h-1v-3.4c0-1.2-0.6-1.9-1.6-1.9
			c-1,0-1.7,0.6-1.7,1.9v3.3h-1v-6h1v0.9c0.4-0.6,1.1-1,1.9-1c0.9-0.1,1.8,0.5,2.2,1.3c0.4-0.8,1.2-1.4,2.1-1.3
			c1.3-0.1,2.3,0.9,2.4,2.2c0,0.1,0,0.3,0,0.4v3.5h-1L61.5,41.9z"/>
		<path class="st2" d="M66.7,45.4c-1.7,0-3.1-1.4-3.1-3.1c0-1.7,1.4-3.1,3-3.1c1.7,0,3.1,1.4,3.1,3.1c0.1,1.6-1.2,3-2.8,3.1
			C66.8,45.4,66.7,45.4,66.7,45.4 M66.7,44.6c1.1,0,2-0.9,2-2c0-0.1,0-0.2,0-0.2c0.1-1.1-0.7-2.1-1.8-2.2c-0.1,0-0.1,0-0.2,0
			c-1.1,0-2,0.9-2,2c0,0.1,0,0.2,0,0.3c-0.1,1.1,0.6,2.1,1.7,2.2C66.5,44.6,66.6,44.6,66.7,44.6"/>
		<path class="st2" d="M75.4,41.9c0-1.2-0.7-1.9-1.7-1.9S72,40.7,72,42v3.3h-1v-6h1v0.9c0.4-0.6,1.2-1,1.9-1
			c1.3-0.1,2.4,0.9,2.4,2.2c0,0.1,0,0.3,0,0.4v3.5h-1V41.9z"/>
		<path class="st2" d="M80.4,39.2c0.9,0,1.7,0.4,2.2,1.2v-3.2h1v8.1h-1v-1.1c-0.5,0.8-1.3,1.3-2.2,1.2c-1.6,0-2.8-1.3-2.8-2.9
			c0-0.1,0-0.1,0-0.2c-0.1-1.6,1-3,2.6-3.1C80.2,39.2,80.3,39.2,80.4,39.2 M80.6,40.1c-1.1,0-2,0.9-2,2c0,0.1,0,0.1,0,0.2
			c0.1,1.1,1.1,2,2.2,1.9s1.9-1.1,1.8-2.2C82.5,40.9,81.6,40.1,80.6,40.1"/>
		<path class="st2" d="M90.3,45.4c-1.4,0-2.4-0.8-2.4-1.9h1c0.1,0.6,0.6,1,1.4,1c0.8,0,1.2-0.4,1.2-0.9c0-1.3-3.5-0.6-3.5-2.8
			c0-0.9,0.9-1.7,2.2-1.7c1.1-0.1,2.1,0.6,2.2,1.7c0,0,0,0.1,0,0.1h-1c-0.1-0.6-0.6-1.1-1.2-1c0,0,0,0,0,0c-0.7,0-1.2,0.4-1.2,0.8
			c0,1.4,3.4,0.6,3.5,2.8C92.4,44.7,91.6,45.4,90.3,45.4"/>
		<path class="st2" d="M96.4,45.4c-1.7,0-3.1-1.4-3.1-3.1c0-1.7,1.4-3.1,3-3.1c1.7,0,3.1,1.4,3.1,3.1c0,0,0,0,0,0
			c0.1,1.6-1.2,3-2.8,3.1C96.6,45.4,96.5,45.4,96.4,45.4 M96.4,44.6c1.1,0,2-0.9,2-2c0-0.1,0-0.2,0-0.2c0.1-1.1-0.7-2.1-1.8-2.2
			c-0.1,0-0.1,0-0.2,0c-1.1,0-2,0.9-2,2c0,0.1,0,0.2,0,0.3c-0.1,1.1,0.6,2.1,1.7,2.2C96.2,44.6,96.3,44.6,96.4,44.6"/>
		<path class="st2" d="M100.9,40.1h-0.8v-0.8h0.8v-0.4c0-1.3,0.7-1.9,2.2-1.9v0.8c-0.9,0-1.2,0.3-1.2,1.1v0.4h1.2v0.8h-1.2v5.2h-1
			V40.1z"/>
		<path class="st2" d="M104.5,40.1h-0.8v-0.8h0.8v-1.5h1v1.5h1.5v0.8h-1.5v3.5c0,0.6,0.2,0.8,0.8,0.8h0.7v0.8h-0.9
			c-1.1,0-1.6-0.4-1.6-1.6L104.5,40.1z"/>
		<path class="st2" d="M113.7,39.2c1.3-0.1,2.5,0.8,2.7,2h-1.1c-0.2-0.8-0.9-1.2-1.7-1.2c-1.1,0-1.9,0.8-1.9,2.2
			c0,1.5,0.8,2.3,1.9,2.3c0.8,0.1,1.5-0.4,1.7-1.2h1.1c-0.3,1.3-1.5,2.1-2.7,2c-1.6,0-2.9-1.2-2.9-2.8c0-0.1,0-0.2,0-0.3
			c-0.1-1.6,1-3,2.6-3.1C113.5,39.2,113.6,39.2,113.7,39.2"/>
		<path class="st2" d="M117.7,37.2h1v3c0.4-0.7,1.2-1,2-1c1.3-0.1,2.3,0.9,2.4,2.2c0,0.1,0,0.2,0,0.4v3.5h-1v-3.4
			c0.1-0.9-0.5-1.7-1.3-1.8c-0.1,0-0.2,0-0.3,0c-1,0-1.7,0.6-1.7,1.9v3.3h-1L117.7,37.2z"/>
		<path class="st2" d="M127.2,45.4c-1.6,0-2.9-1.2-2.9-2.8c0-0.1,0-0.2,0-0.3c-0.1-1.6,1-3,2.6-3.1c0.1,0,0.2,0,0.4,0
			c1.5-0.1,2.8,1.1,2.8,2.6c0,0.1,0,0.2,0,0.3c0,0.2,0,0.4,0,0.6h-4.7c0,1,0.8,1.9,1.9,1.9c0,0,0,0,0.1,0c0.7,0.1,1.4-0.4,1.7-1.1
			h1.1C129.6,44.7,128.5,45.5,127.2,45.4 M125.3,41.9h3.7c0-1-0.7-1.8-1.7-1.8c-0.1,0-0.1,0-0.2,0C126.2,40.1,125.3,40.9,125.3,41.9
			"/>
		<path class="st2" d="M133.9,45.4c-1.6,0-2.9-1.2-2.9-2.8c0-0.1,0-0.2,0-0.3c-0.1-1.6,1-3,2.6-3.1c0.1,0,0.2,0,0.4,0
			c1.5-0.1,2.8,1.1,2.8,2.6c0,0.1,0,0.2,0,0.3c0,0.2,0,0.4,0,0.6H132c0,1,0.8,1.9,1.9,1.9c0,0,0,0,0.1,0c0.7,0.1,1.4-0.4,1.7-1.1
			h1.1C136.3,44.7,135.2,45.5,133.9,45.4 M132,41.9h3.7c0-1-0.7-1.8-1.7-1.8c-0.1,0-0.1,0-0.2,0C132.9,40.1,132,40.9,132,41.9"/>
		<path class="st2" d="M140.2,45.4c-1.4,0-2.4-0.8-2.4-1.9h1c0.1,0.6,0.6,1,1.4,1c0.8,0,1.2-0.4,1.2-0.9c0-1.3-3.5-0.6-3.5-2.8
			c0-0.9,0.9-1.7,2.2-1.7c1.1-0.1,2.1,0.6,2.2,1.7c0,0,0,0.1,0,0.1h-1c-0.1-0.6-0.6-1.1-1.2-1c0,0,0,0,0,0c-0.7,0-1.2,0.4-1.2,0.8
			c0,1.4,3.4,0.6,3.5,2.8C142.4,44.7,141.5,45.4,140.2,45.4"/>
		<path class="st2" d="M146.3,45.4c-1.6,0-2.9-1.2-2.9-2.8c0-0.1,0-0.2,0-0.3c-0.1-1.6,1-3,2.6-3.1c0.1,0,0.2,0,0.4,0
			c1.5-0.1,2.8,1.1,2.8,2.6c0,0.1,0,0.2,0,0.3c0,0.2,0,0.4,0,0.6h-4.7c0,1,0.8,1.9,1.9,1.9c0,0,0,0,0.1,0c0.7,0.1,1.4-0.4,1.7-1.1
			h1.1C148.7,44.7,147.6,45.5,146.3,45.4 M144.4,41.9h3.7c0-1-0.7-1.8-1.7-1.8c-0.1,0-0.1,0-0.2,0C145.3,40.1,144.4,40.9,144.4,41.9
			"/>
		<path class="st2" d="M10.1,54.9c1.5-0.1,2.9,0.9,3.5,2.3h-1.2c-0.4-0.9-1.3-1.5-2.3-1.4c-1.5,0-2.8,1.2-2.8,2.8c0,0.1,0,0.2,0,0.3
			c-0.1,1.5,1,2.9,2.5,3c0.1,0,0.2,0,0.3,0c1,0.1,1.9-0.5,2.3-1.4h1.2c-0.6,1.5-2,2.4-3.5,2.3c-2.1-0.1-3.8-1.8-3.8-4
			C6.4,56.6,8,54.9,10.1,54.9"/>
		<path class="st2" d="M16,62.7h-1v-6h1v1c0.4-0.7,1.1-1.1,1.9-1.1v1h-0.3c-0.9,0-1.7,0.4-1.7,1.8L16,62.7z"/>
		<path class="st2" d="M21.5,56.5c0.9,0,1.7,0.4,2.2,1.2v-1.1h1v6h-1v-1.1c-0.5,0.8-1.3,1.3-2.2,1.2c-1.6,0-2.8-1.3-2.8-2.9
			c0-0.1,0-0.1,0-0.2c-0.1-1.6,1-3,2.6-3.1C21.4,56.5,21.5,56.5,21.5,56.5 M21.7,57.4c-1.1,0-2,0.9-2,2c0,0.1,0,0.1,0,0.2
			c0.1,1.1,1.1,2,2.2,1.9c1.1-0.1,1.9-1.1,1.8-2.2C23.7,58.2,22.8,57.4,21.7,57.4"/>
		<path class="st2" d="M30.8,59.3c0-1.2-0.7-1.9-1.7-1.9c-1,0-1.7,0.6-1.7,1.9v3.3h-1v-6h1v0.9c0.4-0.6,1.2-1,1.9-1
			c1.3-0.1,2.4,0.9,2.4,2.2c0,0.1,0,0.3,0,0.4v3.5h-1L30.8,59.3z"/>
		<path class="st2" d="M36.6,56.5c1.5,0,2.8,1.3,2.8,2.8c0,0.1,0,0.2,0,0.3c0.1,1.6-1,3-2.6,3.1c-0.1,0-0.1,0-0.2,0
			c-0.9,0-1.8-0.4-2.2-1.2v1.1h-1v-8.1h1v3.2C34.8,57,35.7,56.5,36.6,56.5 M36.4,57.4c-1.2-0.1-2.3,0.8-2.4,2
			c-0.1,1.2,0.8,2.3,2,2.4c1.2,0.1,2.3-0.8,2.4-2c0-0.1,0-0.1,0-0.2c0.1-1.1-0.7-2.1-1.8-2.2C36.5,57.4,36.4,57.4,36.4,57.4"/>
		<path class="st2" d="M43.2,62.8c-1.6,0-2.9-1.2-2.9-2.8c0-0.1,0-0.2,0-0.3c-0.1-1.6,1-3,2.6-3.1c0.1,0,0.2,0,0.4,0
			c1.5-0.1,2.8,1.1,2.8,2.6c0,0.1,0,0.2,0,0.3c0,0.2,0,0.4,0,0.6h-4.7c0,1,0.8,1.9,1.9,1.9c0,0,0,0,0.1,0c0.7,0.1,1.4-0.4,1.7-1.1
			H46C45.6,62,44.5,62.8,43.2,62.8 M41.3,59.2h3.7c0-1-0.7-1.8-1.7-1.8c-0.1,0-0.1,0-0.2,0C42.2,57.4,41.4,58.2,41.3,59.2"/>
		<path class="st2" d="M48.4,62.7h-1v-6h1v1c0.4-0.7,1.1-1.1,1.9-1.1v1H50c-0.9,0-1.7,0.4-1.7,1.8L48.4,62.7z"/>
		<path class="st2" d="M52.4,62.7h-1v-6h1v1c0.4-0.7,1.1-1.1,1.9-1.1v1h-0.3c-0.9,0-1.7,0.4-1.7,1.8V62.7z"/>
		<path class="st2" d="M59.6,56.6h1L57,65.5h-1l1.2-2.9l-2.4-6h1.1l1.9,4.9L59.6,56.6z"/>
		<path class="st2" d="M65.5,56.6V64c0,1.1-0.6,1.6-1.6,1.6h-0.6v-0.8h0.4c0.5,0,0.7-0.2,0.7-0.7v-7.3L65.5,56.6z M64.3,55
			c0-0.4,0.3-0.7,0.7-0.7c0.4,0,0.7,0.3,0.7,0.7c0,0.4-0.3,0.7-0.7,0.7C64.6,55.7,64.3,55.4,64.3,55C64.3,55,64.3,55,64.3,55"/>
		<path class="st2" d="M69.6,56.5c0.9,0,1.7,0.4,2.2,1.2v-1.1h1v6h-1v-1.1c-0.5,0.8-1.3,1.3-2.2,1.2c-1.6,0-2.8-1.3-2.8-2.9
			c0-0.1,0-0.1,0-0.2c-0.1-1.6,1-3,2.6-3.1C69.4,56.5,69.5,56.5,69.6,56.5 M69.8,57.4c-1.1,0-2,0.9-2,2c0,0.1,0,0.1,0,0.2
			c0.1,1.1,1.1,2,2.2,1.9c1.1-0.1,1.9-1.1,1.8-2.2C71.7,58.2,70.8,57.4,69.8,57.4"/>
		<path class="st2" d="M74.5,54.5h1v8.1h-1V54.5z"/>
		<path class="st2" d="M79.6,56.5c0.9,0,1.7,0.4,2.2,1.2v-1.1h1v6h-1v-1.1c-0.5,0.8-1.3,1.3-2.2,1.2c-1.6,0-2.8-1.3-2.8-2.9
			c0-0.1,0-0.1,0-0.2c-0.1-1.6,1-3,2.6-3.1C79.4,56.5,79.5,56.5,79.6,56.5 M79.8,57.4c-1.1,0-2,0.9-2,2c0,0.1,0,0.1,0,0.2
			c0.1,1.1,1.1,2,2.2,1.9c1.1-0.1,1.9-1.1,1.8-2.2C81.7,58.2,80.8,57.4,79.8,57.4"/>
		<path class="st2" d="M87.7,56.5c1.6,0,2.8,1.3,2.8,2.8c0,0.1,0,0.2,0,0.2c0.1,1.6-1,3-2.6,3.1c-0.1,0-0.1,0-0.2,0
			c-0.9,0-1.7-0.4-2.2-1.2v4h-1v-8.9h1v1.1C85.9,57,86.8,56.5,87.7,56.5 M87.5,57.4c-1.2-0.1-2.3,0.8-2.4,2c-0.1,1.2,0.8,2.3,2,2.4
			s2.3-0.8,2.4-2c0-0.1,0-0.1,0-0.2c0.1-1.1-0.7-2.1-1.8-2.2C87.6,57.4,87.5,57.4,87.5,57.4"/>
		<path class="st2" d="M94.4,62.8c-1.6,0-2.9-1.2-2.9-2.8c0-0.1,0-0.2,0-0.3c-0.1-1.6,1-3,2.6-3.1c0.1,0,0.2,0,0.4,0
			c1.5-0.1,2.8,1.1,2.8,2.6c0,0.1,0,0.2,0,0.3c0,0.2,0,0.4,0,0.6h-4.7c0,1,0.8,1.9,1.9,1.9c0,0,0,0,0.1,0c0.7,0.1,1.4-0.4,1.7-1.1
			h1.1C96.7,62,95.6,62.8,94.4,62.8 M92.4,59.2h3.7c0-1-0.7-1.8-1.7-1.8c-0.1,0-0.1,0-0.2,0C93.3,57.4,92.5,58.2,92.4,59.2"/>
		<path class="st2" d="M102.8,59.3c0-1.2-0.7-1.9-1.7-1.9s-1.7,0.6-1.7,1.9v3.3h-1v-6h1v0.9c0.4-0.6,1.2-1,1.9-1
			c1.3-0.1,2.4,0.9,2.4,2.2c0,0.1,0,0.3,0,0.4v3.5h-1V59.3z"/>
		<path class="st2" d="M108,62.8c-1.7,0-3.1-1.4-3.1-3.1c0-1.7,1.4-3.1,3-3.1c1.7,0,3.1,1.4,3.1,3.1c0,0,0,0,0,0
			c0.1,1.6-1.2,3-2.8,3.1C108.2,62.8,108.1,62.8,108,62.8 M108,61.9c1.1,0,2-0.9,2-2c0-0.1,0-0.2,0-0.2c0.1-1.1-0.7-2.1-1.8-2.2
			c-0.1,0-0.1,0-0.2,0c-1.2,0.1-2.1,1.2-2,2.5C106.2,60.9,107,61.8,108,61.9"/>
		<path class="st2" d="M117.4,62.8c-1.4,0-2.4-0.8-2.4-1.9h1c0.1,0.6,0.6,1,1.4,1c0.8,0,1.2-0.4,1.2-0.9c0-1.3-3.5-0.6-3.5-2.8
			c0-0.9,0.9-1.7,2.2-1.7c1.1-0.1,2.1,0.6,2.2,1.7c0,0,0,0.1,0,0.1h-1c-0.1-0.6-0.6-1.1-1.2-1c0,0,0,0,0,0c-0.7,0-1.2,0.4-1.2,0.8
			c0,1.4,3.4,0.6,3.5,2.8C119.5,62,118.7,62.8,117.4,62.8"/>
		<path class="st2" d="M123.5,62.8c-1.7,0-3.1-1.4-3.1-3.1c0-1.7,1.4-3.1,3-3.1c1.7,0,3.1,1.4,3.1,3.1c0,0,0,0,0,0
			c0.1,1.6-1.2,3-2.8,3.1C123.7,62.8,123.6,62.8,123.5,62.8 M123.5,61.9c1.1,0,2-0.9,2-2c0-0.1,0-0.2,0-0.2c0.1-1.1-0.7-2.1-1.8-2.2
			c-0.1,0-0.1,0-0.2,0c-1.2,0.1-2.1,1.2-2,2.5C121.6,60.9,122.5,61.8,123.5,61.9"/>
		<path class="st2" d="M128,57.5h-0.8v-0.8h0.8v-0.4c0-1.3,0.7-1.9,2.2-1.9v0.8c-0.9,0-1.2,0.3-1.2,1.1v0.4h1.2v0.8H129v5.2h-1
			L128,57.5z"/>
		<path class="st2" d="M131.6,57.5h-0.8v-0.8h0.8v-1.5h1v1.5h1.5v0.8h-1.5V61c0,0.6,0.2,0.8,0.8,0.8h0.7v0.8h-0.9
			c-1.1,0-1.6-0.4-1.6-1.6L131.6,57.5z"/>
		<path class="st2" d="M140.8,56.5c1.3-0.1,2.5,0.8,2.7,2h-1.1c-0.2-0.8-0.9-1.2-1.7-1.2c-1.1,0-1.9,0.8-1.9,2.2
			c0,1.5,0.8,2.3,1.9,2.3c0.8,0.1,1.5-0.4,1.7-1.2h1.1c-0.3,1.3-1.5,2.1-2.7,2c-1.7-0.1-3-1.6-2.9-3.3
			C138,57.9,139.2,56.6,140.8,56.5"/>
		<path class="st2" d="M144.8,54.5h1v3c0.4-0.7,1.2-1,2-1c1.3-0.1,2.3,0.9,2.4,2.2c0,0.1,0,0.2,0,0.4v3.5h-1v-3.4
			c0.1-0.9-0.5-1.7-1.3-1.8c-0.1,0-0.2,0-0.3,0c-1,0-1.7,0.6-1.7,1.9v3.3h-1V54.5z"/>
		<path class="st2" d="M154.3,62.8c-1.6,0-2.9-1.2-2.9-2.8c0-0.1,0-0.2,0-0.3c-0.1-1.6,1-3,2.6-3.1c0.1,0,0.2,0,0.4,0
			c1.5-0.1,2.8,1.1,2.8,2.6c0,0.1,0,0.2,0,0.3c0,0.2,0,0.4,0,0.6h-4.7c0,1,0.8,1.9,1.9,1.9c0,0,0,0,0.1,0c0.7,0.1,1.4-0.4,1.7-1.1
			h1.1C156.7,62,155.6,62.8,154.3,62.8 M152.4,59.2h3.7c0-1-0.7-1.8-1.7-1.8c-0.1,0-0.1,0-0.2,0C153.3,57.4,152.4,58.2,152.4,59.2"
			/>
		<path class="st2" d="M161,62.8c-1.6,0-2.9-1.2-2.9-2.8c0-0.1,0-0.2,0-0.3c-0.1-1.6,1-3,2.6-3.1c0.1,0,0.2,0,0.4,0
			c1.5-0.1,2.8,1.1,2.8,2.6c0,0.1,0,0.2,0,0.3c0,0.2,0,0.4,0,0.6h-4.7c0,1,0.8,1.9,1.9,1.9c0,0,0,0,0.1,0c0.7,0.1,1.4-0.4,1.7-1.1
			h1.1C163.4,62,162.3,62.8,161,62.8 M159.1,59.2h3.7c0-1-0.7-1.8-1.7-1.8c-0.1,0-0.1,0-0.2,0C160,57.4,159.1,58.2,159.1,59.2"/>
		<path class="st2" d="M167.3,62.8c-1.2,0.2-2.3-0.7-2.4-1.9h1c0.1,0.6,0.6,1,1.4,1c0.8,0,1.2-0.4,1.2-0.9c0-1.3-3.5-0.6-3.5-2.8
			c0-0.9,0.9-1.7,2.2-1.7c1.1-0.1,2.1,0.6,2.2,1.7c0,0,0,0.1,0,0.1h-1c-0.1-0.6-0.6-1.1-1.2-1c0,0,0,0,0,0c-0.7,0-1.2,0.4-1.2,0.8
			c0,1.4,3.4,0.6,3.5,2.8C169.5,62,168.6,62.8,167.3,62.8"/>
		<path class="st2" d="M173.4,62.8c-1.6,0-2.9-1.2-2.9-2.8c0-0.1,0-0.2,0-0.3c-0.1-1.6,1-3,2.6-3.1c0.1,0,0.2,0,0.4,0
			c1.5-0.1,2.8,1.1,2.8,2.6c0,0.1,0,0.2,0,0.3c0,0.2,0,0.4,0,0.6h-4.7c0,1,0.8,1.9,1.9,1.9c0,0,0,0,0.1,0c0.7,0.1,1.4-0.4,1.7-1.1
			h1.1C175.8,62,174.7,62.8,173.4,62.8 M171.5,59.2h3.7c0-1-0.7-1.8-1.7-1.8c-0.1,0-0.1,0-0.2,0C172.4,57.4,171.5,58.2,171.5,59.2"
			/>
		<path class="st2" d="M9.1,80c-1.5,0-2.6-0.9-2.6-2.1h1.1c0.1,0.8,0.8,1.4,1.5,1.3c0,0,0,0,0,0c0.9,0,1.5-0.5,1.5-1.3
			c0-2.1-4.1-0.7-4.1-3.6c0-1.3,1-2.1,2.5-2.1c1.2-0.1,2.3,0.7,2.5,2h-1.1C10.3,73.5,9.7,73,9,73.1c-0.8,0-1.5,0.4-1.5,1.2
			c0,2,4.1,0.7,4.1,3.6c-0.1,1.3-1.1,2.2-2.4,2.2C9.2,80.1,9.1,80.1,9.1,80"/>
		<path class="st2" d="M16.3,73.8c1.6,0,2.8,1.3,2.8,2.8c0,0.1,0,0.2,0,0.3c0.1,1.6-1,3-2.6,3.1c-0.1,0-0.1,0-0.2,0
			c-0.9,0-1.7-0.4-2.2-1.2v4h-1V74h1v1.1C14.5,74.3,15.4,73.8,16.3,73.8 M16.1,74.7c-1.2-0.1-2.3,0.8-2.4,2s0.8,2.3,2,2.4
			s2.3-0.8,2.4-2c0-0.1,0-0.1,0-0.2c0.1-1.1-0.7-2.1-1.8-2.2C16.2,74.7,16.1,74.7,16.1,74.7"/>
		<path class="st2" d="M20.2,72.3c0-0.4,0.3-0.7,0.7-0.7c0.4,0,0.7,0.3,0.6,0.7c0,0.4-0.3,0.7-0.6,0.7C20.5,73,20.2,72.7,20.2,72.3
			C20.2,72.3,20.2,72.3,20.2,72.3 M20.4,74h1v6h-1V74z"/>
		<path class="st2" d="M25.6,73.8c1.3-0.1,2.5,0.8,2.7,2h-1.1c-0.2-0.8-0.9-1.2-1.7-1.2c-1.1,0-1.9,0.8-1.9,2.2
			c0,1.5,0.8,2.3,1.9,2.3c0.8,0.1,1.5-0.4,1.7-1.2h1.1c-0.3,1.3-1.5,2.1-2.7,2c-1.7-0.1-3-1.6-2.9-3.3C22.8,75.2,24,73.9,25.6,73.8"
			/>
		<path class="st2" d="M32.2,80.1c-1.6,0-2.9-1.2-2.9-2.8c0-0.1,0-0.2,0-0.3c-0.1-1.6,1-3,2.6-3.1c0.1,0,0.2,0,0.4,0
			c1.5-0.1,2.8,1.1,2.8,2.6c0,0.1,0,0.2,0,0.3c0,0.2,0,0.4,0,0.6h-4.7c0,1,0.8,1.9,1.9,1.9c0,0,0,0,0.1,0c0.7,0.1,1.4-0.4,1.7-1.1
			h1.1C34.6,79.3,33.4,80.1,32.2,80.1 M30.3,76.5H34c0-1-0.7-1.8-1.7-1.8c-0.1,0-0.1,0-0.2,0C31.1,74.7,30.3,75.5,30.3,76.5"/>
		<path class="st2" d="M38.8,73.9c0.9,0,1.7,0.4,2.2,1.2v-3.2h1V80h-1v-1.1c-0.5,0.8-1.3,1.3-2.2,1.2c-1.6,0-2.8-1.3-2.8-2.9
			c0-0.1,0-0.1,0-0.2c-0.1-1.6,1-3,2.6-3.1C38.6,73.9,38.7,73.8,38.8,73.9 M39,74.7c-1.1,0-2,0.9-2,2c0,0.1,0,0.1,0,0.2
			c0.1,1.1,1.1,2,2.2,1.9c1.1-0.1,1.9-1.1,1.8-2.2C40.9,75.5,40,74.7,39,74.7"/>
		<path class="st2" d="M46.6,71.8h1v4.8l2.3-2.7h1.4l-2.8,3l2.8,3h-1.3l-2.3-2.7V80h-1V71.8z"/>
		<path class="st2" d="M52,72.3c0-0.4,0.3-0.7,0.7-0.7s0.7,0.3,0.7,0.7c0,0.4-0.3,0.7-0.6,0.7C52.3,73,52,72.7,52,72.3
			C52,72.3,52,72.3,52,72.3 M52.1,74h1v6h-1V74z"/>
		<path class="st2" d="M57.3,73.9c0.9,0,1.7,0.4,2.2,1.2v-3.2h1V80h-1v-1.1c-0.5,0.8-1.3,1.3-2.2,1.2c-1.6,0-2.8-1.3-2.8-2.9
			c0-0.1,0-0.1,0-0.2c-0.1-1.6,1-3,2.6-3.1C57.1,73.9,57.2,73.8,57.3,73.9 M57.4,74.7c-1.1,0-2,0.9-2,2c0,0.1,0,0.1,0,0.2
			c0.1,1.1,1.1,2,2.2,1.9c1.1-0.1,1.9-1.1,1.8-2.2C59.4,75.5,58.5,74.7,57.4,74.7"/>
		<path class="st2" d="M66.5,76.6c0-1.2-0.7-1.9-1.7-1.9s-1.7,0.6-1.7,1.9V80h-1v-6h1v0.9c0.4-0.6,1.2-1,1.9-1
			c1.3-0.1,2.4,0.9,2.4,2.2c0,0.1,0,0.3,0,0.4V80h-1V76.6z"/>
		<path class="st2" d="M71.6,80.1c-1.6,0-2.9-1.2-2.9-2.8c0-0.1,0-0.2,0-0.3c-0.1-1.6,1-3,2.6-3.1c0.1,0,0.2,0,0.4,0
			c1.5-0.1,2.8,1.1,2.8,2.6c0,0.1,0,0.2,0,0.3c0,0.2,0,0.4,0,0.6h-4.7c0,1,0.8,1.9,1.9,1.9c0,0,0,0,0.1,0c0.7,0.1,1.4-0.4,1.7-1.1
			h1.1C74,79.3,72.9,80.1,71.6,80.1 M69.7,76.5h3.7c0-1-0.7-1.8-1.7-1.8c-0.1,0-0.1,0-0.2,0C70.6,74.7,69.7,75.5,69.7,76.5"/>
		<path class="st2" d="M79.9,74h1l-3.6,8.9h-1l1.2-2.9l-2.4-6h1.1l1.9,4.9L79.9,74z"/>
		<path class="st2" d="M88,73.9c1.5,0,2.8,1.3,2.8,2.8c0,0.1,0,0.2,0,0.3c0.1,1.6-1,3-2.6,3.1c-0.1,0-0.1,0-0.2,0
			c-0.9,0-1.8-0.4-2.2-1.2V80h-1v-8.1h1v3.2C86.2,74.3,87.1,73.8,88,73.9 M87.8,74.7c-1.2-0.1-2.3,0.8-2.4,2s0.8,2.3,2,2.4
			c1.2,0.1,2.3-0.8,2.4-2c0-0.1,0-0.1,0-0.2c0.1-1.1-0.7-2.1-1.8-2.2C87.9,74.7,87.8,74.7,87.8,74.7"/>
		<path class="st2" d="M94.6,80.1c-1.6,0-2.9-1.2-2.9-2.8c0-0.1,0-0.2,0-0.3c-0.1-1.6,1-3,2.6-3.1c0.1,0,0.2,0,0.4,0
			c1.5-0.1,2.8,1.1,2.8,2.6c0,0.1,0,0.2,0,0.3c0,0.2,0,0.4,0,0.6h-4.7c0,1,0.8,1.9,1.9,1.9c0,0,0,0,0.1,0c0.7,0.1,1.4-0.4,1.7-1.1
			h1.1C97,79.3,95.9,80.1,94.6,80.1 M92.7,76.5h3.7c0-1-0.7-1.8-1.7-1.8c-0.1,0-0.1,0-0.2,0C93.6,74.7,92.8,75.5,92.7,76.5"/>
		<path class="st2" d="M101.2,73.8c0.9,0,1.7,0.4,2.2,1.2V74h1v6h-1v-1.1c-0.5,0.8-1.3,1.3-2.2,1.2c-1.6,0-2.8-1.3-2.8-2.9
			c0-0.1,0-0.1,0-0.2c-0.1-1.6,1-3,2.6-3.1C101.1,73.9,101.2,73.8,101.2,73.8 M101.4,74.7c-1.1,0-2,0.9-2,2c0,0.1,0,0.1,0,0.2
			c0.1,1.1,1.1,2,2.2,1.9c1.1-0.1,1.9-1.1,1.8-2.2C103.4,75.5,102.5,74.7,101.4,74.7"/>
		<path class="st2" d="M110.5,76.6c0-1.2-0.7-1.9-1.7-1.9s-1.7,0.6-1.7,1.9V80h-1v-6h1v0.9c0.4-0.6,1.2-1,1.9-1
			c1.3-0.1,2.4,0.9,2.4,2.2c0,0.1,0,0.3,0,0.4V80h-1V76.6z"/>
		<path class="st2" d="M115.2,80.1c-1.4,0-2.4-0.8-2.4-1.9h1c0.1,0.6,0.6,1,1.4,1c0.8,0,1.2-0.4,1.2-0.9c0-1.3-3.5-0.6-3.5-2.8
			c0-0.9,0.9-1.7,2.2-1.7c1.1-0.1,2.1,0.6,2.2,1.7c0,0,0,0.1,0,0.1h-1c-0.1-0.6-0.6-1.1-1.2-1c0,0,0,0,0,0c-0.7,0-1.2,0.4-1.2,0.8
			c0,1.4,3.4,0.6,3.5,2.8C117.3,79.3,116.5,80.1,115.2,80.1"/>
		<path class="st2" d="M9.1,97.4c-1.5,0-2.6-0.9-2.6-2.1h1.1c0.1,0.8,0.8,1.4,1.5,1.3c0,0,0,0,0,0c0.9,0,1.5-0.5,1.5-1.3
			c0-2.1-4.1-0.7-4.1-3.6c0-1.3,1-2.1,2.5-2.1c1.2-0.1,2.3,0.7,2.5,2h-1.1c-0.1-0.7-0.8-1.2-1.5-1.1c-0.8,0-1.5,0.4-1.5,1.2
			c0,2,4.1,0.7,4.1,3.6c-0.1,1.3-1.1,2.2-2.4,2.2C9.2,97.4,9.1,97.4,9.1,97.4"/>
		<path class="st2" d="M12.4,91.3h1l1.4,5.1l1.5-5.1h1l1.4,5.1l1.3-5.1h1l-1.9,6h-1l-1.4-4.8l-1.4,4.8h-1L12.4,91.3z"/>
		<path class="st2" d="M24.5,97.4c-1.6,0-2.9-1.2-2.9-2.8c0-0.1,0-0.2,0-0.3c-0.1-1.6,1-3,2.6-3.1c0.1,0,0.2,0,0.4,0
			c1.5-0.1,2.8,1.1,2.8,2.6c0,0.1,0,0.2,0,0.3c0,0.2,0,0.4,0,0.6h-4.7c0,1,0.8,1.9,1.9,1.9c0,0,0,0,0.1,0c0.7,0.1,1.4-0.4,1.7-1.1
			h1.1C26.9,96.6,25.8,97.5,24.5,97.4 M22.6,93.8h3.7c0-1-0.7-1.8-1.7-1.8c-0.1,0-0.1,0-0.2,0C23.5,92,22.6,92.8,22.6,93.8"/>
		<path class="st2" d="M31.2,97.4c-1.6,0-2.9-1.2-2.9-2.8c0-0.1,0-0.2,0-0.3c-0.1-1.6,1-3,2.6-3.1c0.1,0,0.2,0,0.4,0
			c1.5-0.1,2.8,1.1,2.8,2.6c0,0.1,0,0.2,0,0.3c0,0.2,0,0.4,0,0.6h-4.7c0,1,0.8,1.9,1.9,1.9c0,0,0,0,0.1,0c0.7,0.1,1.4-0.4,1.7-1.1
			H34C33.6,96.6,32.5,97.5,31.2,97.4 M29.3,93.8H33c0-1-0.7-1.8-1.7-1.8c-0.1,0-0.1,0-0.2,0C30.2,92,29.3,92.8,29.3,93.8"/>
		<path class="st2" d="M35.6,92.1h-0.8v-0.8h0.8v-1.5h1v1.5h1.5v0.8h-1.5v3.5c0,0.6,0.2,0.8,0.8,0.8h0.7v0.8h-0.9
			c-1.1,0-1.6-0.4-1.6-1.6V92.1z"/>
		<path class="st2" d="M45.4,91.2c1.6,0,2.8,1.3,2.8,2.8c0,0.1,0,0.2,0,0.2c0.1,1.6-1,3-2.6,3.1c-0.1,0-0.1,0-0.2,0
			c-0.9,0-1.7-0.4-2.2-1.2v4h-1v-8.9h1v1.1C43.7,91.6,44.5,91.1,45.4,91.2 M45.2,92c-1.2-0.1-2.3,0.8-2.4,2c-0.1,1.2,0.8,2.3,2,2.4
			c1.2,0.1,2.3-0.8,2.4-2c0-0.1,0-0.1,0-0.2c0.1-1.1-0.7-2.1-1.8-2.2C45.3,92,45.3,92,45.2,92"/>
		<path class="st2" d="M52.1,97.4c-1.7,0-3.1-1.4-3.1-3.1c0-1.7,1.4-3.1,3-3.1c1.7,0,3.1,1.4,3.1,3.1c0,0,0,0,0,0
			c0.1,1.6-1.2,3-2.8,3.1C52.3,97.4,52.2,97.4,52.1,97.4 M52.1,96.5c1.1,0,2-0.9,2-2c0-0.1,0-0.2,0-0.2c0.1-1.1-0.7-2.1-1.8-2.2
			c-0.1,0-0.1,0-0.2,0c-1.2,0.1-2.1,1.2-2,2.5C50.3,95.5,51.1,96.4,52.1,96.5"/>
		<path class="st2" d="M56.7,92.1h-0.8v-0.8h0.8v-1.5h1v1.5h1.5v0.8h-1.5v3.5c0,0.6,0.2,0.8,0.8,0.8h0.7v0.8h-0.9
			c-1.1,0-1.6-0.4-1.6-1.6L56.7,92.1z"/>
		<path class="st2" d="M62.9,91.2c0.9,0,1.7,0.4,2.2,1.2v-1.1h1v6h-1v-1.1c-0.5,0.8-1.3,1.3-2.2,1.2c-1.6,0-2.8-1.3-2.8-2.9
			c0-0.1,0-0.1,0-0.2c-0.1-1.6,1-3,2.6-3.1C62.7,91.2,62.8,91.2,62.9,91.2 M63,92c-1.1,0-2,0.9-2,2c0,0.1,0,0.1,0,0.2
			c0.1,1.1,1.1,2,2.2,1.9c1.1-0.1,1.9-1.1,1.8-2.2C65,92.8,64.1,92,63,92"/>
		<path class="st2" d="M67.9,92.1h-0.8v-0.8h0.8v-1.5h1v1.5h1.5v0.8h-1.5v3.5c0,0.6,0.2,0.8,0.8,0.8h0.7v0.8h-0.9
			c-1.1,0-1.6-0.4-1.6-1.6L67.9,92.1z"/>
		<path class="st2" d="M74.3,97.4c-1.7,0-3.1-1.4-3.1-3.1c0-1.7,1.4-3.1,3-3.1c1.7,0,3.1,1.4,3.1,3.1c0.1,1.6-1.2,3-2.8,3.1
			C74.4,97.4,74.3,97.4,74.3,97.4 M74.3,96.5c1.1,0,2-0.9,2-2c0-0.1,0-0.1,0-0.2c0.1-1.1-0.7-2.1-1.8-2.2c-0.1,0-0.1,0-0.2,0
			c-1.2,0.1-2.1,1.2-2,2.5C72.4,95.5,73.2,96.4,74.3,96.5"/>
		<path class="st2" d="M81.7,92.1h-0.8v-0.8h0.8v-0.4c0-1.3,0.7-1.9,2.2-1.9v0.8c-0.9,0-1.2,0.3-1.2,1.1v0.4h1.2v0.8h-1.2v5.2h-1
			L81.7,92.1z"/>
		<path class="st2" d="M86,97.3h-1v-6h1v1c0.4-0.7,1.1-1.1,1.9-1.1v1h-0.3c-0.9,0-1.7,0.4-1.7,1.8V97.3z"/>
		<path class="st2" d="M88.9,89.6c0-0.4,0.3-0.7,0.7-0.7c0.4,0,0.7,0.3,0.7,0.7c0,0.4-0.3,0.7-0.7,0.7C89.2,90.3,88.9,90,88.9,89.6
			C88.9,89.6,88.9,89.6,88.9,89.6 M89.1,91.3h1v6h-1V91.3z"/>
		<path class="st2" d="M94.3,97.4c-1.6,0-2.9-1.2-2.9-2.8c0-0.1,0-0.2,0-0.3c-0.1-1.6,1-3,2.6-3.1c0.1,0,0.2,0,0.4,0
			c1.5-0.1,2.8,1.1,2.8,2.6c0,0.1,0,0.2,0,0.3c0,0.2,0,0.4,0,0.6h-4.7c0,1,0.8,1.9,1.9,1.9c0,0,0,0,0.1,0c0.7,0.1,1.4-0.4,1.7-1.1
			h1.1C96.7,96.6,95.6,97.5,94.3,97.4 M92.4,93.8h3.7c0-1-0.7-1.8-1.7-1.8c-0.1,0-0.1,0-0.2,0C93.3,92,92.4,92.8,92.4,93.8"/>
		<path class="st2" d="M100.6,97.4c-1.4,0-2.4-0.8-2.4-1.9h1c0.1,0.6,0.6,1,1.4,1c0.8,0,1.2-0.4,1.2-0.9c0-1.3-3.5-0.6-3.5-2.8
			c0-0.9,0.9-1.7,2.2-1.7c1.1-0.1,2.1,0.6,2.2,1.7c0,0,0,0.1,0,0.1h-1c-0.1-0.6-0.6-1.1-1.2-1c0,0,0,0,0,0c-0.7,0-1.2,0.4-1.2,0.8
			c0,1.4,3.4,0.6,3.5,2.8C102.7,96.6,101.9,97.4,100.6,97.4"/>
		<path class="st2" d="M326.2,20c-1.5-1.7-2.3-3.8-2.2-6.1c-0.1-2.3,0.8-4.6,2.4-6.2h1v0.1c-1.6,1.6-2.5,3.8-2.4,6.1
			c0,2.2,0.8,4.4,2.3,6V20H326.2z"/>
		<path class="st2" d="M331,18.1c-1.5,0-2.6-0.9-2.6-2.1h1.1c0.1,0.8,0.8,1.4,1.5,1.3c0,0,0,0,0,0c0.9,0,1.5-0.6,1.5-1.3
			c0-2.1-4.1-0.7-4.1-3.6c0-1.3,1-2.1,2.5-2.1c1.2-0.1,2.3,0.7,2.5,2h-1.1c-0.1-0.7-0.8-1.2-1.5-1.1c-0.8,0-1.5,0.4-1.5,1.2
			c0,2,4.1,0.7,4.1,3.6c-0.1,1.3-1.1,2.2-2.4,2.2C331,18.1,331,18.1,331,18.1"/>
		<path class="st2" d="M337.5,18.1c-1.6,0-2.9-1.2-2.9-2.8c0-0.1,0-0.2,0-0.3c-0.1-1.6,1-3,2.6-3.1c0.1,0,0.2,0,0.4,0
			c1.5-0.1,2.8,1.1,2.8,2.6c0,0.1,0,0.2,0,0.3c0,0.2,0,0.4,0,0.6h-4.7c0,1,0.8,1.9,1.9,1.9c0,0,0,0,0.1,0c0.7,0.1,1.4-0.4,1.7-1.1
			h1.1C339.9,17.3,338.7,18.2,337.5,18.1 M335.6,14.5h3.7c0-1-0.7-1.8-1.7-1.8c-0.1,0-0.1,0-0.2,0C336.4,12.7,335.6,13.5,335.6,14.5
			"/>
		<path class="st2" d="M342.6,18h-1v-6h1v1c0.4-0.7,1.1-1.1,1.9-1.1v1h-0.3c-0.9,0-1.7,0.4-1.7,1.8L342.6,18z"/>
		<path class="st2" d="M346,12l1.9,5.1l1.8-5.1h1.1l-2.3,6h-1.1l-2.3-6L346,12z"/>
		<path class="st2" d="M354.3,18.1c-1.6,0-2.9-1.2-2.9-2.8c0-0.1,0-0.2,0-0.3c-0.1-1.6,1-3,2.6-3.1c0.1,0,0.2,0,0.4,0
			c1.5-0.1,2.8,1.1,2.8,2.6c0,0.1,0,0.2,0,0.3c0,0.2,0,0.4,0,0.6h-4.7c0,1,0.8,1.9,1.9,1.9c0,0,0,0,0.1,0c0.7,0.1,1.4-0.4,1.7-1.1
			h1.1C356.7,17.3,355.6,18.2,354.3,18.1 M352.4,14.5h3.7c0-1-0.7-1.8-1.7-1.8c-0.1,0-0.1,0-0.2,0C353.3,12.7,352.4,13.5,352.4,14.5
			"/>
		<path class="st2" d="M360.6,18.1c-1.4,0-2.4-0.8-2.4-1.9h1c0.1,0.6,0.6,1,1.4,1c0.8,0,1.2-0.4,1.2-0.9c0-1.3-3.5-0.6-3.5-2.8
			c0-0.9,0.9-1.7,2.2-1.7c1.1-0.1,2.1,0.6,2.2,1.7c0,0,0,0.1,0,0.1h-1c-0.1-0.6-0.6-1.1-1.2-1c0,0,0,0,0,0c-0.7,0-1.2,0.4-1.2,0.8
			c0,1.4,3.4,0.6,3.5,2.8C362.7,17.3,361.9,18.1,360.6,18.1"/>
		<path class="st2" d="M367.6,10.9h-1V10h2V18h-1V10.9z"/>
		<path class="st2" d="M370.2,20L370.2,20c1.5-1.7,2.3-3.9,2.3-6.1c0-2.3-0.8-4.5-2.4-6.1V7.7h1c1.6,1.7,2.5,3.9,2.4,6.2
			c0.1,2.2-0.7,4.4-2.2,6.1L370.2,20z"/>
		<path class="st2" d="M350.3,44.6h-1.6l-0.3,0.9h-0.5l1.4-3.8h0.6l1.4,3.8h-0.5L350.3,44.6z M349.4,42.2l-0.7,1.9h1.4L349.4,42.2z"
			/>
		<path class="st2" d="M353.7,42h-1.5v1.3h1.4v0.4h-1.4V45h1.5v0.4h-2v-3.8h2V42z"/>
		<path class="st2" d="M357.6,43.5c0.1,1-0.7,1.9-1.7,1.9c-0.1,0-0.2,0-0.3,0h-1.2v-3.8h1.2c1-0.1,1.9,0.6,2,1.6
			C357.6,43.3,357.6,43.4,357.6,43.5 M355.6,45c0.7,0.1,1.4-0.4,1.5-1.2c0-0.1,0-0.2,0-0.3c0.1-0.8-0.5-1.4-1.2-1.5
			c-0.1,0-0.2,0-0.3,0H355v3L355.6,45z"/>
		<path class="st2" d="M365.2,37.4v1.4h-3.5v1.9c0.4-0.4,1-0.7,1.5-0.6c1.3-0.1,2.4,1,2.5,2.3c0,0.1,0,0.2,0,0.3
			c0,1.6-1.3,2.8-2.8,2.8c-1.3,0-2.4-1-2.7-2.3h1.5c0.1,0.6,0.7,1,1.3,1c0.9,0,1.3-0.6,1.3-1.5c0.1-0.7-0.4-1.3-1-1.4
			c-0.1,0-0.2,0-0.3,0c-0.5,0-1,0.3-1.2,0.8h-1.5v-4.7L365.2,37.4z"/>
		<path class="st2" d="M350.3,61.9h-1.6l-0.3,0.9h-0.5l1.4-3.8h0.6l1.4,3.8h-0.5L350.3,61.9z M349.4,59.6l-0.7,1.9h1.4L349.4,59.6z"
			/>
		<path class="st2" d="M353.7,59.3h-1.5v1.3h1.4V61h-1.4v1.3h1.5v0.4h-2v-3.8h2V59.3z"/>
		<path class="st2" d="M357.6,60.9c0.1,1-0.7,1.9-1.7,1.9c-0.1,0-0.2,0-0.3,0h-1.2v-3.8h1.2c1-0.1,1.9,0.6,2,1.6
			C357.6,60.7,357.6,60.8,357.6,60.9 M355.6,62.4c0.7,0.1,1.4-0.4,1.5-1.2c0-0.1,0-0.2,0-0.3c0.1-0.8-0.5-1.4-1.2-1.5
			c-0.1,0-0.2,0-0.3,0H355v3L355.6,62.4z"/>
		<path class="st2" d="M365.2,54.7v1.4h-3.5V58c0.4-0.4,1-0.7,1.5-0.6c1.3-0.1,2.4,1,2.5,2.3c0,0.1,0,0.2,0,0.3
			c0,1.6-1.3,2.8-2.8,2.8c-1.3,0-2.4-1-2.7-2.3h1.5c0.1,0.6,0.7,1,1.3,1c0.9,0,1.3-0.6,1.3-1.5c0.1-0.7-0.4-1.3-1-1.4
			c-0.1,0-0.2,0-0.3,0c-0.5,0-1,0.3-1.2,0.8h-1.5v-4.7L365.2,54.7z"/>
		<path class="st2" d="M350.3,79.2h-1.6l-0.3,0.9h-0.5l1.4-3.8h0.6l1.4,3.8h-0.5L350.3,79.2z M349.4,76.9l-0.7,1.9h1.4L349.4,76.9z"
			/>
		<path class="st2" d="M353.7,76.6h-1.5v1.3h1.4v0.4h-1.4v1.3h1.5v0.4h-2v-3.8h2V76.6z"/>
		<path class="st2" d="M357.6,78.2c0.1,1-0.7,1.9-1.7,1.9c-0.1,0-0.2,0-0.3,0h-1.2v-3.8h1.2c1-0.1,1.9,0.6,2,1.6
			C357.6,78,357.6,78.1,357.6,78.2 M355.6,79.7c0.7,0.1,1.4-0.4,1.5-1.2c0-0.1,0-0.2,0-0.3c0.1-0.8-0.5-1.4-1.2-1.5
			c-0.1,0-0.2,0-0.3,0H355v3L355.6,79.7z"/>
		<path class="st2" d="M365.2,72v1.4h-3.5v1.9c0.4-0.4,1-0.7,1.5-0.6c1.3-0.1,2.4,1,2.5,2.3c0,0.1,0,0.2,0,0.3
			c0,1.6-1.3,2.8-2.8,2.8c-1.3,0-2.4-1-2.7-2.3h1.5c0.1,0.6,0.7,1,1.3,1c0.9,0,1.3-0.6,1.3-1.5c0.1-0.7-0.4-1.3-1-1.4
			c-0.1,0-0.2,0-0.3,0c-0.5,0-1,0.3-1.2,0.8h-1.5V72L365.2,72z"/>
		<path class="st2" d="M350.3,96.5h-1.6l-0.3,0.9h-0.5l1.4-3.8h0.6l1.4,3.8h-0.5L350.3,96.5z M349.4,94.2l-0.7,1.9h1.4L349.4,94.2z"
			/>
		<path class="st2" d="M353.7,94h-1.5v1.3h1.4v0.4h-1.4V97h1.5v0.4h-2v-3.8h2V94z"/>
		<path class="st2" d="M357.6,95.5c0.1,1-0.7,1.9-1.7,1.9c-0.1,0-0.2,0-0.3,0h-1.2v-3.8h1.2c1-0.1,1.9,0.6,2,1.6
			C357.6,95.3,357.6,95.4,357.6,95.5 M355.6,97c0.7,0.1,1.4-0.4,1.5-1.2c0-0.1,0-0.2,0-0.3c0.1-0.8-0.5-1.4-1.2-1.5
			c-0.1,0-0.2,0-0.3,0H355v3L355.6,97z"/>
		<path class="st2" d="M360.8,90.8h-1.1v-1.4h2.6v8h-1.6L360.8,90.8z"/>
		<path class="st2" d="M369.1,89.4v1.4h-3.5v1.9c0.4-0.4,1-0.7,1.5-0.6c1.3-0.1,2.4,1,2.5,2.3c0,0.1,0,0.2,0,0.3
			c0,1.6-1.3,2.8-2.8,2.8c-1.3,0-2.4-1-2.7-2.3h1.5c0.1,0.6,0.7,1,1.3,1c0.9,0,1.3-0.6,1.3-1.5c0.1-0.7-0.4-1.3-1-1.4
			c-0.1,0-0.2,0-0.3,0c-0.5,0-1,0.3-1.2,0.8h-1.5v-4.7L369.1,89.4z"/>
		<path class="st2" d="M138,76.2c0,0.1,0,0.3-0.1,0.4c-0.1,0.1-0.2,0.2-0.3,0.3c-0.2,0.1-0.3,0.1-0.5,0.1c-0.2,0-0.4,0-0.6-0.1
			c-0.1-0.1-0.2-0.1-0.3-0.2c-0.1-0.1-0.1-0.2-0.1-0.3c0-0.1,0-0.1,0.1-0.1c0,0,0.1-0.1,0.1-0.1c0,0,0.1,0,0.1,0
			c0,0,0.1,0.1,0.1,0.1c0,0.1,0.1,0.1,0.1,0.2c0,0.1,0.1,0.1,0.1,0.1c0.1,0,0.2,0.1,0.2,0c0.1,0,0.2,0,0.3-0.1
			c0.1-0.1,0.1-0.1,0.1-0.2c0-0.1,0-0.1-0.1-0.2c-0.1,0-0.1-0.1-0.2-0.1c-0.1,0-0.2-0.1-0.3-0.1c-0.1,0-0.3-0.1-0.4-0.1
			c-0.1,0-0.2-0.1-0.3-0.2c-0.1-0.1-0.1-0.2-0.1-0.3c0-0.1,0-0.2,0.1-0.3c0.1-0.1,0.2-0.2,0.3-0.2c0.1-0.1,0.3-0.1,0.5-0.1
			c0.1,0,0.2,0,0.4,0.1c0.1,0,0.2,0.1,0.3,0.1c0.1,0.1,0.1,0.1,0.1,0.2c0,0.1,0,0.1,0,0.2c0,0.1,0,0.1-0.1,0.2c0,0-0.1,0.1-0.1,0.1
			c0,0-0.1,0-0.1,0c0,0-0.1-0.1-0.1-0.1c0-0.1-0.1-0.1-0.2-0.2c-0.1-0.1-0.2-0.1-0.3-0.1c-0.1,0-0.2,0-0.3,0.1
			c-0.1,0-0.1,0.1-0.1,0.2c0,0,0,0.1,0,0.1c0,0,0.1,0.1,0.1,0.1c0,0,0.1,0,0.1,0.1c0,0,0.1,0,0.2,0.1c0.1,0,0.2,0.1,0.3,0.1
			c0.1,0,0.2,0.1,0.3,0.1c0.1,0.1,0.1,0.1,0.2,0.2C138,76,138,76.1,138,76.2"/>
		<path class="st2" d="M139.3,76h-0.4v0.7c0,0.1,0,0.2-0.1,0.2c0,0-0.1,0.1-0.2,0.1c-0.1,0-0.1,0-0.2-0.1c0-0.1-0.1-0.1-0.1-0.2
			v-1.8c0-0.1,0-0.2,0.1-0.2c0.1-0.1,0.1-0.1,0.2-0.1h0.6c0.1,0,0.3,0,0.4,0c0.1,0,0.2,0.1,0.2,0.1c0.1,0.1,0.1,0.1,0.2,0.2
			c0,0.1,0.1,0.2,0.1,0.3c0,0.2-0.1,0.4-0.2,0.5C139.7,75.9,139.5,76,139.3,76 M139.2,74.9h-0.3v0.7h0.3c0.1,0,0.2,0,0.3,0
			c0.1,0,0.1-0.1,0.2-0.1c0-0.1,0.1-0.1,0.1-0.2c0-0.1,0-0.2-0.1-0.3C139.4,74.9,139.3,74.9,139.2,74.9"/>
		<path class="st2" d="M140.5,76.6v-1.8c0-0.1,0-0.2,0.1-0.2c0.1-0.1,0.2-0.1,0.3,0c0,0,0,0,0,0c0,0.1,0.1,0.1,0.1,0.2v1.8
			c0,0.1,0,0.2-0.1,0.2c0,0-0.1,0.1-0.2,0.1c-0.1,0-0.1,0-0.2-0.1C140.5,76.8,140.5,76.7,140.5,76.6"/>
		<path class="st2" d="M143.5,76.1c0,0.1,0,0.2-0.1,0.2c0,0.1-0.1,0.2-0.2,0.3c-0.1,0.1-0.2,0.2-0.3,0.2c-0.1,0.1-0.3,0.1-0.4,0.1
			c-0.1,0-0.2,0-0.3,0c-0.1,0-0.2-0.1-0.3-0.1c-0.1-0.1-0.2-0.1-0.2-0.2c-0.1-0.1-0.1-0.2-0.2-0.2c0-0.1-0.1-0.2-0.1-0.3
			c0-0.1,0-0.2,0-0.3c0-0.2,0-0.3,0.1-0.5c0.1-0.3,0.3-0.5,0.6-0.6c0.1-0.1,0.3-0.1,0.4-0.1c0.2,0,0.3,0,0.5,0.1
			c0.1,0.1,0.2,0.2,0.3,0.3c0.1,0.1,0.1,0.2,0.1,0.3c0,0.1,0,0.1-0.1,0.1c0,0-0.1,0.1-0.1,0.1c0,0-0.1,0-0.1,0c0,0-0.1-0.1-0.1-0.1
			c0-0.1-0.1-0.2-0.2-0.3c-0.1-0.1-0.2-0.1-0.3-0.1c-0.2,0-0.3,0.1-0.5,0.2c-0.1,0.2-0.2,0.4-0.2,0.6c0,0.2,0,0.3,0.1,0.5
			c0,0.1,0.1,0.2,0.2,0.3c0.1,0.1,0.2,0.1,0.3,0.1c0.1,0,0.2,0,0.3-0.1c0.1-0.1,0.2-0.2,0.2-0.3c0-0.1,0-0.1,0.1-0.1
			c0,0,0.1-0.1,0.1-0.1c0.1,0,0.1,0,0.1,0.1C143.4,76,143.5,76.1,143.5,76.1"/>
		<path class="st2" d="M144.4,76.6v-0.7l-0.6-0.9c0-0.1-0.1-0.1-0.1-0.2c0,0,0-0.1,0-0.1c0-0.1,0-0.1,0.1-0.1c0,0,0.1-0.1,0.2-0.1
			c0.1,0,0.1,0,0.1,0.1c0.1,0.1,0.1,0.1,0.1,0.2l0.4,0.7l0.4-0.7l0.1-0.1c0,0,0-0.1,0.1-0.1c0,0,0,0,0.1-0.1c0,0,0.1,0,0.1,0
			c0.1,0,0.1,0,0.1,0.1c0,0,0.1,0.1,0.1,0.1c0,0,0,0.1,0,0.1c0,0.1-0.1,0.1-0.1,0.2l-0.6,0.9v0.7c0,0.1,0,0.2-0.1,0.2
			c-0.1,0.1-0.2,0.1-0.3,0C144.4,76.8,144.4,76.7,144.4,76.6"/>
		<path class="st2" d="M127.9,82.8c-3.8,0-6.9-3.1-6.9-7c0-3.9,3.1-7,6.9-7c3.8,0,6.9,3.1,6.9,7c0,0,0,0,0,0
			C134.7,79.7,131.7,82.8,127.9,82.8 M127.9,69.1c-3.6,0-6.6,3-6.6,6.7s2.9,6.7,6.6,6.7c3.6,0,6.6-3,6.6-6.7c0,0,0,0,0,0
			C134.4,72.1,131.5,69.2,127.9,69.1"/>
		<path class="st2" d="M132.5,74.7c0-0.1-0.1-0.2-0.1-0.3l0,0c0.1-0.3,0-0.6-0.1-0.8c0.2-0.5,0.3-1,0.3-1.5c0-0.2-0.1-0.4-0.3-0.5
			c0,0-0.1,0-0.1,0l-0.3,0c0,0-0.1,0-0.1,0.1c0,0,0,0.1,0,0.1l0,0.1c0.2,0.5,0.1,1.1-0.2,1.5c-0.2,0-0.5,0.2-0.5,0.4
			c-0.3,0-0.6,0.1-0.8,0.3c-0.3,0.3-0.5,0.6-0.7,0.9c-0.1,0.1-0.2,0.3-0.3,0.4c-0.6,0.9-1.3,1.6-2.2,2.2c-1.1,0.7-2.3,1.1-3.6,1.2
			c-0.1,0-0.3,0.1-0.3,0.2c0,0.2,0,0.3,0.2,0.4c0.7,0.5,1.6,0.7,2.4,0.7h0c1.4,0,2.8-0.5,3.9-1.3c0.6-0.4,1.1-0.8,1.6-1.3
			c0.3-0.4,0.6-0.8,0.9-1.2C132.5,75.9,132.6,75.3,132.5,74.7 M129.6,78.6c-1.1,0.8-2.4,1.2-3.8,1.3h0c-0.8,0-1.6-0.2-2.3-0.6
			c-0.1-0.1-0.1-0.1-0.1-0.1s0,0,0.1,0c1.3-0.1,2.6-0.6,3.7-1.3c0.9-0.6,1.6-1.4,2.2-2.2c0.1-0.1,0.2-0.3,0.3-0.4
			c0.4-0.7,0.9-1.3,1.5-1.2c0.8,0.2,1,0.5,1.1,0.8c0.1,0.5,0,1-0.3,1.5c-0.2,0.4-0.5,0.8-0.8,1.1C130.7,77.8,130.2,78.3,129.6,78.6
			 M131.6,73.6L131.6,73.6c0.1,0,0.1,0,0.2-0.1c0.4-0.5,0.5-1.1,0.3-1.7l0.1,0c0.1,0.1,0.1,0.2,0.1,0.3c0,0.5-0.1,1-0.3,1.4
			c0,0,0,0.1,0,0.1l0,0c0.1,0.1,0.2,0.3,0.2,0.5c-0.3-0.2-0.6-0.3-0.9-0.4l0-0.1C131.4,73.6,131.5,73.6,131.6,73.6"/>
		<path class="st2" d="M130.5,74.9c-0.1,0-0.1,0-0.2,0.1c0,0,0,0,0,0c-0.3,0.5-0.6,1-1,1.4c0,0.1,0,0.1,0,0.2c0,0,0,0,0,0
			c0,0,0.1,0,0.1,0c0,0,0.1,0,0.1,0c0.3-0.3,0.5-0.7,0.8-1c0.1-0.1,0.2-0.3,0.2-0.4C130.6,75,130.6,74.9,130.5,74.9"/>
		<path class="st2" d="M12.4,16.3H9.1l-0.5,1.6H5.8l3.5-9.7h3.1l3.5,9.7H13L12.4,16.3z M10.8,11.1l-1,3.1h2L10.8,11.1z"/>
		<path class="st2" d="M25.4,13c0.1,2.6-1.9,4.8-4.5,4.9c-0.2,0-0.3,0-0.5,0h-3.8V8.2h3.8c2.5-0.2,4.8,1.7,5,4.3
			C25.4,12.7,25.4,12.8,25.4,13 M20.2,15.5c1.2,0.1,2.4-0.8,2.5-2c0-0.1,0-0.3,0-0.4c0.1-1.3-0.8-2.4-2.1-2.5c-0.1,0-0.3,0-0.4,0
			h-0.9v5H20.2z"/>
		<path class="st2" d="M35.3,13c0.1,2.6-1.9,4.8-4.5,4.9c-0.2,0-0.3,0-0.5,0h-3.8V8.2h3.8c2.5-0.2,4.8,1.7,5,4.3
			C35.3,12.7,35.3,12.8,35.3,13 M30.2,15.5c1.2,0.1,2.4-0.8,2.5-2c0-0.1,0-0.3,0-0.4c0.1-1.3-0.8-2.4-2.1-2.5c-0.1,0-0.3,0-0.4,0
			h-0.9v5H30.2z"/>
		<path class="st2" d="M43.7,18c-2.6,0.1-4.8-2.1-4.9-4.8c0-0.1,0-0.1,0-0.2c0-2.7,2.2-5,4.9-5c2.7,0,4.9,2.2,4.9,5
			c0.1,2.7-2,4.9-4.7,5C43.8,18,43.8,18,43.7,18 M43.7,15.5c1.2,0,2.2-0.9,2.2-2.1c0-0.1,0-0.2,0-0.3c0.1-1.2-0.7-2.3-2-2.5
			c-1.2-0.1-2.3,0.8-2.4,2c0,0.2,0,0.3,0,0.5c-0.2,1.2,0.7,2.3,1.9,2.5C43.5,15.5,43.6,15.5,43.7,15.5"/>
		<path class="st2" d="M58.6,8.2v9.7H56l-3.5-5.4v5.4h-2.7V8.2h2.7l3.5,5.5V8.2H58.6z"/>
		<path class="st2" d="M79,21.5c-5.2,0-9.5-4.2-9.5-9.5s4.2-9.6,9.4-9.6c5.2,0,9.5,4.2,9.5,9.5c0,0,0,0,0,0
			C88.4,17.2,84.2,21.5,79,21.5 M79,2.8c-5,0-9,4.1-9,9.1s4,9.2,9,9.2c5,0,9-4.1,9-9.1c0,0,0,0,0,0C87.9,6.9,83.9,2.8,79,2.8"/>
		<path class="st2" d="M76.9,11.6c-0.1,0-0.1,0-0.2-0.1C76.3,11.2,76,10.6,76,10V8.5c0-0.2,0.1-0.3,0.3-0.3c0,0,0.1,0,0.1,0l2,1.2
			c0.5,0.3,0.8,0.9,0.8,1.5c0,0.2-0.1,0.3-0.3,0.3c-0.2,0-0.3-0.1-0.3-0.3c0-0.4-0.2-0.8-0.5-1L76.5,9v1c0,0.4,0.2,0.8,0.5,1
			c0.1,0.1,0.2,0.3,0.1,0.4C77.1,11.5,77,11.6,76.9,11.6"/>
		<path class="st2" d="M76.4,13.4c-0.1,0-0.2-0.1-0.3-0.2C76,13,76,12.7,76,12.4v-1.5c0-0.1,0.1-0.2,0.1-0.3c0.1-0.1,0.2-0.1,0.3,0
			l2,1.1c0.1,0.1,0.2,0.3,0.1,0.4c-0.1,0.1-0.3,0.2-0.4,0.1l-1.5-0.9v1c0,0.2,0,0.4,0.1,0.5c0.1,0.1,0,0.3-0.1,0.4
			C76.5,13.4,76.4,13.4,76.4,13.4"/>
		<path class="st2" d="M79,15.2c0,0-0.1,0-0.1,0l-1.3-0.8c-0.1-0.1-0.2-0.3-0.1-0.4c0.1-0.1,0.3-0.2,0.4-0.1c0,0,0,0,0,0l0.9,0.5v-1
			c0-0.2,0.1-0.3,0.3-0.3c0.2,0,0.3,0.1,0.3,0.3c0,0,0,0,0,0v1.5C79.2,15.1,79.1,15.2,79,15.2"/>
		<path class="st2" d="M79,17.6c0,0-0.1,0-0.1,0l-2-1.2C76.3,16.1,76,15.5,76,15c0-0.2,0.1-0.3,0.3-0.3s0.3,0.1,0.3,0.3
			c0,0.4,0.2,0.7,0.5,0.9l1.6,0.9v-1c0-0.4-0.2-0.8-0.5-1c-0.1-0.1-0.2-0.3-0.1-0.4c0.1-0.1,0.3-0.2,0.4-0.1
			c0.5,0.3,0.8,0.9,0.8,1.5v1.5C79.2,17.5,79.1,17.6,79,17.6"/>
		<path class="st2" d="M76.2,9.3C76.1,9.3,76,9.1,76,9V7.3C76,7.1,76.1,7,76.2,7c0.2,0,0.3,0.1,0.3,0.3c0,0,0,0,0,0V9
			C76.5,9.1,76.4,9.3,76.2,9.3"/>
		<path class="st2" d="M79,11.9c-0.2,0-0.3-0.1-0.3-0.3v-0.6c0-0.6,0.3-1.2,0.8-1.5l2.1-1.2c0.1-0.1,0.3,0,0.4,0.1c0,0,0,0.1,0,0.1
			V10c0,0.2-0.1,0.3-0.3,0.3c-0.2,0-0.3-0.1-0.3-0.3V9l-1.6,0.9c-0.3,0.2-0.5,0.6-0.5,1v0.6C79.2,11.8,79.1,11.9,79,11.9"/>
		<path class="st2" d="M79,15.2c-0.2,0-0.3-0.1-0.3-0.3v-1.5c0-0.2,0.1-0.3,0.3-0.3c0.2,0,0.3,0.1,0.3,0.3c0,0,0,0,0,0v1l1.6-0.9
			c0.3-0.2,0.5-0.6,0.5-1v-0.7c0-0.2,0.1-0.3,0.3-0.3c0.2,0,0.3,0.1,0.3,0.3v0.7c0,0.6-0.3,1.2-0.8,1.5l-2.1,1.2
			C79.1,15.2,79,15.2,79,15.2"/>
		<path class="st2" d="M79,17.6c-0.2,0-0.3-0.1-0.3-0.3c0,0,0,0,0,0v-1.5c0-0.6,0.3-1.2,0.8-1.5l2.1-1.2c0.1-0.1,0.3,0,0.4,0.1
			c0,0,0,0.1,0,0.1v1.5c0,0.6-0.3,1.2-0.8,1.5l-2.1,1.2C79.1,17.6,79,17.6,79,17.6 M81.4,13.8l-1.6,0.9c-0.3,0.2-0.5,0.6-0.5,1v1
			l1.6-0.9c0.3-0.2,0.5-0.6,0.5-1V13.8z"/>
		<path class="st2" d="M81.7,9.3c-0.2,0-0.3-0.1-0.3-0.3V7.3c0-0.2,0.1-0.3,0.3-0.3C81.8,7,82,7.1,82,7.3c0,0,0,0,0,0V9
			C82,9.1,81.8,9.3,81.7,9.3"/>
		<path class="st2" d="M79,10.6c-0.2,0-0.3-0.1-0.3-0.3V6.5c0-0.2,0.1-0.3,0.3-0.3c0.2,0,0.3,0.1,0.3,0.3v3.9
			C79.2,10.5,79.1,10.6,79,10.6"/>
		<path class="st2" d="M73,16.3c-0.2,0-0.3-0.1-0.3-0.3c0-0.1,0.1-0.2,0.1-0.3l11.9-7c0.1-0.1,0.3,0,0.4,0.1c0,0,0,0,0,0
			c0.1,0.1,0,0.3-0.1,0.4l-11.9,7C73.1,16.3,73.1,16.3,73,16.3"/>
		<path class="st2" d="M94.2,9.8v0.6c0,0.1,0,0.1,0,0.2c0,0.1,0,0.1-0.1,0.1c0,0-0.1,0.1-0.2,0.1c-0.2,0.1-0.4,0.2-0.5,0.2
			c-0.2,0-0.4,0.1-0.6,0.1c-0.2,0-0.4,0-0.7-0.1c-0.2-0.1-0.4-0.2-0.5-0.3c-0.1-0.1-0.3-0.3-0.3-0.5c-0.1-0.2-0.1-0.5-0.1-0.7
			c0-0.2,0-0.5,0.1-0.7c0.1-0.2,0.2-0.4,0.3-0.5c0.1-0.1,0.3-0.3,0.5-0.3c0.2-0.1,0.5-0.1,0.7-0.1c0.2,0,0.4,0,0.6,0.1
			c0.1,0,0.3,0.1,0.4,0.2c0.1,0.1,0.2,0.2,0.2,0.3c0,0.1,0.1,0.2,0.1,0.3c0,0.1,0,0.2-0.1,0.2C93.9,9,93.9,9,93.8,9
			c-0.1,0-0.2,0-0.2-0.1c-0.1-0.1-0.1-0.2-0.2-0.3c-0.1-0.1-0.1-0.1-0.2-0.2c-0.1,0-0.2-0.1-0.4-0.1c-0.1,0-0.3,0-0.4,0.1
			c-0.1,0.1-0.2,0.1-0.3,0.2c-0.1,0.1-0.2,0.2-0.2,0.4c0,0.2-0.1,0.3-0.1,0.5c0,0.3,0.1,0.6,0.3,0.9c0.2,0.2,0.4,0.3,0.7,0.3
			c0.1,0,0.3,0,0.4-0.1c0.1,0,0.3-0.1,0.4-0.2V10h-0.5c-0.1,0-0.2,0-0.3-0.1c-0.1,0-0.1-0.1-0.1-0.2c0-0.1,0-0.1,0.1-0.2
			c0.1,0,0.1-0.1,0.2-0.1h0.7c0.1,0,0.2,0,0.2,0c0.1,0,0.1,0.1,0.1,0.1C94.2,9.7,94.2,9.8,94.2,9.8"/>
		<path class="st2" d="M95.4,8.3v2.3h1.3c0.1,0,0.2,0,0.2,0.1c0.1,0,0.1,0.1,0.1,0.2c0,0.1,0,0.1-0.1,0.2c-0.1,0.1-0.2,0.1-0.2,0.1
			h-1.5c-0.1,0-0.2,0-0.3-0.1c-0.1-0.1-0.1-0.2-0.1-0.3V8.3c0-0.1,0-0.2,0.1-0.3c0.1-0.1,0.1-0.1,0.2-0.1c0.1,0,0.2,0,0.2,0.1
			C95.4,8.1,95.4,8.2,95.4,8.3"/>
		<path class="st2" d="M97.4,9.8V8.3c0-0.1,0-0.2,0.1-0.3c0.1-0.1,0.1-0.1,0.2-0.1c0.1,0,0.2,0,0.2,0.1c0.1,0.1,0.1,0.2,0.1,0.3v1.6
			c0,0.2,0,0.3,0.1,0.4c0,0.1,0.1,0.2,0.2,0.3c0.1,0.1,0.3,0.1,0.4,0.1c0.2,0,0.4-0.1,0.5-0.2c0.1-0.2,0.2-0.4,0.2-0.6V8.3
			c0-0.1,0-0.2,0.1-0.3c0.1-0.1,0.1-0.1,0.2-0.1c0.1,0,0.2,0,0.2,0.1c0.1,0.1,0.1,0.2,0.1,0.3v1.5c0,0.2,0,0.4-0.1,0.6
			c0,0.2-0.1,0.3-0.3,0.4c-0.1,0.1-0.2,0.2-0.4,0.2c-0.2,0.1-0.3,0.1-0.5,0.1c-0.2,0-0.4,0-0.6-0.1c-0.2,0-0.3-0.1-0.4-0.2
			c-0.1-0.1-0.2-0.3-0.2-0.4C97.5,10.2,97.4,10,97.4,9.8"/>
		<path class="st2" d="M102.8,8.5h-0.7v2.3c0,0.1,0,0.2-0.1,0.3c-0.1,0.1-0.1,0.1-0.2,0.1c-0.1,0-0.2,0-0.2-0.1
			c-0.1-0.1-0.1-0.2-0.1-0.3V8.5h-0.7c-0.1,0-0.2,0-0.2-0.1c-0.1,0-0.1-0.1-0.1-0.2c0-0.1,0-0.1,0.1-0.2c0.1-0.1,0.2-0.1,0.2-0.1h2
			c0.1,0,0.2,0,0.2,0.1c0.1,0,0.1,0.1,0.1,0.2c0,0.1,0,0.1-0.1,0.2C103,8.5,102.9,8.5,102.8,8.5"/>
		<path class="st2" d="M105.5,8.5h-1.4v0.8h1.3c0.1,0,0.2,0,0.2,0.1c0,0,0.1,0.1,0.1,0.2c0,0.1,0,0.1-0.1,0.2
			c-0.1,0.1-0.1,0.1-0.2,0.1h-1.3v0.9h1.5c0.1,0,0.2,0,0.2,0.1c0.1,0,0.1,0.1,0.1,0.2c0,0.1,0,0.1-0.1,0.2c-0.1,0.1-0.1,0.1-0.2,0.1
			h-1.7c-0.2,0-0.4-0.1-0.4-0.3c0,0,0-0.1,0-0.1V8.4c0-0.1,0-0.2,0-0.2c0-0.1,0.1-0.1,0.1-0.1c0.1,0,0.1,0,0.2,0h1.7
			c0.1,0,0.2,0,0.2,0.1c0.1,0.1,0.1,0.3,0,0.4C105.7,8.4,105.6,8.5,105.5,8.5"/>
		<path class="st2" d="M107.2,8.3l1.2,1.9V8.3c0-0.1,0-0.2,0.1-0.3c0.1-0.1,0.1-0.1,0.2-0.1c0.1,0,0.2,0,0.2,0.1
			c0.1,0.1,0.1,0.2,0.1,0.3v2.5c0,0.3-0.1,0.4-0.3,0.4c-0.1,0-0.1,0-0.2,0c0,0-0.1,0-0.1-0.1c0,0-0.1-0.1-0.1-0.1l-0.1-0.1L107,9
			v1.9c0,0.1,0,0.2-0.1,0.3c-0.1,0.1-0.1,0.1-0.2,0.1c-0.1,0-0.2,0-0.2-0.1c-0.1-0.1-0.1-0.2-0.1-0.3V8.4c0-0.1,0-0.2,0-0.2
			c0-0.1,0.1-0.1,0.1-0.2c0.1-0.1,0.2-0.1,0.3,0c0,0,0.1,0,0.1,0.1c0,0,0.1,0.1,0.1,0.1L107.2,8.3"/>
		<path class="st2" d="M96.6,12.9h-1.2v0.8h1c0.1,0,0.2,0,0.2,0.1c0.1,0.1,0.1,0.3,0,0.3c0,0,0,0,0,0c-0.1,0-0.1,0.1-0.2,0.1h-1v1
			c0,0.1,0,0.2-0.1,0.3c-0.1,0.1-0.3,0.1-0.4,0c0,0,0,0,0,0c-0.1-0.1-0.1-0.2-0.1-0.3v-2.4c0-0.1,0-0.2,0-0.2c0-0.1,0.1-0.1,0.1-0.1
			c0.1,0,0.1,0,0.2,0h1.5c0.1,0,0.2,0,0.2,0.1c0.1,0.1,0.1,0.3,0,0.4c0,0,0,0,0,0C96.7,12.9,96.7,12.9,96.6,12.9"/>
		<path class="st2" d="M98.2,14.2H98v1c0,0.1,0,0.2-0.1,0.3c-0.1,0.1-0.1,0.1-0.2,0.1c-0.1,0-0.2,0-0.2-0.1
			c-0.1-0.1-0.1-0.2-0.1-0.3v-2.4c0-0.2,0.1-0.4,0.3-0.4c0,0,0.1,0,0.1,0h1c0.1,0,0.2,0,0.4,0c0.1,0,0.2,0,0.3,0.1
			c0.1,0,0.2,0.1,0.3,0.2c0.1,0.1,0.1,0.2,0.2,0.3c0,0.1,0.1,0.2,0.1,0.3c0,0.2-0.1,0.4-0.2,0.6c-0.2,0.2-0.4,0.3-0.6,0.3
			c0.1,0.1,0.2,0.2,0.3,0.3c0.1,0.1,0.2,0.2,0.3,0.4c0.1,0.1,0.1,0.2,0.2,0.4c0,0.1,0.1,0.1,0.1,0.2c0,0,0,0.1,0,0.1
			c0,0-0.1,0.1-0.1,0.1c0,0-0.1,0-0.2,0c-0.1,0-0.1,0-0.2-0.1c0,0-0.1-0.1-0.1-0.1c0-0.1-0.1-0.2-0.1-0.2L99,14.8
			c-0.1-0.1-0.2-0.2-0.2-0.4c-0.1-0.1-0.1-0.1-0.2-0.2C98.4,14.2,98.3,14.2,98.2,14.2 M98.6,12.9H98v0.9h0.6c0.1,0,0.3,0,0.4,0
			c0.1,0,0.2-0.1,0.2-0.1c0.1-0.1,0.1-0.2,0.1-0.3c0-0.1,0-0.2-0.1-0.2c0-0.1-0.1-0.1-0.2-0.1C98.9,12.9,98.7,12.9,98.6,12.9"/>
		<path class="st2" d="M102.6,12.9h-1.4v0.8h1.3c0.1,0,0.2,0,0.2,0.1c0,0,0.1,0.1,0.1,0.2c0,0.1,0,0.1-0.1,0.2
			c-0.1,0.1-0.1,0.1-0.2,0.1h-1.3v0.9h1.5c0.1,0,0.2,0,0.2,0.1c0.1,0,0.1,0.1,0.1,0.2c0,0.1,0,0.1-0.1,0.2c-0.1,0.1-0.1,0.1-0.2,0.1
			h-1.7c-0.2,0-0.4-0.1-0.4-0.3c0,0,0-0.1,0-0.1v-2.4c0-0.1,0-0.2,0-0.2c0-0.1,0.1-0.1,0.1-0.1c0.1,0,0.1,0,0.2,0h1.7
			c0.1,0,0.2,0,0.2,0.1c0.1,0.1,0.1,0.3,0,0.4C102.7,12.9,102.6,12.9,102.6,12.9"/>
		<path class="st2" d="M105.5,12.9H104v0.8h1.3c0.1,0,0.2,0,0.2,0.1c0,0,0.1,0.1,0.1,0.2c0,0.1,0,0.1-0.1,0.2
			c-0.1,0.1-0.1,0.1-0.2,0.1H104v0.9h1.5c0.1,0,0.2,0,0.2,0.1c0.1,0,0.1,0.1,0.1,0.2c0,0.1,0,0.1-0.1,0.2c-0.1,0.1-0.1,0.1-0.2,0.1
			h-1.7c-0.2,0-0.4-0.1-0.4-0.3c0,0,0-0.1,0-0.1v-2.4c0-0.1,0-0.2,0-0.2c0-0.1,0.1-0.1,0.1-0.1c0.1,0,0.1,0,0.2,0h1.7
			c0.1,0,0.2,0,0.2,0.1c0.1,0.1,0.1,0.3,0,0.4C105.6,12.9,105.5,12.9,105.5,12.9"/>
		<path class="st2" d="M137.7,10.6l0.7,2.1l0.7-2.1c0-0.1,0.1-0.2,0.1-0.2c0,0,0.1-0.1,0.1-0.1c0.1,0,0.1-0.1,0.2-0.1
			c0.1,0,0.1,0,0.2,0c0,0,0.1,0.1,0.1,0.1c0,0,0,0.1,0,0.1c0,0,0,0.1,0,0.1c0,0,0,0.1,0,0.1l0,0.1l-0.8,2.1c0,0.1-0.1,0.2-0.1,0.2
			c0,0.1-0.1,0.1-0.1,0.2c0,0.1-0.1,0.1-0.1,0.1c-0.1,0-0.1,0.1-0.2,0.1c-0.1,0-0.1,0-0.2-0.1c-0.1,0-0.1-0.1-0.1-0.1
			c0-0.1-0.1-0.1-0.1-0.2c0-0.1-0.1-0.1-0.1-0.2l-0.7-2.1c0,0,0-0.1,0-0.1c0,0,0-0.1,0-0.1c0,0,0-0.1,0-0.1c0-0.1,0-0.1,0.1-0.2
			c0.1-0.1,0.1-0.1,0.2-0.1c0.1,0,0.2,0,0.2,0.1C137.6,10.3,137.7,10.4,137.7,10.6"/>
		<path class="st2" d="M142.3,10.7h-1.4v0.8h1.3c0.1,0,0.2,0,0.2,0.1c0,0,0.1,0.1,0.1,0.2c0,0.1,0,0.1-0.1,0.2
			c-0.1,0.1-0.1,0.1-0.2,0.1h-1.3v0.9h1.5c0.1,0,0.2,0,0.2,0.1c0.1,0,0.1,0.1,0.1,0.2c0,0.1,0,0.1-0.1,0.2c-0.1,0.1-0.1,0.1-0.2,0.1
			h-1.7c-0.2,0-0.4-0.1-0.4-0.3c0,0,0-0.1,0-0.1v-2.4c0-0.1,0-0.2,0-0.2c0-0.1,0.1-0.1,0.1-0.1c0.1,0,0.1,0,0.2,0h1.7
			c0.1,0,0.2,0,0.2,0.1c0.1,0.1,0.1,0.3,0,0.4C142.5,10.7,142.4,10.7,142.3,10.7"/>
		<path class="st2" d="M146,12.1v0.6c0,0.1,0,0.1,0,0.2c0,0.1,0,0.1-0.1,0.1c0,0-0.1,0.1-0.2,0.1c-0.2,0.1-0.4,0.2-0.5,0.2
			c-0.2,0-0.4,0.1-0.6,0.1c-0.2,0-0.4,0-0.7-0.1c-0.2-0.1-0.4-0.2-0.5-0.3c-0.1-0.1-0.3-0.3-0.3-0.5c-0.1-0.2-0.1-0.4-0.1-0.7
			c0-0.2,0-0.5,0.1-0.7c0.1-0.2,0.2-0.4,0.3-0.5c0.1-0.1,0.3-0.3,0.5-0.3c0.2-0.1,0.5-0.1,0.7-0.1c0.2,0,0.4,0,0.6,0.1
			c0.1,0,0.3,0.1,0.4,0.2c0.1,0.1,0.2,0.2,0.2,0.3c0,0.1,0.1,0.2,0.1,0.3c0,0.1,0,0.2-0.1,0.2c-0.1,0.1-0.1,0.1-0.2,0.1
			c-0.1,0-0.2,0-0.2-0.1c-0.1-0.1-0.1-0.2-0.2-0.3c-0.1-0.1-0.1-0.1-0.2-0.2c-0.1,0-0.2-0.1-0.4-0.1c-0.1,0-0.3,0-0.4,0.1
			c-0.1,0.1-0.2,0.1-0.3,0.2c-0.1,0.1-0.2,0.2-0.2,0.4c0,0.2-0.1,0.3-0.1,0.5c0,0.3,0.1,0.6,0.3,0.9c0.2,0.2,0.4,0.3,0.7,0.3
			c0.1,0,0.3,0,0.4-0.1c0.1,0,0.3-0.1,0.4-0.2v-0.5H145c-0.1,0-0.2,0-0.3-0.1c-0.1,0-0.1-0.1-0.1-0.2c0-0.1,0-0.1,0.1-0.2
			c0.1,0,0.1-0.1,0.2-0.1h0.7c0.1,0,0.2,0,0.2,0c0.1,0,0.1,0.1,0.1,0.1C146,11.9,146,12,146,12.1"/>
		<path class="st2" d="M148.6,13l-0.1-0.4h-1.3l-0.1,0.4c0,0.1-0.1,0.2-0.2,0.3c0,0.1-0.1,0.1-0.2,0.1c-0.1,0-0.2,0-0.2-0.1
			c-0.1-0.1-0.1-0.1-0.1-0.2c0,0,0-0.1,0-0.1c0,0,0-0.1,0.1-0.2l0.8-2.1l0.1-0.2c0-0.1,0.1-0.1,0.1-0.2c0-0.1,0.1-0.1,0.1-0.1
			c0.1,0,0.1-0.1,0.2-0.1c0.1,0,0.2,0,0.2,0.1c0.1,0,0.1,0.1,0.1,0.1c0,0.1,0.1,0.1,0.1,0.2c0,0.1,0.1,0.1,0.1,0.2l0.8,2
			c0.1,0.1,0.1,0.2,0.1,0.3c0,0.1,0,0.2-0.1,0.2c-0.1,0.1-0.1,0.1-0.2,0.1c0,0-0.1,0-0.1,0c0,0-0.1,0-0.1-0.1c0,0-0.1-0.1-0.1-0.1
			C148.7,13.1,148.7,13,148.6,13 M147.4,12.1h0.9l-0.5-1.3L147.4,12.1z"/>
		<path class="st2" d="M150.6,10.5l1.2,1.9v-1.9c0-0.1,0-0.2,0.1-0.3c0.1-0.1,0.1-0.1,0.2-0.1c0.1,0,0.2,0,0.2,0.1
			c0.1,0.1,0.1,0.2,0.1,0.3V13c0,0.3-0.1,0.4-0.3,0.4c-0.1,0-0.1,0-0.2,0c0,0-0.1,0-0.1-0.1c0,0-0.1-0.1-0.1-0.1l-0.1-0.1l-1.2-1.9
			V13c0,0.1,0,0.2-0.1,0.3c-0.1,0.1-0.1,0.1-0.2,0.1c-0.1,0-0.2,0-0.2-0.1c-0.1-0.1-0.1-0.2-0.1-0.3v-2.4c0-0.1,0-0.2,0-0.2
			c0-0.1,0.1-0.1,0.1-0.2c0.1-0.1,0.2-0.1,0.3,0c0,0,0.1,0,0.1,0.1c0,0,0.1,0.1,0.1,0.1L150.6,10.5"/>
		<path class="st2" d="M125.3,21.5c-5.2,0-9.5-4.2-9.5-9.5c0-5.3,4.2-9.6,9.4-9.6c5.2,0,9.5,4.2,9.5,9.5c0,0,0,0,0,0
			C134.7,17.2,130.5,21.5,125.3,21.5 M125.3,2.8c-5,0-9,4.1-9,9.1c0,5,4,9.2,9,9.2c5,0,9-4.1,9-9.1c0,0,0,0,0,0
			C134.2,6.9,130.2,2.8,125.3,2.8"/>
		<path class="st2" d="M125,18.4c-0.1,0-0.2-0.1-0.2-0.2l-3-12.4c0-0.1,0-0.2,0.2-0.3c0.1,0,0.2,0,0.3,0.2l0,0l3,12.4
			C125.2,18.2,125.1,18.3,125,18.4C125,18.4,125,18.4,125,18.4C125,18.4,125,18.4,125,18.4"/>
		<path class="st2" d="M124.6,16.9L124.6,16.9c-2-0.4-3.6-1.8-4.3-3.8c-1.3-3.8,1.3-7.4,1.4-7.6c0.1-0.1,0.2-0.1,0.3-0.1
			c0,0,0,0,0,0c0.1,0.1,0.1,0.2,0,0.3c0,0-2.6,3.7-1.3,7.2c0.6,1.8,2,3.1,3.9,3.5c0.1,0,0.2,0.1,0.2,0.2
			C124.8,16.9,124.7,16.9,124.6,16.9"/>
		<path class="st2" d="M124.6,16.9c-0.1,0-0.2-0.1-0.2-0.2c0-0.1,0-0.1,0.1-0.2c1.4-1.2,2.1-3.1,1.8-4.9c-0.5-3.7-4.4-5.7-4.5-5.7
			c-0.1-0.1-0.2-0.2-0.1-0.3c0.1-0.1,0.2-0.2,0.3-0.1c0.2,0.1,4.2,2.1,4.7,6.1c0.4,2-0.4,4.1-2,5.4
			C124.7,16.9,124.6,16.9,124.6,16.9"/>
		<path class="st2" d="M124,14.5c0,0-0.1,0-0.1,0c-0.1-0.1-0.1-0.2-0.1-0.3c0,0,0,0,0,0l2.2-3.8c0.1-0.1,0.2-0.1,0.3-0.1
			c0.1,0.1,0.1,0.2,0.1,0.3l-2.2,3.8C124.2,14.5,124.1,14.5,124,14.5"/>
		<path class="st2" d="M123.2,11.2c0,0-0.1,0-0.1,0c-0.1-0.1-0.1-0.2-0.1-0.3c0,0,0,0,0,0l1.7-2.8c0.1-0.1,0.2-0.1,0.3-0.1
			c0,0,0,0,0,0c0.1,0.1,0.1,0.2,0.1,0.3l-1.7,2.8C123.3,11.1,123.3,11.2,123.2,11.2"/>
		<path class="st2" d="M124,14.5c0,0-0.1,0-0.1,0l-3.7-2.3c-0.1-0.1-0.1-0.2-0.1-0.3c0.1-0.1,0.2-0.1,0.3-0.1c0,0,0,0,0,0l3.7,2.3
			c0.1,0.1,0.1,0.2,0.1,0.3C124.2,14.5,124.1,14.5,124,14.5"/>
		<path class="st2" d="M123.2,11.2c0,0-0.1,0-0.1,0l-2.8-1.7c-0.1-0.1-0.1-0.2-0.1-0.3c0.1-0.1,0.2-0.1,0.3-0.1l2.8,1.7
			c0.1,0.1,0.1,0.2,0.1,0.3C123.3,11.1,123.3,11.2,123.2,11.2"/>
		<path class="st2" d="M126.6,13.1c0,0-0.1,0-0.1,0c-0.1-0.1-0.1-0.2-0.1-0.3c0,0,0,0,0,0l3.1-5.9c0.1-0.1,0.2-0.2,0.3-0.1
			c0,0,0,0,0,0c0.1,0.1,0.1,0.2,0.1,0.3l-3.1,5.9C126.8,13,126.7,13.1,126.6,13.1"/>
		<path class="st2" d="M125.6,9.2c-0.1,0-0.1,0-0.2-0.1c-0.1-0.1-0.1-0.2,0-0.3c0,0,0,0,0,0c1.2-1.1,2.7-1.8,4.2-2.2
			c0.1,0,0.2,0.1,0.3,0.2c0,0,0,0,0,0c0,0.1-0.1,0.2-0.2,0.3c-1.5,0.4-2.8,1.1-4,2.1C125.7,9.2,125.7,9.2,125.6,9.2"/>
		<path class="st2" d="M124.9,16.9c-0.1,0-0.2,0-0.4,0c-0.1,0-0.2-0.1-0.2-0.2c0-0.1,0.1-0.2,0.2-0.2l0,0c1.8,0.1,3.5-0.8,4.5-2.4
			c2-3.1,0.4-7.1,0.4-7.2c0-0.1,0-0.2,0.1-0.3c0.1,0,0.2,0,0.3,0.1c0,0,0,0,0,0c0.1,0.2,1.7,4.3-0.5,7.6
			C128.5,15.9,126.8,16.9,124.9,16.9"/>
		<path class="st2" d="M126.1,14.7c0,0-0.1-0.1-0.1-0.1c0-0.1,0-0.2,0.2-0.3c0,0,0,0,0,0l3.4-1c0.1,0,0.2,0,0.3,0.2c0,0,0,0,0,0
			c0,0.1,0,0.2-0.2,0.3l-3.4,1C126.2,14.8,126.1,14.8,126.1,14.7"/>
		<path class="st2" d="M127.1,11.9c0,0-0.1-0.1-0.1-0.1c0-0.1,0-0.2,0.2-0.3c0,0,0,0,0,0l3-0.9c0.1,0,0.2,0,0.3,0.2
			c0,0.1,0,0.2-0.1,0.3l-3,0.9C127.2,12,127.2,12,127.1,11.9"/>
		<path class="st3" d="M-12.2-2.7h399.1v112H-12.2V-2.7z"/>
	</g>
</g>
</svg>
