<?xml version="1.0" encoding="utf-8"?>
<!-- Generator: Adobe Illustrator 26.4.1, SVG Export Plug-In . SVG Version: 6.00 Build 0)  -->
<svg version="1.1" id="Layer_1" xmlns="http://www.w3.org/2000/svg" xmlns:xlink="http://www.w3.org/1999/xlink" x="0px" y="0px"
	 viewBox="0 0 378.6 93.6" style="enable-background:new 0 0 378.6 93.6;" xml:space="preserve">
<style type="text/css">
	.st0{fill:#045768;}
	.st1{fill:#007284;}
	.st2{fill:#FFFFFF;}
	.st3{fill:none;}
</style>
<g>
	<g>
		<path class="st0" d="M0,0h378.6v29.7H0V0z"/>
		<path class="st1" d="M0,29.7h378.6v63.9H0V29.7z"/>
		<path class="st2" d="M7.1,43.7H5.6v3.3h-1v-8h2.6c1.9,0,2.8,1,2.8,2.3C9.9,42.6,9.1,43.7,7.1,43.7 M7.1,42.8
			c1.2,0,1.7-0.6,1.7-1.5c0-0.9-0.5-1.5-1.7-1.5H5.6v2.9L7.1,42.8z"/>
		<path class="st2" d="M13.8,40.6c1,0,1.9,0.4,2.3,1.3v-1.1h1.1v6.3h-1.1v-1.2c-0.5,0.8-1.4,1.3-2.4,1.3c-1.7,0-3-1.4-3-3.1
			c0-0.1,0-0.1,0-0.2c-0.1-1.6,1.1-3.1,2.7-3.2C13.6,40.7,13.7,40.6,13.8,40.6 M14,41.6c-1.2,0-2.1,0.9-2.1,2.1c0,0.1,0,0.1,0,0.2
			c-0.1,1.2,0.7,2.2,1.9,2.3c1.2,0.1,2.2-0.7,2.3-1.9c0-0.1,0-0.3,0-0.4c0.1-1.2-0.8-2.2-2-2.3C14.1,41.6,14.1,41.6,14,41.6"/>
		<path class="st2" d="M20.1,47.1h-1v-6.3h1v1c0.4-0.8,1.2-1.2,2-1.1v1.1h-0.3c-1,0-1.8,0.4-1.8,1.9V47.1z"/>
		<path class="st2" d="M32.4,43.5c0-1.3-0.7-1.9-1.7-1.9c-1.1,0-1.8,0.7-1.8,2v3.5h-1v-3.6c0-1.3-0.7-1.9-1.7-1.9
			c-1.1,0-1.8,0.7-1.8,2v3.5h-1v-6.3h1v0.9c0.4-0.7,1.2-1.1,2-1c1-0.1,1.9,0.5,2.3,1.4c0.4-0.9,1.3-1.4,2.2-1.4
			c1.3-0.1,2.5,1,2.6,2.3c0,0.1,0,0.3,0,0.4v3.7h-1L32.4,43.5z"/>
		<path class="st2" d="M37.9,47.2c-1.7,0-3.1-1.3-3.1-2.9c0-0.1,0-0.2,0-0.3c-0.1-1.7,1.1-3.1,2.8-3.2c0.1,0,0.2,0,0.4,0
			c1.6-0.1,3,1.2,3,2.7c0,0.1,0,0.2,0,0.3c0,0.2,0,0.4,0,0.6h-5c0,1.1,0.9,2,2,2c0,0,0,0,0.1,0c0.8,0.1,1.5-0.4,1.8-1.2h1.1
			C40.4,46.4,39.2,47.2,37.9,47.2 M35.9,43.4h4c0-1-0.8-1.9-1.8-1.9c-0.1,0-0.1,0-0.2,0C36.8,41.5,35.9,42.4,35.9,43.4"/>
		<path class="st2" d="M44.6,47.2c-1.5,0-2.5-0.8-2.6-2h1.1c0.1,0.6,0.6,1.1,1.5,1.1c0.8,0,1.3-0.4,1.3-0.9c0-1.4-3.7-0.6-3.7-2.9
			c0-1,0.9-1.8,2.3-1.8c1.2-0.1,2.2,0.7,2.4,1.8c0,0,0,0.1,0,0.1h-1c-0.1-0.7-0.6-1.2-1.3-1.1c0,0,0,0-0.1,0c-0.8,0-1.2,0.4-1.2,0.9
			c0,1.5,3.7,0.7,3.7,2.9C46.9,46.4,45.9,47.2,44.6,47.2"/>
		<path class="st2" d="M50.9,40.6c1,0,1.9,0.4,2.3,1.3v-1.1h1.1v6.3h-1.1v-1.2c-0.5,0.8-1.4,1.3-2.4,1.3c-1.7,0-3-1.4-3-3.1
			c0-0.1,0-0.1,0-0.2c-0.1-1.6,1.1-3.1,2.7-3.2C50.8,40.7,50.8,40.6,50.9,40.6 M51.1,41.6c-1.2,0-2.1,0.9-2.1,2.1c0,0.1,0,0.1,0,0.2
			c-0.1,1.2,0.7,2.2,1.9,2.3c1.2,0.1,2.2-0.7,2.3-1.9c0-0.1,0-0.3,0-0.4c0.1-1.2-0.8-2.2-2-2.3C51.2,41.6,51.2,41.6,51.1,41.6"/>
		<path class="st2" d="M60.7,43.5c0-1.3-0.7-1.9-1.8-1.9s-1.8,0.7-1.8,2v3.5h-1v-6.3h1v0.9c0.5-0.7,1.2-1,2-1
			c1.3-0.1,2.5,0.9,2.6,2.3c0,0.1,0,0.3,0,0.4v3.7h-1L60.7,43.5z"/>
		<path class="st2" d="M7.5,65.2h-3v-8h2.9c1.7,0,2.5,0.9,2.5,2c0,0.9-0.6,1.6-1.4,1.9c0.9,0.2,1.6,1,1.6,2
			C10.2,64.2,9.2,65.2,7.5,65.2 M7.3,58H5.6v2.6h1.8c1,0,1.5-0.5,1.5-1.3C8.9,58.5,8.4,58,7.3,58 M7.4,61.5H5.6v2.8h1.9
			c1,0,1.7-0.5,1.7-1.4C9.1,62.1,8.4,61.5,7.4,61.5"/>
		<path class="st2" d="M14.4,65.3c-1.8-0.1-3.2-1.6-3.1-3.4c0.1-1.7,1.5-3.1,3.2-3.1c1.7-0.1,3.1,1.3,3.2,3c0,0.1,0,0.2,0,0.3
			c0.1,1.7-1.3,3.2-3,3.3C14.5,65.3,14.4,65.3,14.4,65.3 M14.4,64.4c1.2,0,2.2-0.9,2.2-2.1c0-0.1,0-0.2,0-0.2
			c0.1-1.2-0.7-2.2-1.9-2.3c-0.1,0-0.2,0-0.2,0c-1.2,0-2.1,0.9-2.1,2.1c0,0.1,0,0.2,0,0.3c-0.1,1.1,0.7,2.2,1.8,2.3
			C14.2,64.4,14.3,64.4,14.4,64.4"/>
		<path class="st2" d="M18.8,57.1c0-0.4,0.3-0.7,0.7-0.7c0.4,0,0.7,0.3,0.7,0.7c0,0.4-0.3,0.7-0.7,0.7
			C19.1,57.9,18.8,57.6,18.8,57.1C18.8,57.2,18.8,57.2,18.8,57.1 M19,58.9h1v6.3h-1V58.9z"/>
		<path class="st2" d="M21.8,56.7h1v8.5h-1V56.7z"/>
		<path class="st2" d="M27.4,65.3c-1.7,0-3.1-1.3-3.1-2.9c0-0.1,0-0.2,0-0.3c-0.1-1.7,1.1-3.1,2.8-3.2c0.1,0,0.2,0,0.4,0
			c1.6-0.1,3,1.1,3,2.7c0,0.1,0,0.2,0,0.3c0,0.2,0,0.4,0,0.6h-5c0,1.1,0.9,2,2,2c0,0,0,0,0.1,0c0.8,0.1,1.5-0.4,1.8-1.2h1.1
			C29.9,64.5,28.7,65.4,27.4,65.3 M25.3,61.6h4c0-1-0.8-1.9-1.8-1.9c-0.1,0-0.1,0-0.2,0C26.3,59.6,25.4,60.5,25.3,61.6"/>
		<path class="st2" d="M34.4,58.8c0.9,0,1.8,0.4,2.3,1.2v-3.3h1.1v8.5h-1.1V64c-0.5,0.8-1.4,1.3-2.3,1.3c-1.7,0-3-1.4-3-3.1
			c0-0.1,0-0.1,0-0.2c-0.1-1.6,1.1-3.1,2.7-3.2C34.2,58.8,34.3,58.8,34.4,58.8 M34.6,59.7c-1.2,0-2.1,0.9-2.1,2.1c0,0.1,0,0.1,0,0.2
			c0.1,1.2,1.1,2.1,2.3,2c1.2-0.1,2.1-1.1,2-2.3C36.7,60.5,35.7,59.7,34.6,59.7"/>
		<path class="st2" d="M45.4,65.3c-1.7,0-3.1-1.3-3.1-2.9c0-0.1,0-0.2,0-0.3c-0.1-1.7,1.1-3.1,2.8-3.2c0.1,0,0.2,0,0.4,0
			c1.6-0.1,3,1.1,3,2.7c0,0.1,0,0.2,0,0.3c0,0.2,0,0.4,0,0.6h-5c0,1.1,0.9,2,2,2c0,0,0,0,0.1,0c0.8,0.1,1.5-0.4,1.8-1.2h1.1
			C47.9,64.5,46.7,65.4,45.4,65.3 M43.4,61.6h4c0-1-0.8-1.9-1.8-1.9c-0.1,0-0.1,0-0.2,0C44.3,59.7,43.4,60.5,43.4,61.6"/>
		<path class="st2" d="M52.4,58.8c1,0,1.9,0.4,2.3,1.3v-1.1h1.1v6.4c0.1,1.6-1.1,2.9-2.7,3c-0.1,0-0.2,0-0.3,0
			c-1.4,0.2-2.8-0.8-3.1-2.2h1c0.3,0.8,1.1,1.4,2,1.3c1,0.1,1.9-0.7,2-1.8c0-0.1,0-0.2,0-0.3V64c-0.5,0.8-1.4,1.3-2.3,1.3
			c-1.7,0-3-1.4-3-3.1c0-0.1,0-0.1,0-0.2c-0.1-1.6,1.1-3.1,2.7-3.2C52.2,58.8,52.3,58.8,52.4,58.8 M52.6,59.7
			c-1.2,0-2.1,0.9-2.1,2.1c0,0.1,0,0.1,0,0.2c0.1,1.2,1.1,2.1,2.3,2c1.2-0.1,2.1-1.1,2-2.3C54.7,60.5,53.7,59.7,52.6,59.7"/>
		<path class="st2" d="M60.2,58.8c1,0,1.9,0.4,2.3,1.3v-1.1h1.1v6.4c0.1,1.6-1.1,2.9-2.7,3c-0.1,0-0.2,0-0.3,0
			c-1.4,0.2-2.8-0.8-3.1-2.2h1c0.3,0.8,1.1,1.4,2,1.3c1,0.1,1.9-0.7,2-1.8c0-0.1,0-0.2,0-0.3V64c-0.5,0.8-1.4,1.3-2.4,1.3
			c-1.7,0-3-1.4-3-3.1c0-0.1,0-0.1,0-0.2c-0.1-1.6,1.1-3.1,2.7-3.2C60,58.8,60.1,58.8,60.2,58.8 M60.4,59.7c-1.2,0-2.1,0.9-2.1,2.1
			c0,0.1,0,0.1,0,0.2c0.1,1.2,1.1,2.1,2.3,2c1.2-0.1,2.1-1.1,2-2.3C62.5,60.5,61.5,59.7,60.4,59.7"/>
		<path class="st2" d="M67.6,65.3c-1.5,0-2.5-0.8-2.6-2h1.1c0.1,0.6,0.6,1.1,1.5,1.1c0.8,0,1.3-0.4,1.3-0.9c0-1.4-3.7-0.6-3.7-2.9
			c0-1,0.9-1.8,2.3-1.8c1.2-0.2,2.2,0.7,2.4,1.8c0,0,0,0.1,0,0.1h-1c-0.1-0.7-0.6-1.2-1.3-1.1c0,0,0,0-0.1,0c-0.8,0-1.2,0.4-1.2,0.9
			c0,1.5,3.7,0.7,3.7,2.9C69.9,64.5,69,65.3,67.6,65.3"/>
		<path class="st2" d="M7.1,80H5.6v3.3h-1v-8h2.6c1.9,0,2.8,1,2.8,2.3C9.9,78.9,9.1,80,7.1,80 M7.1,79.1c1.2,0,1.7-0.6,1.7-1.5
			c0-0.9-0.5-1.5-1.7-1.5H5.6v2.9L7.1,79.1z"/>
		<path class="st2" d="M14,83.4c-1.8-0.1-3.2-1.6-3.1-3.4c0.1-1.7,1.5-3.1,3.2-3.1c1.7-0.1,3.1,1.3,3.2,3c0,0.1,0,0.2,0,0.3
			c0.1,1.7-1.3,3.2-3,3.3C14.1,83.4,14.1,83.4,14,83.4 M14,82.5c1.2,0,2.2-0.9,2.2-2.1c0-0.1,0-0.2,0-0.2c0.1-1.2-0.7-2.2-1.9-2.3
			c-0.1,0-0.2,0-0.2,0c-1.3,0.1-2.2,1.3-2.1,2.6C12,81.5,12.9,82.4,14,82.5"/>
		<path class="st2" d="M21.2,76.9c1,0,1.9,0.4,2.3,1.3V77h1.1v6.3h-1.1v-1.2c-0.5,0.8-1.4,1.3-2.4,1.3c-1.7,0-3-1.4-3-3.1
			c0-0.1,0-0.1,0-0.2c-0.1-1.6,1.1-3.1,2.7-3.2C21,76.9,21.1,76.9,21.2,76.9 M21.4,77.8c-1.2,0-2.1,0.9-2.1,2.1c0,0.1,0,0.1,0,0.2
			c0.1,1.2,1.1,2.1,2.3,2c1.2-0.1,2.1-1.1,2-2.3C23.5,78.7,22.5,77.8,21.4,77.8"/>
		<path class="st2" d="M29.1,76.9c1.4-0.1,2.6,0.8,2.9,2.1h-1.1c-0.2-0.8-1-1.3-1.8-1.2c-1.1,0-2,0.8-2,2.4c0,1.6,0.9,2.4,2,2.4
			c0.8,0.1,1.6-0.5,1.8-1.2H32c-0.3,1.3-1.6,2.2-2.9,2.1c-1.8-0.1-3.2-1.7-3.1-3.4C26.1,78.3,27.4,77,29.1,76.9"/>
		<path class="st2" d="M33.4,74.8h1v3.1c0.5-0.7,1.3-1.1,2.1-1c1.3-0.1,2.5,1,2.5,2.3c0,0.1,0,0.3,0,0.4v3.7h-1v-3.6
			c0.1-0.9-0.5-1.8-1.4-1.9c-0.1,0-0.2,0-0.3,0c-1.1,0-1.8,0.7-1.8,2v3.5h-1L33.4,74.8z"/>
		<path class="st2" d="M43.5,83.4c-1.7,0-3.1-1.3-3.1-2.9c0-0.1,0-0.2,0-0.3c-0.1-1.7,1.1-3.1,2.8-3.2c0.1,0,0.2,0,0.4,0
			c1.6-0.1,3,1.2,3,2.7c0,0.1,0,0.2,0,0.3c0,0.2,0,0.4,0,0.6h-5c0,1.1,0.9,2,2,2c0,0,0,0,0.1,0c0.8,0.1,1.5-0.4,1.8-1.2h1.1
			C46,82.7,44.8,83.5,43.5,83.4 M41.4,79.7h4c0-1-0.8-1.9-1.8-1.9c-0.1,0-0.1,0-0.2,0C42.4,77.8,41.5,78.6,41.4,79.7"/>
		<path class="st2" d="M50.5,76.9c0.9,0,1.8,0.4,2.3,1.2v-3.3h1.1v8.5h-1.1v-1.2c-0.5,0.8-1.4,1.3-2.3,1.3c-1.7,0-3-1.4-3-3.1
			c0-0.1,0-0.1,0-0.2c-0.1-1.6,1.1-3.1,2.7-3.2C50.3,76.9,50.4,76.9,50.5,76.9 M50.7,77.8c-1.2,0-2.1,0.9-2.1,2.1c0,0.1,0,0.1,0,0.2
			c0.1,1.2,1.1,2.1,2.3,2c1.2-0.1,2.1-1.1,2-2.3C52.8,78.7,51.8,77.8,50.7,77.8"/>
		<path class="st2" d="M61.5,83.4c-1.7,0-3.1-1.3-3.1-2.9c0-0.1,0-0.2,0-0.3c-0.1-1.7,1.1-3.1,2.8-3.2c0.1,0,0.2,0,0.4,0
			c1.6-0.1,3,1.2,3,2.7c0,0.1,0,0.2,0,0.3c0,0.2,0,0.4,0,0.6h-5c0,1.1,0.9,2,2,2c0,0,0,0,0.1,0c0.8,0.1,1.5-0.4,1.8-1.2h1.1
			C64,82.7,62.8,83.5,61.5,83.4 M59.4,79.7h4c0-1-0.8-1.9-1.8-1.9c-0.1,0-0.1,0-0.2,0C60.4,77.8,59.5,78.6,59.4,79.7"/>
		<path class="st2" d="M68.5,76.9c1,0,1.9,0.4,2.3,1.3V77h1.1v6.4c0.1,1.6-1.1,2.9-2.7,3c-0.1,0-0.2,0-0.3,0
			c-1.4,0.2-2.8-0.8-3.1-2.2h1c0.3,0.8,1.1,1.4,2,1.3c1,0.1,1.9-0.7,2-1.8c0-0.1,0-0.2,0-0.3v-1.3c-0.5,0.8-1.4,1.3-2.3,1.3
			c-1.7,0-3-1.4-3-3.1c0-0.1,0-0.1,0-0.2c-0.1-1.6,1.1-3.1,2.7-3.2C68.3,76.9,68.4,76.9,68.5,76.9 M68.7,77.8
			c-1.2,0-2.1,0.9-2.1,2.1c0,0.1,0,0.1,0,0.2c0.1,1.2,1.1,2.1,2.3,2c1.2-0.1,2.1-1.1,2-2.3C70.8,78.7,69.8,77.8,68.7,77.8"/>
		<path class="st2" d="M76.3,76.9c1,0,1.9,0.4,2.3,1.3V77h1.1v6.4c0.1,1.6-1.1,2.9-2.7,3c-0.1,0-0.2,0-0.3,0
			c-1.4,0.2-2.8-0.8-3.1-2.2h1c0.3,0.8,1.1,1.4,2,1.3c1,0.1,1.9-0.7,2-1.8c0-0.1,0-0.2,0-0.3v-1.3c-0.5,0.8-1.4,1.3-2.3,1.3
			c-1.7,0-3-1.4-3-3.1c0-0.1,0-0.1,0-0.2c-0.1-1.6,1.1-3.1,2.7-3.2C76.1,76.9,76.2,76.9,76.3,76.9 M76.5,77.8
			c-1.2,0-2.1,0.9-2.1,2.1c0,0.1,0,0.1,0,0.2c0.1,1.2,1.1,2.1,2.3,2c1.2-0.1,2.1-1.1,2-2.3C78.5,78.7,77.6,77.8,76.5,77.8"/>
		<path class="st2" d="M83.7,83.4c-1.5,0-2.5-0.8-2.6-2h1.1c0.1,0.6,0.6,1.1,1.5,1.1c0.8,0,1.3-0.4,1.3-0.9c0-1.4-3.7-0.6-3.7-2.9
			c0-1,0.9-1.8,2.3-1.8c1.2-0.1,2.2,0.7,2.4,1.8c0,0,0,0.1,0,0.1h-1c-0.1-0.7-0.7-1.2-1.3-1.1c0,0,0,0-0.1,0c-0.8,0-1.2,0.4-1.2,0.9
			c0,1.5,3.7,0.7,3.7,2.9C86,82.6,85.1,83.4,83.7,83.4"/>
		<path class="st2" d="M212.9,47.1c-1.6,0-2.8-0.9-2.8-2.2h1.1c0.1,0.8,0.8,1.4,1.6,1.3c0,0,0,0,0,0c1,0,1.6-0.6,1.6-1.3
			c0-2.2-4.3-0.8-4.3-3.8c0-1.3,1.1-2.2,2.7-2.2c1.3-0.2,2.5,0.8,2.7,2.1h-1.1c-0.1-0.7-0.8-1.2-1.6-1.2c-0.9,0-1.5,0.4-1.5,1.3
			c0,2.1,4.3,0.8,4.3,3.8c-0.1,1.3-1.2,2.3-2.5,2.3C213,47.1,212.9,47.1,212.9,47.1"/>
		<path class="st2" d="M216.4,40.7h1.1l1.5,5.3l1.6-5.3h1.1l1.5,5.3l1.4-5.3h1l-2,6.3h-1.1l-1.5-5l-1.5,5h-1.1L216.4,40.7z"/>
		<path class="st2" d="M229.3,47.2c-1.7,0-3.1-1.3-3.1-2.9c0-0.1,0-0.2,0-0.3c-0.1-1.7,1.1-3.1,2.8-3.2c0.1,0,0.2,0,0.4,0
			c1.6-0.1,3,1.1,3,2.7c0,0.1,0,0.2,0,0.3c0,0.2,0,0.4,0,0.6h-5c0,1.1,0.9,2,2,2c0,0,0,0,0.1,0c0.8,0.1,1.5-0.4,1.8-1.2h1.1
			C231.8,46.4,230.6,47.2,229.3,47.2 M227.3,43.4h4c0-1-0.8-1.9-1.8-1.9c-0.1,0-0.1,0-0.2,0C228.2,41.5,227.3,42.4,227.3,43.4"/>
		<path class="st2" d="M236.4,47.2c-1.7,0-3.1-1.3-3.1-2.9c0-0.1,0-0.2,0-0.3c-0.1-1.7,1.1-3.1,2.8-3.2c0.1,0,0.2,0,0.4,0
			c1.6-0.1,3,1.1,3,2.7c0,0.1,0,0.2,0,0.3c0,0.2,0,0.4,0,0.6h-5c0,1.1,0.9,2,2,2c0,0,0,0,0.1,0c0.8,0.1,1.5-0.4,1.8-1.2h1.1
			C239,46.4,237.8,47.2,236.4,47.2 M234.4,43.4h4c0-1-0.8-1.9-1.8-1.9c-0.1,0-0.1,0-0.2,0C235.3,41.5,234.4,42.4,234.4,43.4"/>
		<path class="st2" d="M241.1,41.6h-0.8v-0.9h0.8v-1.6h1v1.6h1.6v0.9h-1.6v3.7c0,0.6,0.2,0.8,0.9,0.8h0.8v0.9h-0.9
			c-1.1,0-1.8-0.5-1.8-1.7L241.1,41.6z"/>
		<path class="st2" d="M251.5,40.6c1.7,0,3,1.3,3,3c0,0.1,0,0.2,0,0.3c0.1,1.7-1.1,3.1-2.8,3.3c-0.1,0-0.1,0-0.2,0
			c-1,0-1.8-0.5-2.4-1.3V50h-1v-9.3h1v1.2C249.7,41.1,250.6,40.6,251.5,40.6 M251.3,41.6c-1.2,0-2.2,1-2.1,2.2c0,0,0,0.1,0,0.1
			c-0.1,1.2,0.8,2.2,2,2.3c1.2,0.1,2.2-0.8,2.3-2c0-0.1,0-0.3,0-0.4c0.1-1.2-0.8-2.2-1.9-2.3C251.5,41.6,251.4,41.6,251.3,41.6"/>
		<path class="st2" d="M258.7,47.2c-1.7,0-3.1-1.3-3.2-3c0-0.1,0-0.2,0-0.3c-0.1-1.8,1.3-3.3,3-3.3c1.8-0.1,3.3,1.3,3.3,3
			c0,0.1,0,0.2,0,0.3c0.1,1.7-1.3,3.2-3,3.3C258.8,47.2,258.7,47.2,258.7,47.2 M258.6,46.2c1.2,0,2.2-0.9,2.2-2.1c0-0.1,0-0.2,0-0.2
			c0.1-1.2-0.7-2.2-1.9-2.3c-0.1,0-0.2,0-0.2,0c-1.2,0-2.1,0.9-2.1,2.1c0,0.1,0,0.2,0,0.3c-0.1,1.1,0.7,2.2,1.8,2.3
			C258.5,46.2,258.5,46.2,258.6,46.2"/>
		<path class="st2" d="M263.5,41.6h-0.8v-0.9h0.8v-1.6h1v1.6h1.6v0.9h-1.6v3.7c0,0.6,0.2,0.8,0.9,0.8h0.8v0.9h-0.9
			c-1.1,0-1.7-0.5-1.7-1.7L263.5,41.6z"/>
		<path class="st2" d="M270.1,40.6c1,0,1.9,0.4,2.3,1.3v-1.1h1.1v6.3h-1.1v-1.2c-0.5,0.8-1.4,1.3-2.4,1.3c-1.7,0-3-1.4-3-3.1
			c0-0.1,0-0.1,0-0.2c-0.1-1.6,1.1-3.1,2.7-3.2C269.9,40.7,270,40.6,270.1,40.6 M270.3,41.6c-1.2,0-2.1,0.9-2.1,2.1
			c0,0.1,0,0.1,0,0.2c-0.1,1.2,0.7,2.2,1.9,2.3c1.2,0.1,2.2-0.7,2.3-1.9c0-0.1,0-0.3,0-0.4c0.1-1.2-0.8-2.2-2-2.3
			C270.4,41.6,270.3,41.6,270.3,41.6"/>
		<path class="st2" d="M275.5,41.6h-0.8v-0.9h0.8v-1.6h1v1.6h1.6v0.9h-1.6v3.7c0,0.6,0.2,0.8,0.9,0.8h0.8v0.9h-0.9
			c-1.1,0-1.7-0.5-1.7-1.7L275.5,41.6z"/>
		<path class="st2" d="M282.2,47.2c-1.7,0-3.1-1.3-3.1-3c0-0.1,0-0.2,0-0.3c-0.1-1.8,1.3-3.3,3-3.3c1.8-0.1,3.3,1.3,3.3,3
			c0,0.1,0,0.2,0,0.3c0.1,1.7-1.3,3.2-3,3.3C282.4,47.2,282.3,47.2,282.2,47.2 M282.2,46.2c1.2,0,2.2-0.9,2.2-2.1c0-0.1,0-0.2,0-0.2
			c0.1-1.2-0.7-2.2-1.9-2.3c-0.1,0-0.2,0-0.2,0c-1.2,0-2.1,0.9-2.1,2.1c0,0.1,0,0.2,0,0.3c-0.1,1.1,0.7,2.2,1.8,2.3
			C282,46.2,282.1,46.2,282.2,46.2"/>
		<path class="st2" d="M290.1,41.6h-0.8v-0.9h0.8v-0.5c0-1.4,0.7-2,2.3-2v0.9c-0.9,0-1.3,0.3-1.3,1.2v0.4h1.3v0.9h-1.3v5.4h-1V41.6z
			"/>
		<path class="st2" d="M294.7,47.1h-1v-6.3h1v1c0.4-0.8,1.2-1.2,2-1.1v1.1h-0.3c-1,0-1.8,0.4-1.8,1.9V47.1z"/>
		<path class="st2" d="M297.8,39c0-0.4,0.3-0.7,0.7-0.7c0.4,0,0.7,0.3,0.7,0.7c0,0.4-0.3,0.7-0.7,0.7
			C298.1,39.7,297.8,39.4,297.8,39C297.8,39,297.8,39,297.8,39 M298,40.7h1v6.3h-1V40.7z"/>
		<path class="st2" d="M303.6,47.2c-1.7,0-3.1-1.3-3.1-2.9c0-0.1,0-0.2,0-0.3c-0.1-1.7,1.1-3.1,2.8-3.2c0.1,0,0.2,0,0.4,0
			c1.6-0.1,3,1.1,3,2.7c0,0.1,0,0.2,0,0.3c0,0.2,0,0.4,0,0.6h-5c0,1.1,0.9,2,2,2c0,0,0,0,0.1,0c0.8,0.1,1.5-0.4,1.8-1.2h1.1
			C306.1,46.4,304.9,47.2,303.6,47.2 M301.5,43.4h4c0-1-0.8-1.9-1.8-1.9c-0.1,0-0.1,0-0.2,0C302.4,41.5,301.5,42.4,301.5,43.4"/>
		<path class="st2" d="M310.2,47.2c-1.5,0-2.5-0.8-2.6-2h1.1c0.1,0.6,0.6,1.1,1.5,1.1c0.8,0,1.3-0.4,1.3-0.9c0-1.4-3.7-0.6-3.7-2.9
			c0-1,0.9-1.8,2.3-1.8c1.2-0.1,2.2,0.7,2.4,1.8c0,0,0,0.1,0,0.1h-1c-0.1-0.7-0.6-1.2-1.3-1.1c0,0,0,0-0.1,0c-0.8,0-1.2,0.4-1.2,0.9
			c0,1.5,3.7,0.7,3.7,2.9C312.5,46.4,311.6,47.2,310.2,47.2"/>
		<path class="st2" d="M217.7,59.5h-1.3C216,58.6,215,58,214,58c-1.6,0-2.9,1.2-3,2.9c0,0.1,0,0.2,0,0.3c-0.1,1.6,1.1,3,2.7,3.1
			c0.1,0,0.2,0,0.3,0c1.5,0.1,2.8-1.1,2.8-2.6c0,0,0,0,0,0h-3.2v-0.9h4.3v0.8c-0.2,2-1.9,3.6-3.9,3.6c-2.3,0-4.1-1.9-4-4.2
			c0-2.2,1.8-4,4-4C215.6,57,217.1,58,217.7,59.5"/>
		<path class="st2" d="M220.4,65.2h-1v-6.3h1v1c0.4-0.8,1.2-1.2,2-1.1v1.1h-0.3c-1,0-1.8,0.4-1.8,1.9V65.2z"/>
		<path class="st2" d="M223.4,57.1c0-0.4,0.3-0.7,0.7-0.7c0.4,0,0.7,0.3,0.7,0.7c0,0.4-0.3,0.7-0.7,0.7
			C223.8,57.9,223.4,57.6,223.4,57.1C223.4,57.2,223.4,57.2,223.4,57.1 M223.6,58.9h1v6.3h-1V58.9z"/>
		<path class="st2" d="M226.4,56.7h1v8.5h-1V56.7z"/>
		<path class="st2" d="M229.3,56.7h1v8.5h-1V56.7z"/>
		<path class="st2" d="M234.8,65.3c-1.7,0-3.1-1.3-3.1-2.9c0-0.1,0-0.2,0-0.3c-0.1-1.7,1.1-3.1,2.8-3.2c0.1,0,0.2,0,0.4,0
			c1.6-0.1,3,1.2,3,2.7c0,0.1,0,0.2,0,0.3c0,0.2,0,0.4,0,0.6h-5c0,1.1,0.9,2,2,2c0,0,0,0,0.1,0c0.8,0.1,1.5-0.4,1.8-1.2h1.1
			C237.4,64.5,236.2,65.4,234.8,65.3 M232.8,61.6h4c0-1-0.8-1.9-1.8-1.9c-0.1,0-0.1,0-0.2,0C233.7,59.6,232.8,60.5,232.8,61.6"/>
		<path class="st2" d="M241.9,58.8c0.9,0,1.8,0.4,2.3,1.2v-3.3h1.1v8.5h-1.1V64c-0.5,0.8-1.4,1.3-2.3,1.3c-1.7,0-3-1.4-3-3.1
			c0-0.1,0-0.1,0-0.2c-0.1-1.6,1.1-3.1,2.7-3.2C241.7,58.8,241.8,58.8,241.9,58.8 M242.1,59.7c-1.2,0-2.1,0.9-2.1,2.1
			c0,0.1,0,0.1,0,0.2c0.1,1.2,1.1,2.1,2.3,2c1.2-0.1,2.1-1.1,2-2.3C244.1,60.5,243.2,59.7,242.1,59.7"/>
		<path class="st2" d="M252.8,58.8c1.4-0.1,2.6,0.8,2.9,2.1h-1.1c-0.2-0.8-1-1.3-1.8-1.2c-1.1,0-2,0.8-2,2.4c0,1.6,0.9,2.4,2,2.4
			c0.8,0.1,1.6-0.5,1.8-1.2h1.1c-0.3,1.3-1.6,2.2-2.9,2.1c-1.7,0-3-1.3-3.1-2.9c0-0.1,0-0.2,0-0.3c-0.1-1.6,1.1-3.1,2.7-3.2
			C252.6,58.8,252.7,58.8,252.8,58.8"/>
		<path class="st2" d="M257.1,56.7h1v3.1c0.5-0.7,1.3-1.1,2.1-1c1.3-0.1,2.5,1,2.5,2.3c0,0.1,0,0.3,0,0.4v3.7h-1v-3.6
			c0-1.3-0.7-1.9-1.8-1.9s-1.8,0.7-1.8,2v3.5h-1L257.1,56.7z"/>
		<path class="st2" d="M264.3,57.1c0-0.4,0.3-0.7,0.7-0.7c0.4,0,0.7,0.3,0.7,0.7c0,0.4-0.3,0.7-0.7,0.7
			C264.6,57.9,264.3,57.6,264.3,57.1C264.3,57.2,264.3,57.2,264.3,57.1 M264.5,58.9h1v6.3h-1V58.9z"/>
		<path class="st2" d="M270,58.8c1.4-0.1,2.6,0.8,2.9,2.1h-1.1c-0.2-0.8-1-1.3-1.8-1.2c-1.1,0-2,0.8-2,2.4c0,1.6,0.9,2.4,2,2.4
			c0.8,0.1,1.6-0.5,1.8-1.2h1.1c-0.3,1.3-1.6,2.2-2.9,2.1c-1.7,0-3-1.3-3.1-2.9c0-0.1,0-0.2,0-0.3c-0.1-1.6,1.1-3.1,2.7-3.2
			C269.8,58.8,269.9,58.8,270,58.8"/>
		<path class="st2" d="M274.3,56.7h1v5l2.4-2.8h1.5l-3,3.1l3,3.2h-1.4l-2.5-2.8v2.8h-1V56.7z"/>
		<path class="st2" d="M283,65.3c-1.7,0-3.1-1.3-3.1-2.9c0-0.1,0-0.2,0-0.3c-0.1-1.7,1.1-3.1,2.8-3.2c0.1,0,0.2,0,0.4,0
			c1.6-0.1,3,1.1,3,2.7c0,0.1,0,0.2,0,0.3c0,0.2,0,0.4,0,0.6h-5c0,1.1,0.9,2,2,2c0,0,0,0,0.1,0c0.8,0.1,1.5-0.4,1.8-1.2h1.1
			C285.5,64.5,284.3,65.4,283,65.3 M280.9,61.6h4c0-1-0.8-1.9-1.8-1.9c-0.1,0-0.1,0-0.2,0C281.9,59.7,281,60.5,280.9,61.6"/>
		<path class="st2" d="M292,61.6c0-1.3-0.7-1.9-1.8-1.9c-1.1,0-1.8,0.7-1.8,2v3.5h-1v-6.3h1v0.9c0.5-0.7,1.2-1,2-1
			c1.3-0.1,2.5,0.9,2.6,2.3c0,0.1,0,0.3,0,0.4v3.7h-1V61.6z"/>
		<path class="st2" d="M216.7,75.3v8h-1l-4.2-6.4v6.4h-1v-8h1l4.2,6.4v-6.4H216.7z"/>
		<path class="st2" d="M221.2,83.4c-1.8,0-3.3-1.4-3.3-3.2c0-1.8,1.4-3.3,3.2-3.3c1.8,0,3.3,1.4,3.3,3.2c0,0,0,0,0,0
			c0.1,1.7-1.3,3.2-3,3.3C221.4,83.4,221.3,83.4,221.2,83.4 M221.2,82.5c1.2,0,2.2-0.9,2.2-2.1c0-0.1,0-0.2,0-0.2
			c0.1-1.2-0.7-2.2-1.9-2.3c-0.1,0-0.2,0-0.2,0c-1.3,0.1-2.2,1.3-2.1,2.6C219.3,81.5,220.1,82.4,221.2,82.5"/>
		<path class="st2" d="M226.9,83.3h-1V77h1v1c0.4-0.8,1.2-1.2,2-1.1V78h-0.3c-1,0-1.8,0.4-1.8,1.9V83.3z"/>
		<path class="st2" d="M229.4,77h1.1l1.5,5.3l1.6-5.3h1.1l1.5,5.3l1.4-5.3h1l-2,6.3h-1.1l-1.5-5l-1.5,5h-1.1L229.4,77z"/>
		<path class="st2" d="M242.3,83.4c-1.7,0-3.1-1.3-3.1-2.9c0-0.1,0-0.2,0-0.3c-0.1-1.7,1.1-3.1,2.8-3.2c0.1,0,0.2,0,0.4,0
			c1.6-0.1,3,1.2,3,2.7c0,0.1,0,0.2,0,0.3c0,0.2,0,0.4,0,0.6h-5c0,1.1,0.9,2,2,2c0,0,0,0,0.1,0c0.8,0.1,1.5-0.4,1.8-1.2h1.1
			C244.8,82.7,243.6,83.5,242.3,83.4 M240.3,79.7h4c0-1-0.8-1.9-1.8-1.9c-0.1,0-0.1,0-0.2,0C241.2,77.8,240.3,78.6,240.3,79.7"/>
		<path class="st2" d="M249.3,76.9c1,0,1.9,0.4,2.3,1.3V77h1.1v6.4c0.1,1.6-1.1,2.9-2.7,3c-0.1,0-0.2,0-0.3,0
			c-1.4,0.2-2.8-0.8-3.1-2.2h1c0.3,0.8,1.1,1.4,2,1.3c1,0.1,1.9-0.7,2-1.8c0-0.1,0-0.2,0-0.3v-1.3c-0.5,0.8-1.4,1.3-2.3,1.3
			c-1.7,0-3-1.4-3-3.1c0-0.1,0-0.1,0-0.2c-0.1-1.6,1.1-3.1,2.7-3.2C249.1,76.9,249.2,76.9,249.3,76.9 M249.5,77.8
			c-1.2,0-2.1,0.9-2.1,2.1c0,0.1,0,0.1,0,0.2c0.1,1.2,1.1,2.1,2.3,2c1.2-0.1,2.1-1.1,2-2.3C251.6,78.7,250.6,77.8,249.5,77.8"/>
		<path class="st2" d="M254.3,75.3c0-0.4,0.3-0.7,0.7-0.7c0.4,0,0.7,0.3,0.7,0.7c0,0.4-0.3,0.7-0.7,0.7
			C254.6,76,254.3,75.7,254.3,75.3C254.3,75.3,254.3,75.3,254.3,75.3 M254.5,77h1v6.3h-1V77z"/>
		<path class="st2" d="M259.9,76.9c1,0,1.9,0.4,2.3,1.3V77h1.1v6.3h-1.1v-1.2c-0.5,0.8-1.4,1.3-2.4,1.3c-1.7,0-3-1.4-3-3.1
			c0-0.1,0-0.1,0-0.2c-0.1-1.6,1.1-3.1,2.7-3.2C259.8,76.9,259.8,76.9,259.9,76.9 M260.1,77.8c-1.2,0-2.1,0.9-2.1,2.1
			c0,0.1,0,0.1,0,0.2c0.1,1.2,1.1,2.1,2.3,2c1.2-0.1,2.1-1.1,2-2.3C262.2,78.7,261.3,77.8,260.1,77.8"/>
		<path class="st2" d="M269.7,79.8c0-1.3-0.7-1.9-1.8-1.9c-1.1,0-1.8,0.7-1.8,2v3.5h-1V77h1v0.9c0.5-0.7,1.2-1,2-1
			c1.3-0.1,2.5,0.9,2.6,2.3c0,0.1,0,0.3,0,0.4v3.7h-1V79.8z"/>
		<path class="st2" d="M277.8,83.4c-1.5,0-2.5-0.8-2.6-2h1.1c0.1,0.6,0.6,1.1,1.5,1.1c0.8,0,1.3-0.4,1.3-0.9c0-1.4-3.7-0.6-3.7-2.9
			c0-1,0.9-1.8,2.3-1.8c1.2-0.2,2.2,0.7,2.4,1.8c0,0.1,0,0.1,0,0.2h-1c-0.1-0.7-0.6-1.2-1.3-1.1c0,0,0,0-0.1,0
			c-0.8,0-1.2,0.4-1.2,0.9c0,1.5,3.7,0.7,3.7,2.9C280.1,82.6,279.2,83.4,277.8,83.4"/>
		<path class="st2" d="M284.2,76.9c1,0,1.9,0.4,2.3,1.3V77h1.1v6.3h-1.1v-1.2c-0.5,0.8-1.4,1.3-2.4,1.3c-1.7,0-3-1.4-3-3.1
			c0-0.1,0-0.1,0-0.2c-0.1-1.6,1.1-3.1,2.7-3.2C284,76.9,284.1,76.9,284.2,76.9 M284.4,77.8c-1.2,0-2.1,0.9-2.1,2.1
			c0,0.1,0,0.1,0,0.2c0.1,1.2,1.1,2.1,2.3,2c1.2-0.1,2.1-1.1,2-2.3C286.4,78.7,285.5,77.8,284.4,77.8"/>
		<path class="st2" d="M289.4,74.8h1v8.5h-1V74.8z"/>
		<path class="st2" d="M301.3,79.8c0-1.3-0.7-1.9-1.7-1.9c-1.1,0-1.8,0.7-1.8,2v3.5h-1v-3.6c0-1.3-0.7-1.9-1.7-1.9
			c-1.1,0-1.8,0.7-1.8,2v3.5h-1V77h1v0.9c0.4-0.7,1.2-1.1,2-1c1-0.1,1.9,0.5,2.3,1.4c0.4-0.9,1.3-1.4,2.2-1.4c1.3-0.1,2.5,1,2.6,2.3
			c0,0.1,0,0.3,0,0.4v3.7h-1L301.3,79.8z"/>
		<path class="st2" d="M306.8,83.4c-1.8,0-3.3-1.4-3.3-3.2c0-1.8,1.4-3.3,3.2-3.3s3.3,1.4,3.3,3.2c0,0,0,0,0,0
			c0.1,1.7-1.3,3.2-3,3.3C307,83.4,306.9,83.4,306.8,83.4 M306.8,82.5c1.2,0,2.2-0.9,2.2-2.1c0-0.1,0-0.2,0-0.2
			c0.1-1.2-0.7-2.2-1.9-2.3c-0.1,0-0.2,0-0.2,0c-1.3,0.1-2.2,1.3-2.1,2.6C304.9,81.5,305.7,82.4,306.8,82.5"/>
		<path class="st2" d="M316.1,79.8c0-1.3-0.7-1.9-1.8-1.9c-1.1,0-1.8,0.7-1.8,2v3.5h-1V77h1v0.9c0.5-0.7,1.2-1,2-1
			c1.3-0.1,2.5,0.9,2.6,2.3c0,0.1,0,0.3,0,0.4v3.7h-1V79.8z"/>
		<path class="st2" d="M148.3,45.9h-1.7l-0.3,0.9h-0.6l1.5-4h0.6l1.4,4h-0.6L148.3,45.9z M147.5,43.5l-0.7,2h1.5L147.5,43.5z"/>
		<path class="st2" d="M152,43.2h-1.6v1.3h1.5V45h-1.5v1.4h1.6v0.4h-2.2v-4h2.2V43.2z"/>
		<path class="st2" d="M156.2,44.8c0.1,1.1-0.8,2-1.8,2c-0.1,0-0.2,0-0.3,0h-1.3v-4h1.3c1.1-0.1,2,0.6,2.1,1.7
			C156.2,44.6,156.2,44.7,156.2,44.8 M154.1,46.4c0.8,0.1,1.5-0.5,1.6-1.2c0-0.1,0-0.2,0-0.3c0.1-0.8-0.5-1.5-1.3-1.6
			c-0.1,0-0.2,0-0.3,0h-0.7v3.2L154.1,46.4z"/>
		<path class="st2" d="M164.2,38.4v1.4h-3.7v2c0.4-0.4,1-0.7,1.6-0.7c1.4-0.1,2.6,1,2.6,2.4c0,0.1,0,0.2,0,0.4c0,1.6-1.4,3-3,2.9
			c-1.4,0-2.6-1-2.9-2.4h1.6c0.1,0.6,0.7,1.1,1.4,1c0.9,0,1.4-0.7,1.4-1.6c0.1-0.7-0.4-1.3-1.1-1.5c-0.1,0-0.2,0-0.3,0
			c-0.6,0-1.1,0.3-1.3,0.9H159v-4.9H164.2z"/>
		<path class="st2" d="M148.3,64.1h-1.7l-0.3,0.9h-0.6l1.5-4h0.6l1.4,4h-0.6L148.3,64.1z M147.5,61.6l-0.7,2h1.5L147.5,61.6z"/>
		<path class="st2" d="M152,61.4h-1.6v1.3h1.5v0.4h-1.5v1.4h1.6v0.4h-2.2v-4h2.2V61.4z"/>
		<path class="st2" d="M156.2,63c0.1,1.1-0.8,2-1.8,2c-0.1,0-0.2,0-0.3,0h-1.3v-4h1.3c1.1-0.1,2,0.6,2.1,1.7
			C156.2,62.7,156.2,62.8,156.2,63 M154.1,64.5c0.8,0.1,1.5-0.5,1.6-1.2c0-0.1,0-0.2,0-0.3c0.1-0.8-0.5-1.5-1.3-1.6
			c-0.1,0-0.2,0-0.3,0h-0.7v3.2L154.1,64.5z"/>
		<path class="st2" d="M159.5,58h-1.1v-1.5h2.8v8.4h-1.7V58z"/>
		<path class="st2" d="M165.9,56.4c2.4,0,3.1,1.8,3.1,4.2c0,2.5-0.7,4.3-3.1,4.3s-3.1-1.8-3.1-4.3C162.8,58.2,163.5,56.4,165.9,56.4
			 M165.9,57.9c-1.4,0-1.5,1.3-1.5,2.8c0,1.5,0.2,2.8,1.5,2.8s1.5-1.3,1.5-2.8C167.4,59.2,167.2,57.9,165.9,57.9"/>
		<path class="st2" d="M148.3,82.2h-1.7l-0.3,0.9h-0.6l1.5-4h0.6l1.4,4h-0.6L148.3,82.2z M147.5,79.7l-0.7,2h1.5L147.5,79.7z"/>
		<path class="st2" d="M152,79.5h-1.6v1.3h1.5v0.4h-1.5v1.4h1.6v0.4h-2.2v-4h2.2V79.5z"/>
		<path class="st2" d="M156.2,81.1c0.1,1.1-0.8,2-1.8,2c-0.1,0-0.2,0-0.3,0h-1.3v-4h1.3c1.1-0.1,2,0.6,2.1,1.7
			C156.2,80.9,156.2,81,156.2,81.1 M154.1,82.7c0.8,0.1,1.5-0.5,1.6-1.2c0-0.1,0-0.2,0-0.3c0.1-0.8-0.5-1.5-1.3-1.6
			c-0.1,0-0.2,0-0.3,0h-0.7v3.2L154.1,82.7z"/>
		<path class="st2" d="M159.5,76.2h-1.1v-1.5h2.8v8.4h-1.7V76.2z"/>
		<path class="st2" d="M165.9,74.5c2.4,0,3.1,1.8,3.1,4.2c0,2.5-0.7,4.3-3.1,4.3s-3.1-1.8-3.1-4.3C162.8,76.4,163.5,74.5,165.9,74.5
			 M165.9,76c-1.4,0-1.5,1.3-1.5,2.8c0,1.5,0.2,2.8,1.5,2.8s1.5-1.3,1.5-2.8C167.4,77.3,167.2,76,165.9,76"/>
		<path class="st2" d="M350.6,45.9h-1.7l-0.3,0.9H348l1.5-4h0.6l1.4,4H351L350.6,45.9z M349.8,43.5l-0.7,2h1.5L349.8,43.5z"/>
		<path class="st2" d="M354.3,43.2h-1.6v1.3h1.5V45h-1.5v1.4h1.6v0.4h-2.2v-4h2.2V43.2z"/>
		<path class="st2" d="M358.5,44.8c0.1,1.1-0.8,2-1.8,2c-0.1,0-0.2,0-0.3,0h-1.3v-4h1.3c1.1-0.1,2,0.6,2.1,1.7
			C358.5,44.6,358.5,44.7,358.5,44.8 M356.4,46.4c0.8,0.1,1.5-0.5,1.6-1.2c0-0.1,0-0.2,0-0.3c0.1-0.8-0.5-1.5-1.3-1.6
			c-0.1,0-0.2,0-0.3,0h-0.7v3.2L356.4,46.4z"/>
		<path class="st2" d="M361.8,39.9h-1.1v-1.5h2.8v8.4h-1.7V39.9z"/>
		<path class="st2" d="M370.7,38.4v1.4H367v2c0.4-0.4,1-0.7,1.6-0.7c1.4-0.1,2.6,1,2.6,2.4c0,0.1,0,0.2,0,0.4c0,1.6-1.4,3-3,2.9
			c-1.4,0-2.6-1-2.9-2.4h1.6c0.1,0.6,0.7,1.1,1.4,1c0.9,0,1.4-0.7,1.4-1.6c0.1-0.7-0.4-1.3-1.1-1.5c-0.1,0-0.2,0-0.3,0
			c-0.6,0-1.1,0.3-1.3,0.9h-1.5v-4.9H370.7z"/>
		<path class="st2" d="M350.6,64.1h-1.7l-0.3,0.9H348l1.5-4h0.6l1.4,4H351L350.6,64.1z M349.8,61.6l-0.7,2h1.5L349.8,61.6z"/>
		<path class="st2" d="M354.3,61.4h-1.6v1.3h1.5v0.4h-1.5v1.4h1.6v0.4h-2.2v-4h2.2V61.4z"/>
		<path class="st2" d="M358.5,63c0.1,1.1-0.8,2-1.8,2c-0.1,0-0.2,0-0.3,0h-1.3v-4h1.3c1.1-0.1,2,0.6,2.1,1.7
			C358.5,62.7,358.5,62.8,358.5,63 M356.4,64.5c0.8,0.1,1.5-0.5,1.6-1.2c0-0.1,0-0.2,0-0.3c0.1-0.8-0.5-1.5-1.3-1.6
			c-0.1,0-0.2,0-0.3,0h-0.7v3.2L356.4,64.5z"/>
		<path class="st2" d="M360.8,63.6c1.9-1.6,3.9-3.1,3.9-4.6c0-0.7-0.3-1.3-1.1-1.3c-0.8,0-1.2,0.6-1.2,1.4h-1.6
			c-0.1-1.5,1-2.7,2.5-2.8c0.1,0,0.2,0,0.3,0c1.3-0.2,2.5,0.8,2.7,2.1c0,0.1,0,0.3,0,0.4c0,1.9-1.9,3.5-3.2,4.6h3.4v1.3h-5.7V63.6z"
			/>
		<path class="st2" d="M370.6,56.4c2.4,0,3.1,1.8,3.1,4.2c0,2.5-0.7,4.3-3.1,4.3s-3.1-1.8-3.1-4.3C367.5,58.2,368.2,56.4,370.6,56.4
			 M370.6,57.9c-1.4,0-1.5,1.3-1.5,2.8c0,1.5,0.2,2.8,1.5,2.8s1.5-1.3,1.5-2.8C372.1,59.2,372,57.9,370.6,57.9"/>
		<path class="st2" d="M350.6,82.2h-1.7l-0.3,0.9H348l1.5-4h0.6l1.4,4H351L350.6,82.2z M349.8,79.7l-0.7,2h1.5L349.8,79.7z"/>
		<path class="st2" d="M354.3,79.5h-1.6v1.3h1.5v0.4h-1.5v1.4h1.6v0.4h-2.2v-4h2.2V79.5z"/>
		<path class="st2" d="M358.5,81.1c0.1,1.1-0.8,2-1.8,2c-0.1,0-0.2,0-0.3,0h-1.3v-4h1.3c1.1-0.1,2,0.6,2.1,1.7
			C358.5,80.9,358.5,81,358.5,81.1 M356.4,82.7c0.8,0.1,1.5-0.5,1.6-1.2c0-0.1,0-0.2,0-0.3c0.1-0.8-0.5-1.5-1.3-1.6
			c-0.1,0-0.2,0-0.3,0h-0.7v3.2L356.4,82.7z"/>
		<path class="st2" d="M360.8,81.8c1.9-1.6,3.9-3.1,3.9-4.6c0-0.7-0.3-1.3-1.1-1.3c-0.8,0-1.2,0.6-1.2,1.4h-1.6
			c-0.1-1.5,1-2.7,2.5-2.8c0.1,0,0.2,0,0.3,0c1.3-0.2,2.5,0.8,2.7,2.1c0,0.1,0,0.3,0,0.4c0,1.9-1.9,3.5-3.2,4.6h3.4V83h-5.7V81.8z"
			/>
		<path class="st2" d="M370.6,74.5c2.4,0,3.1,1.8,3.1,4.2c0,2.5-0.7,4.3-3.1,4.3s-3.1-1.8-3.1-4.3C367.5,76.4,368.2,74.5,370.6,74.5
			 M370.6,76c-1.4,0-1.5,1.3-1.5,2.8c0,1.5,0.2,2.8,1.5,2.8s1.5-1.3,1.5-2.8C372.1,77.3,372,76,370.6,76"/>
		<path class="st2" d="M326,19.9c-1.6-1.7-2.4-4-2.3-6.4c-0.1-2.4,0.8-4.8,2.5-6.5h1.1v0.1c-1.7,1.7-2.6,4-2.6,6.4
			c0,2.3,0.8,4.6,2.4,6.2v0.1L326,19.9z"/>
		<path class="st2" d="M331.1,17.9c-1.6,0-2.8-0.9-2.8-2.2h1.1c0.1,0.8,0.8,1.4,1.6,1.3c0,0,0,0,0,0c1,0,1.6-0.6,1.6-1.3
			c0-2.2-4.3-0.8-4.3-3.8c0-1.3,1.1-2.2,2.7-2.2c1.3-0.2,2.5,0.8,2.7,2.1h-1.1c-0.1-0.7-0.8-1.2-1.6-1.2c-0.9,0-1.5,0.4-1.5,1.3
			c0,2.1,4.3,0.8,4.3,3.8c-0.1,1.3-1.2,2.3-2.5,2.3C331.2,17.9,331.1,17.9,331.1,17.9"/>
		<path class="st2" d="M338,17.9c-1.7,0-3.1-1.3-3.1-2.9c0-0.1,0-0.2,0-0.3c-0.1-1.7,1.1-3.1,2.8-3.2c0.1,0,0.2,0,0.4,0
			c1.6-0.1,3,1.2,3,2.7c0,0.1,0,0.2,0,0.3c0,0.2,0,0.4,0,0.6h-5c0,1.1,0.9,2,2,2c0,0,0,0,0.1,0c0.8,0.1,1.5-0.4,1.8-1.2h1.1
			C340.6,17.1,339.4,18,338,17.9 M336,14.2h4c0-1-0.8-1.9-1.8-1.9c-0.1,0-0.1,0-0.2,0C336.9,12.3,336,13.1,336,14.2"/>
		<path class="st2" d="M343.5,17.8h-1v-6.3h1v1c0.4-0.8,1.2-1.2,2-1.1v1.1h-0.3c-1,0-1.8,0.4-1.8,1.9V17.8z"/>
		<path class="st2" d="M347.1,11.5l2,5.3l2-5.3h1.1l-2.5,6.3h-1.2l-2.5-6.3H347.1z"/>
		<path class="st2" d="M356,17.9c-1.7,0-3.1-1.3-3.1-2.9c0-0.1,0-0.2,0-0.3c-0.1-1.7,1.1-3.1,2.8-3.2c0.1,0,0.2,0,0.4,0
			c1.6-0.1,3,1.1,3,2.7c0,0.1,0,0.2,0,0.3c0,0.2,0,0.4,0,0.6h-5c0,1.1,0.9,2,2,2c0,0,0,0,0.1,0c0.8,0.1,1.5-0.4,1.8-1.2h1.1
			C358.5,17.1,357.3,18,356,17.9 M353.9,14.2h4c0-1-0.8-1.9-1.8-1.9c-0.1,0-0.1,0-0.2,0C354.8,12.3,353.9,13.1,353.9,14.2"/>
		<path class="st2" d="M362.6,17.9c-1.5,0-2.5-0.8-2.6-2h1.1c0.1,0.6,0.6,1.1,1.5,1.1c0.8,0,1.3-0.4,1.3-0.9c0-1.4-3.7-0.6-3.7-2.9
			c0-1,0.9-1.8,2.3-1.8c1.2-0.2,2.2,0.7,2.4,1.8c0,0.1,0,0.1,0,0.2h-1c-0.1-0.7-0.6-1.2-1.3-1.1c0,0,0,0-0.1,0
			c-0.8,0-1.2,0.4-1.2,0.9c0,1.5,3.7,0.7,3.7,2.9C364.9,17.1,364,17.9,362.6,17.9"/>
		<path class="st2" d="M370.1,10.4H369v-1h2.2v8.3h-1.1V10.4z"/>
		<path class="st2" d="M372.8,19.9v-0.1c1.6-1.7,2.5-3.9,2.4-6.2c0.1-2.4-0.9-4.7-2.6-6.4V7.1h1.1c1.7,1.7,2.6,4.1,2.5,6.5
			c0.1,2.3-0.8,4.6-2.3,6.4L372.8,19.9z"/>
		<path class="st2" d="M139.4,23.5c-5.7,0-10.3-4.6-10.3-10.2c0-5.7,4.6-10.3,10.2-10.3s10.3,4.6,10.3,10.2c0,0,0,0,0,0
			C149.6,18.8,145,23.4,139.4,23.5 M139.4,3.3c-5.4,0-9.8,4.4-9.9,9.8c0,5.4,4.4,9.8,9.8,9.9c5.4,0,9.8-4.4,9.9-9.8c0,0,0,0,0,0
			C149.2,7.8,144.8,3.4,139.4,3.3"/>
		<path class="st2" d="M132.5,18.5c-0.2,0-0.3-0.1-0.3-0.3c0-0.1,0.1-0.2,0.2-0.3l13.7-7.9c0.2-0.1,0.3,0,0.4,0.1
			c0.1,0.2,0,0.3-0.1,0.4l0,0l-13.7,7.9C132.6,18.5,132.6,18.5,132.5,18.5"/>
		<path class="st2" d="M142.7,19.3c-0.1,0-0.1,0-0.2,0l-2.9-1.7c-0.2-0.1-0.2-0.3-0.1-0.4c0.1-0.2,0.3-0.2,0.4-0.1l2.7,1.6l2.6-1.5
			v-3l-1.9-1.1c-0.2-0.1-0.2-0.3-0.1-0.4c0.1-0.2,0.3-0.2,0.4-0.1l0,0l2.1,1.2c0.1,0.1,0.2,0.2,0.2,0.3v3.4c0,0.1-0.1,0.2-0.2,0.3
			l-2.9,1.7C142.8,19.3,142.8,19.3,142.7,19.3"/>
		<path class="st2" d="M142.7,19.3c-0.2,0-0.3-0.1-0.3-0.3c0,0,0,0,0,0v-3.2l-1.9-1.1c-0.2-0.1-0.2-0.3-0.1-0.4c0,0,0,0,0,0
			c0.1-0.2,0.3-0.2,0.4-0.1c0,0,0,0,0,0l2.1,1.2c0.1,0.1,0.2,0.2,0.2,0.3V19C143,19.2,142.9,19.3,142.7,19.3L142.7,19.3"/>
		<path class="st2" d="M142.7,16c-0.2,0-0.3-0.1-0.3-0.3c0-0.1,0.1-0.2,0.2-0.3l2.9-1.7c0.2-0.1,0.3,0,0.4,0.1
			c0.1,0.2,0,0.3-0.1,0.4l0,0l-2.9,1.7C142.8,16,142.8,16,142.7,16"/>
		<path class="st2" d="M136.9,12.6c-0.2,0-0.3-0.1-0.3-0.3c0,0,0,0,0,0V9c0-0.1,0.1-0.2,0.2-0.3l2.9-1.7c0.1-0.1,0.2-0.1,0.3,0
			l2.9,1.7C143,8.8,143,8.9,143,9v2.4c0,0.2-0.1,0.3-0.3,0.3c-0.2,0-0.3-0.1-0.3-0.3c0,0,0,0,0,0V9.2l-2.6-1.5l-2.6,1.5v3.2
			C137.2,12.5,137.1,12.6,136.9,12.6L136.9,12.6"/>
		<path class="st2" d="M139.8,13.4c-0.2,0-0.3-0.1-0.3-0.3c0,0,0,0,0,0v-2.2l-2.7-1.6c-0.2-0.1-0.2-0.3-0.1-0.4s0.3-0.2,0.4-0.1l0,0
			l2.9,1.7c0.1,0.1,0.2,0.2,0.2,0.3V13C140.1,13.2,140,13.4,139.8,13.4L139.8,13.4"/>
		<path class="st2" d="M139.8,11c-0.2,0-0.3-0.1-0.3-0.3c0-0.1,0.1-0.2,0.2-0.3l2.9-1.7c0.2-0.1,0.3,0,0.4,0.1
			c0.1,0.2,0,0.3-0.1,0.4l-2.9,1.7C139.9,10.9,139.9,11,139.8,11"/>
		<path class="st2" d="M134,16.7c-0.2,0-0.3-0.1-0.3-0.3c0,0,0,0,0,0V14c0-0.1,0.1-0.2,0.2-0.3l2.9-1.7c0.1-0.1,0.2-0.1,0.3,0
			l2.1,1.2c0.2,0.1,0.2,0.3,0.1,0.4c0,0,0,0,0,0c-0.1,0.2-0.3,0.2-0.4,0.1c0,0,0,0,0,0l-1.9-1.1l-2.6,1.5v2.2
			C134.4,16.6,134.2,16.7,134,16.7L134,16.7"/>
		<path class="st2" d="M136.9,19.3c-0.1,0-0.1,0-0.2,0l-2.1-1.2c-0.2-0.1-0.2-0.3-0.1-0.4c0.1-0.2,0.3-0.2,0.4-0.1l1.9,1.1l2.6-1.5
			v-2.3c0-0.2,0.1-0.3,0.3-0.3c0.2,0,0.3,0.1,0.3,0.3c0,0,0,0,0,0v2.4c0,0.1-0.1,0.2-0.2,0.3l-2.9,1.7C137,19.3,137,19.3,136.9,19.3
			"/>
		<path class="st2" d="M136.9,19.3c-0.2,0-0.3-0.1-0.3-0.3c0,0,0,0,0,0v-2.4c0-0.2,0.1-0.3,0.3-0.3c0.2,0,0.3,0.1,0.3,0.3
			c0,0,0,0,0,0V19C137.2,19.2,137.1,19.3,136.9,19.3L136.9,19.3"/>
		<path class="st2" d="M136.1,15.5c-0.1,0-0.1,0-0.2,0l-2.1-1.2c-0.2-0.1-0.2-0.3-0.1-0.4c0.1-0.2,0.3-0.2,0.4-0.1l0,0l2.1,1.2
			c0.2,0.1,0.2,0.3,0.1,0.4C136.3,15.4,136.2,15.5,136.1,15.5"/>
		<path class="st2" d="M152,8.5h-0.2v1.1c0,0.1,0,0.2-0.1,0.3c-0.1,0.1-0.2,0.1-0.2,0.1c-0.1,0-0.2,0-0.3-0.1
			c-0.1-0.1-0.1-0.2-0.1-0.3V7c0-0.2,0.1-0.4,0.3-0.4c0,0,0.1,0,0.1,0h1.1c0.1,0,0.3,0,0.4,0c0.1,0,0.2,0,0.3,0.1
			c0.1,0,0.2,0.1,0.3,0.2c0.1,0.1,0.1,0.2,0.2,0.3c0,0.1,0.1,0.2,0.1,0.4c0,0.2-0.1,0.4-0.2,0.6c-0.2,0.2-0.4,0.3-0.7,0.3
			c0.1,0.1,0.3,0.2,0.4,0.3c0.1,0.1,0.2,0.3,0.3,0.4c0.1,0.1,0.1,0.3,0.2,0.4c0,0.1,0.1,0.2,0.1,0.2c0,0,0,0.1,0,0.1
			c0,0-0.1,0.1-0.1,0.1c-0.1,0-0.1,0-0.2,0c-0.1,0-0.1,0-0.2-0.1c-0.1,0-0.1-0.1-0.1-0.1c-0.1-0.1-0.1-0.2-0.2-0.2l-0.3-0.5
			c-0.1-0.1-0.2-0.3-0.3-0.4c-0.1-0.1-0.1-0.1-0.2-0.2C152.2,8.5,152.1,8.5,152,8.5 M152.4,7.1h-0.6V8h0.6c0.1,0,0.3,0,0.4,0
			c0.1,0,0.2-0.1,0.3-0.1c0.1-0.1,0.1-0.2,0.1-0.3c0-0.1,0-0.2-0.1-0.3c0-0.1-0.1-0.1-0.2-0.2C152.7,7.1,152.5,7.1,152.4,7.1"/>
		<path class="st2" d="M156.7,7.1h-1.6v0.8h1.4c0.1,0,0.2,0,0.2,0.1c0.1,0,0.1,0.1,0.1,0.2c0,0.1,0,0.1-0.1,0.2
			c-0.1,0.1-0.2,0.1-0.2,0.1h-1.4v1h1.6c0.1,0,0.2,0,0.2,0.1c0.1,0.1,0.1,0.1,0.1,0.2c0,0.1,0,0.1-0.1,0.2c-0.1,0.1-0.2,0.1-0.2,0.1
			h-1.9c-0.2,0-0.4-0.1-0.4-0.3c0,0,0-0.1,0-0.1V7c0-0.1,0-0.2,0-0.2c0-0.1,0.1-0.1,0.1-0.1c0.1,0,0.2,0,0.2,0h1.8
			c0.1,0,0.2,0,0.2,0.1c0.1,0.1,0.1,0.3,0,0.4c0,0,0,0,0,0C156.9,7.1,156.8,7.1,156.7,7.1"/>
		<path class="st2" d="M159.7,7.1h-1.4v0.9h1.1c0.1,0,0.2,0,0.2,0.1c0.1,0.1,0.1,0.3,0,0.4c-0.1,0.1-0.2,0.1-0.2,0.1h-1.1v1.1
			c0,0.1,0,0.2-0.1,0.3c-0.1,0.1-0.2,0.1-0.2,0.1c-0.1,0-0.2,0-0.2-0.1c-0.1-0.1-0.1-0.2-0.1-0.3V7c0-0.1,0-0.2,0-0.2
			c0-0.1,0.1-0.1,0.1-0.1c0.1,0,0.2,0,0.2,0h1.6c0.1,0,0.2,0,0.2,0.1c0.1,0.1,0.1,0.3,0,0.4c0,0,0,0,0,0
			C159.9,7.1,159.8,7.1,159.7,7.1"/>
		<path class="st2" d="M160.6,9.6V6.9c0-0.1,0-0.2,0.1-0.3c0.1-0.1,0.2-0.1,0.2-0.1c0.1,0,0.2,0,0.3,0.1c0.1,0.1,0.1,0.2,0.1,0.3
			v2.7c0,0.1,0,0.2-0.1,0.3c-0.1,0.1-0.2,0.1-0.3,0.1c-0.1,0-0.2,0-0.2-0.1C160.6,9.8,160.5,9.7,160.6,9.6"/>
		<path class="st2" d="M162.9,6.9l1.3,2v-2c0-0.1,0-0.2,0.1-0.3c0.1-0.1,0.1-0.1,0.2-0.1c0.1,0,0.2,0,0.2,0.1
			c0.1,0.1,0.1,0.2,0.1,0.3v2.7c0,0.3-0.1,0.4-0.4,0.4c-0.1,0-0.1,0-0.2,0c-0.1,0-0.1,0-0.1-0.1c0,0-0.1-0.1-0.1-0.1
			c0-0.1-0.1-0.1-0.1-0.2l-1.3-2v2c0,0.1,0,0.2-0.1,0.3c-0.1,0.1-0.1,0.1-0.2,0.1c-0.1,0-0.2,0-0.2-0.1C162,9.8,162,9.7,162,9.6V7
			c0-0.1,0-0.2,0-0.3c0-0.1,0.1-0.1,0.1-0.2c0.1,0,0.1-0.1,0.2-0.1c0.1,0,0.1,0,0.2,0c0,0,0.1,0,0.1,0.1c0,0,0.1,0.1,0.1,0.1
			C162.8,6.8,162.9,6.8,162.9,6.9"/>
		<path class="st2" d="M167.9,7.1h-1.6v0.8h1.4c0.1,0,0.2,0,0.2,0.1c0.1,0,0.1,0.1,0.1,0.2c0,0.1,0,0.1-0.1,0.2
			c-0.1,0.1-0.2,0.1-0.2,0.1h-1.4v1h1.6c0.1,0,0.2,0,0.2,0.1c0.1,0.1,0.1,0.1,0.1,0.2c0,0.1,0,0.1-0.1,0.2c-0.1,0.1-0.2,0.1-0.2,0.1
			h-1.9c-0.2,0-0.4-0.1-0.4-0.3c0,0,0-0.1,0-0.1V7c0-0.1,0-0.2,0-0.2c0-0.1,0.1-0.1,0.1-0.1c0.1,0,0.2,0,0.2,0h1.8
			c0.1,0,0.2,0,0.2,0.1c0.1,0.1,0.1,0.3,0,0.4c0,0,0,0,0,0C168.1,7.1,168,7.1,167.9,7.1"/>
		<path class="st2" d="M169.2,6.5h0.9c0.2,0,0.4,0,0.6,0.1c0.2,0,0.3,0.1,0.5,0.2c0.4,0.4,0.6,0.9,0.5,1.4c0,0.2,0,0.4-0.1,0.6
			c0,0.2-0.1,0.3-0.2,0.5c-0.1,0.1-0.2,0.3-0.3,0.4c-0.1,0.1-0.2,0.1-0.3,0.2c-0.1,0.1-0.2,0.1-0.4,0.1c-0.1,0-0.3,0-0.4,0h-0.9
			c-0.1,0-0.2,0-0.3-0.1c-0.1,0-0.1-0.1-0.1-0.2c0-0.1,0-0.2,0-0.3V7c0-0.2,0.1-0.4,0.3-0.4C169.2,6.5,169.2,6.5,169.2,6.5
			 M169.5,7.1v2.3h0.5c0.1,0,0.2,0,0.3,0c0.1,0,0.1,0,0.2,0c0.1,0,0.1-0.1,0.2-0.1c0.3-0.3,0.4-0.6,0.3-1c0-0.3,0-0.5-0.2-0.8
			c-0.1-0.2-0.2-0.3-0.4-0.3c-0.2,0-0.4-0.1-0.5-0.1L169.5,7.1z"/>
		<path class="st2" d="M155.6,13.7c0,0.2-0.1,0.4-0.2,0.6c-0.1,0.2-0.3,0.3-0.5,0.4c-0.2,0.1-0.5,0.1-0.7,0.1
			c-0.3,0-0.6-0.1-0.8-0.2c-0.2-0.1-0.3-0.2-0.4-0.4c-0.1-0.1-0.1-0.3-0.1-0.4c0-0.2,0.1-0.3,0.3-0.3c0,0,0,0,0,0
			c0.1,0,0.1,0,0.2,0.1c0.1,0.1,0.1,0.1,0.1,0.2c0,0.1,0.1,0.2,0.1,0.3c0.1,0.1,0.1,0.1,0.2,0.2c0.1,0.1,0.2,0.1,0.4,0.1
			c0.2,0,0.4,0,0.5-0.1c0.1-0.1,0.2-0.2,0.2-0.4c0-0.1,0-0.2-0.1-0.3c-0.1-0.1-0.2-0.1-0.3-0.2c-0.1,0-0.3-0.1-0.4-0.1
			c-0.2,0-0.4-0.1-0.6-0.2c-0.2-0.1-0.3-0.2-0.4-0.3c-0.1-0.1-0.2-0.3-0.1-0.5c0-0.2,0.1-0.4,0.2-0.5c0.1-0.2,0.3-0.3,0.4-0.3
			c0.2-0.1,0.5-0.1,0.7-0.1c0.2,0,0.4,0,0.5,0.1c0.1,0,0.3,0.1,0.4,0.2c0.1,0.1,0.2,0.2,0.2,0.3c0,0.1,0.1,0.2,0.1,0.3
			c0,0.1,0,0.2-0.1,0.2c-0.1,0.1-0.1,0.1-0.2,0.1c-0.1,0-0.1,0-0.2-0.1c-0.1-0.1-0.1-0.1-0.1-0.2c-0.1-0.1-0.1-0.2-0.2-0.3
			c-0.1-0.1-0.3-0.1-0.4-0.1c-0.2,0-0.3,0-0.4,0.1c-0.1,0.1-0.2,0.2-0.2,0.3c0,0.1,0,0.1,0.1,0.2c0,0.1,0.1,0.1,0.2,0.1
			c0.1,0,0.1,0.1,0.2,0.1c0.1,0,0.2,0.1,0.3,0.1c0.2,0,0.4,0.1,0.5,0.1c0.1,0,0.3,0.1,0.4,0.2c0.1,0.1,0.2,0.2,0.3,0.3
			C155.5,13.4,155.6,13.6,155.6,13.7"/>
		<path class="st2" d="M156.2,13.3v-1.6c0-0.1,0-0.2,0.1-0.3c0.1-0.1,0.2-0.1,0.2-0.1c0.1,0,0.2,0,0.3,0.1c0.1,0.1,0.1,0.2,0.1,0.3
			v1.7c0,0.2,0,0.3,0.1,0.5c0,0.1,0.1,0.2,0.2,0.3c0.1,0.1,0.3,0.1,0.5,0.1c0.2,0,0.4-0.1,0.6-0.2c0.1-0.2,0.2-0.4,0.2-0.7v-1.7
			c0-0.1,0-0.2,0.1-0.3c0.1-0.1,0.2-0.1,0.3-0.1c0.1,0,0.2,0,0.3,0.1c0.1,0.1,0.1,0.2,0.1,0.3v1.6c0,0.2,0,0.5-0.1,0.7
			c-0.1,0.2-0.2,0.3-0.3,0.5c-0.1,0.1-0.3,0.2-0.4,0.3c-0.2,0.1-0.4,0.1-0.6,0.1c-0.2,0-0.5,0-0.7-0.1c-0.2,0-0.3-0.1-0.5-0.3
			c-0.1-0.1-0.2-0.3-0.3-0.5C156.2,13.8,156.2,13.5,156.2,13.3"/>
		<path class="st2" d="M162.9,13.3V14c0,0.1,0,0.1,0,0.2c0,0.1-0.1,0.1-0.1,0.1c-0.1,0-0.1,0.1-0.2,0.1c-0.2,0.1-0.4,0.2-0.6,0.2
			c-0.2,0.1-0.4,0.1-0.6,0.1c-0.2,0-0.5,0-0.7-0.1c-0.2-0.1-0.4-0.2-0.6-0.4c-0.2-0.2-0.3-0.3-0.4-0.6c-0.1-0.2-0.1-0.5-0.1-0.7
			c0-0.2,0-0.5,0.1-0.7c0.1-0.2,0.2-0.4,0.3-0.6c0.2-0.2,0.4-0.3,0.6-0.4c0.2-0.1,0.5-0.1,0.8-0.1c0.2,0,0.4,0,0.6,0.1
			c0.2,0.1,0.3,0.1,0.4,0.2c0.1,0.1,0.2,0.2,0.2,0.3c0.1,0.1,0.1,0.2,0.1,0.3c0,0.1,0,0.2-0.1,0.2c-0.1,0.1-0.1,0.1-0.2,0.1
			c-0.1,0-0.2,0-0.3-0.1c-0.1-0.1-0.1-0.2-0.2-0.3c-0.1-0.1-0.1-0.1-0.2-0.2c-0.1-0.1-0.3-0.1-0.4-0.1c-0.1,0-0.3,0-0.4,0.1
			c-0.1,0.1-0.2,0.1-0.3,0.2c-0.1,0.1-0.2,0.2-0.2,0.4c0,0.2-0.1,0.3-0.1,0.5c0,0.3,0.1,0.7,0.3,0.9c0.2,0.2,0.5,0.3,0.8,0.3
			c0.2,0,0.3,0,0.5-0.1c0.1,0,0.3-0.1,0.4-0.2v-0.6h-0.5c-0.1,0-0.2,0-0.3-0.1c-0.1,0-0.1-0.1-0.1-0.2c0-0.1,0-0.1,0.1-0.2
			c0.1-0.1,0.1-0.1,0.2-0.1h0.8c0.1,0,0.2,0,0.2,0c0.1,0,0.1,0.1,0.2,0.1C162.9,13.1,162.9,13.2,162.9,13.3"/>
		<path class="st2" d="M165.7,14.3l-0.2-0.4h-1.4l-0.2,0.4c0,0.1-0.1,0.2-0.2,0.3c-0.1,0.1-0.1,0.1-0.2,0.1c-0.1,0-0.2,0-0.2-0.1
			c-0.1-0.1-0.1-0.1-0.1-0.2c0,0,0-0.1,0-0.1c0-0.1,0-0.1,0.1-0.2l0.9-2.2c0-0.1,0.1-0.1,0.1-0.2c0-0.1,0.1-0.2,0.1-0.2
			c0-0.1,0.1-0.1,0.2-0.1c0.2-0.1,0.3-0.1,0.5,0c0.1,0,0.1,0.1,0.2,0.1c0,0.1,0.1,0.1,0.1,0.2l0.1,0.3l0.9,2.2
			c0.1,0.1,0.1,0.2,0.1,0.4c0,0.1,0,0.2-0.1,0.2c-0.1,0.1-0.1,0.1-0.2,0.1c0,0-0.1,0-0.1,0c0,0-0.1,0-0.1-0.1c0,0-0.1-0.1-0.1-0.2
			C165.8,14.4,165.7,14.4,165.7,14.3 M164.4,13.4h1l-0.5-1.4L164.4,13.4z"/>
		<path class="st2" d="M167.9,13.3h-0.2v1.1c0,0.1,0,0.2-0.1,0.3c-0.1,0.1-0.2,0.1-0.2,0.1c-0.1,0-0.2,0-0.3-0.1
			c-0.1-0.1-0.1-0.2-0.1-0.3v-2.6c0-0.2,0.1-0.4,0.3-0.4c0,0,0.1,0,0.1,0h1.1c0.1,0,0.3,0,0.4,0c0.1,0,0.2,0,0.3,0.1
			c0.1,0,0.2,0.1,0.3,0.2c0.1,0.1,0.1,0.2,0.2,0.3c0,0.1,0.1,0.2,0.1,0.4c0,0.2-0.1,0.4-0.2,0.6c-0.2,0.2-0.4,0.3-0.7,0.3
			c0.1,0.1,0.3,0.2,0.4,0.3c0.1,0.1,0.2,0.3,0.3,0.4c0.1,0.1,0.1,0.3,0.2,0.4c0,0.1,0.1,0.2,0.1,0.2c0,0,0,0.1,0,0.1
			c0,0-0.1,0.1-0.1,0.1c-0.1,0-0.1,0-0.2,0c-0.1,0-0.1,0-0.2-0.1c-0.1,0-0.1-0.1-0.1-0.1c-0.1-0.1-0.1-0.2-0.2-0.2l-0.3-0.5
			c-0.1-0.1-0.2-0.3-0.3-0.4c-0.1-0.1-0.1-0.1-0.2-0.2C168.1,13.3,168,13.3,167.9,13.3 M168.3,11.8h-0.6v0.9h0.6c0.1,0,0.3,0,0.4,0
			c0.1,0,0.2-0.1,0.3-0.1c0.1-0.1,0.1-0.2,0.1-0.3c0-0.1,0-0.2-0.1-0.3c0-0.1-0.1-0.1-0.2-0.2C168.6,11.8,168.5,11.8,168.3,11.8"/>
		<path class="st2" d="M157.4,16.6H156v0.9h1.1c0.1,0,0.2,0,0.2,0.1c0.1,0.1,0.1,0.3,0,0.4c-0.1,0.1-0.2,0.1-0.2,0.1H156v1.1
			c0,0.1,0,0.2-0.1,0.3c-0.1,0.1-0.4,0.1-0.5,0c0,0,0,0,0,0c-0.1-0.1-0.1-0.2-0.1-0.3v-2.6c0-0.1,0-0.2,0-0.2c0-0.1,0.1-0.1,0.1-0.1
			c0.1,0,0.2,0,0.2,0h1.6c0.1,0,0.2,0,0.2,0.1c0.1,0.1,0.1,0.3,0,0.4c0,0,0,0,0,0C157.6,16.6,157.5,16.6,157.4,16.6"/>
		<path class="st2" d="M159.2,18h-0.2v1.1c0,0.1,0,0.2-0.1,0.3c-0.1,0.1-0.2,0.1-0.2,0.1c-0.1,0-0.2,0-0.3-0.1
			c-0.1-0.1-0.1-0.2-0.1-0.3v-2.6c0-0.2,0.1-0.4,0.3-0.4c0,0,0.1,0,0.1,0h1.1c0.1,0,0.3,0,0.4,0c0.1,0,0.2,0,0.3,0.1
			c0.1,0,0.2,0.1,0.3,0.2c0.1,0.1,0.1,0.2,0.2,0.3c0,0.1,0.1,0.2,0.1,0.4c0,0.2-0.1,0.4-0.2,0.6c-0.2,0.2-0.4,0.3-0.7,0.3
			c0.1,0.1,0.3,0.2,0.4,0.3c0.1,0.1,0.2,0.3,0.3,0.4c0.1,0.1,0.1,0.3,0.2,0.4c0,0.1,0.1,0.2,0.1,0.2c0,0,0,0.1,0,0.1
			c0,0-0.1,0.1-0.1,0.1c-0.1,0-0.1,0-0.2,0c-0.1,0-0.1,0-0.2-0.1c-0.1,0-0.1-0.1-0.1-0.1c-0.1-0.1-0.1-0.2-0.2-0.2l-0.3-0.5
			c-0.1-0.1-0.2-0.3-0.3-0.4c-0.1-0.1-0.1-0.1-0.2-0.2C159.4,18,159.3,18,159.2,18 M159.6,16.6h-0.6v0.9h0.6c0.1,0,0.3,0,0.4,0
			c0.1,0,0.2-0.1,0.3-0.1c0.1-0.1,0.1-0.2,0.1-0.3c0-0.1,0-0.2-0.1-0.3c0-0.1-0.1-0.1-0.2-0.2C159.9,16.6,159.7,16.6,159.6,16.6"/>
		<path class="st2" d="M163.9,16.6h-1.6v0.8h1.4c0.1,0,0.2,0,0.2,0.1c0.1,0,0.1,0.1,0.1,0.2c0,0.1,0,0.1-0.1,0.2
			c-0.1,0.1-0.2,0.1-0.2,0.1h-1.4v1h1.6c0.1,0,0.2,0,0.2,0.1c0.1,0.1,0.1,0.1,0.1,0.2c0,0.1,0,0.1-0.1,0.2c-0.1,0.1-0.2,0.1-0.2,0.1
			h-1.9c-0.2,0-0.4-0.1-0.4-0.3c0,0,0-0.1,0-0.1v-2.6c0-0.1,0-0.2,0-0.2c0-0.1,0.1-0.1,0.1-0.1c0.1,0,0.2,0,0.2,0h1.8
			c0.1,0,0.2,0,0.2,0.1c0.1,0.1,0.1,0.3,0,0.4c0,0,0,0,0,0C164.1,16.6,164,16.6,163.9,16.6"/>
		<path class="st2" d="M167.1,16.6h-1.6v0.8h1.4c0.1,0,0.2,0,0.2,0.1c0.1,0,0.1,0.1,0.1,0.2c0,0.1,0,0.1-0.1,0.2
			c-0.1,0.1-0.2,0.1-0.2,0.1h-1.4v1h1.6c0.1,0,0.2,0,0.2,0.1c0.1,0.1,0.1,0.1,0.1,0.2c0,0.1,0,0.1-0.1,0.2c-0.1,0.1-0.2,0.1-0.2,0.1
			h-1.9c-0.2,0-0.4-0.1-0.4-0.3c0,0,0-0.1,0-0.1v-2.6c0-0.1,0-0.2,0-0.2c0-0.1,0.1-0.1,0.1-0.1c0.1,0,0.2,0,0.2,0h1.8
			c0.1,0,0.2,0,0.2,0.1c0.1,0.1,0.1,0.3,0,0.4c0,0,0,0,0,0C167.3,16.6,167.2,16.6,167.1,16.6"/>
		<path class="st2" d="M11.8,18H8.2l-0.5,1.7h-3L8.4,9.5h3.3l3.7,10.1h-3L11.8,18z M10,12.6l-1.1,3.3h2.2L10,12.6z"/>
		<path class="st2" d="M25.5,14.6c0.1,2.7-2,5-4.8,5.1c-0.2,0-0.4,0-0.5,0h-4V9.5h4C23.5,9.5,25.5,11.6,25.5,14.6 M20,17.2
			c1.3,0.1,2.5-0.8,2.6-2.1c0-0.1,0-0.3,0-0.5c0.1-1.3-0.9-2.5-2.2-2.6c-0.2,0-0.3,0-0.5,0h-1v5.2L20,17.2z"/>
		<path class="st2" d="M36.1,14.6c0.1,2.7-2,5-4.8,5.1c-0.2,0-0.4,0-0.5,0h-4V9.5h4C34.1,9.5,36.1,11.6,36.1,14.6 M30.6,17.2
			c1.3,0.1,2.5-0.8,2.6-2.1c0-0.1,0-0.3,0-0.5c0.1-1.3-0.9-2.5-2.2-2.6c-0.2,0-0.3,0-0.5,0h-1v5.2L30.6,17.2z"/>
		<path class="st2" d="M45,19.8c-2.8,0.1-5.1-2.2-5.2-5c0-0.1,0-0.1,0-0.2c0-2.9,2.3-5.2,5.2-5.2c2.9,0,5.2,2.3,5.2,5.2
			c0.1,2.8-2.2,5.1-5,5.2C45.2,19.8,45.1,19.8,45,19.8 M45,17.2c1.3,0,2.3-1,2.3-2.2c0-0.1,0-0.2,0-0.3c0.1-1.3-0.8-2.4-2.1-2.6
			c-1.3-0.1-2.4,0.8-2.6,2.1c0,0.2,0,0.3,0,0.5c-0.2,1.3,0.7,2.4,2,2.6C44.8,17.2,44.9,17.2,45,17.2"/>
		<path class="st2" d="M60.9,9.5v10.1h-2.8L54.3,14v5.7h-2.8V9.5h2.8l3.8,5.7V9.5H60.9z"/>
		<path class="st2" d="M82.5,23.5c-5.5,0-10.1-4.4-10.1-10s4.4-10.1,10-10.1c5.5,0,10.1,4.4,10.1,10c0,0,0,0,0,0
			C92.5,18.9,88,23.4,82.5,23.5 M82.5,3.8c-5.3,0-9.6,4.2-9.6,9.5c0,5.3,4.2,9.6,9.5,9.6c5.3,0,9.6-4.2,9.6-9.5c0,0,0,0,0,0
			C92.1,8.1,87.8,3.9,82.5,3.8"/>
		<path class="st2" d="M80.3,13.1c-0.1,0-0.1,0-0.2-0.1c-0.5-0.4-0.8-1-0.8-1.6V9.8c0-0.2,0.1-0.3,0.3-0.3c0.1,0,0.1,0,0.1,0
			l2.2,1.2c0.5,0.4,0.9,1,0.9,1.6c0,0.2-0.1,0.3-0.3,0.3s-0.3-0.1-0.3-0.3c0-0.4-0.2-0.8-0.6-1.1l-1.7-1v1.1c0,0.4,0.2,0.8,0.6,1.1
			c0.1,0.1,0.2,0.3,0.1,0.4C80.5,13,80.4,13.1,80.3,13.1"/>
		<path class="st2" d="M79.8,15c-0.1,0-0.2-0.1-0.3-0.2c-0.1-0.3-0.2-0.5-0.2-0.8v-1.6c0-0.2,0.1-0.3,0.3-0.3c0.1,0,0.1,0,0.1,0
			l2.1,1.2c0.1,0.1,0.2,0.3,0.1,0.4s-0.3,0.2-0.4,0.1l-1.6-0.9V14c0,0.2,0,0.4,0.1,0.6c0.1,0.2,0,0.3-0.1,0.4
			C79.9,15,79.8,15,79.8,15"/>
		<path class="st2" d="M82.5,16.9c-0.1,0-0.1,0-0.1,0L81,16c-0.1-0.1-0.2-0.3-0.1-0.4c0,0,0,0,0,0c0.1-0.1,0.3-0.2,0.4-0.1
			c0,0,0,0,0,0l0.9,0.5v-1.1c0-0.2,0.1-0.3,0.3-0.3c0.2,0,0.3,0.1,0.3,0.3v1.6c0,0.1-0.1,0.2-0.1,0.3C82.6,16.8,82.6,16.8,82.5,16.9
			"/>
		<path class="st2" d="M82.5,19.4c-0.1,0-0.1,0-0.1,0l-2.2-1.2c-0.5-0.3-0.8-0.9-0.9-1.5c0-0.2,0.1-0.3,0.3-0.3
			c0.2,0,0.3,0.1,0.3,0.3c0,0.4,0.2,0.8,0.6,1l1.7,1v-1.1c0-0.4-0.2-0.8-0.6-1.1c-0.1-0.1-0.2-0.3-0.1-0.4c0.1-0.1,0.3-0.2,0.4-0.1
			c0.5,0.4,0.8,1,0.8,1.6v1.6c0,0.1-0.1,0.2-0.1,0.3C82.6,19.4,82.6,19.4,82.5,19.4"/>
		<path class="st2" d="M79.6,10.6c-0.2,0-0.3-0.1-0.3-0.3V8.6c0-0.2,0.1-0.3,0.3-0.3s0.3,0.1,0.3,0.3v1.8
			C79.9,10.5,79.8,10.7,79.6,10.6"/>
		<path class="st2" d="M82.5,13.4c-0.2,0-0.3-0.1-0.3-0.3v-0.7c0-0.6,0.3-1.2,0.8-1.6l2.2-1.3c0.1-0.1,0.3,0,0.4,0.1
			c0,0,0,0.1,0,0.2v1.6c0,0.2-0.1,0.3-0.3,0.3c-0.2,0-0.3-0.1-0.3-0.3v-1.1l-1.7,1c-0.3,0.2-0.6,0.6-0.6,1.1v0.7
			C82.8,13.3,82.7,13.4,82.5,13.4"/>
		<path class="st2" d="M82.5,16.9c-0.2,0-0.3-0.1-0.3-0.3c0,0,0,0,0,0v-1.6c0-0.2,0.1-0.3,0.3-0.3c0.2,0,0.3,0.1,0.3,0.3V16l1.7-1
			c0.3-0.2,0.6-0.6,0.6-1.1v-0.7c0-0.2,0.1-0.3,0.3-0.3c0.2,0,0.3,0.1,0.3,0.3V14c0,0.6-0.3,1.2-0.8,1.6l-2.2,1.3
			C82.6,16.8,82.6,16.8,82.5,16.9"/>
		<path class="st2" d="M82.5,19.4c-0.2,0-0.3-0.1-0.3-0.3c0,0,0,0,0,0v-1.6c0-0.6,0.3-1.2,0.8-1.6l2.2-1.3c0.1-0.1,0.3,0,0.4,0.1
			c0,0,0,0.1,0,0.2v1.6c0,0.6-0.3,1.2-0.8,1.6l-2.2,1.3C82.6,19.4,82.6,19.4,82.5,19.4 M85.1,15.4l-1.7,1c-0.3,0.2-0.6,0.6-0.6,1.1
			v1.1l1.7-1c0.3-0.2,0.6-0.6,0.6-1.1V15.4z"/>
		<path class="st2" d="M85.4,10.6c-0.2,0-0.3-0.1-0.3-0.3V8.6c0-0.2,0.1-0.3,0.3-0.3s0.3,0.1,0.3,0.3v1.8
			C85.7,10.5,85.6,10.7,85.4,10.6"/>
		<path class="st2" d="M82.5,12.1c-0.2,0-0.3-0.1-0.3-0.3v-4c0-0.2,0.1-0.3,0.3-0.3c0.2,0,0.3,0.1,0.3,0.3l0,0v4
			C82.8,12,82.7,12.1,82.5,12.1"/>
		<path class="st2" d="M76.2,18c-0.2,0-0.3-0.1-0.3-0.3c0-0.1,0.1-0.2,0.2-0.3l12.7-7.3c0.1-0.1,0.3,0,0.4,0.1c0,0,0,0,0,0
			c0.1,0.1,0,0.3-0.1,0.4L76.3,18C76.3,18,76.2,18,76.2,18"/>
		<path class="st2" d="M98.7,11.3v0.6c0,0.1,0,0.1,0,0.2c0,0.1,0,0.1-0.1,0.1c-0.1,0-0.1,0.1-0.2,0.1c-0.2,0.1-0.4,0.2-0.6,0.2
			c-0.2,0.1-0.4,0.1-0.6,0.1c-0.2,0-0.5,0-0.7-0.1c-0.2-0.1-0.4-0.2-0.5-0.3c-0.2-0.2-0.3-0.3-0.3-0.5c-0.1-0.2-0.1-0.5-0.1-0.7
			c0-0.2,0-0.5,0.1-0.7c0.1-0.2,0.2-0.4,0.3-0.5c0.2-0.2,0.3-0.3,0.5-0.3c0.2-0.1,0.5-0.1,0.7-0.1c0.2,0,0.4,0,0.6,0.1
			c0.2,0,0.3,0.1,0.4,0.2c0.1,0.1,0.2,0.2,0.2,0.3c0,0.1,0.1,0.2,0.1,0.3c0,0.1,0,0.2-0.1,0.2c-0.1,0.1-0.1,0.1-0.2,0.1
			c0,0-0.1,0-0.1,0c0,0-0.1-0.1-0.1-0.1c-0.1-0.1-0.1-0.2-0.2-0.3c-0.1-0.1-0.1-0.1-0.2-0.2c-0.1,0-0.2-0.1-0.4-0.1
			c-0.1,0-0.3,0-0.4,0.1c-0.1,0.1-0.2,0.1-0.3,0.2c-0.1,0.1-0.2,0.2-0.2,0.4c0,0.2-0.1,0.3-0.1,0.5c0,0.3,0.1,0.6,0.3,0.9
			c0.2,0.2,0.5,0.3,0.8,0.3c0.1,0,0.3,0,0.4-0.1c0.1,0,0.3-0.1,0.4-0.2v-0.5h-0.5c-0.1,0-0.2,0-0.3-0.1c-0.1,0-0.1-0.1-0.1-0.2
			c0-0.1,0-0.1,0.1-0.2c0.1-0.1,0.1-0.1,0.2-0.1h0.8c0.1,0,0.2,0,0.2,0c0.1,0,0.1,0.1,0.2,0.1C98.7,11.1,98.7,11.2,98.7,11.3"/>
		<path class="st2" d="M100,9.6v2.4h1.4c0.1,0,0.2,0,0.3,0.1c0.1,0.1,0.1,0.1,0.1,0.2c0,0.1,0,0.1-0.1,0.2c-0.1,0.1-0.2,0.1-0.3,0.1
			h-1.6c-0.1,0-0.2,0-0.3-0.1c-0.1-0.1-0.1-0.2-0.1-0.3V9.6c0-0.1,0-0.2,0.1-0.3c0.1-0.1,0.2-0.1,0.2-0.1c0.1,0,0.2,0,0.2,0.1
			C100,9.4,100,9.5,100,9.6"/>
		<path class="st2" d="M102.2,11.2V9.6c0-0.1,0-0.2,0.1-0.3c0.1-0.1,0.2-0.1,0.2-0.1c0.1,0,0.2,0,0.2,0.1c0.1,0.1,0.1,0.2,0.1,0.3
			v1.6c0,0.2,0,0.3,0.1,0.5c0,0.1,0.1,0.2,0.2,0.3c0.1,0.1,0.3,0.1,0.4,0.1c0.2,0,0.4-0.1,0.6-0.2c0.1-0.2,0.2-0.4,0.2-0.6V9.6
			c0-0.1,0-0.2,0.1-0.3c0.1-0.1,0.2-0.1,0.2-0.1c0.1,0,0.2,0,0.2,0.1c0.1,0.1,0.1,0.2,0.1,0.3v1.6c0,0.2,0,0.4-0.1,0.7
			c-0.1,0.2-0.2,0.3-0.3,0.5c-0.1,0.1-0.3,0.2-0.4,0.2c-0.2,0.1-0.4,0.1-0.6,0.1c-0.2,0-0.4,0-0.7-0.1c-0.2,0-0.3-0.1-0.5-0.3
			c-0.1-0.1-0.2-0.3-0.3-0.4C102.2,11.7,102.2,11.5,102.2,11.2"/>
		<path class="st2" d="M107.9,9.8h-0.7v2.4c0,0.1,0,0.2-0.1,0.3c-0.1,0.1-0.1,0.1-0.2,0.1c-0.1,0-0.2,0-0.2-0.1
			c-0.1-0.1-0.1-0.2-0.1-0.3V9.8h-0.7c-0.1,0-0.2,0-0.3-0.1c-0.1-0.1-0.1-0.3,0-0.4c0,0,0,0,0,0c0.1-0.1,0.2-0.1,0.3-0.1h2.1
			c0.1,0,0.2,0,0.3,0.1c0.1,0.1,0.1,0.1,0.1,0.2c0,0.1,0,0.1-0.1,0.2C108,9.8,107.9,9.8,107.9,9.8"/>
		<path class="st2" d="M110.8,9.8h-1.5v0.8h1.4c0.1,0,0.2,0,0.2,0.1c0.1,0,0.1,0.1,0.1,0.2c0,0.1,0,0.1-0.1,0.2
			c-0.1,0.1-0.1,0.1-0.2,0.1h-1.4v0.9h1.6c0.1,0,0.2,0,0.2,0.1c0.1,0.1,0.1,0.1,0.1,0.2c0,0.1,0,0.1-0.1,0.2
			c-0.1,0.1-0.2,0.1-0.2,0.1H109c-0.2,0-0.4-0.1-0.4-0.3c0,0,0-0.1,0-0.1V9.7c0-0.1,0-0.2,0-0.2c0-0.1,0.1-0.1,0.1-0.1
			c0.1,0,0.2,0,0.2,0h1.8c0.1,0,0.2,0,0.2,0.1c0.1,0.1,0.1,0.3,0,0.4c0,0,0,0,0,0C111,9.8,110.9,9.8,110.8,9.8"/>
		<path class="st2" d="M112.6,9.6l1.3,2v-2c0-0.1,0-0.2,0.1-0.3c0.1-0.1,0.1-0.1,0.2-0.1c0.1,0,0.2,0,0.2,0.1
			c0.1,0.1,0.1,0.2,0.1,0.3v2.6c0,0.3-0.1,0.4-0.4,0.4c-0.1,0-0.1,0-0.2,0c-0.1,0-0.1,0-0.1-0.1c0,0-0.1-0.1-0.1-0.1l-0.1-0.2
			l-1.3-1.9v1.9c0,0.1,0,0.2-0.1,0.3c-0.1,0.1-0.3,0.1-0.4,0c0,0,0,0,0,0c-0.1-0.1-0.1-0.2-0.1-0.3V9.7c0-0.1,0-0.2,0-0.3
			c0-0.1,0.1-0.1,0.1-0.2c0.1,0,0.1-0.1,0.2-0.1c0.1,0,0.1,0,0.2,0c0,0,0.1,0,0.1,0.1c0,0,0.1,0.1,0.1,0.1
			C112.5,9.5,112.5,9.6,112.6,9.6"/>
		<path class="st2" d="M101.3,14.5h-1.3v0.9h1.1c0.1,0,0.2,0,0.2,0.1c0.1,0.1,0.1,0.3,0,0.4c0,0,0,0,0,0c-0.1,0-0.1,0.1-0.2,0.1
			h-1.1v1.1c0,0.1,0,0.2-0.1,0.3c-0.1,0.1-0.3,0.1-0.5,0c0,0,0,0,0,0c-0.1-0.1-0.1-0.2-0.1-0.3v-2.6c0-0.1,0-0.2,0-0.2
			c0-0.1,0.1-0.1,0.1-0.1c0.1,0,0.2,0,0.2,0h1.6c0.1,0,0.2,0,0.2,0.1c0.1,0.1,0.1,0.3,0,0.4c0,0,0,0,0,0
			C101.4,14.4,101.4,14.5,101.3,14.5"/>
		<path class="st2" d="M103,15.8h-0.2v1.1c0,0.1,0,0.2-0.1,0.3c-0.1,0.1-0.2,0.1-0.2,0.1c-0.1,0-0.2,0-0.2-0.1
			c-0.1-0.1-0.1-0.2-0.1-0.3v-2.6c0-0.2,0.1-0.4,0.3-0.4c0,0,0.1,0,0.1,0h1.1c0.1,0,0.3,0,0.4,0c0.1,0,0.2,0,0.3,0.1
			c0.1,0,0.2,0.1,0.3,0.2c0.1,0.1,0.1,0.2,0.2,0.3c0,0.1,0.1,0.2,0.1,0.3c0,0.2-0.1,0.4-0.2,0.6c-0.2,0.2-0.4,0.3-0.6,0.3
			c0.1,0.1,0.2,0.2,0.3,0.3c0.2,0.2,0.4,0.5,0.5,0.8c0,0.1,0.1,0.2,0.1,0.2c0,0,0,0.1,0,0.1c0,0-0.1,0.1-0.1,0.1c-0.1,0-0.1,0-0.2,0
			c-0.1,0-0.1,0-0.2-0.1c-0.1,0-0.1-0.1-0.1-0.1c-0.1-0.1-0.1-0.2-0.1-0.2l-0.3-0.4c-0.1-0.1-0.2-0.3-0.3-0.4
			c-0.1-0.1-0.1-0.1-0.2-0.2C103.2,15.8,103.1,15.8,103,15.8 M103.4,14.4h-0.6v0.9h0.6c0.1,0,0.3,0,0.4,0c0.1,0,0.2-0.1,0.3-0.1
			c0.1-0.1,0.1-0.2,0.1-0.3c0-0.1,0-0.2-0.1-0.2c0-0.1-0.1-0.1-0.2-0.2C103.7,14.4,103.5,14.4,103.4,14.4"/>
		<path class="st2" d="M107.6,14.5h-1.5v0.8h1.4c0.1,0,0.2,0,0.2,0.1c0.1,0,0.1,0.1,0.1,0.2c0,0.1,0,0.1-0.1,0.2
			c-0.1,0.1-0.1,0.1-0.2,0.1h-1.4v0.9h1.6c0.1,0,0.2,0,0.2,0.1c0.1,0.1,0.1,0.1,0.1,0.2c0,0.1,0,0.1-0.1,0.2
			c-0.1,0.1-0.2,0.1-0.2,0.1h-1.8c-0.2,0-0.4-0.1-0.4-0.3c0,0,0-0.1,0-0.1v-2.5c0-0.1,0-0.2,0-0.2c0-0.1,0.1-0.1,0.1-0.1
			c0.1,0,0.2,0,0.2,0h1.8c0.1,0,0.2,0,0.2,0.1c0.1,0.1,0.1,0.3,0,0.4c0,0,0,0,0,0C107.8,14.4,107.7,14.5,107.6,14.5"/>
		<path class="st2" d="M110.7,14.5h-1.5v0.8h1.4c0.1,0,0.2,0,0.2,0.1c0.1,0,0.1,0.1,0.1,0.2c0,0.1,0,0.1-0.1,0.2
			c-0.1,0.1-0.1,0.1-0.2,0.1h-1.4v0.9h1.6c0.1,0,0.2,0,0.2,0.1c0.1,0.1,0.1,0.1,0.1,0.2c0,0.1,0,0.1-0.1,0.2
			c-0.1,0.1-0.2,0.1-0.2,0.1h-1.8c-0.2,0-0.4-0.1-0.4-0.3c0,0,0-0.1,0-0.1v-2.5c0-0.1,0-0.2,0-0.2c0-0.1,0.1-0.1,0.1-0.1
			c0.1,0,0.2,0,0.2,0h1.8c0.1,0,0.2,0,0.2,0.1c0.1,0.1,0.1,0.3,0,0.4c0,0,0,0,0,0C110.9,14.4,110.8,14.5,110.7,14.5"/>
		<path class="st3" d="M-10.5-2.1h395.7v97.8H-10.5V-2.1z"/>
	</g>
</g>
</svg>
