<?xml version="1.0" encoding="utf-8"?>
<!-- Generator: Adobe Illustrator 26.3.1, SVG Export Plug-In . SVG Version: 6.00 Build 0)  -->
<svg version="1.1" id="Layer_1" xmlns="http://www.w3.org/2000/svg" xmlns:xlink="http://www.w3.org/1999/xlink" x="0px" y="0px"
	 viewBox="0 0 250 100" style="enable-background:new 0 0 250 100;" xml:space="preserve">
<style type="text/css">
	.st0{clip-path:url(#SVGID_00000034769022464553022940000013049185048105189559_);}
	.st1{fill-rule:evenodd;clip-rule:evenodd;fill:#FFFFFF;}
</style>
<g>
	<g>
		<defs>
			<path id="SVGID_1_" d="M121.5,33.7l-6.1-5.4l6.1-5.4V12.5c0-1.5-1.2-2.5-3.1-2.5h-0.1h-6c-12.1,0-14.7,18.2-3,18.2h2.7v0.6h-1.1
				c-12.2,0-14.8,23-3,23h10.3h0.1c1.9,0,3.1-1,3.1-2.5L121.5,33.7L121.5,33.7z M134.7,28.4l-6.1,5.3v15.6c0,1.5,1.2,2.5,3.1,2.5
				h0.1h10.3c11.8,0,9.2-23-3-23H138v-0.6h2.7c11.7,0,9.1-18.2-3-18.2h-6h-0.1c-1.9,0-3.1,1-3.1,2.5V23L134.7,28.4z M104.6,85.9
				l-1.3,4.7h-0.5l-1.2-4l-1.2,4h-0.5l-1.3-4.7H99l1.1,4.1l1.2-4.1h0.5L103,90l1.1-4.1H104.6z M107.9,88.5c0-0.3-0.1-0.5-0.2-0.7
				s-0.3-0.3-0.5-0.4s-0.4-0.1-0.6-0.1c-0.3,0-0.6,0.1-0.9,0.3c-0.2,0.2-0.4,0.5-0.4,0.9C105.3,88.5,107.9,88.5,107.9,88.5z
				 M108.4,88.6c0,0.2,0,0.3,0,0.4h-3c0,0.3,0.1,0.5,0.2,0.7s0.3,0.3,0.5,0.4s0.4,0.2,0.6,0.2c0.3,0,0.6-0.1,0.8-0.2
				c0.2-0.1,0.3-0.3,0.4-0.6h0.5c-0.1,0.4-0.3,0.7-0.6,0.9c-0.3,0.2-0.7,0.3-1.1,0.3c-0.3,0-0.7-0.1-0.9-0.2
				c-0.3-0.2-0.5-0.4-0.6-0.7c-0.2-0.3-0.2-0.6-0.2-1s0.1-0.7,0.2-1c0.2-0.3,0.4-0.5,0.6-0.7c0.3-0.2,0.6-0.2,0.9-0.2
				s0.7,0.1,0.9,0.2c0.3,0.2,0.5,0.4,0.6,0.6C108.3,88,108.4,88.2,108.4,88.6z M109.4,85.6v5H109v-5H109.4z M110.7,85.6v5h-0.5v-5
				H110.7z M113.2,86.8c0.4,0,0.8,0.1,1.1,0.4c0.3,0.3,0.4,0.7,0.4,1.2v2.2h-0.5v-2.1c0-0.4-0.1-0.7-0.3-0.9
				c-0.2-0.2-0.5-0.3-0.8-0.3c-0.4,0-0.6,0.1-0.8,0.3c-0.2,0.2-0.3,0.6-0.3,1v2h-0.5v-3.7h0.5v0.6c0.1-0.2,0.3-0.4,0.5-0.5
				C112.7,86.9,113,86.8,113.2,86.8z M118.4,88.5c0-0.3-0.1-0.5-0.2-0.7s-0.3-0.3-0.5-0.4s-0.4-0.1-0.6-0.1c-0.3,0-0.6,0.1-0.9,0.3
				c-0.2,0.2-0.4,0.5-0.4,0.9C115.8,88.5,118.4,88.5,118.4,88.5z M118.8,88.6c0,0.2,0,0.3,0,0.4h-3c0,0.3,0.1,0.5,0.2,0.7
				s0.3,0.3,0.5,0.4s0.4,0.2,0.6,0.2c0.3,0,0.6-0.1,0.8-0.2c0.2-0.1,0.3-0.3,0.4-0.6h0.5c-0.1,0.4-0.3,0.7-0.6,0.9
				c-0.3,0.2-0.7,0.3-1.1,0.3c-0.3,0-0.7-0.1-0.9-0.2c-0.3-0.2-0.5-0.4-0.6-0.7c-0.2-0.3-0.2-0.6-0.2-1s0.1-0.7,0.2-1
				c0.2-0.3,0.4-0.5,0.6-0.7c0.3-0.2,0.6-0.2,0.9-0.2s0.7,0.1,0.9,0.2c0.3,0.2,0.5,0.4,0.6,0.6C118.8,88,118.8,88.2,118.8,88.6z
				 M120.7,90.6c-0.4,0-0.8-0.1-1-0.3c-0.3-0.2-0.4-0.5-0.4-0.8h0.5c0,0.2,0.1,0.4,0.3,0.5c0.2,0.1,0.4,0.2,0.7,0.2
				c0.3,0,0.5-0.1,0.6-0.2s0.2-0.3,0.2-0.5c0-0.1,0-0.2-0.1-0.3c-0.1-0.1-0.2-0.1-0.3-0.2c-0.1,0-0.3-0.1-0.5-0.2
				c-0.3-0.1-0.5-0.1-0.7-0.2s-0.3-0.2-0.4-0.3c-0.1-0.1-0.2-0.3-0.2-0.6c0-0.2,0.1-0.3,0.2-0.5s0.3-0.3,0.5-0.4s0.4-0.1,0.7-0.1
				c0.4,0,0.7,0.1,1,0.3c0.2,0.2,0.4,0.5,0.4,0.8h-0.5c0-0.2-0.1-0.4-0.3-0.5c-0.2-0.1-0.4-0.2-0.6-0.2s-0.4,0.1-0.6,0.2
				c-0.1,0.1-0.2,0.3-0.2,0.4s0,0.3,0.1,0.4s0.2,0.2,0.3,0.2c0.1,0.1,0.3,0.1,0.5,0.2c0.3,0.1,0.5,0.1,0.6,0.2
				c0.2,0.1,0.3,0.2,0.4,0.3c0.1,0.1,0.2,0.3,0.2,0.5s-0.1,0.4-0.2,0.5c-0.1,0.2-0.3,0.3-0.5,0.4C121.2,90.6,121,90.6,120.7,90.6z
				 M123.9,90.6c-0.4,0-0.8-0.1-1-0.3c-0.3-0.2-0.4-0.5-0.4-0.8h0.5c0,0.2,0.1,0.4,0.3,0.5c0.2,0.1,0.4,0.2,0.7,0.2
				c0.3,0,0.5-0.1,0.6-0.2s0.2-0.3,0.2-0.5c0-0.1,0-0.2-0.1-0.3c-0.1-0.1-0.2-0.1-0.3-0.2c-0.1,0-0.3-0.1-0.5-0.2
				c-0.3-0.1-0.5-0.1-0.7-0.2s-0.3-0.2-0.4-0.3c-0.1-0.1-0.2-0.3-0.2-0.6c0-0.2,0.1-0.3,0.2-0.5s0.3-0.3,0.5-0.4s0.4-0.1,0.7-0.1
				c0.4,0,0.7,0.1,1,0.3c0.2,0.2,0.4,0.5,0.4,0.8h-0.5c0-0.2-0.1-0.4-0.3-0.5c-0.2-0.1-0.4-0.2-0.6-0.2s-0.4,0.1-0.6,0.2
				c-0.1,0.1-0.2,0.3-0.2,0.4s0,0.3,0.1,0.4s0.2,0.2,0.3,0.2c0.1,0.1,0.3,0.1,0.5,0.2c0.3,0.1,0.5,0.1,0.6,0.2
				c0.2,0.1,0.3,0.2,0.4,0.3c0.1,0.1,0.2,0.3,0.2,0.5s-0.1,0.4-0.2,0.5c-0.1,0.2-0.3,0.3-0.5,0.4C124.4,90.6,124.1,90.6,123.9,90.6z
				 M128.1,85.9v4.7h-0.5v-4.7H128.1z M130.6,86.8c0.4,0,0.8,0.1,1.1,0.4s0.4,0.7,0.4,1.2v2.2h-0.5v-2.1c0-0.4-0.1-0.7-0.3-0.9
				c-0.2-0.2-0.5-0.3-0.8-0.3c-0.4,0-0.6,0.1-0.8,0.3c-0.2,0.2-0.3,0.6-0.3,1v2h-0.5v-3.7h0.5v0.6c0.1-0.2,0.3-0.4,0.5-0.5
				C130.1,86.9,130.4,86.8,130.6,86.8z M137.3,89.1l-0.9-2.5l-0.9,2.5H137.3z M137.5,89.5h-2.1l-0.4,1.1h-0.5l1.7-4.6h0.5l1.7,4.6
				h-0.5L137.5,89.5z M142.3,90.2c0.3,0,0.6-0.1,0.8-0.2c0.2-0.2,0.3-0.4,0.3-0.7c0-0.3-0.1-0.5-0.3-0.7s-0.5-0.3-0.8-0.3h-1.1v1.8
				L142.3,90.2L142.3,90.2z M141.2,88h1.1c0.3,0,0.6-0.1,0.7-0.2c0.2-0.1,0.3-0.4,0.3-0.6c0-0.3-0.1-0.5-0.3-0.6s-0.4-0.2-0.8-0.2
				h-1.1V88H141.2z M142.9,88.1c0.3,0,0.5,0.2,0.7,0.4c0.2,0.2,0.3,0.5,0.3,0.8c0,0.2-0.1,0.5-0.2,0.6c-0.1,0.2-0.3,0.3-0.5,0.5
				c-0.2,0.1-0.5,0.2-0.8,0.2h-1.6v-4.7h1.6c0.5,0,0.8,0.1,1.1,0.3c0.2,0.2,0.4,0.5,0.4,0.9c0,0.3-0.1,0.5-0.2,0.7
				C143.4,88,143.2,88.1,142.9,88.1z M144.9,86.9v3.7h-0.5v-3.7H144.9z M144.7,86.2c-0.1,0-0.2,0-0.2-0.1c-0.1-0.1-0.1-0.1-0.1-0.2
				s0-0.2,0.1-0.2c0.1-0.1,0.1-0.1,0.2-0.1c0.1,0,0.2,0,0.2,0.1c0.1,0.1,0.1,0.1,0.1,0.2s0,0.2-0.1,0.2
				C144.9,86.2,144.8,86.2,144.7,86.2z M146.4,87.3v2.3c0,0.2,0,0.4,0.1,0.5s0.2,0.1,0.5,0.1h0.4v0.4h-0.5c-0.3,0-0.6-0.1-0.7-0.2
				c-0.2-0.2-0.2-0.4-0.2-0.8v-2.3h-0.5v-0.4h0.5V86h0.5v0.9h1v0.4H146.4z M150.7,88.5c0-0.3-0.1-0.5-0.2-0.7
				c-0.1-0.2-0.3-0.3-0.5-0.4s-0.4-0.1-0.6-0.1c-0.3,0-0.6,0.1-0.9,0.3c-0.2,0.2-0.4,0.5-0.4,0.9C148.1,88.5,150.7,88.5,150.7,88.5z
				 M151.2,88.6c0,0.2,0,0.3,0,0.4h-3c0,0.3,0.1,0.5,0.2,0.7c0.1,0.2,0.3,0.3,0.5,0.4s0.4,0.2,0.6,0.2c0.3,0,0.6-0.1,0.8-0.2
				s0.3-0.3,0.4-0.6h0.5c-0.1,0.4-0.3,0.7-0.6,0.9c-0.3,0.2-0.7,0.3-1.1,0.3c-0.3,0-0.7-0.1-0.9-0.2c-0.3-0.2-0.5-0.4-0.6-0.7
				c-0.2-0.3-0.2-0.6-0.2-1s0.1-0.7,0.2-1c0.2-0.3,0.4-0.5,0.6-0.7c0.3-0.2,0.6-0.2,0.9-0.2c0.3,0,0.7,0.1,0.9,0.2
				c0.3,0.2,0.5,0.4,0.6,0.6C151.1,88,151.2,88.2,151.2,88.6z M78.9,70.6c3.8,0,5.7,1.5,5.7,4.5c0,3.3-1.8,4.4-4.6,4.4
				c-2.3,0-2.9-0.4-2.9-2.3v-6.7L78.9,70.6L78.9,70.6z M74.6,77.8c0,2.4-2.4,1.2-2.4,2.1c0,0.2,0.1,0.3,0.4,0.3
				c0.7,0,1.3-0.1,3.3-0.1c1.6,0,3.1,0.1,4.7,0.1c3.8,0,6.8-1.2,6.8-5.1c0-2.9-2.7-4.6-6.6-4.7v-0.1c3.5-0.2,5.8-1.6,5.8-4.2
				c0-2.4-1.9-4.5-6.5-4.5c-1.5,0-2.6,0.1-4.1,0.1c-2,0-2.7-0.1-3.3-0.1c-0.2,0-0.4,0.2-0.4,0.3c0,0.8,2.4-0.3,2.4,2.1v13.8H74.6z
				 M77.2,62.3h2.4c2.5,0,4.2,1.2,4.2,3.8c0,2.9-1.7,4.1-4.8,4.1h-1.9v-7.9H77.2z M92,60.3c-3.8,1.4-4.6,1-4.6,1.5
				c0,0.6,2.2-0.1,2.2,1.7v14.8c0,1.7-2,0.9-2,1.6c0,0.2,0.1,0.3,0.4,0.3c0.7,0,1.3-0.1,2.8-0.1s2.1,0.1,2.8,0.1
				c0.3,0,0.4-0.1,0.4-0.3c0-0.7-2,0.1-2-1.6C92,78.3,92,60.3,92,60.3z M97.2,65.7c1,0,1.5-0.6,1.5-1.5s-0.5-1.5-1.5-1.5
				s-1.5,0.6-1.5,1.5S96.2,65.7,97.2,65.7z M98.7,67.6c-3.8,1.4-4.5,1-4.5,1.5c0,0.6,2-0.1,2,1.7v7.5c0,1.7-2,0.9-2,1.6
				c0,0.2,0.1,0.3,0.4,0.3c0.7,0,1.3-0.1,2.8-0.1s2.1,0.1,2.8,0.1c0.3,0,0.4-0.1,0.4-0.3c0-0.7-2,0.1-2-1.6L98.7,67.6L98.7,67.6z
				 M101.4,71.1c0,4.1,7.1,3.7,7.1,6.5c0,1.1-0.7,2.3-2.3,2.3c-1.9,0-3.5-1.5-4.2-3.8c-0.2-0.7-0.3-0.8-0.5-0.8s-0.2,0.2-0.2,0.5v4
				c1.5,0.5,2.8,0.7,4.3,0.7c3.4,0,5-1.7,5-3.7c0-3.8-7.1-3.9-7.1-6.6c0-1.4,0.9-2,2-2c2.1,0,3,1.7,3.7,3.4c0.2,0.5,0.2,0.7,0.4,0.7
				c0.1,0,0.2-0.1,0.2-0.3v-3.5c-0.9-0.4-2.7-0.8-3.9-0.8C103,67.6,101.4,69.3,101.4,71.1z M111.6,71.1c0,4.1,7.1,3.7,7.1,6.5
				c0,1.1-0.7,2.3-2.3,2.3c-1.9,0-3.5-1.5-4.2-3.8c-0.2-0.7-0.3-0.8-0.5-0.8s-0.2,0.2-0.2,0.5v4c1.5,0.5,2.8,0.7,4.3,0.7
				c3.4,0,5-1.7,5-3.7c0-3.8-7.1-3.9-7.1-6.6c0-1.4,0.9-2,2-2c2.1,0,3,1.7,3.7,3.4c0.2,0.5,0.2,0.7,0.4,0.7c0.1,0,0.2-0.1,0.2-0.3
				v-3.5c-0.9-0.4-2.7-0.8-3.9-0.8C113.2,67.6,111.6,69.3,111.6,71.1z M132.2,70.9c3.8,0,5.7,1.5,5.7,4.5c0,3.3-1.8,4.4-4.6,4.4
				c-2.3,0-2.9-0.4-2.9-2.3v-6.7L132.2,70.9L132.2,70.9z M127.9,78.1c0,2.4-2.4,1.2-2.4,2.1c0,0.2,0.1,0.3,0.4,0.3
				c0.7,0,1.3-0.1,3.3-0.1c1.6,0,3.1,0.1,4.7,0.1c3.8,0,6.8-1.2,6.8-5.1c0-2.9-2.7-4.6-6.6-4.7v-0.1c3.5-0.2,5.8-1.6,5.8-4.2
				c0-2.4-1.9-4.5-6.5-4.5c-1.5,0-2.6,0.1-4.1,0.1c-2,0-2.7-0.1-3.3-0.1c-0.2,0-0.4,0.2-0.4,0.3c0,0.8,2.4-0.3,2.4,2.1L127.9,78.1
				L127.9,78.1z M130.5,62.6h2.4c2.5,0,4.2,1.2,4.2,3.8c0,2.9-1.7,4.1-4.8,4.1h-1.9v-7.9H130.5z M144.1,66c1,0,1.5-0.6,1.5-1.5
				s-0.5-1.5-1.5-1.5s-1.5,0.6-1.5,1.5S143.1,66,144.1,66z M145.5,67.8c-3.8,1.4-4.5,1-4.5,1.5c0,0.6,2-0.1,2,1.7v7.5
				c0,1.7-2,0.9-2,1.6c0,0.2,0.1,0.3,0.4,0.3c0.7,0,1.3-0.1,2.8-0.1s2.1,0.1,2.8,0.1c0.3,0,0.4-0.1,0.4-0.3c0-0.7-2,0.1-2-1.6V67.8
				H145.5z M155.5,68.1h-3.6v-4h-0.1c-0.7,2.2-2.1,4.1-4.2,5.3v0.1h1.8V77c0,2.3,1.1,3.6,3.2,3.6c2.7,0,3.8-2.1,3.8-2.4
				c0-0.1-0.1-0.2-0.2-0.2c-0.4,0-0.7,1.4-2.3,1.4c-1.3,0-2.1-0.5-2.1-2.3v-7.6h3.2L155.5,68.1z M167.6,73.6c0-2.9-1.7-5.8-5.3-5.8
				c-3.7,0-6.2,3.3-6.2,6.6c0,3.6,2.8,6.2,6,6.2c4.2,0,5.5-3.3,5.5-3.8c0-0.2-0.1-0.3-0.2-0.3c-0.3,0-0.4,0.7-1.4,1.4
				c-0.8,0.5-1.6,0.8-2.8,0.8c-3.4,0-4.6-2.4-4.6-5.1C158.6,73.6,167.6,73.6,167.6,73.6z M158.5,73c0.1-2.6,1.8-4.6,3.8-4.6
				c1.8,0,2.9,1.3,2.9,4.6H158.5z M168.7,71.3c0,4.1,7.1,3.7,7.1,6.5c0,1.1-0.7,2.3-2.3,2.3c-1.9,0-3.5-1.5-4.2-3.8
				c-0.2-0.7-0.3-0.8-0.5-0.8s-0.2,0.2-0.2,0.5v4c1.5,0.5,2.8,0.7,4.3,0.7c3.4,0,5-1.7,5-3.7c0-3.8-7.1-3.9-7.1-6.6c0-1.4,0.9-2,2-2
				c2.1,0,3,1.7,3.7,3.4c0.2,0.5,0.2,0.7,0.4,0.7c0.1,0,0.2-0.1,0.2-0.3v-3.5c-0.9-0.4-2.7-0.8-3.9-0.8
				C170.3,67.8,168.7,69.5,168.7,71.3z M131.8,52.4h-13.5h-11.7c-16.3,0-17.9-21.7-2.7-24c-13.2-2.8-12.7-19,5.6-19h8.9h13.5h8.9
				c18.2,0,18.7,16.2,5.6,19c15.2,2.3,13.6,24-2.7,24H131.8z"/>
		</defs>
		<use xlink:href="#SVGID_1_"  style="overflow:visible;fill:#FFFFFF;"/>
		<clipPath id="SVGID_00000096778622686061123590000012904578794529903750_">
			<use xlink:href="#SVGID_1_"  style="overflow:visible;"/>
		</clipPath>
		<g style="clip-path:url(#SVGID_00000096778622686061123590000012904578794529903750_);">
			<g>
				
					<rect id="SVGID_00000156571285423609384050000000629834096988043705_" x="-87.7" y="-17.3" class="st1" width="318.4" height="212.3"/>
			</g>
		</g>
	</g>
</g>
</svg>
