<svg xmlns="http://www.w3.org/2000/svg" width="37.854" height="6.721" viewBox="0 0 37.854 6.721">
    <defs>
        <clipPath id="e30x01lvqa">
            <path data-name="Rectangle 130" style="fill:none" d="M0 0h37.854v6.721H0z"/>
        </clipPath>
    </defs>
    <g data-name="Group 207">
        <g data-name="Group 206" style="clip-path:url(#e30x01lvqa)">
            <path data-name="Path 644" d="M14.489 1.939a.747.747 0 0 1-.065.286 1.064 1.064 0 0 1-.562.542 1.286 1.286 0 0 1-.505.092 1.8 1.8 0 0 1-.4-.041 1.074 1.074 0 0 1-.6-.36 1.428 1.428 0 0 1-.187-.292 1.546 1.546 0 0 1-.115-.344 1.856 1.856 0 0 1-.039-.388 1.717 1.717 0 0 1 .1-.6 1.289 1.289 0 0 1 .284-.45A1.215 1.215 0 0 1 12.824.1a1.362 1.362 0 0 1 .519-.1 1.3 1.3 0 0 1 .6.133 1.092 1.092 0 0 1 .4.331.663.663 0 0 1 .139.373.236.236 0 0 1-.068.169.212.212 0 0 1-.164.074.225.225 0 0 1-.161-.051.7.7 0 0 1-.12-.175.854.854 0 0 0-.257-.308.638.638 0 0 0-.366-.1.657.657 0 0 0-.546.262 1.182 1.182 0 0 0-.2.745 1.389 1.389 0 0 0 .09.536.687.687 0 0 0 .256.32.715.715 0 0 0 .389.105.673.673 0 0 0 .408-.12.725.725 0 0 0 .252-.351.58.58 0 0 1 .089-.178.2.2 0 0 1 .169-.069.236.236 0 0 1 .172.07.23.23 0 0 1 .072.173" style="fill:#005768"/>
            <path data-name="Path 645" d="M15.556.339v.792h1.209V.339a.367.367 0 0 1 .076-.254.256.256 0 0 1 .2-.085.264.264 0 0 1 .2.084.359.359 0 0 1 .079.255v2.178a.366.366 0 0 1-.08.257.266.266 0 0 1-.2.085.256.256 0 0 1-.2-.086.382.382 0 0 1-.075-.256v-.929h-1.209v.929a.366.366 0 0 1-.079.257.267.267 0 0 1-.2.085.254.254 0 0 1-.2-.086.382.382 0 0 1-.077-.256V.339a.372.372 0 0 1 .075-.254.254.254 0 0 1 .2-.085.265.265 0 0 1 .2.084.359.359 0 0 1 .078.255" style="fill:#005768"/>
            <path data-name="Path 646" d="M19.747.479h-1.262v.679h1.162a.281.281 0 0 1 .192.057.2.2 0 0 1 .062.152.2.2 0 0 1-.061.154.27.27 0 0 1-.193.059h-1.162v.787h1.306a.283.283 0 0 1 .2.061.21.21 0 0 1 .068.163.206.206 0 0 1-.068.159.283.283 0 0 1-.2.062h-1.523a.353.353 0 0 1-.262-.082.359.359 0 0 1-.08-.262V.391a.452.452 0 0 1 .036-.2.218.218 0 0 1 .111-.111.479.479 0 0 1 .195-.035h1.479a.287.287 0 0 1 .2.06.2.2 0 0 1 .065.155.205.205 0 0 1-.065.158.292.292 0 0 1-.2.059" style="fill:#005768"/>
            <path data-name="Path 647" d="M22.153.479h-1.1v.707h.922a.281.281 0 0 1 .192.058.2.2 0 0 1 .063.153.194.194 0 0 1-.064.153.281.281 0 0 1-.191.056h-.925v.912a.368.368 0 0 1-.078.257.284.284 0 0 1-.4 0 .368.368 0 0 1-.078-.256V.391a.483.483 0 0 1 .036-.2.224.224 0 0 1 .112-.111.481.481 0 0 1 .2-.035h1.319a.284.284 0 0 1 .2.06.2.2 0 0 1 .066.155.206.206 0 0 1-.066.158.288.288 0 0 1-.2.059" style="fill:#005768"/>
            <path data-name="Path 648" d="M23.2 1.032h-.391l-.1-.519V.048h.578v.465z" style="fill:#005768"/>
            <path data-name="Path 649" d="M25.862 1.982a.816.816 0 0 1-.129.451.871.871 0 0 1-.379.313 1.418 1.418 0 0 1-.59.113 1.323 1.323 0 0 1-.674-.159.9.9 0 0 1-.307-.3.679.679 0 0 1-.118-.361.246.246 0 0 1 .251-.247.213.213 0 0 1 .15.057.445.445 0 0 1 .1.168 1.122 1.122 0 0 0 .114.22.46.46 0 0 0 .172.146.644.644 0 0 0 .293.058.661.661 0 0 0 .4-.116.349.349 0 0 0 .155-.29.306.306 0 0 0-.084-.223.533.533 0 0 0-.217-.131 5.215 5.215 0 0 0-.355-.1 2.592 2.592 0 0 1-.5-.164.8.8 0 0 1-.319-.254.665.665 0 0 1-.118-.4.687.687 0 0 1 .124-.406.794.794 0 0 1 .369-.262A1.484 1.484 0 0 1 24.757 0a1.348 1.348 0 0 1 .44.064.928.928 0 0 1 .309.167.683.683 0 0 1 .178.22.5.5 0 0 1 .057.224.273.273 0 0 1-.07.181.229.229 0 0 1-.177.08.2.2 0 0 1-.146-.049.631.631 0 0 1-.108-.157.715.715 0 0 0-.182-.244.524.524 0 0 0-.339-.086.588.588 0 0 0-.349.095.278.278 0 0 0-.134.229.236.236 0 0 0 .046.144.377.377 0 0 0 .124.1.817.817 0 0 0 .16.068c.055.017.144.041.269.072a4.382 4.382 0 0 1 .423.121 1.308 1.308 0 0 1 .322.16.662.662 0 0 1 .208.238.775.775 0 0 1 .074.354" style="fill:#005768"/>
            <path data-name="Path 650" d="M.756 5.492H.56v.888a.367.367 0 0 1-.078.258.262.262 0 0 1-.2.083.258.258 0 0 1-.208-.087A.381.381 0 0 1 0 6.38V4.253a.359.359 0 0 1 .081-.262.356.356 0 0 1 .262-.081h.911a2.685 2.685 0 0 1 .322.016.769.769 0 0 1 .241.065.694.694 0 0 1 .231.156.686.686 0 0 1 .151.237.779.779 0 0 1 .052.285.691.691 0 0 1-.174.494 1 1 0 0 1-.529.263 1.02 1.02 0 0 1 .285.233 2.485 2.485 0 0 1 .242.329 2.452 2.452 0 0 1 .166.315.646.646 0 0 1 .059.197.194.194 0 0 1-.036.108.238.238 0 0 1-.1.085.306.306 0 0 1-.139.031.278.278 0 0 1-.159-.044.439.439 0 0 1-.11-.113 3.285 3.285 0 0 1-.125-.2l-.225-.374a2 2 0 0 0-.206-.315.534.534 0 0 0-.2-.147.677.677 0 0 0-.247-.039m.324-1.162H.56v.76h.5a1.421 1.421 0 0 0 .34-.035.4.4 0 0 0 .21-.119.344.344 0 0 0 .073-.236.358.358 0 0 0-.058-.2.344.344 0 0 0-.162-.13 1.153 1.153 0 0 0-.386-.042" style="fill:#005768"/>
            <path data-name="Path 651" d="M4.6 4.341H3.34v.679H4.5a.276.276 0 0 1 .191.057.2.2 0 0 1 .062.152.2.2 0 0 1-.061.154.268.268 0 0 1-.192.059H3.34v.787h1.307a.286.286 0 0 1 .2.061.209.209 0 0 1 .067.163.2.2 0 0 1-.067.159.286.286 0 0 1-.2.062H3.123a.355.355 0 0 1-.262-.082.359.359 0 0 1-.08-.262V4.253a.451.451 0 0 1 .037-.2.217.217 0 0 1 .11-.111.479.479 0 0 1 .195-.035H4.6a.284.284 0 0 1 .2.06.2.2 0 0 1 .065.155.2.2 0 0 1-.065.158.288.288 0 0 1-.2.059" style="fill:#005768"/>
            <path data-name="Path 652" d="M7.713 5.8a.747.747 0 0 1-.065.286 1.064 1.064 0 0 1-.562.542 1.286 1.286 0 0 1-.505.092 1.8 1.8 0 0 1-.4-.041 1.073 1.073 0 0 1-.595-.36 1.428 1.428 0 0 1-.186-.292 1.546 1.546 0 0 1-.115-.344 1.856 1.856 0 0 1-.037-.383 1.717 1.717 0 0 1 .1-.6 1.289 1.289 0 0 1 .278-.452 1.215 1.215 0 0 1 .425-.285 1.362 1.362 0 0 1 .519-.1 1.3 1.3 0 0 1 .6.133 1.092 1.092 0 0 1 .4.331.663.663 0 0 1 .13.373.236.236 0 0 1-.068.169.212.212 0 0 1-.164.074.225.225 0 0 1-.161-.051.7.7 0 0 1-.12-.175.854.854 0 0 0-.257-.308.638.638 0 0 0-.366-.1.657.657 0 0 0-.548.262 1.182 1.182 0 0 0-.2.745 1.389 1.389 0 0 0 .09.536.687.687 0 0 0 .256.32.715.715 0 0 0 .389.105.673.673 0 0 0 .408-.12.725.725 0 0 0 .252-.357.58.58 0 0 1 .089-.174.2.2 0 0 1 .169-.069.236.236 0 0 1 .172.07.23.23 0 0 1 .072.173" style="fill:#005768"/>
            <path data-name="Path 653" d="M9.431 3.862a1.467 1.467 0 0 1 .739.175 1.132 1.132 0 0 1 .467.5 1.683 1.683 0 0 1 .158.755 1.809 1.809 0 0 1-.088.582 1.226 1.226 0 0 1-.259.455 1.143 1.143 0 0 1-.425.294 1.543 1.543 0 0 1-.58.1 1.511 1.511 0 0 1-.58-.105 1.154 1.154 0 0 1-.429-.3 1.294 1.294 0 0 1-.26-.458 1.924 1.924 0 0 1-.087-.579 1.784 1.784 0 0 1 .092-.581 1.242 1.242 0 0 1 .265-.453 1.141 1.141 0 0 1 .422-.286 1.522 1.522 0 0 1 .565-.1m.8 1.422a1.286 1.286 0 0 0-.1-.526.742.742 0 0 0-.281-.337.775.775 0 0 0-.418-.114.759.759 0 0 0-.309.063.672.672 0 0 0-.245.185.856.856 0 0 0-.162.308 1.347 1.347 0 0 0-.059.421 1.384 1.384 0 0 0 .059.426.842.842 0 0 0 .167.316.726.726 0 0 0 .248.188.768.768 0 0 0 .309.062.728.728 0 0 0 .683-.44 1.279 1.279 0 0 0 .105-.552" style="fill:#005768"/>
            <path data-name="Path 654" d="M12.207 6.257 11.764 4.5v1.9a.346.346 0 0 1-.071.237.259.259 0 0 1-.373 0 .34.34 0 0 1-.071-.238V4.216a.275.275 0 0 1 .094-.244.454.454 0 0 1 .255-.063h.173a.654.654 0 0 1 .229.029.186.186 0 0 1 .1.1 1.687 1.687 0 0 1 .078.24l.4 1.514.4-1.514a1.687 1.687 0 0 1 .078-.24.187.187 0 0 1 .1-.1.66.66 0 0 1 .228-.029h.173a.448.448 0 0 1 .254.063.273.273 0 0 1 .1.244V6.4a.346.346 0 0 1-.07.237.244.244 0 0 1-.19.08.235.235 0 0 1-.183-.08.341.341 0 0 1-.068-.237V4.5l-.443 1.761c-.028.114-.053.2-.07.251a.339.339 0 0 1-.1.146.292.292 0 0 1-.2.067.3.3 0 0 1-.271-.151.613.613 0 0 1-.06-.146l-.044-.167" style="fill:#005768"/>
            <path data-name="Path 655" d="M15.424 6.257 14.981 4.5v1.9a.346.346 0 0 1-.071.237.259.259 0 0 1-.373 0 .34.34 0 0 1-.071-.238V4.216a.275.275 0 0 1 .094-.244.454.454 0 0 1 .255-.063h.173a.654.654 0 0 1 .227.029.186.186 0 0 1 .1.1 1.687 1.687 0 0 1 .078.24l.4 1.514.4-1.514a1.687 1.687 0 0 1 .078-.24.187.187 0 0 1 .1-.1.66.66 0 0 1 .228-.029h.173a.448.448 0 0 1 .254.063.273.273 0 0 1 .095.244V6.4a.346.346 0 0 1-.07.237.244.244 0 0 1-.19.08.235.235 0 0 1-.183-.08.341.341 0 0 1-.072-.237V4.5l-.443 1.761c-.028.114-.053.2-.07.251a.339.339 0 0 1-.1.146.292.292 0 0 1-.2.067.3.3 0 0 1-.271-.151.613.613 0 0 1-.06-.146l-.044-.167" style="fill:#005768"/>
            <path data-name="Path 656" d="M19.528 4.341h-1.262v.679h1.162a.281.281 0 0 1 .192.057.2.2 0 0 1 .062.152.2.2 0 0 1-.061.154.27.27 0 0 1-.193.059h-1.162v.787h1.306a.283.283 0 0 1 .2.061.21.21 0 0 1 .068.163.206.206 0 0 1-.068.159.283.283 0 0 1-.2.062h-1.523a.353.353 0 0 1-.262-.082.359.359 0 0 1-.08-.262V4.253a.452.452 0 0 1 .036-.2.218.218 0 0 1 .111-.111.479.479 0 0 1 .195-.035h1.479a.287.287 0 0 1 .2.06.2.2 0 0 1 .065.155.205.205 0 0 1-.065.158.292.292 0 0 1-.2.059" style="fill:#005768"/>
            <path data-name="Path 657" d="m21.013 4.2 1.077 1.627V4.183a.363.363 0 0 1 .069-.241.231.231 0 0 1 .185-.08.237.237 0 0 1 .19.08.357.357 0 0 1 .071.241v2.174c0 .242-.1.364-.3.364a.384.384 0 0 1-.136-.022.328.328 0 0 1-.113-.069.656.656 0 0 1-.1-.11l-.09-.129-1.051-1.61V6.4a.347.347 0 0 1-.073.239.241.241 0 0 1-.189.082.238.238 0 0 1-.19-.082.352.352 0 0 1-.072-.239V4.268a.587.587 0 0 1 .031-.214.3.3 0 0 1 .118-.138.321.321 0 0 1 .179-.054.3.3 0 0 1 .129.025.285.285 0 0 1 .094.066.633.633 0 0 1 .083.107l.088.138" style="fill:#005768"/>
            <path data-name="Path 658" d="M23.563 3.909h.73a1.987 1.987 0 0 1 .489.053.886.886 0 0 1 .369.2 1.4 1.4 0 0 1 .432 1.124 2.266 2.266 0 0 1-.043.454 1.386 1.386 0 0 1-.134.37 1.164 1.164 0 0 1-.232.3.988.988 0 0 1-.244.16 1.129 1.129 0 0 1-.284.085 2.191 2.191 0 0 1-.342.024h-.729a.46.46 0 0 1-.231-.046.213.213 0 0 1-.1-.13.811.811 0 0 1-.024-.218V4.252a.361.361 0 0 1 .08-.262.361.361 0 0 1 .262-.081m.217.443v1.876h.421c.093 0 .166 0 .219-.007a.7.7 0 0 0 .164-.038.432.432 0 0 0 .146-.085 1.02 1.02 0 0 0 .281-.818 1.2 1.2 0 0 0-.124-.613.546.546 0 0 0-.3-.259 1.509 1.509 0 0 0-.438-.056z" style="fill:#005768"/>
            <path data-name="Path 659" d="m27.843 6.361-.131-.348h-1.124l-.132.355a1.256 1.256 0 0 1-.132.28.211.211 0 0 1-.18.073.261.261 0 0 1-.186-.078.236.236 0 0 1-.081-.175.376.376 0 0 1 .019-.117c.012-.04.033-.1.062-.168l.707-1.8.073-.186a.9.9 0 0 1 .09-.179.367.367 0 0 1 .127-.117.388.388 0 0 1 .193-.044.392.392 0 0 1 .194.044.371.371 0 0 1 .127.115.721.721 0 0 1 .081.15c.022.053.05.124.084.214l.722 1.783a.892.892 0 0 1 .085.3.24.24 0 0 1-.08.176.263.263 0 0 1-.193.081.252.252 0 0 1-.114-.024.245.245 0 0 1-.079-.064.58.58 0 0 1-.068-.124 6.818 6.818 0 0 1-.064-.148m-1.108-.768h.825l-.416-1.141z" style="fill:#005768"/>
            <path data-name="Path 660" d="M30.647 4.371h-.611v2.008a.375.375 0 0 1-.077.258.282.282 0 0 1-.4 0 .369.369 0 0 1-.078-.257V4.371h-.611a.312.312 0 0 1-.213-.063.217.217 0 0 1-.07-.167.214.214 0 0 1 .073-.17.317.317 0 0 1 .21-.062h1.78a.317.317 0 0 1 .216.064.218.218 0 0 1 .071.168.211.211 0 0 1-.072.167.317.317 0 0 1-.215.063" style="fill:#005768"/>
            <path data-name="Path 661" d="M31.289 6.379V4.2a.367.367 0 0 1 .077-.255.261.261 0 0 1 .2-.085.267.267 0 0 1 .2.084.364.364 0 0 1 .08.256v2.179a.362.362 0 0 1-.08.256.28.28 0 0 1-.4 0 .367.367 0 0 1-.078-.255" style="fill:#005768"/>
            <path data-name="Path 662" d="M33.69 3.862a1.465 1.465 0 0 1 .738.175 1.121 1.121 0 0 1 .467.5 1.683 1.683 0 0 1 .158.755 1.81 1.81 0 0 1-.087.582 1.254 1.254 0 0 1-.259.455 1.146 1.146 0 0 1-.426.294 1.538 1.538 0 0 1-.579.1 1.52 1.52 0 0 1-.581-.105 1.15 1.15 0 0 1-.428-.3 1.279 1.279 0 0 1-.26-.458 1.893 1.893 0 0 1-.087-.579 1.811 1.811 0 0 1 .091-.584 1.258 1.258 0 0 1 .266-.453 1.133 1.133 0 0 1 .422-.286 1.518 1.518 0 0 1 .565-.1m.8 1.422a1.286 1.286 0 0 0-.1-.526.734.734 0 0 0-.28-.337.78.78 0 0 0-.418-.114.752.752 0 0 0-.309.063.675.675 0 0 0-.246.185.872.872 0 0 0-.162.308 1.377 1.377 0 0 0-.059.421 1.415 1.415 0 0 0 .059.426.872.872 0 0 0 .167.316.72.72 0 0 0 .249.188.765.765 0 0 0 .309.062.728.728 0 0 0 .682-.44 1.279 1.279 0 0 0 .106-.552" style="fill:#005768"/>
            <path data-name="Path 663" d="m36.263 4.2 1.077 1.627V4.183a.363.363 0 0 1 .069-.241.231.231 0 0 1 .185-.08.237.237 0 0 1 .19.08.357.357 0 0 1 .071.241v2.174c0 .242-.1.364-.3.364a.384.384 0 0 1-.136-.022.328.328 0 0 1-.119-.069.656.656 0 0 1-.1-.11l-.09-.129-1.051-1.61V6.4a.347.347 0 0 1-.073.239.241.241 0 0 1-.189.082.238.238 0 0 1-.19-.082.352.352 0 0 1-.072-.239V4.268a.587.587 0 0 1 .031-.214.3.3 0 0 1 .118-.138.321.321 0 0 1 .179-.054.3.3 0 0 1 .137.025.285.285 0 0 1 .094.066.633.633 0 0 1 .083.107l.088.138" style="fill:#005768"/>
        </g>
    </g>
</svg>
