<?xml version="1.0" encoding="UTF-8"?><svg id="Layer_2" xmlns="http://www.w3.org/2000/svg" viewBox="0 0 16.69 16.69"><defs><style>.cls-1{fill:#005768;}</style></defs><g id="Layer_1-2"><g><path class="cls-1" d="M8.39,16.69C3.78,16.71,.02,12.99,0,8.39-.02,3.78,3.69,.02,8.3,0c4.61-.02,8.36,3.69,8.39,8.3v.04c0,4.59-3.71,8.33-8.3,8.34M8.39,.39C3.99,.36,.41,3.91,.39,8.3c-.02,4.4,3.52,7.98,7.92,8,4.4,.02,7.98-3.52,8-7.92v-.04c0-4.38-3.53-7.94-7.92-7.96"/><path class="cls-1" d="M6.58,8.06c-.05,0-.1-.02-.14-.05-.43-.3-.7-.79-.7-1.32v-1.33c0-.09,.05-.17,.12-.22,.08-.05,.17-.05,.25,0l1.81,1.03c.44,.3,.71,.8,.72,1.33,.02,.14-.08,.26-.22,.28-.14,.02-.26-.08-.28-.22,0-.02,0-.04,0-.06,0-.36-.18-.7-.48-.9l-1.42-.81v.9c0,.36,.18,.7,.48,.9,.11,.08,.14,.24,.06,.35-.05,.07-.12,.11-.21,.11"/><path class="cls-1" d="M6.12,9.63c-.1,0-.19-.06-.23-.14-.1-.22-.16-.45-.16-.69v-1.33c0-.14,.11-.25,.25-.25,.04,0,.09,.01,.13,.03l1.72,.98c.12,.07,.16,.22,.1,.35-.07,.12-.22,.16-.34,.1h0l-1.35-.77v.9c0,.16,.04,.32,.11,.47,.06,.12,.01,.28-.11,.34-.03,.02-.07,.03-.11,.03"/><path class="cls-1" d="M8.39,11.2s-.09-.01-.12-.03l-1.16-.66c-.12-.07-.16-.22-.09-.35,.07-.12,.22-.17,.34-.1h0l.78,.45v-.9c-.02-.14,.08-.26,.22-.28s.26,.08,.28,.22c0,.02,0,.04,0,.06v1.33c0,.14-.1,.26-.24,.26h0"/><path class="cls-1" d="M8.39,13.3s-.09-.01-.12-.03l-1.81-1.03c-.41-.28-.67-.73-.71-1.22-.02-.14,.07-.27,.2-.29,.14-.02,.27,.07,.29,.2,0,.02,0,.03,0,.05,.03,.33,.2,.64,.48,.83l1.41,.81v-.9c0-.36-.18-.7-.48-.9-.11-.08-.14-.24-.06-.35,.08-.11,.23-.14,.35-.07h0c.43,.3,.7,.79,.7,1.32v1.33c0,.14-.11,.25-.25,.25h0"/><path class="cls-1" d="M5.99,6.04c-.14,0-.25-.11-.25-.25h0v-1.46c-.02-.14,.08-.26,.22-.28,.14-.02,.26,.08,.28,.22,0,.02,0,.04,0,.06v1.46c0,.14-.11,.25-.25,.25h0"/><path class="cls-1" d="M8.39,8.32c-.14,0-.25-.11-.25-.25h0v-.56c0-.53,.26-1.02,.69-1.32l1.83-1.05c.08-.05,.17-.05,.25,0,.08,.05,.13,.13,.13,.22v1.31c0,.14-.11,.25-.25,.25-.14,0-.25-.11-.25-.25h0v-.87l-1.43,.82c-.29,.21-.46,.54-.46,.89v.56c0,.14-.11,.25-.25,.25h0"/><path class="cls-1" d="M8.39,11.2c-.14,0-.25-.11-.25-.25h0v-1.34c-.02-.14,.08-.26,.22-.28s.26,.08,.28,.22c0,.02,0,.04,0,.06v.9l1.43-.82c.29-.21,.46-.54,.46-.89v-.58c0-.14,.11-.25,.25-.25,.14,0,.25,.11,.25,.25h0v.58c0,.53-.27,1.02-.7,1.32l-1.82,1.05s-.08,.03-.12,.03"/><path class="cls-1" d="M8.39,13.3c-.14,0-.25-.11-.25-.25v-1.33c0-.53,.26-1.02,.7-1.32l1.83-1.05c.12-.07,.27-.03,.34,.1,.02,.04,.03,.08,.03,.13v1.33c0,.53-.27,1.02-.7,1.32l-1.83,1.05s-.08,.03-.12,.03m2.14-3.29l-1.43,.82c-.29,.21-.46,.54-.46,.89v.9l1.43-.81c.29-.21,.46-.54,.46-.89v-.9Z"/><path class="cls-1" d="M10.79,6.04c-.14,0-.25-.11-.25-.25h0v-1.46c-.02-.14,.08-.26,.22-.28,.14-.02,.26,.08,.28,.22,0,.02,0,.04,0,.06v1.46c0,.14-.11,.25-.25,.25h0"/><path class="cls-1" d="M8.39,7.24c-.14,0-.25-.11-.25-.25h0V3.64c-.02-.14,.08-.26,.22-.28s.26,.08,.28,.22c0,.02,0,.04,0,.06v3.36c0,.14-.11,.25-.25,.25h0"/><path class="cls-1" d="M3.13,12.14c-.09,0-.17-.05-.22-.13-.07-.12-.03-.28,.09-.35L13.52,5.56c.12-.07,.27-.03,.34,.09h0c.07,.12,.03,.27-.09,.34L3.25,12.11s-.08,.03-.13,.03"/></g></g></svg>