<svg xmlns="http://www.w3.org/2000/svg" width="22.342" height="22.457" viewBox="0 0 22.342 22.457">
    <defs>
        <clipPath id="dna7it085a">
            <path data-name="Rectangle 120" style="fill:none" d="M0 0h22.342v22.457H0z"/>
        </clipPath>
    </defs>
    <g data-name="Group 186">
        <g data-name="Group 172" style="clip-path:url(#dna7it085a)">
            <path data-name="Path 416" d="M11.17 22.457a11.228 11.228 0 1 1 11.172-11.229A11.212 11.212 0 0 1 11.17 22.457" style="fill:#e7c063"/>
            <path data-name="Path 417" d="m9.592 10.684-1.715-1.5 1.715-1.5V4.758c0-.428-.334-.7-.864-.7h-1.7c-3.377 0-4.1 5.075-.825 5.075h.746V9.3h-.316c-3.4 0-4.124 6.414-.825 6.414h2.92c.53 0 .864-.275.864-.7zm3.682-1.5-1.713 1.479v4.346c0 .429.334.7.864.7h2.919c3.3 0 2.572-6.414-.825-6.414h-.314V9.13h.746c3.28 0 2.553-5.075-.824-5.075h-1.7c-.53 0-.864.275-.864.7V7.7zm-.81 6.7H5.416c-4.556 0-5.008-6.054-.766-6.7-3.671-.789-3.534-5.3 1.55-5.3h8.751c5.086 0 5.223 4.51 1.552 5.3 4.241.651 3.789 6.7-.766 6.7z" transform="translate(.594 1.342)" style="fill:#00687b;fill-rule:evenodd"/>
        </g>
    </g>
</svg>
