<svg xmlns="http://www.w3.org/2000/svg" width="27" height="24" viewBox="0 0 27 24">
    <g data-name="Group 205">
        <path data-name="Polygon 2" d="m13.5 0 4.05 8.057L27 9.167l-6.947 6.09L21.843 24 13.5 19.707 5.157 24l1.79-8.743L0 9.167l9.45-1.11z" style="fill:#e7c063"/>
        <g data-name="Group 195">
            <g data-name="Group 188">
                <path data-name="Path 417" d="M8.4 9.651 6.943 8.382 8.4 7.107V4.625c0-.363-.283-.6-.733-.6H6.22c-2.864 0-3.481 4.3-.7 4.3h.632v.145h-.265c-2.881 0-3.5 5.441-.7 5.441h2.477c.45 0 .733-.233.733-.6zm3.123-1.269-1.455 1.255v3.686c0 .364.283.6.733.6h2.476c2.8 0 2.182-5.441-.7-5.441h-.266v-.148h.632c2.782 0 2.166-4.3-.7-4.3H10.8c-.45 0-.733.233-.733.6v2.5zm-.687 5.683H4.855a2.863 2.863 0 0 1-.65-5.687c-3.114-.669-3-4.494 1.315-4.494h7.423c4.314 0 4.431 3.825 1.316 4.494a2.863 2.863 0 0 1-.65 5.687z" transform="translate(4.394 4.562)" style="fill:#00687b;fill-rule:evenodd"/>
            </g>
        </g>
    </g>
</svg>
