<svg xmlns="http://www.w3.org/2000/svg" width="16.601" height="16.686" viewBox="0 0 16.601 16.686">
    <defs>
        <clipPath id="6965n81gva">
            <path data-name="Rectangle 125" style="fill:#045768" d="M0 0h16.601v16.686H0z"/>
        </clipPath>
    </defs>
    <g data-name="Group 183">
        <g data-name="Group 182" style="clip-path:url(#6965n81gva)">
            <path data-name="Path 442" d="M8.3 16.686a8.343 8.343 0 1 1 8.3-8.343 8.331 8.331 0 0 1-8.3 8.343m0-16.3a7.958 7.958 0 1 0 7.917 7.958A7.945 7.945 0 0 0 8.3.385" style="fill:#045768"/>
            <path data-name="Path 443" d="M2.761 12.689a.256.256 0 0 1-.127-.477l11.078-6.43a.256.256 0 0 1 .255.444L2.888 12.655a.255.255 0 0 1-.127.034" style="fill:#045768"/>
            <path data-name="Path 444" d="M11 13.351a.246.246 0 0 1-.126-.034l-2.343-1.358a.257.257 0 0 1-.093-.349.254.254 0 0 1 .348-.094L11 12.8l2.085-1.21V9.17l-1.572-.912a.258.258 0 0 1-.093-.35.255.255 0 0 1 .348-.094l1.7.987a.252.252 0 0 1 .127.221v2.716a.253.253 0 0 1-.127.221l-2.34 1.358a.247.247 0 0 1-.127.034" style="fill:#045768"/>
            <path data-name="Path 445" d="M11 13.351a.255.255 0 0 1-.253-.256v-2.567l-1.575-.913a.257.257 0 0 1-.094-.349.254.254 0 0 1 .349-.094l1.7.986a.254.254 0 0 1 .127.222v2.72a.255.255 0 0 1-.254.256" style="fill:#045768"/>
            <path data-name="Path 446" d="M11 10.636a.256.256 0 0 1-.127-.477L13.211 8.8a.256.256 0 0 1 .255.443l-2.34 1.357a.255.255 0 0 1-.127.034" style="fill:#045768"/>
            <path data-name="Path 447" d="M6.319 7.92a.255.255 0 0 1-.254-.256V4.949a.256.256 0 0 1 .127-.222L8.531 3.37a.253.253 0 0 1 .255 0l2.339 1.357a.257.257 0 0 1 .128.222v1.939a.255.255 0 1 1-.509 0V5.1L8.659 3.886 6.573 5.1v2.564a.255.255 0 0 1-.254.256" style="fill:#045768"/>
            <path data-name="Path 448" d="M8.659 8.5a.255.255 0 0 1-.259-.255V6.454L6.192 5.17a.256.256 0 0 1 .255-.443l2.339 1.358a.254.254 0 0 1 .127.221v1.939a.255.255 0 0 1-.254.256" style="fill:#045768"/>
            <path data-name="Path 449" d="M8.659 6.562a.256.256 0 0 1-.127-.477l2.339-1.358a.256.256 0 0 1 .255.443l-2.34 1.358a.255.255 0 0 1-.127.034" style="fill:#045768"/>
            <path data-name="Path 450" d="M3.98 11.217a.255.255 0 0 1-.254-.256V9.022a.255.255 0 0 1 .127-.222l2.34-1.358a.253.253 0 0 1 .254 0l1.67.97a.256.256 0 0 1 .093.349.254.254 0 0 1-.348.094L6.32 7.96 4.234 9.17v1.791a.255.255 0 0 1-.254.256" style="fill:#045768"/>
            <path data-name="Path 451" d="M6.319 13.351a.249.249 0 0 1-.127-.034l-1.7-.986a.258.258 0 0 1-.093-.35.254.254 0 0 1 .348-.093l1.572.912L8.4 11.59V9.765a.255.255 0 1 1 .509 0v1.973a.255.255 0 0 1-.127.221l-2.34 1.358a.249.249 0 0 1-.127.034" style="fill:#045768"/>
            <path data-name="Path 452" d="M6.319 13.351a.255.255 0 0 1-.254-.256v-1.972a.254.254 0 1 1 .508 0V13.1a.255.255 0 0 1-.254.256" style="fill:#045768"/>
            <path data-name="Path 453" d="M5.649 10.248a.251.251 0 0 1-.126-.034l-1.671-.97A.254.254 0 0 1 3.76 8.9a.251.251 0 0 1 .346-.1l1.67.97a.255.255 0 0 1-.127.477" style="fill:#045768"/>
        </g>
    </g>
</svg>
