<svg xmlns="http://www.w3.org/2000/svg" width="16.601" height="16.686" viewBox="0 0 16.601 16.686">
    <defs>
        <clipPath id="iy38elnfka">
            <path data-name="Rectangle 123" style="fill:#045768" d="M0 0h16.601v16.686H0z"/>
        </clipPath>
    </defs>
    <g data-name="Group 179">
        <g data-name="Group 178" style="clip-path:url(#iy38elnfka)">
            <path data-name="Path 426" d="M8.3 16.686a8.343 8.343 0 1 1 8.3-8.343 8.331 8.331 0 0 1-8.3 8.343m0-16.3a7.958 7.958 0 1 0 7.917 7.958A7.945 7.945 0 0 0 8.3.385" style="fill:#045768"/>
            <path data-name="Path 427" d="M13.922 7.008a1.374 1.374 0 0 0-.177-.39l.016-.048a.87.87 0 0 0-.18-.922A3.218 3.218 0 0 0 13.9 3.8a.894.894 0 0 0-.311-.562.148.148 0 0 0-.1-.025l-.379.03a.149.149 0 0 0-.131.191c.009.032.021.066.035.105a1.968 1.968 0 0 1-.24 1.806.749.749 0 0 0-.664.487 1.388 1.388 0 0 0-.983.414 6.248 6.248 0 0 0-.878 1.107c-.118.173-.24.352-.363.516a10.108 10.108 0 0 1-2.6 2.6A9.443 9.443 0 0 1 3 11.928a.381.381 0 0 0-.36.256.457.457 0 0 0 .211.465 4.972 4.972 0 0 0 2.949.821h.032a8.563 8.563 0 0 0 4.751-1.539 11.333 11.333 0 0 0 1.9-1.556 6.451 6.451 0 0 0 1.049-1.41 2.683 2.683 0 0 0 .389-1.957m-3.5 4.673a8.272 8.272 0 0 1-4.587 1.49H5.8a4.726 4.726 0 0 1-2.768-.756c-.094-.075-.113-.135-.109-.149s.026-.03.109-.04a9.728 9.728 0 0 0 4.431-1.512 10.367 10.367 0 0 0 2.667-2.661c.126-.169.25-.35.369-.526.534-.782 1.037-1.52 1.775-1.372 1.017.205 1.255.572 1.361.938a2.523 2.523 0 0 1-.365 1.732 6.162 6.162 0 0 1-1 1.343 11.043 11.043 0 0 1-1.851 1.514m2.373-6.033h.055a.147.147 0 0 0 .146-.074 2.34 2.34 0 0 0 .338-2.047l.123-.01a.777.777 0 0 1 .164.382 3.069 3.069 0 0 1-.35 1.72.149.149 0 0 0 .03.165l.024.024a.548.548 0 0 1 .187.539 2.433 2.433 0 0 0-1.08-.469.482.482 0 0 1 .04-.06.388.388 0 0 1 .323-.173" style="fill:#045768"/>
            <path data-name="Path 428" d="M11.464 7.241a.148.148 0 0 0-.2.071A7.663 7.663 0 0 1 10.1 8.959a.151.151 0 0 0 .011.212.145.145 0 0 0 .1.039.151.151 0 0 0 .11-.049 9.1 9.1 0 0 0 .925-1.209 5.354 5.354 0 0 0 .292-.512.151.151 0 0 0-.071-.2" style="fill:#045768"/>
        </g>
    </g>
</svg>
