<svg xmlns="http://www.w3.org/2000/svg" width="16.601" height="16.686" viewBox="0 0 16.601 16.686">
    <defs>
        <clipPath id="nwr9yai8ya">
            <path data-name="Rectangle 124" style="fill:#045768" d="M0 0h16.601v16.686H0z"/>
        </clipPath>
    </defs>
    <g data-name="Group 181">
        <g data-name="Group 180" style="clip-path:url(#nwr9yai8ya)">
            <path data-name="Path 429" d="M8.3 16.686a8.343 8.343 0 1 1 8.3-8.343 8.331 8.331 0 0 1-8.3 8.343m0-16.3a7.958 7.958 0 1 0 7.917 7.958A7.945 7.945 0 0 0 8.3.385" style="fill:#045768"/>
            <path data-name="Path 430" d="M8.007 13.973a.2.2 0 0 1-.189-.148L5.144 3.044a.195.195 0 1 1 .378-.1L8.2 13.73a.2.2 0 0 1-.142.237.184.184 0 0 1-.047.006" style="fill:#045768"/>
            <path data-name="Path 431" d="M7.7 12.725h-.026a4.861 4.861 0 0 1-3.74-3.308c-1.17-3.27 1.122-6.487 1.22-6.623a.2.2 0 0 1 .272-.043.2.2 0 0 1 .043.274C5.446 3.056 3.2 6.213 4.3 9.283a4.473 4.473 0 0 0 3.421 3.052.2.2 0 0 1-.024.39" style="fill:#045768"/>
            <path data-name="Path 432" d="M7.7 12.725a.194.194 0 0 1-.159-.083.2.2 0 0 1 .047-.273A4.5 4.5 0 0 0 9.181 8.06c-.464-3.23-3.92-4.96-3.955-4.974a.2.2 0 0 1-.089-.262.193.193 0 0 1 .26-.09c.15.073 3.676 1.832 4.169 5.27a4.886 4.886 0 0 1-1.756 4.685.194.194 0 0 1-.112.036" style="fill:#045768"/>
            <path data-name="Path 433" d="M7.174 10.613a.192.192 0 0 1-.1-.028.2.2 0 0 1-.067-.269L8.988 7a.194.194 0 1 1 .333.2l-1.98 3.313a.194.194 0 0 1-.167.1" style="fill:#045768"/>
            <path data-name="Path 434" d="M6.454 7.711a.192.192 0 0 1-.1-.028.2.2 0 0 1-.067-.269l1.472-2.462a.2.2 0 1 1 .334.2L6.621 7.616a.194.194 0 0 1-.167.095" style="fill:#045768"/>
            <path data-name="Path 435" d="M7.174 10.613a.192.192 0 0 1-.1-.028L3.822 8.621a.2.2 0 0 1-.067-.269.194.194 0 0 1 .268-.066l3.251 1.963a.2.2 0 0 1-.1.364" style="fill:#045768"/>
            <path data-name="Path 436" d="M6.454 7.711a.192.192 0 0 1-.1-.028L3.922 6.214a.2.2 0 0 1 .2-.335l2.432 1.468a.2.2 0 0 1-.1.364" style="fill:#045768"/>
            <path data-name="Path 437" d="M9.473 9.357a.186.186 0 0 1-.091-.023.2.2 0 0 1-.082-.265l2.732-5.163a.193.193 0 0 1 .263-.081.2.2 0 0 1 .081.265L9.645 9.253a.194.194 0 0 1-.172.1" style="fill:#045768"/>
            <path data-name="Path 438" d="M8.616 5.99a.2.2 0 0 1-.13-.341 8.868 8.868 0 0 1 3.714-1.92.2.2 0 0 1 .08.383A8.648 8.648 0 0 0 8.746 5.94a.194.194 0 0 1-.13.05" style="fill:#045768"/>
            <path data-name="Path 439" d="M7.987 12.726a2.6 2.6 0 0 1-.312-.015.2.2 0 0 1 .046-.389 4.378 4.378 0 0 0 3.979-2.089c1.772-2.662.38-6.2.366-6.239a.195.195 0 1 1 .361-.147c.061.152 1.485 3.767-.4 6.6a4.82 4.82 0 0 1-4.036 2.276" style="fill:#045768"/>
            <path data-name="Path 440" d="M9.012 10.8a.193.193 0 0 1-.054-.089.2.2 0 0 1 .134-.242l3.027-.869a.2.2 0 0 1 .107.376l-3.026.867a.194.194 0 0 1-.187-.045" style="fill:#045768"/>
            <path data-name="Path 441" d="M9.912 8.334A.2.2 0 0 1 9.992 8l2.623-.748a.2.2 0 0 1 .107.376l-2.622.751a.194.194 0 0 1-.187-.045" style="fill:#045768"/>
        </g>
    </g>
</svg>
